<?xml version="1.0" encoding="utf-8"?>
<!-- Generator: Adobe Illustrator 16.0.0, SVG Export Plug-In . SVG Version: 6.00 Build 0)  -->
<!DOCTYPE svg PUBLIC "-//W3C//DTD SVG 1.1//EN" "http://www.w3.org/Graphics/SVG/1.1/DTD/svg11.dtd">
<svg version="1.1" xmlns="http://www.w3.org/2000/svg" xmlns:xlink="http://www.w3.org/1999/xlink" x="0px" y="0px" width="50px"
	 height="50px" viewBox="0 0 50 50" enable-background="new 0 0 50 50" xml:space="preserve">
<g id="text">
</g>
<g id="_x31_">
</g>
<g id="_x32_">
</g>
<g id="_x33__1_">
</g>
<g id="_x34_">
</g>
<g id="_x35_">
</g>
<g id="_x36_">
</g>
<g id="_x37_">
</g>
<g id="_x38_">
	<g>
		<path d="M9.15,27.929c1.066,0,2.133,0,3.199,0c0.42,0,0.7-0.274,0.844-0.643c0.497-1.28,0.995-2.561,1.493-3.84
			c0.635,1.305,1.271,2.609,1.905,3.914c0.339,0.695,1.418,0.489,1.6-0.209c0.923-3.544,1.846-7.088,2.769-10.632
			c0.786,3.589,1.572,7.179,2.358,10.768c0.202,0.922,1.403,0.742,1.688,0c0.868-2.27,1.736-4.54,2.604-6.81
			c0.722,2.243,1.443,4.485,2.166,6.728c0.222,0.69,1.224,0.907,1.6,0.209c0.485-0.901,0.971-1.803,1.455-2.704
			c0.322,0.859,0.645,1.718,0.966,2.577c0.139,0.37,0.428,0.643,0.844,0.643c2.736,0,5.473,0,8.209,0c1.129,0,1.129-1.75,0-1.75
			c-2.366,0-4.732,0-7.1,0c-0.308,0-0.49,0.043-0.598,0.096c0.009-0.157-0.031-0.425-0.195-0.863
			c-0.381-1.015-0.761-2.029-1.141-3.044c-0.249-0.664-1.211-0.93-1.6-0.209c-0.465,0.863-0.93,1.727-1.394,2.59
			c-0.766-2.378-1.531-4.756-2.297-7.133c-0.279-0.867-1.383-0.797-1.688,0c-0.816,2.133-1.632,4.267-2.447,6.4
			c-0.839-3.827-1.678-7.654-2.516-11.481c-0.188-0.858-1.475-0.816-1.688,0c-1.031,3.958-2.062,7.917-3.092,11.875
			c-0.581-1.193-1.162-2.387-1.743-3.581c-0.366-0.752-1.353-0.426-1.6,0.209c-0.588,1.511-1.175,3.023-1.763,4.534
			c-0.115,0.298-0.2,0.481-0.264,0.607c-0.858,0-1.719,0-2.577,0C8.021,26.179,8.021,27.929,9.15,27.929z"/>
		<path d="M0.332,4.633v32.532h17.69v6.698h13.349v-6.698h18.297V4.633H0.332z M44.668,32.165H5.332V9.633h39.336V32.165z"/>
		<rect x="10.835" y="43.99" width="27.723" height="1.377"/>
	</g>
</g>
<g id="_x39_">
</g>
<g id="_x31_0">
</g>
<g id="_x31_1">
</g>
<g id="_x31_2">
</g>
<g id="_x31_3">
</g>
<g id="_x31_4">
</g>
<g id="_x31_5">
</g>
<g id="_x31_6">
</g>
<g id="_x31_7">
</g>
<g id="_x31_8">
</g>
<g id="_x31_9">
</g>
<g id="_x32_0">
</g>
<g id="_x32_1">
</g>
<g id="_x32_2">
</g>
<g id="_x32_3">
</g>
<g id="_x32_4">
</g>
<g id="_x32_5">
</g>
<g id="_x32_6">
</g>
<g id="_x32_7">
</g>
<g id="_x32_8">
</g>
<g id="_x32_9">
</g>
<g id="_x33_0">
</g>
<g id="_x33_1">
</g>
<g id="_x33_2">
</g>
<g id="_x33_3">
</g>
<g id="_x33_4">
</g>
<g id="_x33_5">
</g>
<g id="_x33_6">
</g>
<g id="_x33_7">
</g>
<g id="_x33_8">
</g>
<g id="_x33_9">
</g>
<g id="_x34_0">
</g>
<g id="_x34_1">
</g>
<g id="_x34_2">
</g>
<g id="_x34_3">
</g>
<g id="_x34_4">
</g>
<g id="_x34_5">
</g>
<g id="_x34_6">
</g>
<g id="_x34_7">
</g>
<g id="_x34_8">
</g>
<g id="_x34_9">
</g>
<g id="_x35_0">
</g>
<g id="_x35_1">
</g>
<g id="_x35_2">
</g>
<g id="_x35_3">
</g>
<g id="_x35_4">
</g>
<g id="_x35_5">
</g>
<g id="_x35_6">
</g>
<g id="_x35_7">
</g>
<g id="_x35_8">
</g>
<g id="_x35_9">
</g>
<g id="_x36_0">
</g>
<g id="_x36_1">
</g>
<g id="_x36_2">
</g>
<g id="_x36_3">
</g>
<g id="_x36_4">
</g>
<g id="_x36_5">
</g>
<g id="_x36_6">
</g>
<g id="_x36_7">
</g>
<g id="_x36_8">
</g>
<g id="_x36_9">
</g>
<g id="_x37_0">
</g>
<g id="_x37_1">
</g>
<g id="_x37_2">
</g>
<g id="_x37_3">
</g>
<g id="_x37_4">
</g>
<g id="_x37_5">
</g>
<g id="_x37_6">
</g>
<g id="_x37_7">
</g>
<g id="_x37_8">
</g>
<g id="_x37_9">
</g>
<g id="_x38_0">
</g>
<g id="_x38_1">
</g>
<g id="_x38_2">
</g>
<g id="_x38_3">
</g>
<g id="_x38_4">
</g>
<g id="_x38_5">
</g>
<g id="_x38_6">
</g>
<g id="_x38_7">
</g>
<g id="_x38_8">
</g>
<g id="_x38_9">
</g>
<g id="_x39_0">
</g>
<g id="_x39_1">
</g>
<g id="_x39_2">
</g>
<g id="_x39_3">
</g>
<g id="_x39_4">
</g>
<g id="_x39_5">
</g>
<g id="_x39_6">
</g>
<g id="_x39_7">
</g>
<g id="_x39_8">
</g>
<g id="_x39_9">
</g>
<g id="_x31_00">
</g>
<g id="_x31_01">
</g>
<g id="_x31_02">
</g>
<g id="_x31_03">
</g>
<g id="_x31_04">
</g>
<g id="_x31_05">
</g>
<g id="_x31_06">
</g>
<g id="_x31_07">
</g>
<g id="_x31_08">
</g>
<g id="_x31_09">
</g>
<g id="_x31_10">
</g>
<g id="_x31_11">
</g>
<g id="_x31_12">
</g>
<g id="_x31_13">
</g>
<g id="_x31_14">
</g>
<g id="_x31_15">
</g>
<g id="_x31_16">
</g>
<g id="_x31_17">
</g>
<g id="_x31_18">
</g>
<g id="_x31_19">
</g>
<g id="_x31_20">
</g>
<g id="_x31_21">
</g>
<g id="_x31_22">
</g>
<g id="_x31_23">
</g>
<g id="_x31_24">
</g>
<g id="_x31_25">
</g>
<g id="_x31_26">
</g>
<g id="_x31_27">
</g>
<g id="_x31_28">
</g>
<g id="_x31_29">
</g>
<g id="_x31_30">
</g>
<g id="_x31_31">
</g>
<g id="_x31_32">
</g>
<g id="_x31_33">
</g>
<g id="_x31_34">
</g>
<g id="_x31_35">
</g>
<g id="_x31_36">
</g>
<g id="_x31_37">
</g>
<g id="_x31_38">
</g>
<g id="_x31_39">
</g>
<g id="_x31_40">
</g>
<g id="_x31_41">
</g>
<g id="_x31_42">
</g>
<g id="_x31_43">
</g>
<g id="_x31_44">
</g>
<g id="_x31_45">
</g>
<g id="_x31_46">
</g>
<g id="_x31_47">
</g>
<g id="_x31_48">
</g>
<g id="_x31_49">
</g>
<g id="_x31_50">
</g>
<g id="_x31_51">
</g>
<g id="_x31_52">
</g>
<g id="_x31_53">
</g>
<g id="_x31_54">
</g>
<g id="_x31_55">
</g>
<g id="_x31_56">
</g>
<g id="_x31_57">
</g>
<g id="_x31_58">
</g>
<g id="_x31_59">
</g>
<g id="_x31_60">
</g>
<g id="_x31_61">
</g>
<g id="_x31_62">
</g>
<g id="_x31_63">
</g>
<g id="_x31_64">
</g>
<g id="_x31_65">
</g>
<g id="_x31_66">
</g>
<g id="_x31_67">
</g>
<g id="_x31_68">
</g>
<g id="_x31_69">
</g>
<g id="_x31_70">
</g>
<g id="_x31_71">
</g>
<g id="_x31_72">
</g>
<g id="_x31_73">
</g>
<g id="_x31_74">
</g>
<g id="_x31_75">
</g>
<g id="_x31_76">
</g>
<g id="_x31_77">
</g>
<g id="_x31_78">
</g>
<g id="_x31_79">
</g>
<g id="_x31_80">
</g>
<g id="_x31_81">
</g>
<g id="_x31_82">
</g>
<g id="_x31_83">
</g>
<g id="_x31_84">
</g>
<g id="_x31_85">
</g>
<g id="_x31_86">
</g>
<g id="_x31_87">
</g>
<g id="_x31_88">
</g>
<g id="_x31_89">
</g>
<g id="_x31_90">
</g>
</svg>
