<?xml version="1.0" encoding="utf-8"?>
<!-- Generator: Adobe Illustrator 16.0.0, SVG Export Plug-In . SVG Version: 6.00 Build 0)  -->
<!DOCTYPE svg PUBLIC "-//W3C//DTD SVG 1.1//EN" "http://www.w3.org/Graphics/SVG/1.1/DTD/svg11.dtd">
<svg version="1.1" xmlns="http://www.w3.org/2000/svg" xmlns:xlink="http://www.w3.org/1999/xlink" x="0px" y="0px" width="50px"
	 height="50px" viewBox="0 0 50 50" enable-background="new 0 0 50 50" xml:space="preserve">
<g id="text">
</g>
<g id="_x31_">
</g>
<g id="_x32_">
</g>
<g id="_x33__1_">
</g>
<g id="_x34_">
</g>
<g id="_x35_">
</g>
<g id="_x36_">
	<g>
		<path d="M44.107,36.205c0.872,0.051,1.527-0.644,1.708-1.431c0.037-0.093,0.055-0.202,0.048-0.326
			c-0.057-0.995-0.762-1.7-1.756-1.757c-0.703-0.041-1.259,0.404-1.546,0.989c-4.678,0-9.355,0-14.033,0
			c3.415-3.664,6.83-7.328,10.245-10.992c0.093,0.02,0.186,0.038,0.285,0.039c0.909,0.015,1.867-0.628,1.883-1.623
			c0.016-0.91-0.628-1.866-1.623-1.883c-0.995-0.017-1.749,0.634-1.88,1.622c-0.017,0.124-0.007,0.233,0.023,0.329
			c0.027,0.177,0.083,0.349,0.155,0.513c-3.726,3.999-7.452,7.997-11.179,11.995c-0.11,0-0.222,0-0.332,0c0-5.511,0-11.022,0-16.534
			c0.481-0.244,0.827-0.731,0.95-1.266c0.037-0.093,0.056-0.202,0.048-0.326c-0.058-0.996-0.762-1.699-1.757-1.757
			c-0.992-0.057-1.703,0.849-1.756,1.757c-0.04,0.698,0.399,1.251,0.978,1.54c0,5.529,0,11.057,0,16.586c-0.121,0-0.242,0-0.363,0
			c-3.679-3.946-7.356-7.891-11.033-11.838c0.096-0.191,0.164-0.396,0.196-0.608c0.03-0.095,0.04-0.205,0.023-0.329
			c-0.131-0.988-0.885-1.639-1.88-1.622c-0.995,0.017-1.639,0.973-1.623,1.883c0.016,0.994,0.974,1.637,1.883,1.623
			c0.06-0.001,0.113-0.016,0.17-0.023c3.392,3.638,6.782,7.276,10.174,10.915c-4.8,0-9.6,0-14.399,0
			c-0.285-0.566-0.84-0.937-1.547-0.979c-0.992-0.057-1.705,0.849-1.757,1.757c-0.058,0.993,0.849,1.705,1.757,1.757
			c0.707,0.041,1.267-0.41,1.552-1c5.275,0,10.551,0,15.827,0c0.411,0.441,0.823,0.883,1.234,1.325
			c0.17,0.181,0.359,0.244,0.538,0.224c0.168,0.019,0.346-0.043,0.509-0.202c0.023-0.018,0.043-0.037,0.064-0.058
			c0.4-0.43,0.801-0.859,1.201-1.289c5.142,0,10.283,0,15.425,0C42.816,35.79,43.458,36.168,44.107,36.205z"/>
		<path d="M23.617,19.904v-1.236c-1.118-0.511-1.998-1.572-2.087-3.213c-0.112-2.091,1.771-3.593,3.698-3.696
			c2.09-0.113,3.591,1.77,3.695,3.696c-0.083,1.523-0.845,2.555-1.849,3.103v1.363c1.711-0.736,2.846-2.587,2.946-4.466
			c-0.333-6.174-9.256-6.174-9.589,0C20.319,17.567,21.785,19.215,23.617,19.904z"/>
		<path d="M2.229,34.375c-0.112-2.091,1.77-3.593,3.696-3.696c1.478-0.08,2.648,0.844,3.252,2.068h1.214
			c-1.665-4.486-8.961-3.944-9.26,1.628c-0.146,2.708,2.3,4.66,4.794,4.794c2.092,0.112,3.728-1.322,4.429-3.129H9.178
			C7.615,39.044,2.449,38.494,2.229,34.375z"/>
		<path d="M39.57,32.802h1.104c0.588-1.276,1.982-2.12,3.405-2.197c2.091-0.112,3.593,1.77,3.697,3.697
			c-0.219,4.057-5.229,4.646-6.873,1.793h-1.312c0.721,1.742,2.589,2.899,4.487,3.001c2.709,0.146,4.66-2.3,4.795-4.794
			C48.572,28.677,41.142,28.178,39.57,32.802z"/>
		<path d="M12.021,25.632c0.45-0.01,0.872-0.093,1.268-0.231l-0.95-1.052c-1.893,0.34-4.032-0.675-4.359-3.224
			c-0.268-2.078,1.499-3.714,3.412-3.961c2.077-0.267,3.713,1.499,3.961,3.413c0.014,0.689-0.131,1.279-0.369,1.788l0.784,0.866
			c0.456-0.829,0.697-1.788,0.68-2.735c-0.79-6.134-9.689-5.472-9.563,0.711C6.939,23.918,9.523,25.683,12.021,25.632z"/>
		<path d="M35.66,22.365c-0.238-0.509-0.383-1.099-0.369-1.788c0.248-1.914,1.884-3.679,3.961-3.413
			c1.913,0.247,3.68,1.883,3.412,3.961c-0.327,2.548-2.467,3.563-4.359,3.224l-0.95,1.052c0.396,0.138,0.817,0.221,1.268,0.231
			c2.498,0.051,5.082-1.713,5.138-4.425c0.126-6.183-8.773-6.845-9.563-0.711c-0.018,0.947,0.224,1.906,0.68,2.735L35.66,22.365z"/>
	</g>
</g>
<g id="_x37_">
</g>
<g id="_x38_">
</g>
<g id="_x39_">
</g>
<g id="_x31_0">
</g>
<g id="_x31_1">
</g>
<g id="_x31_2">
</g>
<g id="_x31_3">
</g>
<g id="_x31_4">
</g>
<g id="_x31_5">
</g>
<g id="_x31_6">
</g>
<g id="_x31_7">
</g>
<g id="_x31_8">
</g>
<g id="_x31_9">
</g>
<g id="_x32_0">
</g>
<g id="_x32_1">
</g>
<g id="_x32_2">
</g>
<g id="_x32_3">
</g>
<g id="_x32_4">
</g>
<g id="_x32_5">
</g>
<g id="_x32_6">
</g>
<g id="_x32_7">
</g>
<g id="_x32_8">
</g>
<g id="_x32_9">
</g>
<g id="_x33_0">
</g>
<g id="_x33_1">
</g>
<g id="_x33_2">
</g>
<g id="_x33_3">
</g>
<g id="_x33_4">
</g>
<g id="_x33_5">
</g>
<g id="_x33_6">
</g>
<g id="_x33_7">
</g>
<g id="_x33_8">
</g>
<g id="_x33_9">
</g>
<g id="_x34_0">
</g>
<g id="_x34_1">
</g>
<g id="_x34_2">
</g>
<g id="_x34_3">
</g>
<g id="_x34_4">
</g>
<g id="_x34_5">
</g>
<g id="_x34_6">
</g>
<g id="_x34_7">
</g>
<g id="_x34_8">
</g>
<g id="_x34_9">
</g>
<g id="_x35_0">
</g>
<g id="_x35_1">
</g>
<g id="_x35_2">
</g>
<g id="_x35_3">
</g>
<g id="_x35_4">
</g>
<g id="_x35_5">
</g>
<g id="_x35_6">
</g>
<g id="_x35_7">
</g>
<g id="_x35_8">
</g>
<g id="_x35_9">
</g>
<g id="_x36_0">
</g>
<g id="_x36_1">
</g>
<g id="_x36_2">
</g>
<g id="_x36_3">
</g>
<g id="_x36_4">
</g>
<g id="_x36_5">
</g>
<g id="_x36_6">
</g>
<g id="_x36_7">
</g>
<g id="_x36_8">
</g>
<g id="_x36_9">
</g>
<g id="_x37_0">
</g>
<g id="_x37_1">
</g>
<g id="_x37_2">
</g>
<g id="_x37_3">
</g>
<g id="_x37_4">
</g>
<g id="_x37_5">
</g>
<g id="_x37_6">
</g>
<g id="_x37_7">
</g>
<g id="_x37_8">
</g>
<g id="_x37_9">
</g>
<g id="_x38_0">
</g>
<g id="_x38_1">
</g>
<g id="_x38_2">
</g>
<g id="_x38_3">
</g>
<g id="_x38_4">
</g>
<g id="_x38_5">
</g>
<g id="_x38_6">
</g>
<g id="_x38_7">
</g>
<g id="_x38_8">
</g>
<g id="_x38_9">
</g>
<g id="_x39_0">
</g>
<g id="_x39_1">
</g>
<g id="_x39_2">
</g>
<g id="_x39_3">
</g>
<g id="_x39_4">
</g>
<g id="_x39_5">
</g>
<g id="_x39_6">
</g>
<g id="_x39_7">
</g>
<g id="_x39_8">
</g>
<g id="_x39_9">
</g>
<g id="_x31_00">
</g>
<g id="_x31_01">
</g>
<g id="_x31_02">
</g>
<g id="_x31_03">
</g>
<g id="_x31_04">
</g>
<g id="_x31_05">
</g>
<g id="_x31_06">
</g>
<g id="_x31_07">
</g>
<g id="_x31_08">
</g>
<g id="_x31_09">
</g>
<g id="_x31_10">
</g>
<g id="_x31_11">
</g>
<g id="_x31_12">
</g>
<g id="_x31_13">
</g>
<g id="_x31_14">
</g>
<g id="_x31_15">
</g>
<g id="_x31_16">
</g>
<g id="_x31_17">
</g>
<g id="_x31_18">
</g>
<g id="_x31_19">
</g>
<g id="_x31_20">
</g>
<g id="_x31_21">
</g>
<g id="_x31_22">
</g>
<g id="_x31_23">
</g>
<g id="_x31_24">
</g>
<g id="_x31_25">
</g>
<g id="_x31_26">
</g>
<g id="_x31_27">
</g>
<g id="_x31_28">
</g>
<g id="_x31_29">
</g>
<g id="_x31_30">
</g>
<g id="_x31_31">
</g>
<g id="_x31_32">
</g>
<g id="_x31_33">
</g>
<g id="_x31_34">
</g>
<g id="_x31_35">
</g>
<g id="_x31_36">
</g>
<g id="_x31_37">
</g>
<g id="_x31_38">
</g>
<g id="_x31_39">
</g>
<g id="_x31_40">
</g>
<g id="_x31_41">
</g>
<g id="_x31_42">
</g>
<g id="_x31_43">
</g>
<g id="_x31_44">
</g>
<g id="_x31_45">
</g>
<g id="_x31_46">
</g>
<g id="_x31_47">
</g>
<g id="_x31_48">
</g>
<g id="_x31_49">
</g>
<g id="_x31_50">
</g>
<g id="_x31_51">
</g>
<g id="_x31_52">
</g>
<g id="_x31_53">
</g>
<g id="_x31_54">
</g>
<g id="_x31_55">
</g>
<g id="_x31_56">
</g>
<g id="_x31_57">
</g>
<g id="_x31_58">
</g>
<g id="_x31_59">
</g>
<g id="_x31_60">
</g>
<g id="_x31_61">
</g>
<g id="_x31_62">
</g>
<g id="_x31_63">
</g>
<g id="_x31_64">
</g>
<g id="_x31_65">
</g>
<g id="_x31_66">
</g>
<g id="_x31_67">
</g>
<g id="_x31_68">
</g>
<g id="_x31_69">
</g>
<g id="_x31_70">
</g>
<g id="_x31_71">
</g>
<g id="_x31_72">
</g>
<g id="_x31_73">
</g>
<g id="_x31_74">
</g>
<g id="_x31_75">
</g>
<g id="_x31_76">
</g>
<g id="_x31_77">
</g>
<g id="_x31_78">
</g>
<g id="_x31_79">
</g>
<g id="_x31_80">
</g>
<g id="_x31_81">
</g>
<g id="_x31_82">
</g>
<g id="_x31_83">
</g>
<g id="_x31_84">
</g>
<g id="_x31_85">
</g>
<g id="_x31_86">
</g>
<g id="_x31_87">
</g>
<g id="_x31_88">
</g>
<g id="_x31_89">
</g>
<g id="_x31_90">
</g>
</svg>
