<?xml version="1.0" encoding="utf-8"?>
<!-- Generator: Adobe Illustrator 16.0.0, SVG Export Plug-In . SVG Version: 6.00 Build 0)  -->
<!DOCTYPE svg PUBLIC "-//W3C//DTD SVG 1.1//EN" "http://www.w3.org/Graphics/SVG/1.1/DTD/svg11.dtd">
<svg version="1.1" xmlns="http://www.w3.org/2000/svg" xmlns:xlink="http://www.w3.org/1999/xlink" x="0px" y="0px" width="50px"
	 height="50px" viewBox="0 0 50 50" enable-background="new 0 0 50 50" xml:space="preserve">
<g id="text">
</g>
<g id="_x31_">
</g>
<g id="_x32_">
</g>
<g id="_x33__1_">
</g>
<g id="_x34_">
</g>
<g id="_x35_">
</g>
<g id="_x36_">
</g>
<g id="_x37_">
</g>
<g id="_x38_">
</g>
<g id="_x39_">
</g>
<g id="_x31_0">
</g>
<g id="_x31_1">
</g>
<g id="_x31_2">
</g>
<g id="_x31_3">
</g>
<g id="_x31_4">
</g>
<g id="_x31_5">
</g>
<g id="_x31_6">
</g>
<g id="_x31_7">
</g>
<g id="_x31_8">
</g>
<g id="_x31_9">
</g>
<g id="_x32_0">
</g>
<g id="_x32_1">
</g>
<g id="_x32_2">
</g>
<g id="_x32_3">
</g>
<g id="_x32_4">
</g>
<g id="_x32_5">
</g>
<g id="_x32_6">
</g>
<g id="_x32_7">
</g>
<g id="_x32_8">
</g>
<g id="_x32_9">
</g>
<g id="_x33_0">
</g>
<g id="_x33_1">
</g>
<g id="_x33_2">
</g>
<g id="_x33_3">
</g>
<g id="_x33_4">
</g>
<g id="_x33_5">
</g>
<g id="_x33_6">
</g>
<g id="_x33_7">
</g>
<g id="_x33_8">
</g>
<g id="_x33_9">
</g>
<g id="_x34_0">
</g>
<g id="_x34_1">
</g>
<g id="_x34_2">
</g>
<g id="_x34_3">
</g>
<g id="_x34_4">
</g>
<g id="_x34_5">
</g>
<g id="_x34_6">
</g>
<g id="_x34_7">
</g>
<g id="_x34_8">
</g>
<g id="_x34_9">
</g>
<g id="_x35_0">
</g>
<g id="_x35_1">
</g>
<g id="_x35_2">
</g>
<g id="_x35_3">
</g>
<g id="_x35_4">
</g>
<g id="_x35_5">
</g>
<g id="_x35_6">
</g>
<g id="_x35_7">
</g>
<g id="_x35_8">
</g>
<g id="_x35_9">
</g>
<g id="_x36_0">
</g>
<g id="_x36_1">
</g>
<g id="_x36_2">
</g>
<g id="_x36_3">
</g>
<g id="_x36_4">
</g>
<g id="_x36_5">
</g>
<g id="_x36_6">
</g>
<g id="_x36_7">
</g>
<g id="_x36_8">
</g>
<g id="_x36_9">
</g>
<g id="_x37_0">
</g>
<g id="_x37_1">
</g>
<g id="_x37_2">
</g>
<g id="_x37_3">
</g>
<g id="_x37_4">
</g>
<g id="_x37_5">
</g>
<g id="_x37_6">
</g>
<g id="_x37_7">
</g>
<g id="_x37_8">
</g>
<g id="_x37_9">
</g>
<g id="_x38_0">
</g>
<g id="_x38_1">
</g>
<g id="_x38_2">
</g>
<g id="_x38_3">
</g>
<g id="_x38_4">
</g>
<g id="_x38_5">
</g>
<g id="_x38_6">
</g>
<g id="_x38_7">
</g>
<g id="_x38_8">
</g>
<g id="_x38_9">
</g>
<g id="_x39_0">
</g>
<g id="_x39_1">
</g>
<g id="_x39_2">
</g>
<g id="_x39_3">
</g>
<g id="_x39_4">
</g>
<g id="_x39_5">
</g>
<g id="_x39_6">
</g>
<g id="_x39_7">
</g>
<g id="_x39_8">
</g>
<g id="_x39_9">
</g>
<g id="_x31_00">
</g>
<g id="_x31_01">
</g>
<g id="_x31_02">
</g>
<g id="_x31_03">
</g>
<g id="_x31_04">
</g>
<g id="_x31_05">
</g>
<g id="_x31_06">
</g>
<g id="_x31_07">
</g>
<g id="_x31_08">
</g>
<g id="_x31_09">
</g>
<g id="_x31_10">
</g>
<g id="_x31_11">
</g>
<g id="_x31_12">
</g>
<g id="_x31_13">
</g>
<g id="_x31_14">
</g>
<g id="_x31_15">
</g>
<g id="_x31_16">
</g>
<g id="_x31_17">
</g>
<g id="_x31_18">
</g>
<g id="_x31_19">
</g>
<g id="_x31_20">
	<g>
		<path d="M43.66,28.831c-0.571,0-1.047,0.408-1.154,0.948c-1.113,0-2.229,0-3.343,0c0.841-0.797,1.681-1.595,2.522-2.392
			c0.196,0.148,0.439,0.241,0.705,0.241c0.649,0,1.176-0.526,1.176-1.177c0-0.649-0.526-1.176-1.176-1.176s-1.176,0.526-1.176,1.176
			c0,0.249,0.078,0.478,0.21,0.668c-0.841,0.797-1.682,1.595-2.522,2.393c-0.063-0.058-0.138-0.099-0.221-0.124
			c0-1.145,0-2.288,0-3.432c0.561-0.09,0.99-0.572,0.99-1.158c0-0.648-0.527-1.176-1.177-1.176s-1.176,0.527-1.176,1.176
			c0,0.586,0.429,1.068,0.988,1.158c0,1.144,0,2.287,0,3.432c-0.046,0.015-0.087,0.037-0.129,0.062
			c-0.802-0.761-1.603-1.521-2.403-2.279c0.154-0.2,0.251-0.446,0.251-0.719c0-0.649-0.526-1.176-1.177-1.176
			c-0.649,0-1.176,0.526-1.176,1.176c0,0.65,0.526,1.177,1.176,1.177c0.243,0,0.468-0.075,0.655-0.2
			c0.808,0.766,1.615,1.532,2.423,2.298c-0.008,0.016-0.006,0.035-0.012,0.053c-1.12,0-2.24,0-3.361,0
			c-0.09-0.561-0.571-0.989-1.158-0.989c-0.648,0-1.175,0.527-1.175,1.176c0,0.65,0.526,1.177,1.175,1.177
			c0.587,0,1.068-0.429,1.158-0.99c1.121,0,2.241,0,3.361,0c0.023,0.073,0.06,0.137,0.106,0.195
			c-0.776,0.735-1.553,1.472-2.329,2.209c-0.204-0.168-0.46-0.273-0.746-0.273c-0.649,0-1.176,0.526-1.176,1.175
			c0,0.65,0.526,1.177,1.176,1.177c0.65,0,1.177-0.526,1.177-1.177c0-0.229-0.069-0.441-0.183-0.622
			c0.789-0.748,1.578-1.497,2.366-2.246c0,1.076,0,2.152,0,3.229c-0.56,0.09-0.988,0.571-0.988,1.157
			c0,0.649,0.526,1.176,1.176,1.176s1.177-0.526,1.177-1.176c0-0.586-0.43-1.067-0.99-1.157c0-1.091,0-2.184,0-3.274
			c0.027-0.009,0.053-0.017,0.078-0.028c0.787,0.746,1.573,1.492,2.359,2.237c-0.148,0.197-0.239,0.439-0.239,0.704
			c0,0.65,0.526,1.177,1.177,1.177c0.648,0,1.175-0.526,1.175-1.177c0-0.648-0.526-1.175-1.175-1.175c-0.25,0-0.48,0.078-0.671,0.21
			c-0.785-0.745-1.571-1.491-2.357-2.237c0.019-0.032,0.033-0.065,0.045-0.104c1.142,0,2.283,0,3.426,0
			c0.071,0.581,0.561,1.031,1.161,1.031c0.649,0,1.176-0.526,1.176-1.176C44.836,29.357,44.31,28.831,43.66,28.831z"/>
		<path d="M39.093,20.748c0.23,0,0.457,0.019,0.684,0.034c0.032-0.226,0.057-0.453,0.069-0.682
			c-0.223-4.134-3.166-7.074-7.297-7.297c-2.424-0.13-4.445,1.107-5.742,2.917c-1.295-1.706-3.311-2.785-5.746-2.917
			c-4.123-0.222-7.09,3.5-7.295,7.297c-0.023,0.488,0.008,0.957,0.084,1.411c-0.258-0.037-0.521-0.062-0.789-0.077
			c-4.457-0.24-7.664,3.783-7.885,7.885c-0.227,4.193,3.32,7.279,7.158,7.813v0.073h19.554c-1.613-1.749-2.607-4.078-2.607-6.646
			C29.28,25.141,33.674,20.748,39.093,20.748z"/>
	</g>
</g>
<g id="_x31_21">
</g>
<g id="_x31_22">
</g>
<g id="_x31_23">
</g>
<g id="_x31_24">
</g>
<g id="_x31_25">
</g>
<g id="_x31_26">
</g>
<g id="_x31_27">
</g>
<g id="_x31_28">
</g>
<g id="_x31_29">
</g>
<g id="_x31_30">
</g>
<g id="_x31_31">
</g>
<g id="_x31_32">
</g>
<g id="_x31_33">
</g>
<g id="_x31_34">
</g>
<g id="_x31_35">
</g>
<g id="_x31_36">
</g>
<g id="_x31_37">
</g>
<g id="_x31_38">
</g>
<g id="_x31_39">
</g>
<g id="_x31_40">
</g>
<g id="_x31_41">
</g>
<g id="_x31_42">
</g>
<g id="_x31_43">
</g>
<g id="_x31_44">
</g>
<g id="_x31_45">
</g>
<g id="_x31_46">
</g>
<g id="_x31_47">
</g>
<g id="_x31_48">
</g>
<g id="_x31_49">
</g>
<g id="_x31_50">
</g>
<g id="_x31_51">
</g>
<g id="_x31_52">
</g>
<g id="_x31_53">
</g>
<g id="_x31_54">
</g>
<g id="_x31_55">
</g>
<g id="_x31_56">
</g>
<g id="_x31_57">
</g>
<g id="_x31_58">
</g>
<g id="_x31_59">
</g>
<g id="_x31_60">
</g>
<g id="_x31_61">
</g>
<g id="_x31_62">
</g>
<g id="_x31_63">
</g>
<g id="_x31_64">
</g>
<g id="_x31_65">
</g>
<g id="_x31_66">
</g>
<g id="_x31_67">
</g>
<g id="_x31_68">
</g>
<g id="_x31_69">
</g>
<g id="_x31_70">
</g>
<g id="_x31_71">
</g>
<g id="_x31_72">
</g>
<g id="_x31_73">
</g>
<g id="_x31_74">
</g>
<g id="_x31_75">
</g>
<g id="_x31_76">
</g>
<g id="_x31_77">
</g>
<g id="_x31_78">
</g>
<g id="_x31_79">
</g>
<g id="_x31_80">
</g>
<g id="_x31_81">
</g>
<g id="_x31_82">
</g>
<g id="_x31_83">
</g>
<g id="_x31_84">
</g>
<g id="_x31_85">
</g>
<g id="_x31_86">
</g>
<g id="_x31_87">
</g>
<g id="_x31_88">
</g>
<g id="_x31_89">
</g>
<g id="_x31_90">
</g>
</svg>
