<?xml version="1.0" encoding="utf-8"?>
<!-- Generator: Adobe Illustrator 16.0.4, SVG Export Plug-In . SVG Version: 6.00 Build 0)  -->
<!DOCTYPE svg PUBLIC "-//W3C//DTD SVG 1.1//EN" "http://www.w3.org/Graphics/SVG/1.1/DTD/svg11.dtd">
<svg version="1.1" id="Capa_1" xmlns="http://www.w3.org/2000/svg" xmlns:xlink="http://www.w3.org/1999/xlink" x="0px" y="0px"
	 width="50px" height="50px" viewBox="0 0 50 50" enable-background="new 0 0 50 50" xml:space="preserve">
<path d="M25.518,18.147c0.017-0.109,0.028-0.218,0.034-0.329c-0.1-1.843-1.412-3.155-3.254-3.255
	c-1.136-0.061-2.074,0.549-2.648,1.423c-0.579-0.712-1.453-1.158-2.498-1.214c-1.839-0.099-3.163,1.561-3.255,3.255
	c0,0.001,0,0.003,0,0.004c-1.702,0.062-2.907,1.642-2.994,3.254c-0.099,1.839,1.56,3.162,3.252,3.255v0.004h10.861v-0.006
	c1.707-0.056,2.917-1.637,3.003-3.253C27.938,19.705,26.958,18.517,25.518,18.147z M35.648,19.375
	c0-8.783-7.146-15.928-15.927-15.928c-8.782,0-15.929,7.145-15.929,15.928s7.146,15.928,15.928,15.928
	C28.502,35.303,35.648,28.158,35.648,19.375z M19.721,31.305c-6.578,0-11.929-5.352-11.929-11.93S13.143,7.446,19.721,7.446
	c6.578,0,11.929,5.351,11.929,11.929S26.298,31.305,19.721,31.305z M30.449,34.316l3.521-3.522l12.236,12.237l-3.521,3.521
	L30.449,34.316z"/>
</svg>
