<?xml version="1.0" encoding="utf-8"?>
<!-- Generator: Adobe Illustrator 16.0.0, SVG Export Plug-In . SVG Version: 6.00 Build 0)  -->
<!DOCTYPE svg PUBLIC "-//W3C//DTD SVG 1.1//EN" "http://www.w3.org/Graphics/SVG/1.1/DTD/svg11.dtd">
<svg version="1.1" xmlns="http://www.w3.org/2000/svg" xmlns:xlink="http://www.w3.org/1999/xlink" x="0px" y="0px" width="50px"
	 height="50px" viewBox="0 0 50 50" enable-background="new 0 0 50 50" xml:space="preserve">
<g id="text">
</g>
<g id="_x31_">
</g>
<g id="_x32_">
</g>
<g id="_x33__1_">
</g>
<g id="_x34_">
</g>
<g id="_x35_">
</g>
<g id="_x36_">
</g>
<g id="_x37_">
</g>
<g id="_x38_">
</g>
<g id="_x39_">
</g>
<g id="_x31_0">
</g>
<g id="_x31_1">
</g>
<g id="_x31_2">
</g>
<g id="_x31_3">
</g>
<g id="_x31_4">
</g>
<g id="_x31_5">
</g>
<g id="_x31_6">
</g>
<g id="_x31_7">
</g>
<g id="_x31_8">
</g>
<g id="_x31_9">
</g>
<g id="_x32_0">
</g>
<g id="_x32_1">
</g>
<g id="_x32_2">
</g>
<g id="_x32_3">
</g>
<g id="_x32_4">
</g>
<g id="_x32_5">
</g>
<g id="_x32_6">
</g>
<g id="_x32_7">
</g>
<g id="_x32_8">
</g>
<g id="_x32_9">
</g>
<g id="_x33_0">
</g>
<g id="_x33_1">
</g>
<g id="_x33_2">
</g>
<g id="_x33_3">
</g>
<g id="_x33_4">
</g>
<g id="_x33_5">
</g>
<g id="_x33_6">
</g>
<g id="_x33_7">
</g>
<g id="_x33_8">
</g>
<g id="_x33_9">
</g>
<g id="_x34_0">
</g>
<g id="_x34_1">
</g>
<g id="_x34_2">
</g>
<g id="_x34_3">
</g>
<g id="_x34_4">
</g>
<g id="_x34_5">
</g>
<g id="_x34_6">
</g>
<g id="_x34_7">
</g>
<g id="_x34_8">
</g>
<g id="_x34_9">
</g>
<g id="_x35_0">
</g>
<g id="_x35_1">
</g>
<g id="_x35_2">
</g>
<g id="_x35_3">
</g>
<g id="_x35_4">
</g>
<g id="_x35_5">
</g>
<g id="_x35_6">
</g>
<g id="_x35_7">
</g>
<g id="_x35_8">
</g>
<g id="_x35_9">
</g>
<g id="_x36_0">
</g>
<g id="_x36_1">
</g>
<g id="_x36_2">
</g>
<g id="_x36_3">
</g>
<g id="_x36_4">
</g>
<g id="_x36_5">
</g>
<g id="_x36_6">
</g>
<g id="_x36_7">
</g>
<g id="_x36_8">
</g>
<g id="_x36_9">
</g>
<g id="_x37_0">
</g>
<g id="_x37_1">
</g>
<g id="_x37_2">
</g>
<g id="_x37_3">
</g>
<g id="_x37_4">
</g>
<g id="_x37_5">
</g>
<g id="_x37_6">
</g>
<g id="_x37_7">
</g>
<g id="_x37_8">
</g>
<g id="_x37_9">
</g>
<g id="_x38_0">
</g>
<g id="_x38_1">
</g>
<g id="_x38_2">
</g>
<g id="_x38_3">
</g>
<g id="_x38_4">
</g>
<g id="_x38_5">
</g>
<g id="_x38_6">
</g>
<g id="_x38_7">
</g>
<g id="_x38_8">
</g>
<g id="_x38_9">
</g>
<g id="_x39_0">
</g>
<g id="_x39_1">
</g>
<g id="_x39_2">
</g>
<g id="_x39_3">
</g>
<g id="_x39_4">
</g>
<g id="_x39_5">
</g>
<g id="_x39_6">
</g>
<g id="_x39_7">
</g>
<g id="_x39_8">
</g>
<g id="_x39_9">
	<g>
		<path d="M16.944,18.351c0.021-0.092,0.034-0.184,0.039-0.276c-0.046-0.854-0.654-1.463-1.509-1.508
			c-0.501-0.027-0.918,0.229-1.187,0.602c-0.269-0.353-0.686-0.575-1.189-0.602c-0.852-0.047-1.465,0.723-1.508,1.508
			c-0.005,0.102,0.002,0.199,0.018,0.292c-0.054-0.008-0.107-0.014-0.163-0.017c-0.922-0.049-1.585,0.783-1.63,1.631
			c-0.048,0.867,0.687,1.505,1.48,1.616v0.015h6.013v-0.019c0.756-0.129,1.277-0.862,1.318-1.612
			c-0.049-0.923-0.706-1.58-1.63-1.631C16.979,18.349,16.962,18.351,16.944,18.351z"/>
		<path d="M29.88,21.275v0.015h6.013v-0.019c0.756-0.129,1.277-0.862,1.318-1.612c-0.049-0.924-0.706-1.58-1.63-1.631
			c-0.019-0.001-0.035,0.001-0.053,0.001c0.021-0.092,0.034-0.184,0.039-0.276c-0.046-0.854-0.654-1.463-1.509-1.508
			c-0.501-0.027-0.918,0.228-1.187,0.602c-0.269-0.353-0.686-0.575-1.189-0.602c-0.852-0.047-1.465,0.723-1.508,1.508
			c-0.005,0.102,0.002,0.198,0.018,0.292c-0.054-0.008-0.107-0.014-0.163-0.017c-0.922-0.049-1.585,0.782-1.63,1.631
			C28.353,20.526,29.086,21.164,29.88,21.275z"/>
		<path d="M20.767,17.438v0.014h5.438v-0.018c0.684-0.116,1.155-0.778,1.192-1.457c-0.045-0.835-0.639-1.43-1.475-1.475
			c-0.016-0.001-0.032,0.001-0.048,0.001c0.019-0.083,0.032-0.166,0.035-0.251c-0.04-0.773-0.592-1.322-1.364-1.363
			c-0.453-0.024-0.83,0.206-1.072,0.545c-0.243-0.318-0.62-0.521-1.076-0.545c-0.771-0.042-1.325,0.653-1.363,1.363
			c-0.004,0.092,0.002,0.181,0.016,0.265c-0.049-0.008-0.098-0.012-0.147-0.015c-0.833-0.044-1.433,0.707-1.474,1.475
			C19.385,16.762,20.05,17.338,20.767,17.438z"/>
		<path d="M29.459,38.031v-0.034c1.369-0.232,2.314-1.563,2.388-2.921c-0.09-1.672-1.28-2.863-2.954-2.954
			c-0.032-0.001-0.063,0.003-0.095,0.001c0.037-0.165,0.063-0.332,0.071-0.5c-0.084-1.549-1.186-2.65-2.733-2.733
			c-0.908-0.049-1.665,0.415-2.15,1.093c-0.486-0.64-1.241-1.044-2.153-1.093c-1.544-0.083-2.656,1.311-2.732,2.733
			c-0.009,0.184,0.003,0.359,0.031,0.529c-0.098-0.015-0.195-0.024-0.296-0.03c-1.67-0.089-2.871,1.418-2.954,2.954
			c-0.084,1.571,1.245,2.727,2.683,2.928v0.027H29.459z"/>
		<path d="M17.533,30.565v-0.024c0.971-0.164,1.641-1.106,1.692-2.069c-0.063-1.185-0.907-2.028-2.093-2.093
			c-0.023,0-0.044,0.002-0.067,0.001c0.026-0.117,0.044-0.235,0.05-0.354c-0.059-1.098-0.839-1.878-1.937-1.937
			c-0.643-0.034-1.179,0.294-1.523,0.774c-0.344-0.453-0.879-0.74-1.525-0.774c-1.094-0.059-1.881,0.929-1.936,1.937
			c-0.006,0.13,0.002,0.254,0.022,0.375c-0.069-0.01-0.139-0.018-0.21-0.021c-1.183-0.063-2.034,1.005-2.093,2.093
			c-0.06,1.113,0.882,1.933,1.9,2.074v0.02H17.533z"/>
		<path d="M20.388,25.982v0.019h7.144v-0.022c0.898-0.152,1.519-1.024,1.566-1.915c-0.059-1.097-0.839-1.878-1.937-1.938
			c-0.021,0-0.041,0.002-0.063,0.001c0.024-0.108,0.041-0.218,0.046-0.328c-0.054-1.016-0.776-1.737-1.792-1.792
			c-0.595-0.031-1.091,0.272-1.41,0.717c-0.317-0.419-0.813-0.686-1.411-0.717c-1.013-0.054-1.741,0.859-1.791,1.792
			c-0.006,0.12,0.001,0.235,0.021,0.348c-0.064-0.01-0.129-0.017-0.194-0.021c-1.095-0.058-1.883,0.931-1.937,1.938
			C18.574,25.094,19.445,25.852,20.388,25.982z"/>
		<path d="M36.701,23.505c-0.643-0.034-1.179,0.294-1.522,0.774c-0.345-0.453-0.88-0.74-1.526-0.774
			c-1.094-0.059-1.881,0.929-1.936,1.937c-0.006,0.13,0.002,0.254,0.022,0.375c-0.069-0.01-0.138-0.018-0.21-0.021
			c-1.183-0.063-2.034,1.005-2.093,2.093c-0.06,1.113,0.882,1.933,1.9,2.074v0.02h7.72v-0.024c0.97-0.164,1.64-1.106,1.691-2.069
			c-0.063-1.185-0.907-2.028-2.093-2.093c-0.023,0-0.044,0.002-0.067,0.001c0.026-0.117,0.044-0.235,0.051-0.354
			C38.579,24.344,37.799,23.563,36.701,23.505z"/>
		<path d="M40.07,7.509l2.582-3.897l-9.471,1.197l2.92,8.694l2.286-3.452c3.683,3.526,5.987,8.476,5.987,13.964
			c0,10.684-8.691,19.375-19.375,19.375S5.625,34.698,5.625,24.015c0-7.925,4.787-14.744,11.617-17.742l-2.258-2.258
			c-7.32,3.682-12.359,11.262-12.359,20C2.625,36.353,12.662,46.39,25,46.39s22.375-10.037,22.375-22.375
			C47.375,17.481,44.552,11.603,40.07,7.509z"/>
	</g>
</g>
<g id="_x31_00">
</g>
<g id="_x31_01">
</g>
<g id="_x31_02">
</g>
<g id="_x31_03">
</g>
<g id="_x31_04">
</g>
<g id="_x31_05">
</g>
<g id="_x31_06">
</g>
<g id="_x31_07">
</g>
<g id="_x31_08">
</g>
<g id="_x31_09">
</g>
<g id="_x31_10">
</g>
<g id="_x31_11">
</g>
<g id="_x31_12">
</g>
<g id="_x31_13">
</g>
<g id="_x31_14">
</g>
<g id="_x31_15">
</g>
<g id="_x31_16">
</g>
<g id="_x31_17">
</g>
<g id="_x31_18">
</g>
<g id="_x31_19">
</g>
<g id="_x31_20">
</g>
<g id="_x31_21">
</g>
<g id="_x31_22">
</g>
<g id="_x31_23">
</g>
<g id="_x31_24">
</g>
<g id="_x31_25">
</g>
<g id="_x31_26">
</g>
<g id="_x31_27">
</g>
<g id="_x31_28">
</g>
<g id="_x31_29">
</g>
<g id="_x31_30">
</g>
<g id="_x31_31">
</g>
<g id="_x31_32">
</g>
<g id="_x31_33">
</g>
<g id="_x31_34">
</g>
<g id="_x31_35">
</g>
<g id="_x31_36">
</g>
<g id="_x31_37">
</g>
<g id="_x31_38">
</g>
<g id="_x31_39">
</g>
<g id="_x31_40">
</g>
<g id="_x31_41">
</g>
<g id="_x31_42">
</g>
<g id="_x31_43">
</g>
<g id="_x31_44">
</g>
<g id="_x31_45">
</g>
<g id="_x31_46">
</g>
<g id="_x31_47">
</g>
<g id="_x31_48">
</g>
<g id="_x31_49">
</g>
<g id="_x31_50">
</g>
<g id="_x31_51">
</g>
<g id="_x31_52">
</g>
<g id="_x31_53">
</g>
<g id="_x31_54">
</g>
<g id="_x31_55">
</g>
<g id="_x31_56">
</g>
<g id="_x31_57">
</g>
<g id="_x31_58">
</g>
<g id="_x31_59">
</g>
<g id="_x31_60">
</g>
<g id="_x31_61">
</g>
<g id="_x31_62">
</g>
<g id="_x31_63">
</g>
<g id="_x31_64">
</g>
<g id="_x31_65">
</g>
<g id="_x31_66">
</g>
<g id="_x31_67">
</g>
<g id="_x31_68">
</g>
<g id="_x31_69">
</g>
<g id="_x31_70">
</g>
<g id="_x31_71">
</g>
<g id="_x31_72">
</g>
<g id="_x31_73">
</g>
<g id="_x31_74">
</g>
<g id="_x31_75">
</g>
<g id="_x31_76">
</g>
<g id="_x31_77">
</g>
<g id="_x31_78">
</g>
<g id="_x31_79">
</g>
<g id="_x31_80">
</g>
<g id="_x31_81">
</g>
<g id="_x31_82">
</g>
<g id="_x31_83">
</g>
<g id="_x31_84">
</g>
<g id="_x31_85">
</g>
<g id="_x31_86">
</g>
<g id="_x31_87">
</g>
<g id="_x31_88">
</g>
<g id="_x31_89">
</g>
<g id="_x31_90">
</g>
</svg>
