<?xml version="1.0" encoding="utf-8"?>
<!-- Generator: Adobe Illustrator 16.0.4, SVG Export Plug-In . SVG Version: 6.00 Build 0)  -->
<!DOCTYPE svg PUBLIC "-//W3C//DTD SVG 1.1//EN" "http://www.w3.org/Graphics/SVG/1.1/DTD/svg11.dtd">
<svg version="1.1" id="Capa_1" xmlns="http://www.w3.org/2000/svg" xmlns:xlink="http://www.w3.org/1999/xlink" x="0px" y="0px"
	 width="50px" height="50px" viewBox="0 0 50 50" enable-background="new 0 0 50 50" xml:space="preserve">
<path d="M43.21,28.559c0-3.42-2.784-6.205-6.206-6.205c-3.421,0-6.205,2.784-6.205,6.205c0,3.422,2.784,6.207,6.205,6.207
	C40.427,34.766,43.21,31.98,43.21,28.559z M37.005,33.207c-2.562,0-4.647-2.086-4.647-4.648c0-2.562,2.086-4.646,4.647-4.646
	c2.563,0,4.647,2.084,4.647,4.646C41.652,31.121,39.568,33.207,37.005,33.207z M47.323,37.775l-1.372,1.373l-4.767-4.768
	l1.372-1.372L47.323,37.775z M26.791,28.618c0,2.567,0.994,4.897,2.607,6.646H9.844v-0.072c-3.838-0.534-7.385-3.621-7.158-7.813
	c0.221-4.102,3.428-8.125,7.885-7.885c0.268,0.015,0.531,0.04,0.789,0.077c-0.076-0.454-0.107-0.923-0.084-1.411
	c0.205-3.797,3.172-7.519,7.295-7.297c2.435,0.132,4.451,1.211,5.746,2.917c1.297-1.81,3.318-3.047,5.742-2.917
	c4.131,0.223,7.074,3.163,7.297,7.297c-0.012,0.229-0.037,0.456-0.068,0.682c-0.227-0.015-0.454-0.034-0.684-0.034
	C31.184,18.807,26.79,23.199,26.791,28.618z"/>
</svg>
