<?xml version="1.0" encoding="utf-8"?>
<!-- Generator: Adobe Illustrator 16.0.0, SVG Export Plug-In . SVG Version: 6.00 Build 0)  -->
<!DOCTYPE svg PUBLIC "-//W3C//DTD SVG 1.1//EN" "http://www.w3.org/Graphics/SVG/1.1/DTD/svg11.dtd">
<svg version="1.1" xmlns="http://www.w3.org/2000/svg" xmlns:xlink="http://www.w3.org/1999/xlink" x="0px" y="0px" width="50px"
	 height="50px" viewBox="0 0 50 50" enable-background="new 0 0 50 50" xml:space="preserve">
<g id="text">
</g>
<g id="_x31_">
</g>
<g id="_x32_">
</g>
<g id="_x33__1_">
</g>
<g id="_x34_">
</g>
<g id="_x35_">
</g>
<g id="_x36_">
</g>
<g id="_x37_">
</g>
<g id="_x38_">
</g>
<g id="_x39_">
</g>
<g id="_x31_0">
</g>
<g id="_x31_1">
</g>
<g id="_x31_2">
</g>
<g id="_x31_3">
</g>
<g id="_x31_4">
</g>
<g id="_x31_5">
</g>
<g id="_x31_6">
</g>
<g id="_x31_7">
</g>
<g id="_x31_8">
</g>
<g id="_x31_9">
</g>
<g id="_x32_0">
</g>
<g id="_x32_1">
</g>
<g id="_x32_2">
</g>
<g id="_x32_3">
</g>
<g id="_x32_4">
</g>
<g id="_x32_5">
</g>
<g id="_x32_6">
</g>
<g id="_x32_7">
</g>
<g id="_x32_8">
</g>
<g id="_x32_9">
</g>
<g id="_x33_0">
</g>
<g id="_x33_1">
</g>
<g id="_x33_2">
</g>
<g id="_x33_3">
</g>
<g id="_x33_4">
</g>
<g id="_x33_5">
</g>
<g id="_x33_6">
</g>
<g id="_x33_7">
</g>
<g id="_x33_8">
</g>
<g id="_x33_9">
</g>
<g id="_x34_0">
</g>
<g id="_x34_1">
</g>
<g id="_x34_2">
</g>
<g id="_x34_3">
</g>
<g id="_x34_4">
</g>
<g id="_x34_5">
</g>
<g id="_x34_6">
</g>
<g id="_x34_7">
</g>
<g id="_x34_8">
</g>
<g id="_x34_9">
</g>
<g id="_x35_0">
</g>
<g id="_x35_1">
</g>
<g id="_x35_2">
</g>
<g id="_x35_3">
</g>
<g id="_x35_4">
</g>
<g id="_x35_5">
</g>
<g id="_x35_6">
</g>
<g id="_x35_7">
</g>
<g id="_x35_8">
</g>
<g id="_x35_9">
</g>
<g id="_x36_0">
</g>
<g id="_x36_1">
</g>
<g id="_x36_2">
</g>
<g id="_x36_3">
</g>
<g id="_x36_4">
</g>
<g id="_x36_5">
</g>
<g id="_x36_6">
</g>
<g id="_x36_7">
</g>
<g id="_x36_8">
</g>
<g id="_x36_9">
</g>
<g id="_x37_0">
</g>
<g id="_x37_1">
</g>
<g id="_x37_2">
</g>
<g id="_x37_3">
</g>
<g id="_x37_4">
</g>
<g id="_x37_5">
</g>
<g id="_x37_6">
</g>
<g id="_x37_7">
</g>
<g id="_x37_8">
</g>
<g id="_x37_9">
</g>
<g id="_x38_0">
</g>
<g id="_x38_1">
</g>
<g id="_x38_2">
</g>
<g id="_x38_3">
</g>
<g id="_x38_4">
</g>
<g id="_x38_5">
</g>
<g id="_x38_6">
</g>
<g id="_x38_7">
</g>
<g id="_x38_8">
</g>
<g id="_x38_9">
</g>
<g id="_x39_0">
</g>
<g id="_x39_1">
</g>
<g id="_x39_2">
</g>
<g id="_x39_3">
</g>
<g id="_x39_4">
</g>
<g id="_x39_5">
</g>
<g id="_x39_6">
</g>
<g id="_x39_7">
</g>
<g id="_x39_8">
</g>
<g id="_x39_9">
</g>
<g id="_x31_00">
</g>
<g id="_x31_01">
</g>
<g id="_x31_02">
</g>
<g id="_x31_03">
</g>
<g id="_x31_04">
</g>
<g id="_x31_05">
</g>
<g id="_x31_06">
</g>
<g id="_x31_07">
</g>
<g id="_x31_08">
</g>
<g id="_x31_09">
</g>
<g id="_x31_10">
</g>
<g id="_x31_11">
</g>
<g id="_x31_12">
</g>
<g id="_x31_13">
</g>
<g id="_x31_14">
</g>
<g id="_x31_15">
</g>
<g id="_x31_16">
</g>
<g id="_x31_17">
</g>
<g id="_x31_18">
</g>
<g id="_x31_19">
</g>
<g id="_x31_20">
</g>
<g id="_x31_21">
</g>
<g id="_x31_22">
</g>
<g id="_x31_23">
</g>
<g id="_x31_24">
</g>
<g id="_x31_25">
</g>
<g id="_x31_26">
</g>
<g id="_x31_27">
</g>
<g id="_x31_28">
</g>
<g id="_x31_29">
</g>
<g id="_x31_30">
</g>
<g id="_x31_31">
</g>
<g id="_x31_32">
</g>
<g id="_x31_33">
</g>
<g id="_x31_34">
</g>
<g id="_x31_35">
</g>
<g id="_x31_36">
</g>
<g id="_x31_37">
</g>
<g id="_x31_38">
</g>
<g id="_x31_39">
</g>
<g id="_x31_40">
</g>
<g id="_x31_41">
</g>
<g id="_x31_42">
</g>
<g id="_x31_43">
</g>
<g id="_x31_44">
</g>
<g id="_x31_45">
</g>
<g id="_x31_46">
</g>
<g id="_x31_47">
</g>
<g id="_x31_48">
</g>
<g id="_x31_49">
</g>
<g id="_x31_50">
</g>
<g id="_x31_51">
</g>
<g id="_x31_52">
</g>
<g id="_x31_53">
	<g>
		<path d="M44.46,25.381v-0.517h-0.978v0.517h-1.836v-0.517H40.67v0.517h-1.994v-0.517H37.7v0.517h-2.157v-0.517h-0.978v0.517
			h-2.658v10.145H47.14V25.381H44.46z M46.163,34.549H32.884v-8.191h1.682v0.623h0.978v-0.623H37.7v0.623h0.976v-0.623h1.994v0.623
			h0.977v-0.623h1.836v0.623h0.978v-0.623h1.703V34.549z"/>
		<path d="M37.337,28.931c-0.088,0.133-0.202,0.241-0.341,0.323c-0.141,0.082-0.294,0.138-0.464,0.173
			c-0.17,0.033-0.345,0.048-0.521,0.042v0.897h1.2v3.077h1.295v-5.01h-1.015C37.478,28.63,37.425,28.795,37.337,28.931z"/>
		<path d="M43.12,30.433c-0.145-0.152-0.316-0.271-0.515-0.356c-0.199-0.087-0.412-0.13-0.644-0.13
			c-0.238,0-0.463,0.037-0.671,0.112c-0.209,0.073-0.376,0.213-0.5,0.419h-0.015c0.005-0.143,0.028-0.289,0.068-0.438
			c0.041-0.147,0.101-0.285,0.18-0.409c0.079-0.125,0.18-0.228,0.302-0.306c0.123-0.08,0.271-0.118,0.45-0.118
			c0.053,0,0.109,0.004,0.171,0.013c0.063,0.011,0.122,0.032,0.181,0.065c0.058,0.038,0.108,0.088,0.151,0.147
			c0.043,0.061,0.075,0.141,0.1,0.24h1.144c-0.039-0.229-0.109-0.43-0.213-0.6c-0.103-0.17-0.23-0.312-0.384-0.425
			c-0.154-0.112-0.329-0.196-0.524-0.254c-0.197-0.059-0.405-0.087-0.625-0.087c-0.379,0-0.707,0.069-0.982,0.208
			c-0.274,0.14-0.502,0.328-0.682,0.564c-0.18,0.237-0.313,0.514-0.399,0.831c-0.086,0.315-0.129,0.649-0.129,0.998
			c0,0.321,0.034,0.634,0.104,0.938c0.069,0.304,0.184,0.574,0.341,0.813c0.158,0.236,0.365,0.427,0.619,0.57
			s0.565,0.216,0.934,0.216c0.274,0,0.53-0.04,0.772-0.122c0.242-0.081,0.456-0.2,0.64-0.355c0.185-0.156,0.33-0.349,0.436-0.578
			c0.105-0.23,0.157-0.494,0.157-0.792c0-0.229-0.042-0.443-0.125-0.643C43.377,30.757,43.264,30.583,43.12,30.433z M42.384,31.977
			c-0.042,0.094-0.1,0.176-0.173,0.249c-0.075,0.071-0.163,0.127-0.267,0.168c-0.103,0.041-0.219,0.061-0.349,0.061
			c-0.24,0-0.431-0.075-0.574-0.226c-0.145-0.15-0.216-0.335-0.216-0.551c0-0.114,0.019-0.222,0.057-0.323
			c0.039-0.1,0.093-0.189,0.162-0.267c0.069-0.075,0.152-0.136,0.248-0.179c0.097-0.043,0.201-0.063,0.316-0.063
			c0.277,0,0.49,0.081,0.636,0.242c0.146,0.164,0.22,0.362,0.22,0.598C42.444,31.786,42.423,31.883,42.384,31.977z"/>
		<path d="M36.787,20.748c0.23,0,0.457,0.019,0.684,0.034c0.033-0.226,0.057-0.453,0.07-0.682c-0.223-4.134-3.166-7.074-7.297-7.297
			c-2.424-0.13-4.445,1.107-5.742,2.917c-1.295-1.706-3.311-2.785-5.746-2.917c-4.123-0.222-7.09,3.5-7.295,7.297
			c-0.023,0.488,0.008,0.957,0.084,1.411c-0.258-0.037-0.521-0.062-0.789-0.077c-4.457-0.24-7.664,3.783-7.885,7.885
			c-0.227,4.193,3.32,7.279,7.158,7.813v0.073h19.553c-1.613-1.749-2.607-4.078-2.607-6.646
			C26.975,25.141,31.369,20.748,36.787,20.748z"/>
	</g>
</g>
<g id="_x31_54">
</g>
<g id="_x31_55">
</g>
<g id="_x31_56">
</g>
<g id="_x31_57">
</g>
<g id="_x31_58">
</g>
<g id="_x31_59">
</g>
<g id="_x31_60">
</g>
<g id="_x31_61">
</g>
<g id="_x31_62">
</g>
<g id="_x31_63">
</g>
<g id="_x31_64">
</g>
<g id="_x31_65">
</g>
<g id="_x31_66">
</g>
<g id="_x31_67">
</g>
<g id="_x31_68">
</g>
<g id="_x31_69">
</g>
<g id="_x31_70">
</g>
<g id="_x31_71">
</g>
<g id="_x31_72">
</g>
<g id="_x31_73">
</g>
<g id="_x31_74">
</g>
<g id="_x31_75">
</g>
<g id="_x31_76">
</g>
<g id="_x31_77">
</g>
<g id="_x31_78">
</g>
<g id="_x31_79">
</g>
<g id="_x31_80">
</g>
<g id="_x31_81">
</g>
<g id="_x31_82">
</g>
<g id="_x31_83">
</g>
<g id="_x31_84">
</g>
<g id="_x31_85">
</g>
<g id="_x31_86">
</g>
<g id="_x31_87">
</g>
<g id="_x31_88">
</g>
<g id="_x31_89">
</g>
<g id="_x31_90">
</g>
</svg>
