<?xml version="1.0" encoding="utf-8"?>
<!-- Generator: Adobe Illustrator 16.0.0, SVG Export Plug-In . SVG Version: 6.00 Build 0)  -->
<!DOCTYPE svg PUBLIC "-//W3C//DTD SVG 1.1//EN" "http://www.w3.org/Graphics/SVG/1.1/DTD/svg11.dtd">
<svg version="1.1" xmlns="http://www.w3.org/2000/svg" xmlns:xlink="http://www.w3.org/1999/xlink" x="0px" y="0px" width="50px"
	 height="50px" viewBox="0 0 50 50" enable-background="new 0 0 50 50" xml:space="preserve">
<g id="text">
</g>
<g id="_x31_">
</g>
<g id="_x32_">
</g>
<g id="_x33__1_">
</g>
<g id="_x34_">
</g>
<g id="_x35_">
</g>
<g id="_x36_">
</g>
<g id="_x37_">
</g>
<g id="_x38_">
</g>
<g id="_x39_">
</g>
<g id="_x31_0">
</g>
<g id="_x31_1">
</g>
<g id="_x31_2">
</g>
<g id="_x31_3">
</g>
<g id="_x31_4">
</g>
<g id="_x31_5">
</g>
<g id="_x31_6">
</g>
<g id="_x31_7">
</g>
<g id="_x31_8">
</g>
<g id="_x31_9">
</g>
<g id="_x32_0">
</g>
<g id="_x32_1">
</g>
<g id="_x32_2">
</g>
<g id="_x32_3">
</g>
<g id="_x32_4">
</g>
<g id="_x32_5">
</g>
<g id="_x32_6">
</g>
<g id="_x32_7">
</g>
<g id="_x32_8">
</g>
<g id="_x32_9">
</g>
<g id="_x33_0">
</g>
<g id="_x33_1">
</g>
<g id="_x33_2">
</g>
<g id="_x33_3">
</g>
<g id="_x33_4">
</g>
<g id="_x33_5">
</g>
<g id="_x33_6">
</g>
<g id="_x33_7">
</g>
<g id="_x33_8">
</g>
<g id="_x33_9">
</g>
<g id="_x34_0">
</g>
<g id="_x34_1">
</g>
<g id="_x34_2">
</g>
<g id="_x34_3">
</g>
<g id="_x34_4">
</g>
<g id="_x34_5">
</g>
<g id="_x34_6">
</g>
<g id="_x34_7">
</g>
<g id="_x34_8">
</g>
<g id="_x34_9">
</g>
<g id="_x35_0">
</g>
<g id="_x35_1">
</g>
<g id="_x35_2">
</g>
<g id="_x35_3">
</g>
<g id="_x35_4">
</g>
<g id="_x35_5">
</g>
<g id="_x35_6">
</g>
<g id="_x35_7">
</g>
<g id="_x35_8">
</g>
<g id="_x35_9">
</g>
<g id="_x36_0">
</g>
<g id="_x36_1">
</g>
<g id="_x36_2">
</g>
<g id="_x36_3">
</g>
<g id="_x36_4">
</g>
<g id="_x36_5">
</g>
<g id="_x36_6">
</g>
<g id="_x36_7">
</g>
<g id="_x36_8">
</g>
<g id="_x36_9">
</g>
<g id="_x37_0">
</g>
<g id="_x37_1">
</g>
<g id="_x37_2">
</g>
<g id="_x37_3">
</g>
<g id="_x37_4">
</g>
<g id="_x37_5">
</g>
<g id="_x37_6">
</g>
<g id="_x37_7">
</g>
<g id="_x37_8">
</g>
<g id="_x37_9">
</g>
<g id="_x38_0">
</g>
<g id="_x38_1">
</g>
<g id="_x38_2">
</g>
<g id="_x38_3">
</g>
<g id="_x38_4">
</g>
<g id="_x38_5">
</g>
<g id="_x38_6">
</g>
<g id="_x38_7">
</g>
<g id="_x38_8">
</g>
<g id="_x38_9">
</g>
<g id="_x39_0">
</g>
<g id="_x39_1">
</g>
<g id="_x39_2">
</g>
<g id="_x39_3">
</g>
<g id="_x39_4">
</g>
<g id="_x39_5">
</g>
<g id="_x39_6">
</g>
<g id="_x39_7">
</g>
<g id="_x39_8">
</g>
<g id="_x39_9">
</g>
<g id="_x31_00">
</g>
<g id="_x31_01">
</g>
<g id="_x31_02">
</g>
<g id="_x31_03">
</g>
<g id="_x31_04">
</g>
<g id="_x31_05">
</g>
<g id="_x31_06">
</g>
<g id="_x31_07">
</g>
<g id="_x31_08">
</g>
<g id="_x31_09">
</g>
<g id="_x31_10">
</g>
<g id="_x31_11">
</g>
<g id="_x31_12">
</g>
<g id="_x31_13">
</g>
<g id="_x31_14">
</g>
<g id="_x31_15">
</g>
<g id="_x31_16">
</g>
<g id="_x31_17">
</g>
<g id="_x31_18">
</g>
<g id="_x31_19">
	<g>
		<path d="M38.767,24.208c-3.372,0.151-5.843,2.622-5.993,5.992c-0.151,3.367,2.848,5.853,5.993,5.993
			c3.366,0.151,5.851-2.848,5.991-5.993C44.909,26.833,41.911,24.35,38.767,24.208z M41.157,25.864
			c0.1-0.047,0.498,0.162,0.836,0.518c-0.229,0.844-0.76,0.743-0.76,0.743s-0.391-0.011-0.34-0.339l0.405-0.271
			C41.299,26.515,41.128,26.079,41.157,25.864z M37.48,31.771c-0.025,0.126-0.177,0.431-0.278,0.634
			c-0.101,0.201-0.151,0.278-0.279,0.38c-0.126,0.103-0.203,0.279-0.203,0.279l-0.023,0.431c0,0,0.05,0.355,0.125,0.482
			c0.075,0.126-0.272,0.88-0.272,0.88c-0.219-0.044-0.342-0.299-0.419-0.5c-0.074-0.204-0.176-0.312-0.15-0.54
			c0.024-0.228-0.197-0.348-0.272-0.475s-0.177-0.303-0.177-0.43c0-0.128-0.279-0.307-0.279-0.307s-0.507-0.228-0.582-0.327
			c-0.077-0.103-0.153-0.534-0.179-0.712c-0.024-0.176,0.075-0.632,0.075-0.632s0.205-0.154,0.076-0.279
			c-0.126-0.127-0.151-0.457-0.151-0.457l-0.229-0.253c0,0-0.177-0.254-0.202-0.382c-0.025-0.125,0-0.201,0.025-0.328
			c0.024-0.127-0.051-0.355-0.051-0.482c0.946-2.322,2.533-2.863,2.533-2.863l0.129,0.532c0,0-0.278,0.075-0.431,0.025
			c-0.153-0.052-0.229-0.052-0.229-0.052l-0.203,0.28c0,0-0.074,0.177-0.101,0.278c-0.025,0.102,0.05,0.253,0.05,0.253
			s0.355,0.025,0.355-0.076c0-0.101-0.05-0.15-0.05-0.15l-0.052-0.179c0,0,0.229-0.126,0.836-0.077
			c0.608,0.051,0.381,0.482,0.635,0.586c0.254,0.1-0.203,0.454-0.305,0.657c-0.101,0.202-0.254-0.253-0.254-0.253
			s0.153-0.177-0.102-0.229c-0.253-0.05-0.421,0.456-0.291,0.432c0.126-0.025,0.267,0.136,0.241,0.262
			c-0.026,0.128-0.026,0.117-0.152,0.396s-0.401,0.484-0.401,0.484s-0.131-0.078-0.055,0.072c0.077,0.153-0.025,0.508-0.025,0.61
			c0,0.1-0.305-0.18-0.354-0.434c-0.05-0.252-0.349-0.031-0.45-0.005c-0.102,0.025-0.285-0.045-0.334-0.172
			c-0.052-0.126-0.509,0.255-0.636,0.331c-0.127,0.074-0.075,0.279,0.127,0.177s0.379-0.025,0.33,0.178
			c-0.052,0.202-0.254,0.076-0.228,0.202c0.023,0.126,0.228,0.254,0.276,0.432c0.052,0.177,0.533,0.025,0.685-0.051
			c0.153-0.077,0.584-0.152,0.635,0.051c0.052,0.203,0.532,0.278,0.709,0.328c0.179,0.051,0.532,0.077,0.736,0.28
			C37.86,31.264,37.507,31.645,37.48,31.771z M38.621,25.839c-0.025,0.254-0.43,0.584-0.379,0.685c0.051,0.103,0,0.537-0.356,0.155
			c-0.354-0.38-0.71-0.508-0.684-0.764c0.006-0.051,0.368-0.13,0.374-0.219c0.536-0.5,1.395-0.396,1.462-0.277
			C38.884,25.67,38.647,25.585,38.621,25.839z M43.209,30.36c0,0,0.195,0.287,0.475,0.27c-0.184,2.12-1.953,3.481-1.953,3.481
			c-0.27-0.271-0.135-0.506-0.135-0.506l0.076-0.406l0.043-0.684c0,0,0-0.71-0.677-0.374c-0.727,0.187-0.423,0.187-1.157,0.237
			c-0.736,0.052-0.614-1.499-0.614-1.499c0-2.319,1.779-0.568,1.779-0.568c1.016,0.675,1.15-0.561,1.15-0.561l0.742-0.269
			l0.069-0.339l-0.108-0.472l-1.08-0.446c0,0-0.104,0.352,0.174,0.782c0,0-0.094,0.49-0.321,0.364l-0.626-0.314
			c0,0-0.21-0.091-0.549,0.111c-0.339,0.203-0.911-0.01-0.911-0.01s0.047-0.34,0.401-0.516l0.291-0.191c0,0-0.075-0.35-0.008-0.619
			c0.065-0.269,0.185-0.033,0.455-0.236c0.271-0.201,0.456,0.398,0.862,0.33c0.405-0.067,0.202-0.135,0.474-0.271
			c0.271-0.135,0.473,0.271,0.473,0.271l0.54,0.068c0,0-0.084-0.612-0.048-0.453c0.343,0.587,0.843,2.157,0.657,2.438
			c-0.11-0.051-0.203-0.092-0.203-0.092h-0.676L43.209,30.36z"/>
		<path d="M39.163,20.748c0.23,0,0.457,0.019,0.684,0.034c0.032-0.226,0.057-0.453,0.069-0.682
			c-0.223-4.134-3.166-7.074-7.297-7.297c-2.424-0.13-4.445,1.107-5.742,2.917c-1.295-1.706-3.311-2.785-5.746-2.917
			c-4.123-0.222-7.09,3.5-7.295,7.297c-0.023,0.488,0.008,0.957,0.084,1.411c-0.258-0.037-0.521-0.062-0.789-0.077
			c-4.457-0.24-7.664,3.783-7.885,7.885c-0.227,4.193,3.32,7.279,7.158,7.813v0.073h19.554c-1.613-1.749-2.607-4.078-2.607-6.646
			C29.351,25.141,33.744,20.748,39.163,20.748z"/>
	</g>
</g>
<g id="_x31_20">
</g>
<g id="_x31_21">
</g>
<g id="_x31_22">
</g>
<g id="_x31_23">
</g>
<g id="_x31_24">
</g>
<g id="_x31_25">
</g>
<g id="_x31_26">
</g>
<g id="_x31_27">
</g>
<g id="_x31_28">
</g>
<g id="_x31_29">
</g>
<g id="_x31_30">
</g>
<g id="_x31_31">
</g>
<g id="_x31_32">
</g>
<g id="_x31_33">
</g>
<g id="_x31_34">
</g>
<g id="_x31_35">
</g>
<g id="_x31_36">
</g>
<g id="_x31_37">
</g>
<g id="_x31_38">
</g>
<g id="_x31_39">
</g>
<g id="_x31_40">
</g>
<g id="_x31_41">
</g>
<g id="_x31_42">
</g>
<g id="_x31_43">
</g>
<g id="_x31_44">
</g>
<g id="_x31_45">
</g>
<g id="_x31_46">
</g>
<g id="_x31_47">
</g>
<g id="_x31_48">
</g>
<g id="_x31_49">
</g>
<g id="_x31_50">
</g>
<g id="_x31_51">
</g>
<g id="_x31_52">
</g>
<g id="_x31_53">
</g>
<g id="_x31_54">
</g>
<g id="_x31_55">
</g>
<g id="_x31_56">
</g>
<g id="_x31_57">
</g>
<g id="_x31_58">
</g>
<g id="_x31_59">
</g>
<g id="_x31_60">
</g>
<g id="_x31_61">
</g>
<g id="_x31_62">
</g>
<g id="_x31_63">
</g>
<g id="_x31_64">
</g>
<g id="_x31_65">
</g>
<g id="_x31_66">
</g>
<g id="_x31_67">
</g>
<g id="_x31_68">
</g>
<g id="_x31_69">
</g>
<g id="_x31_70">
</g>
<g id="_x31_71">
</g>
<g id="_x31_72">
</g>
<g id="_x31_73">
</g>
<g id="_x31_74">
</g>
<g id="_x31_75">
</g>
<g id="_x31_76">
</g>
<g id="_x31_77">
</g>
<g id="_x31_78">
</g>
<g id="_x31_79">
</g>
<g id="_x31_80">
</g>
<g id="_x31_81">
</g>
<g id="_x31_82">
</g>
<g id="_x31_83">
</g>
<g id="_x31_84">
</g>
<g id="_x31_85">
</g>
<g id="_x31_86">
</g>
<g id="_x31_87">
</g>
<g id="_x31_88">
</g>
<g id="_x31_89">
</g>
<g id="_x31_90">
</g>
</svg>
