<?xml version="1.0" encoding="utf-8"?>
<!-- Generator: Adobe Illustrator 16.0.4, SVG Export Plug-In . SVG Version: 6.00 Build 0)  -->
<!DOCTYPE svg PUBLIC "-//W3C//DTD SVG 1.1//EN" "http://www.w3.org/Graphics/SVG/1.1/DTD/svg11.dtd">
<svg version="1.1" id="Capa_1" xmlns="http://www.w3.org/2000/svg" xmlns:xlink="http://www.w3.org/1999/xlink" x="0px" y="0px"
	 width="50px" height="50px" viewBox="0 0 50 50" enable-background="new 0 0 50 50" xml:space="preserve">
<path d="M4.729,7.578v3.239h0.509V6.66H4.91C4.821,6.839,4.671,7.023,4.458,7.213C4.246,7.403,3.996,7.565,3.712,7.7v0.49
	C3.871,8.132,4.05,8.045,4.249,7.927C4.447,7.812,4.607,7.694,4.729,7.578z M7.89,10.888c0.303,0,0.553-0.082,0.751-0.245
	c0.2-0.163,0.349-0.393,0.449-0.691c0.1-0.299,0.15-0.691,0.15-1.177c0-0.41-0.031-0.736-0.093-0.978
	C9.084,7.554,8.998,7.35,8.89,7.18C8.78,7.012,8.641,6.883,8.474,6.794C8.306,6.705,8.112,6.66,7.89,6.66
	c-0.3,0-0.552,0.081-0.75,0.243c-0.2,0.162-0.348,0.391-0.45,0.69c-0.1,0.298-0.151,0.693-0.151,1.182
	c0,0.778,0.138,1.339,0.41,1.684C7.177,10.745,7.491,10.888,7.89,10.888z M7.324,7.377C7.463,7.179,7.65,7.08,7.884,7.08
	c0.237,0,0.435,0.112,0.595,0.335c0.16,0.225,0.239,0.677,0.239,1.359c0,0.678-0.079,1.13-0.239,1.355
	c-0.16,0.227-0.356,0.34-0.589,0.34s-0.43-0.113-0.589-0.338c-0.16-0.224-0.237-0.677-0.237-1.357S7.149,7.629,7.324,7.377z
	 M11.164,7.578v3.239h0.508V6.66h-0.328c-0.088,0.179-0.239,0.363-0.452,0.554c-0.212,0.189-0.46,0.351-0.746,0.486v0.49
	c0.159-0.058,0.338-0.145,0.536-0.263C10.881,7.812,11.042,7.694,11.164,7.578z M14.325,10.888c0.301,0,0.553-0.082,0.751-0.245
	c0.199-0.163,0.347-0.393,0.447-0.691c0.1-0.299,0.151-0.691,0.151-1.177c0-0.41-0.032-0.736-0.095-0.978
	C15.52,7.554,15.434,7.35,15.324,7.18c-0.11-0.168-0.247-0.297-0.416-0.386C14.74,6.705,14.546,6.66,14.325,6.66
	c-0.302,0-0.553,0.081-0.751,0.243c-0.199,0.162-0.348,0.392-0.449,0.69c-0.1,0.298-0.15,0.693-0.15,1.182
	c0,0.778,0.136,1.339,0.409,1.684C13.611,10.745,13.925,10.888,14.325,10.888z M13.758,7.377c0.14-0.198,0.327-0.297,0.56-0.297
	c0.238,0,0.435,0.112,0.595,0.335c0.16,0.225,0.239,0.677,0.239,1.359c0,0.678-0.079,1.13-0.239,1.355
	c-0.16,0.227-0.355,0.34-0.587,0.34c-0.235,0-0.431-0.113-0.59-0.338c-0.16-0.224-0.238-0.677-0.238-1.357
	S13.584,7.629,13.758,7.377z M17.541,10.888c0.303,0,0.553-0.082,0.751-0.245c0.199-0.163,0.349-0.393,0.449-0.691
	c0.1-0.299,0.15-0.691,0.15-1.177c0-0.41-0.031-0.736-0.093-0.978C18.735,7.554,18.65,7.35,18.541,7.18
	c-0.11-0.168-0.249-0.297-0.416-0.386c-0.168-0.089-0.362-0.134-0.584-0.134c-0.302,0-0.552,0.081-0.75,0.243
	c-0.199,0.162-0.347,0.392-0.449,0.69c-0.1,0.298-0.151,0.693-0.151,1.182c0,0.778,0.138,1.339,0.41,1.684
	C16.828,10.745,17.141,10.888,17.541,10.888z M16.976,7.377c0.139-0.198,0.326-0.297,0.56-0.297c0.237,0,0.435,0.112,0.595,0.335
	c0.16,0.225,0.239,0.677,0.239,1.359c0,0.678-0.079,1.13-0.239,1.355c-0.16,0.227-0.356,0.34-0.589,0.34s-0.43-0.113-0.589-0.338
	c-0.16-0.224-0.237-0.677-0.237-1.357S16.8,7.629,16.976,7.377z M20.758,10.888c0.303,0,0.553-0.082,0.751-0.245
	c0.199-0.163,0.349-0.393,0.449-0.691c0.1-0.299,0.15-0.691,0.15-1.177c0-0.41-0.032-0.736-0.093-0.978
	c-0.063-0.243-0.149-0.447-0.257-0.617c-0.111-0.168-0.249-0.297-0.415-0.386c-0.168-0.089-0.364-0.134-0.585-0.134
	c-0.301,0-0.551,0.081-0.75,0.243c-0.199,0.162-0.349,0.392-0.45,0.69c-0.1,0.298-0.15,0.693-0.15,1.182
	c0,0.778,0.136,1.339,0.408,1.684C20.044,10.745,20.358,10.888,20.758,10.888z M20.192,7.377c0.139-0.198,0.327-0.297,0.559-0.297
	c0.239,0,0.436,0.112,0.596,0.335c0.159,0.225,0.239,0.677,0.239,1.359c0,0.678-0.081,1.13-0.239,1.355
	c-0.16,0.227-0.355,0.34-0.589,0.34c-0.235,0-0.431-0.113-0.59-0.338c-0.158-0.224-0.237-0.677-0.237-1.357
	S20.018,7.629,20.192,7.377z M24.032,7.578v3.239h0.508V6.66h-0.328c-0.089,0.179-0.239,0.363-0.451,0.554
	c-0.212,0.189-0.463,0.352-0.746,0.486v0.49c0.158-0.058,0.336-0.145,0.536-0.263C23.749,7.812,23.91,7.694,24.032,7.578z
	 M26.818,7.578v3.239h0.51V6.66H27c-0.089,0.179-0.239,0.363-0.452,0.554c-0.214,0.189-0.462,0.352-0.746,0.486v0.49
	c0.158-0.058,0.337-0.145,0.535-0.263C26.537,7.812,26.698,7.694,26.818,7.578z M29.98,10.888c0.303,0,0.553-0.082,0.75-0.245
	c0.199-0.163,0.35-0.393,0.449-0.691c0.1-0.299,0.15-0.691,0.15-1.177c0-0.41-0.032-0.736-0.094-0.978
	C31.175,7.554,31.088,7.35,30.98,7.18c-0.111-0.168-0.25-0.297-0.416-0.386C30.396,6.705,30.202,6.66,29.98,6.66
	c-0.301,0-0.551,0.081-0.75,0.243c-0.199,0.162-0.35,0.392-0.451,0.69c-0.098,0.298-0.149,0.693-0.149,1.182
	c0,0.778,0.136,1.339,0.408,1.684C29.266,10.745,29.58,10.888,29.98,10.888z M29.415,7.377c0.14-0.198,0.327-0.297,0.56-0.297
	c0.237,0,0.436,0.112,0.594,0.335c0.16,0.225,0.24,0.677,0.24,1.359c0,0.678-0.082,1.13-0.24,1.355
	c-0.159,0.227-0.354,0.34-0.588,0.34c-0.234,0-0.432-0.113-0.59-0.338c-0.16-0.224-0.238-0.677-0.238-1.357
	S29.24,7.629,29.415,7.377z M33.253,7.578v3.239h0.508V6.66h-0.327c-0.09,0.179-0.24,0.363-0.451,0.554
	C32.77,7.403,32.52,7.565,32.236,7.7v0.49c0.158-0.058,0.337-0.145,0.535-0.263C32.971,7.812,33.13,7.694,33.253,7.578z
	 M36.414,10.888c0.303,0,0.553-0.082,0.753-0.245c0.197-0.163,0.349-0.393,0.447-0.691c0.1-0.299,0.149-0.691,0.149-1.177
	c0-0.41-0.031-0.736-0.093-0.978c-0.063-0.243-0.147-0.447-0.257-0.617c-0.109-0.168-0.248-0.297-0.416-0.386
	S36.637,6.66,36.414,6.66c-0.3,0-0.551,0.081-0.75,0.243c-0.199,0.162-0.348,0.392-0.449,0.69c-0.1,0.298-0.15,0.693-0.15,1.182
	c0,0.778,0.138,1.339,0.41,1.684C35.702,10.745,36.014,10.888,36.414,10.888z M35.85,7.377c0.139-0.198,0.325-0.297,0.56-0.297
	c0.237,0,0.435,0.112,0.595,0.335c0.16,0.225,0.239,0.677,0.239,1.359c0,0.678-0.079,1.13-0.239,1.355
	c-0.16,0.227-0.355,0.34-0.589,0.34s-0.429-0.113-0.589-0.338c-0.16-0.224-0.237-0.677-0.237-1.357S35.674,7.629,35.85,7.377z
	 M39.688,7.578v3.239h0.508V6.66h-0.328c-0.088,0.179-0.239,0.363-0.452,0.554C39.203,7.403,38.954,7.566,38.67,7.7v0.49
	c0.157-0.058,0.336-0.145,0.535-0.263C39.404,7.812,39.566,7.694,39.688,7.578z M42.475,7.578v3.239h0.51V6.66h-0.328
	c-0.088,0.179-0.239,0.363-0.451,0.554C41.992,7.403,41.744,7.566,41.46,7.7v0.49c0.157-0.058,0.336-0.145,0.535-0.263
	C42.193,7.812,42.354,7.694,42.475,7.578z M4.729,14.519v3.24h0.509v-4.158H4.91c-0.089,0.179-0.239,0.363-0.451,0.554
	c-0.213,0.189-0.463,0.352-0.746,0.486v0.491c0.158-0.058,0.337-0.146,0.536-0.262C4.447,14.752,4.607,14.635,4.729,14.519z
	 M7.89,17.83c0.303,0,0.553-0.082,0.751-0.245c0.2-0.163,0.349-0.393,0.449-0.691c0.1-0.298,0.15-0.691,0.15-1.177
	c0-0.41-0.031-0.736-0.093-0.978c-0.063-0.243-0.148-0.448-0.257-0.616c-0.11-0.169-0.249-0.297-0.416-0.387
	c-0.168-0.089-0.362-0.134-0.584-0.134c-0.3,0-0.552,0.081-0.75,0.243c-0.199,0.162-0.347,0.393-0.449,0.69
	c-0.1,0.299-0.151,0.692-0.151,1.181c0,0.779,0.138,1.339,0.41,1.684C7.177,17.686,7.491,17.83,7.89,17.83z M7.324,14.319
	c0.139-0.198,0.326-0.297,0.56-0.297c0.237,0,0.435,0.112,0.595,0.335c0.16,0.224,0.239,0.677,0.239,1.358
	c0,0.679-0.079,1.13-0.239,1.356c-0.16,0.226-0.356,0.339-0.589,0.339s-0.43-0.113-0.589-0.338c-0.16-0.225-0.237-0.677-0.237-1.357
	C7.063,15.037,7.149,14.571,7.324,14.319z M11.164,14.519v3.24h0.508v-4.158h-0.328c-0.088,0.179-0.239,0.363-0.452,0.554
	c-0.212,0.189-0.461,0.352-0.746,0.486v0.491c0.159-0.058,0.338-0.146,0.536-0.262C10.881,14.752,11.042,14.635,11.164,14.519z
	 M14.325,17.83c0.301,0,0.553-0.082,0.751-0.245c0.199-0.163,0.347-0.393,0.447-0.691s0.151-0.691,0.151-1.177
	c0-0.41-0.032-0.736-0.095-0.978c-0.061-0.243-0.147-0.448-0.257-0.616c-0.11-0.169-0.247-0.297-0.416-0.387
	c-0.168-0.089-0.362-0.134-0.583-0.134c-0.302,0-0.553,0.081-0.751,0.243c-0.199,0.162-0.348,0.393-0.449,0.69
	c-0.1,0.299-0.15,0.692-0.15,1.181c0,0.779,0.136,1.339,0.409,1.684C13.611,17.686,13.925,17.83,14.325,17.83z M13.758,14.319
	c0.14-0.198,0.327-0.297,0.56-0.297c0.238,0,0.435,0.112,0.595,0.335c0.16,0.224,0.239,0.677,0.239,1.358
	c0,0.679-0.079,1.13-0.239,1.356c-0.16,0.226-0.355,0.339-0.587,0.339c-0.235,0-0.431-0.113-0.59-0.338
	c-0.16-0.225-0.238-0.677-0.238-1.357C13.497,15.037,13.584,14.571,13.758,14.319z M18.106,17.759v-4.158h-0.328
	c-0.089,0.179-0.239,0.363-0.453,0.554c-0.212,0.189-0.461,0.352-0.744,0.486v0.491c0.158-0.058,0.336-0.146,0.535-0.262
	c0.199-0.117,0.36-0.234,0.48-0.351v3.24H18.106z M20.384,14.519v3.24h0.508v-4.158h-0.328c-0.087,0.179-0.239,0.363-0.452,0.554
	c-0.212,0.189-0.461,0.352-0.745,0.486v0.491c0.159-0.058,0.336-0.146,0.535-0.262C20.102,14.752,20.263,14.635,20.384,14.519z
	 M23.547,17.83c0.301,0,0.553-0.082,0.751-0.245c0.198-0.163,0.347-0.393,0.447-0.691s0.151-0.691,0.151-1.177
	c0-0.41-0.032-0.736-0.095-0.978c-0.061-0.243-0.147-0.448-0.257-0.616c-0.11-0.169-0.247-0.297-0.414-0.387
	c-0.169-0.089-0.364-0.134-0.584-0.134c-0.302,0-0.552,0.081-0.75,0.243c-0.198,0.162-0.349,0.393-0.45,0.69
	c-0.1,0.299-0.15,0.692-0.15,1.181c0,0.779,0.136,1.339,0.409,1.684C22.833,17.686,23.147,17.83,23.547,17.83z M22.982,14.319
	c0.139-0.198,0.326-0.297,0.558-0.297c0.238,0,0.437,0.112,0.595,0.335c0.16,0.224,0.239,0.677,0.239,1.358
	c0,0.679-0.079,1.13-0.239,1.356c-0.158,0.226-0.355,0.339-0.587,0.339c-0.235,0-0.431-0.113-0.59-0.338
	c-0.16-0.225-0.238-0.677-0.238-1.357C22.719,15.037,22.807,14.571,22.982,14.319z M36.414,17.83c0.303,0,0.553-0.082,0.753-0.245
	c0.197-0.163,0.349-0.393,0.447-0.691c0.1-0.298,0.149-0.691,0.149-1.177c0-0.41-0.031-0.736-0.093-0.978
	c-0.063-0.243-0.147-0.448-0.257-0.616c-0.109-0.169-0.248-0.297-0.416-0.387c-0.168-0.09-0.362-0.134-0.585-0.134
	c-0.3,0-0.552,0.081-0.75,0.243c-0.199,0.162-0.347,0.393-0.449,0.69c-0.1,0.299-0.151,0.692-0.151,1.181
	c0,0.779,0.139,1.339,0.41,1.684C35.702,17.686,36.014,17.83,36.414,17.83z M35.85,14.319c0.139-0.198,0.325-0.297,0.56-0.297
	c0.237,0,0.435,0.112,0.595,0.335c0.16,0.224,0.239,0.677,0.239,1.358c0,0.679-0.079,1.13-0.239,1.356
	c-0.16,0.226-0.355,0.339-0.589,0.339s-0.429-0.113-0.589-0.338c-0.16-0.225-0.237-0.677-0.237-1.357
	C35.588,15.037,35.674,14.571,35.85,14.319z M39.631,17.83c0.303,0,0.553-0.082,0.751-0.245c0.199-0.163,0.349-0.393,0.449-0.691
	s0.149-0.691,0.149-1.177c0-0.41-0.031-0.736-0.092-0.978c-0.063-0.243-0.149-0.448-0.258-0.616
	c-0.111-0.169-0.249-0.297-0.415-0.387c-0.168-0.089-0.362-0.134-0.585-0.134c-0.301,0-0.551,0.081-0.75,0.243
	c-0.199,0.162-0.349,0.393-0.449,0.69c-0.101,0.299-0.15,0.692-0.15,1.181c0,0.779,0.136,1.339,0.408,1.684
	C38.917,17.686,39.23,17.83,39.631,17.83z M39.066,14.319c0.139-0.198,0.326-0.297,0.56-0.297c0.237,0,0.435,0.112,0.595,0.335
	c0.158,0.224,0.238,0.677,0.238,1.358c0,0.679-0.081,1.13-0.238,1.356c-0.16,0.226-0.355,0.339-0.59,0.339s-0.431-0.113-0.589-0.338
	c-0.16-0.225-0.239-0.677-0.239-1.357C38.805,15.037,38.891,14.571,39.066,14.319z M42.1,13.844c-0.201,0.162-0.35,0.393-0.451,0.69
	c-0.1,0.299-0.149,0.692-0.149,1.181c0,0.779,0.136,1.339,0.408,1.684c0.228,0.286,0.542,0.43,0.942,0.43
	c0.301,0,0.553-0.082,0.75-0.245c0.199-0.163,0.348-0.393,0.447-0.691s0.151-0.691,0.151-1.177c0-0.41-0.032-0.736-0.095-0.978
	c-0.062-0.243-0.146-0.448-0.256-0.616c-0.111-0.169-0.248-0.297-0.414-0.387c-0.17-0.089-0.365-0.134-0.586-0.134
	C42.547,13.601,42.297,13.682,42.1,13.844z M43.436,14.357c0.16,0.224,0.24,0.677,0.24,1.358c0,0.679-0.08,1.13-0.24,1.356
	c-0.158,0.226-0.354,0.339-0.586,0.339c-0.235,0-0.432-0.113-0.591-0.338c-0.159-0.225-0.237-0.677-0.237-1.357
	c0-0.679,0.088-1.145,0.261-1.397c0.14-0.198,0.327-0.297,0.56-0.297C43.079,14.022,43.277,14.134,43.436,14.357z M4.729,21.46v3.24
	h0.509v-4.157H4.91c-0.089,0.179-0.239,0.363-0.451,0.554c-0.213,0.19-0.463,0.352-0.746,0.486v0.491
	c0.158-0.059,0.337-0.146,0.536-0.263S4.607,21.577,4.729,21.46z M7.89,24.771c0.303,0,0.553-0.082,0.751-0.245
	c0.2-0.163,0.349-0.394,0.449-0.692c0.1-0.299,0.15-0.691,0.15-1.177c0-0.41-0.031-0.737-0.093-0.979
	c-0.063-0.242-0.148-0.447-0.257-0.616c-0.11-0.168-0.249-0.297-0.416-0.387c-0.168-0.089-0.362-0.134-0.584-0.134
	c-0.3,0-0.552,0.081-0.75,0.243c-0.199,0.162-0.347,0.392-0.449,0.69c-0.1,0.298-0.151,0.692-0.151,1.182
	c0,0.778,0.138,1.339,0.41,1.684C7.177,24.627,7.491,24.771,7.89,24.771z M7.324,21.26c0.139-0.198,0.326-0.296,0.56-0.296
	c0.237,0,0.435,0.112,0.595,0.336c0.16,0.224,0.239,0.677,0.239,1.358c0,0.678-0.079,1.13-0.239,1.356s-0.356,0.339-0.589,0.339
	s-0.43-0.112-0.589-0.337c-0.159-0.225-0.237-0.677-0.237-1.357C7.063,21.978,7.149,21.513,7.324,21.26z M11.164,21.46v3.24h0.508
	v-4.157h-0.328c-0.088,0.179-0.239,0.363-0.452,0.554c-0.212,0.19-0.461,0.352-0.746,0.486v0.491
	c0.159-0.059,0.338-0.146,0.536-0.263C10.881,21.694,11.042,21.577,11.164,21.46z M14.325,24.771c0.301,0,0.553-0.082,0.751-0.245
	c0.199-0.163,0.347-0.394,0.447-0.692c0.1-0.299,0.151-0.691,0.151-1.177c0-0.41-0.032-0.737-0.095-0.979
	c-0.061-0.242-0.147-0.447-0.257-0.616c-0.11-0.169-0.247-0.297-0.416-0.387c-0.168-0.089-0.362-0.134-0.583-0.134
	c-0.302,0-0.553,0.081-0.751,0.243c-0.199,0.162-0.348,0.392-0.449,0.69c-0.1,0.298-0.15,0.692-0.15,1.182
	c0,0.778,0.136,1.339,0.409,1.684C13.611,24.627,13.925,24.771,14.325,24.771z M13.758,21.26c0.14-0.198,0.327-0.296,0.56-0.296
	c0.238,0,0.435,0.112,0.595,0.336c0.16,0.224,0.239,0.677,0.239,1.358c0,0.678-0.079,1.13-0.239,1.356s-0.355,0.339-0.587,0.339
	c-0.235,0-0.431-0.112-0.59-0.337c-0.16-0.225-0.238-0.677-0.238-1.357C13.497,21.978,13.584,21.513,13.758,21.26z M17.541,24.771
	c0.303,0,0.553-0.082,0.751-0.245c0.199-0.163,0.349-0.394,0.449-0.692c0.1-0.299,0.15-0.691,0.15-1.177
	c0-0.41-0.031-0.737-0.093-0.979c-0.063-0.242-0.148-0.447-0.257-0.616c-0.11-0.168-0.249-0.297-0.416-0.387
	c-0.168-0.089-0.362-0.134-0.584-0.134c-0.302,0-0.552,0.081-0.75,0.243c-0.199,0.162-0.347,0.392-0.449,0.69
	c-0.1,0.298-0.151,0.692-0.151,1.182c0,0.778,0.138,1.339,0.41,1.684C16.828,24.627,17.141,24.771,17.541,24.771z M16.976,21.26
	c0.139-0.198,0.326-0.296,0.56-0.296c0.237,0,0.435,0.112,0.595,0.336c0.16,0.224,0.239,0.677,0.239,1.358
	c0,0.678-0.079,1.13-0.239,1.356c-0.16,0.226-0.356,0.339-0.589,0.339s-0.43-0.112-0.589-0.337
	c-0.159-0.225-0.237-0.677-0.237-1.357C16.714,21.978,16.8,21.513,16.976,21.26z M42.475,21.46v3.24h0.51v-4.157h-0.328
	c-0.088,0.179-0.239,0.363-0.451,0.554c-0.213,0.19-0.461,0.352-0.745,0.486v0.491c0.157-0.059,0.336-0.146,0.535-0.263
	C42.193,21.694,42.354,21.577,42.475,21.46z M4.658,27.247c-0.213,0.19-0.463,0.353-0.746,0.485v0.492
	c0.158-0.06,0.337-0.146,0.536-0.264c0.199-0.117,0.358-0.232,0.48-0.35v3.238h0.509v-4.156H5.109
	C5.02,26.872,4.87,27.057,4.658,27.247z M9.089,27.214c-0.11-0.168-0.249-0.297-0.416-0.387c-0.168-0.089-0.362-0.134-0.584-0.134
	c-0.3,0-0.552,0.08-0.75,0.242c-0.199,0.162-0.347,0.393-0.449,0.69c-0.1,0.298-0.151,0.692-0.151,1.183
	c0,0.777,0.138,1.338,0.41,1.684c0.228,0.285,0.542,0.43,0.94,0.43c0.303,0,0.553-0.082,0.751-0.245
	c0.2-0.163,0.349-0.394,0.449-0.692s0.15-0.69,0.15-1.176c0-0.41-0.031-0.738-0.093-0.979C9.283,27.587,9.197,27.382,9.089,27.214z
	 M8.678,30.164c-0.16,0.227-0.356,0.339-0.589,0.339s-0.43-0.112-0.589-0.337s-0.237-0.677-0.237-1.357
	c0-0.68,0.086-1.145,0.261-1.397c0.139-0.198,0.326-0.296,0.56-0.296c0.237,0,0.435,0.111,0.595,0.336
	c0.16,0.224,0.239,0.677,0.239,1.357C8.917,29.486,8.837,29.938,8.678,30.164z M11.092,27.247c-0.212,0.19-0.461,0.353-0.746,0.485
	v0.492c0.159-0.06,0.338-0.146,0.536-0.264c0.199-0.117,0.36-0.232,0.481-0.35v3.238h0.508v-4.156h-0.328
	C11.456,26.872,11.304,27.057,11.092,27.247z M15.523,27.214c-0.11-0.168-0.247-0.297-0.416-0.387
	c-0.168-0.089-0.362-0.134-0.583-0.134c-0.302,0-0.553,0.08-0.751,0.242c-0.199,0.162-0.348,0.393-0.449,0.69
	c-0.1,0.298-0.15,0.692-0.15,1.183c0,0.777,0.136,1.338,0.409,1.684c0.228,0.285,0.542,0.43,0.942,0.43
	c0.301,0,0.553-0.082,0.751-0.245c0.199-0.163,0.347-0.394,0.447-0.692s0.151-0.69,0.151-1.176c0-0.41-0.032-0.738-0.095-0.979
	C15.719,27.587,15.633,27.382,15.523,27.214z M15.112,30.164c-0.16,0.227-0.355,0.339-0.587,0.339c-0.235,0-0.431-0.112-0.59-0.337
	c-0.16-0.225-0.238-0.677-0.238-1.357c0-0.68,0.087-1.145,0.261-1.397c0.14-0.198,0.327-0.296,0.56-0.296
	c0.238,0,0.435,0.111,0.595,0.336c0.16,0.224,0.239,0.677,0.239,1.357C15.351,29.486,15.271,29.938,15.112,30.164z M18.74,27.214
	c-0.11-0.168-0.249-0.297-0.416-0.387c-0.168-0.089-0.362-0.134-0.584-0.134c-0.302,0-0.552,0.08-0.75,0.242
	c-0.199,0.162-0.347,0.393-0.449,0.69c-0.1,0.298-0.151,0.692-0.151,1.183c0,0.777,0.138,1.338,0.41,1.684
	c0.228,0.285,0.54,0.43,0.94,0.43c0.303,0,0.553-0.082,0.751-0.245c0.199-0.163,0.349-0.394,0.449-0.692s0.15-0.69,0.15-1.176
	c0-0.41-0.031-0.738-0.093-0.979C18.935,27.587,18.849,27.382,18.74,27.214z M18.329,30.164c-0.16,0.227-0.356,0.339-0.589,0.339
	c-0.233,0-0.43-0.112-0.589-0.337c-0.159-0.225-0.237-0.677-0.237-1.357c0-0.68,0.086-1.145,0.261-1.397
	c0.139-0.198,0.326-0.296,0.56-0.296c0.237,0,0.435,0.111,0.595,0.336c0.16,0.224,0.239,0.677,0.239,1.357
	C18.568,29.486,18.489,29.938,18.329,30.164z M43.184,30.85v-4.156h-0.328c-0.088,0.179-0.239,0.363-0.451,0.554
	c-0.213,0.19-0.461,0.353-0.745,0.485v0.492c0.157-0.06,0.336-0.146,0.534-0.264c0.199-0.117,0.361-0.232,0.48-0.35v3.238H43.184z
	 M36.56,35.788l2.175-2.175l7.554,7.553l-2.175,2.176L36.56,35.788z M39.689,27.773c0.074-0.055,0.141-0.108,0.196-0.164v3.24h0.509
	v-4.158h-0.328c-0.067,0.138-0.184,0.279-0.324,0.423c0.01-0.183,0.027-0.364,0.027-0.55c0-1.62-0.399-3.146-1.097-4.494
	c0.157-0.059,0.335-0.146,0.533-0.262c0.198-0.117,0.358-0.233,0.479-0.35V24.7h0.508v-4.157h-0.327
	c-0.087,0.179-0.239,0.363-0.452,0.554c-0.212,0.19-0.461,0.352-0.745,0.486v0.485c-1.053-2.035-2.789-3.662-4.91-4.56v-3.906
	h-0.327c-0.09,0.179-0.24,0.363-0.451,0.554c-0.213,0.189-0.463,0.352-0.746,0.486v0.491c0.158-0.058,0.336-0.146,0.535-0.262
	c0.199-0.117,0.358-0.234,0.481-0.351v2.802c-0.657-0.236-1.345-0.406-2.058-0.498c0.086-0.29,0.135-0.654,0.135-1.107
	c0-0.41-0.032-0.736-0.094-0.978c-0.062-0.243-0.148-0.448-0.256-0.616c-0.111-0.169-0.25-0.297-0.416-0.387
	c-0.168-0.089-0.362-0.134-0.584-0.134c-0.302,0-0.552,0.081-0.75,0.243c-0.199,0.162-0.35,0.393-0.451,0.69
	c-0.098,0.299-0.149,0.692-0.149,1.181c0,0.436,0.047,0.796,0.132,1.095c-0.49,0.059-0.968,0.157-1.434,0.286v-3.496H27
	c-0.089,0.179-0.239,0.363-0.452,0.554c-0.214,0.189-0.462,0.352-0.746,0.486v0.491c0.158-0.058,0.337-0.146,0.535-0.262
	c0.199-0.117,0.36-0.234,0.479-0.351v2.731c-2.075,0.698-3.846,2.063-5.044,3.849c-0.006-0.01-0.009-0.026-0.015-0.036
	c-0.111-0.168-0.249-0.297-0.415-0.387c-0.168-0.089-0.364-0.134-0.585-0.134c-0.301,0-0.551,0.081-0.75,0.243
	c-0.199,0.162-0.349,0.392-0.45,0.69c-0.1,0.298-0.15,0.692-0.15,1.182c0,0.778,0.136,1.339,0.408,1.684
	c0.129,0.162,0.293,0.266,0.478,0.336c-0.12,0.612-0.186,1.242-0.186,1.888c0,0.154,0.016,0.305,0.023,0.457
	c-0.158,0.154-0.287,0.35-0.374,0.604c-0.1,0.298-0.15,0.692-0.15,1.183c0,0.777,0.136,1.338,0.408,1.684
	c0.228,0.285,0.542,0.43,0.942,0.43c0.062,0,0.112-0.018,0.169-0.025c1.605,3.252,4.947,5.5,8.812,5.5
	C34.95,36.396,39.09,32.625,39.689,27.773z M29.152,15.716c0-0.679,0.087-1.145,0.262-1.397c0.139-0.198,0.327-0.297,0.561-0.297
	c0.236,0,0.435,0.112,0.594,0.335c0.158,0.224,0.238,0.677,0.238,1.358c0,0.458-0.039,0.805-0.113,1.056
	c-0.25-0.019-0.5-0.038-0.756-0.038c-0.228,0-0.451,0.019-0.676,0.034C29.191,16.517,29.152,16.172,29.152,15.716z M20.167,24.015
	c-0.158-0.225-0.237-0.677-0.237-1.357c0-0.68,0.087-1.145,0.262-1.398c0.139-0.198,0.327-0.296,0.559-0.296
	c0.239,0,0.436,0.112,0.596,0.336c0.051,0.072,0.091,0.176,0.125,0.294c-0.479,0.813-0.843,1.7-1.073,2.641
	C20.316,24.179,20.237,24.113,20.167,24.015z M20.367,30.166c-0.158-0.225-0.237-0.677-0.237-1.357c0-0.369,0.028-0.668,0.08-0.912
	c0.124,0.912,0.368,1.785,0.725,2.602C20.71,30.489,20.521,30.383,20.367,30.166z M36.453,29.91c-0.1,0.197-0.208,0.389-0.324,0.574
	c0.018-0.014,0.041-0.027,0.059-0.041c-0.268,0.429-0.586,0.82-0.934,1.184c-0.061,0.064-0.115,0.133-0.178,0.193
	c-0.059,0.058-0.119,0.109-0.178,0.162c-0.168,0.156-0.342,0.307-0.524,0.445c-0.028,0.022-0.058,0.045-0.086,0.064
	c-1.229,0.923-2.753,1.476-4.408,1.476c-4.067,0-7.363-3.296-7.363-7.362c0-2.689,1.447-5.036,3.6-6.319
	c0.051-0.032,0.102-0.064,0.154-0.095c0.152-0.086,0.311-0.163,0.469-0.237c0.97-0.473,2.05-0.751,3.199-0.751
	c4.061,0,7.363,3.303,7.363,7.363c0,0.072-0.009,0.142-0.012,0.213c-0.002,0.007-0.006,0.012-0.008,0.019
	c-0.053,0.155-0.078,0.358-0.078,0.612c0,0.08,0.005,0.154,0.011,0.227c-0.118,0.809-0.364,1.572-0.725,2.273H36.453z"/>
</svg>
