<?xml version="1.0" encoding="utf-8"?>
<!-- Generator: Adobe Illustrator 16.0.0, SVG Export Plug-In . SVG Version: 6.00 Build 0)  -->
<!DOCTYPE svg PUBLIC "-//W3C//DTD SVG 1.1//EN" "http://www.w3.org/Graphics/SVG/1.1/DTD/svg11.dtd">
<svg version="1.1" xmlns="http://www.w3.org/2000/svg" xmlns:xlink="http://www.w3.org/1999/xlink" x="0px" y="0px" width="50px"
	 height="50px" viewBox="0 0 50 50" enable-background="new 0 0 50 50" xml:space="preserve">
<g id="text">
</g>
<g id="_x31_">
</g>
<g id="_x32_">
</g>
<g id="_x33__1_">
</g>
<g id="_x34_">
</g>
<g id="_x35_">
</g>
<g id="_x36_">
</g>
<g id="_x37_">
</g>
<g id="_x38_">
</g>
<g id="_x39_">
</g>
<g id="_x31_0">
</g>
<g id="_x31_1">
</g>
<g id="_x31_2">
</g>
<g id="_x31_3">
</g>
<g id="_x31_4">
</g>
<g id="_x31_5">
</g>
<g id="_x31_6">
</g>
<g id="_x31_7">
</g>
<g id="_x31_8">
</g>
<g id="_x31_9">
</g>
<g id="_x32_0">
</g>
<g id="_x32_1">
</g>
<g id="_x32_2">
</g>
<g id="_x32_3">
</g>
<g id="_x32_4">
</g>
<g id="_x32_5">
</g>
<g id="_x32_6">
	<g>
		<path d="M33.85,15.703v2.073h0.325v-2.661h-0.209c-0.056,0.114-0.153,0.232-0.29,0.354c-0.136,0.121-0.295,0.225-0.476,0.311
			v0.314c0.1-0.037,0.215-0.093,0.342-0.168C33.669,15.852,33.773,15.777,33.85,15.703z"/>
		<path d="M35.634,15.703v2.073h0.326v-2.661h-0.21c-0.057,0.114-0.153,0.232-0.289,0.354c-0.136,0.121-0.295,0.225-0.477,0.311
			v0.314c0.101-0.037,0.216-0.093,0.342-0.168C35.454,15.852,35.557,15.777,35.634,15.703z"/>
		<path d="M29.559,19.912c-0.137,0.122-0.297,0.225-0.478,0.311v0.314c0.102-0.038,0.215-0.093,0.343-0.168s0.229-0.15,0.308-0.225
			v2.074h0.325v-2.661h-0.21C29.79,19.672,29.694,19.79,29.559,19.912z"/>
		<path d="M32.396,19.891c-0.071-0.108-0.159-0.19-0.266-0.248c-0.108-0.057-0.232-0.086-0.375-0.086
			c-0.191,0-0.353,0.052-0.48,0.156c-0.126,0.104-0.222,0.251-0.287,0.442c-0.063,0.191-0.097,0.443-0.097,0.756
			c0,0.498,0.088,0.857,0.263,1.078c0.146,0.183,0.346,0.275,0.602,0.275c0.193,0,0.354-0.052,0.481-0.157
			c0.127-0.104,0.223-0.252,0.286-0.442c0.065-0.191,0.097-0.442,0.097-0.753c0-0.263-0.019-0.471-0.06-0.626
			C32.52,20.13,32.465,20,32.396,19.891z M32.132,21.779c-0.102,0.145-0.227,0.217-0.377,0.217c-0.149,0-0.275-0.072-0.376-0.217
			c-0.103-0.144-0.153-0.433-0.153-0.868c0-0.435,0.056-0.733,0.168-0.895c0.089-0.126,0.208-0.19,0.357-0.19
			c0.153,0,0.279,0.071,0.381,0.215c0.103,0.144,0.152,0.433,0.152,0.87C32.284,21.346,32.234,21.635,32.132,21.779z"/>
		<path d="M34.454,19.891c-0.071-0.108-0.159-0.19-0.265-0.248c-0.108-0.057-0.233-0.086-0.375-0.086
			c-0.193,0-0.353,0.052-0.48,0.156c-0.127,0.104-0.224,0.251-0.288,0.442c-0.063,0.191-0.096,0.443-0.096,0.756
			c0,0.498,0.087,0.857,0.261,1.078c0.146,0.183,0.348,0.275,0.604,0.275c0.193,0,0.354-0.052,0.48-0.157
			c0.128-0.104,0.224-0.252,0.287-0.442c0.063-0.191,0.097-0.442,0.097-0.753c0-0.263-0.021-0.471-0.061-0.626
			C34.579,20.13,34.524,20,34.454,19.891z M34.191,21.779c-0.103,0.145-0.229,0.217-0.377,0.217c-0.149,0-0.276-0.072-0.378-0.217
			c-0.102-0.144-0.152-0.433-0.152-0.868c0-0.435,0.056-0.733,0.169-0.895c0.089-0.126,0.208-0.19,0.357-0.19
			c0.152,0,0.278,0.071,0.381,0.215c0.102,0.144,0.152,0.433,0.152,0.87C34.344,21.346,34.293,21.635,34.191,21.779z"/>
		<path d="M36.513,19.891c-0.07-0.108-0.158-0.19-0.266-0.248c-0.108-0.057-0.232-0.086-0.374-0.086
			c-0.192,0-0.353,0.052-0.479,0.156c-0.129,0.104-0.224,0.251-0.288,0.442s-0.096,0.443-0.096,0.756
			c0,0.498,0.086,0.857,0.261,1.078c0.146,0.183,0.347,0.275,0.603,0.275c0.193,0,0.354-0.052,0.481-0.157
			c0.128-0.104,0.222-0.252,0.286-0.442c0.063-0.191,0.097-0.442,0.097-0.753c0-0.263-0.021-0.471-0.061-0.626
			C36.638,20.13,36.583,20,36.513,19.891z M36.249,21.779c-0.101,0.145-0.228,0.217-0.376,0.217c-0.15,0-0.275-0.072-0.378-0.217
			c-0.102-0.144-0.151-0.433-0.151-0.868c0-0.435,0.056-0.733,0.167-0.895c0.089-0.126,0.21-0.19,0.358-0.19
			c0.151,0,0.279,0.071,0.38,0.215c0.104,0.144,0.154,0.433,0.154,0.87C36.403,21.346,36.353,21.635,36.249,21.779z"/>
		<path d="M37.795,19.912c-0.137,0.122-0.295,0.225-0.477,0.311v0.314c0.102-0.038,0.215-0.093,0.342-0.168
			c0.128-0.075,0.23-0.15,0.308-0.225v2.074h0.326v-2.661h-0.21C38.027,19.672,37.931,19.79,37.795,19.912z"/>
		<polygon points="43.906,33.536 25.539,33.536 24.461,33.536 6.094,33.536 0.652,40.81 0.652,42.557 49.348,42.557 49.348,40.81 		
			"/>
		<path d="M40.495,25.315c0.01-0.014,0.021-0.027,0.031-0.041c0.122-0.167,0.237-0.338,0.346-0.515
			c0.02-0.031,0.039-0.063,0.058-0.094c0.098-0.164,0.191-0.331,0.277-0.502c0.026-0.051,0.05-0.104,0.075-0.156
			c0.075-0.157,0.146-0.315,0.211-0.478c0.03-0.076,0.056-0.152,0.083-0.229c0.053-0.146,0.105-0.292,0.149-0.443
			c0.031-0.104,0.055-0.21,0.082-0.315c0.032-0.13,0.067-0.259,0.093-0.392c0.028-0.142,0.046-0.288,0.066-0.433
			c0.014-0.102,0.033-0.203,0.043-0.307c0.025-0.252,0.039-0.508,0.039-0.768s-0.014-0.515-0.039-0.768
			c-0.01-0.104-0.029-0.205-0.043-0.307c-0.02-0.145-0.039-0.291-0.066-0.433c-0.026-0.133-0.061-0.261-0.093-0.392
			c-0.027-0.105-0.051-0.212-0.082-0.315c-0.044-0.15-0.097-0.297-0.149-0.443c-0.027-0.077-0.054-0.153-0.083-0.229
			c-0.065-0.163-0.136-0.321-0.211-0.478c-0.025-0.052-0.049-0.105-0.075-0.156c-0.086-0.171-0.179-0.338-0.277-0.502
			c-0.019-0.031-0.038-0.063-0.058-0.094c-0.109-0.176-0.224-0.348-0.346-0.515c-0.01-0.014-0.021-0.027-0.031-0.041
			c-1.434-1.931-3.723-3.189-6.307-3.189c-4.334,0-7.861,3.526-7.861,7.861s3.526,7.861,7.861,7.861
			c2.038,0,3.891-0.786,5.289-2.062h0.022v-0.02C39.864,26.085,40.198,25.715,40.495,25.315z M40.046,20.08
			c0.018,0.186,0.029,0.374,0.029,0.564c0,0.417-0.045,0.824-0.128,1.217c-0.085,0.081-0.179,0.135-0.29,0.135
			c-0.15,0-0.275-0.073-0.379-0.217c-0.103-0.144-0.151-0.433-0.151-0.868s0.056-0.733,0.167-0.895
			c0.09-0.126,0.209-0.189,0.358-0.189c0.151,0,0.278,0.072,0.381,0.215C40.039,20.05,40.041,20.07,40.046,20.08z M38.187,16.469
			c0,0.434-0.051,0.723-0.152,0.868c-0.103,0.145-0.228,0.217-0.376,0.217c-0.15,0-0.275-0.073-0.379-0.217
			c-0.103-0.144-0.151-0.433-0.151-0.868c0-0.395,0.052-0.661,0.144-0.831c0.324,0.201,0.626,0.431,0.905,0.688
			C38.178,16.378,38.187,16.412,38.187,16.469z M31.751,15.384c0.153,0,0.279,0.072,0.381,0.215c0.103,0.144,0.152,0.434,0.152,0.87
			c0,0.434-0.05,0.723-0.152,0.868c-0.102,0.145-0.227,0.217-0.377,0.217c-0.149,0-0.275-0.073-0.376-0.217
			c-0.103-0.144-0.153-0.433-0.153-0.868s0.056-0.733,0.168-0.895C31.482,15.447,31.602,15.384,31.751,15.384z M30.098,16.446
			c0,0.434-0.051,0.723-0.152,0.868c-0.103,0.145-0.228,0.217-0.376,0.217c-0.111,0-0.205-0.053-0.29-0.132
			c0.236-0.355,0.51-0.683,0.816-0.979C30.096,16.43,30.098,16.436,30.098,16.446z M28.368,20.912c0,0.158-0.014,0.276-0.028,0.396
			c-0.024-0.218-0.04-0.439-0.04-0.664c0-0.106,0.01-0.21,0.016-0.315C28.348,20.48,28.368,20.667,28.368,20.912z M30.596,25.297
			c-0.164-0.127-0.322-0.261-0.472-0.405c0.055-0.027,0.103-0.045,0.164-0.081c0.127-0.075,0.231-0.149,0.308-0.224V25.297z
			 M31.556,25.354c0-0.435,0.056-0.733,0.167-0.895c0.09-0.126,0.209-0.189,0.358-0.189c0.151,0,0.278,0.072,0.381,0.215
			c0.102,0.144,0.152,0.434,0.152,0.87c0,0.434-0.051,0.723-0.152,0.868c-0.012,0.017-0.027,0.023-0.04,0.038
			c-0.284-0.089-0.556-0.205-0.82-0.335C31.573,25.774,31.556,25.589,31.556,25.354z M36.789,25.354
			c0-0.435,0.056-0.733,0.167-0.895c0.09-0.126,0.209-0.189,0.358-0.189c0.151,0,0.278,0.072,0.381,0.215
			c0.092,0.13,0.137,0.397,0.145,0.768c-0.313,0.249-0.653,0.465-1.014,0.646C36.801,25.753,36.789,25.572,36.789,25.354z
			 M38.163,24.973c-0.01-0.091-0.022-0.175-0.041-0.245c-0.039-0.155-0.095-0.287-0.164-0.395c-0.071-0.107-0.159-0.19-0.267-0.247
			S37.46,24,37.319,24c-0.193,0-0.354,0.051-0.481,0.155c-0.127,0.104-0.222,0.251-0.287,0.441
			c-0.063,0.191-0.097,0.444-0.097,0.757c0,0.272,0.032,0.495,0.084,0.684c-0.188,0.082-0.38,0.156-0.578,0.219V24h-0.21
			c-0.057,0.115-0.153,0.233-0.289,0.354c-0.136,0.122-0.295,0.226-0.477,0.311v0.314c0.101-0.037,0.216-0.093,0.342-0.168
			c0.128-0.075,0.23-0.149,0.308-0.224v1.755c-0.464,0.118-0.946,0.187-1.446,0.187c-0.004,0-0.008,0-0.013,0V24h-0.209
			c-0.056,0.115-0.153,0.233-0.29,0.354c-0.136,0.122-0.295,0.226-0.476,0.311v0.314c0.1-0.037,0.215-0.093,0.342-0.168
			s0.231-0.149,0.308-0.224v1.925c-0.38-0.022-0.75-0.079-1.108-0.17c0.043-0.07,0.082-0.147,0.111-0.236
			c0.064-0.191,0.098-0.442,0.098-0.753c0-0.262-0.021-0.472-0.061-0.626c-0.039-0.155-0.095-0.287-0.164-0.395
			c-0.071-0.107-0.159-0.19-0.267-0.247S32.228,24,32.086,24c-0.193,0-0.354,0.051-0.481,0.155
			c-0.127,0.104-0.222,0.251-0.287,0.441c-0.063,0.191-0.097,0.444-0.097,0.757c0,0.151,0.024,0.265,0.04,0.39
			c-0.115-0.066-0.23-0.133-0.34-0.207V24h-0.209c-0.056,0.115-0.153,0.233-0.29,0.354c-0.136,0.122-0.295,0.226-0.476,0.311v0.05
			c-0.726-0.756-1.251-1.703-1.493-2.759c0.062-0.083,0.115-0.178,0.153-0.292c0.064-0.191,0.098-0.442,0.098-0.753
			c0-0.262-0.021-0.472-0.061-0.626c-0.039-0.155-0.095-0.287-0.164-0.395c-0.029-0.044-0.075-0.066-0.11-0.102
			c0.113-0.771,0.375-1.493,0.757-2.138c0.124,0.087,0.265,0.148,0.442,0.148c0.192,0,0.354-0.052,0.48-0.157
			c0.127-0.104,0.223-0.252,0.286-0.443c0.064-0.191,0.098-0.442,0.098-0.753c0-0.119-0.005-0.224-0.014-0.321
			c0.181-0.151,0.372-0.289,0.569-0.417c0,0.001-0.001,0.002-0.002,0.004c-0.063,0.191-0.097,0.444-0.097,0.757
			c0,0.499,0.088,0.857,0.263,1.077c0.146,0.183,0.346,0.275,0.602,0.275c0.193,0,0.354-0.052,0.481-0.157
			c0.127-0.104,0.223-0.252,0.286-0.443c0.065-0.191,0.097-0.442,0.097-0.753c0-0.262-0.019-0.472-0.06-0.626
			c-0.04-0.155-0.095-0.287-0.164-0.395c-0.071-0.107-0.159-0.19-0.266-0.247c-0.032-0.017-0.076-0.013-0.111-0.025
			c0.672-0.268,1.402-0.419,2.168-0.419c1.019,0,1.978,0.261,2.815,0.718c-0.044,0.07-0.082,0.148-0.113,0.237
			c-0.063,0.191-0.097,0.444-0.097,0.757c0,0.499,0.088,0.857,0.263,1.077c0.146,0.183,0.346,0.275,0.603,0.275
			c0.192,0,0.354-0.052,0.48-0.157c0.127-0.104,0.223-0.252,0.286-0.443c0.05-0.147,0.075-0.341,0.086-0.56
			c0.75,0.813,1.272,1.835,1.47,2.97c-0.097-0.043-0.202-0.074-0.325-0.074c-0.193,0-0.354,0.051-0.481,0.155
			c-0.127,0.104-0.222,0.251-0.287,0.441c-0.063,0.191-0.097,0.444-0.097,0.757c0,0.499,0.088,0.857,0.263,1.077
			c0.146,0.183,0.346,0.275,0.603,0.275c0.07,0,0.131-0.015,0.193-0.029c-0.208,0.738-0.555,1.417-1.014,2.007
			c-0.1,0.072-0.194,0.149-0.314,0.205v0.166C38.408,24.738,38.288,24.857,38.163,24.973z"/>
		<polygon points="43.843,32.378 45.521,34.056 47.259,32.318 43.912,28.97 41.22,26.279 40.078,27.421 39.482,28.017 
			40.011,28.546 		"/>
		<path d="M38.775,28.724l-0.178-0.178h-0.422c-1.2,0.608-2.552,0.958-3.987,0.958s-2.787-0.351-3.987-0.958H9.928V11.275h30.149
			v2.767c1.818,1.624,2.971,3.978,2.971,6.601c0,1.724-0.505,3.326-1.362,4.687l0.241,0.241l1.984,1.984V7.443H6.095v24.935h36.334
			L38.775,28.724z"/>
	</g>
</g>
<g id="_x32_7">
</g>
<g id="_x32_8">
</g>
<g id="_x32_9">
</g>
<g id="_x33_0">
</g>
<g id="_x33_1">
</g>
<g id="_x33_2">
</g>
<g id="_x33_3">
</g>
<g id="_x33_4">
</g>
<g id="_x33_5">
</g>
<g id="_x33_6">
</g>
<g id="_x33_7">
</g>
<g id="_x33_8">
</g>
<g id="_x33_9">
</g>
<g id="_x34_0">
</g>
<g id="_x34_1">
</g>
<g id="_x34_2">
</g>
<g id="_x34_3">
</g>
<g id="_x34_4">
</g>
<g id="_x34_5">
</g>
<g id="_x34_6">
</g>
<g id="_x34_7">
</g>
<g id="_x34_8">
</g>
<g id="_x34_9">
</g>
<g id="_x35_0">
</g>
<g id="_x35_1">
</g>
<g id="_x35_2">
</g>
<g id="_x35_3">
</g>
<g id="_x35_4">
</g>
<g id="_x35_5">
</g>
<g id="_x35_6">
</g>
<g id="_x35_7">
</g>
<g id="_x35_8">
</g>
<g id="_x35_9">
</g>
<g id="_x36_0">
</g>
<g id="_x36_1">
</g>
<g id="_x36_2">
</g>
<g id="_x36_3">
</g>
<g id="_x36_4">
</g>
<g id="_x36_5">
</g>
<g id="_x36_6">
</g>
<g id="_x36_7">
</g>
<g id="_x36_8">
</g>
<g id="_x36_9">
</g>
<g id="_x37_0">
</g>
<g id="_x37_1">
</g>
<g id="_x37_2">
</g>
<g id="_x37_3">
</g>
<g id="_x37_4">
</g>
<g id="_x37_5">
</g>
<g id="_x37_6">
</g>
<g id="_x37_7">
</g>
<g id="_x37_8">
</g>
<g id="_x37_9">
</g>
<g id="_x38_0">
</g>
<g id="_x38_1">
</g>
<g id="_x38_2">
</g>
<g id="_x38_3">
</g>
<g id="_x38_4">
</g>
<g id="_x38_5">
</g>
<g id="_x38_6">
</g>
<g id="_x38_7">
</g>
<g id="_x38_8">
</g>
<g id="_x38_9">
</g>
<g id="_x39_0">
</g>
<g id="_x39_1">
</g>
<g id="_x39_2">
</g>
<g id="_x39_3">
</g>
<g id="_x39_4">
</g>
<g id="_x39_5">
</g>
<g id="_x39_6">
</g>
<g id="_x39_7">
</g>
<g id="_x39_8">
</g>
<g id="_x39_9">
</g>
<g id="_x31_00">
</g>
<g id="_x31_01">
</g>
<g id="_x31_02">
</g>
<g id="_x31_03">
</g>
<g id="_x31_04">
</g>
<g id="_x31_05">
</g>
<g id="_x31_06">
</g>
<g id="_x31_07">
</g>
<g id="_x31_08">
</g>
<g id="_x31_09">
</g>
<g id="_x31_10">
</g>
<g id="_x31_11">
</g>
<g id="_x31_12">
</g>
<g id="_x31_13">
</g>
<g id="_x31_14">
</g>
<g id="_x31_15">
</g>
<g id="_x31_16">
</g>
<g id="_x31_17">
</g>
<g id="_x31_18">
</g>
<g id="_x31_19">
</g>
<g id="_x31_20">
</g>
<g id="_x31_21">
</g>
<g id="_x31_22">
</g>
<g id="_x31_23">
</g>
<g id="_x31_24">
</g>
<g id="_x31_25">
</g>
<g id="_x31_26">
</g>
<g id="_x31_27">
</g>
<g id="_x31_28">
</g>
<g id="_x31_29">
</g>
<g id="_x31_30">
</g>
<g id="_x31_31">
</g>
<g id="_x31_32">
</g>
<g id="_x31_33">
</g>
<g id="_x31_34">
</g>
<g id="_x31_35">
</g>
<g id="_x31_36">
</g>
<g id="_x31_37">
</g>
<g id="_x31_38">
</g>
<g id="_x31_39">
</g>
<g id="_x31_40">
</g>
<g id="_x31_41">
</g>
<g id="_x31_42">
</g>
<g id="_x31_43">
</g>
<g id="_x31_44">
</g>
<g id="_x31_45">
</g>
<g id="_x31_46">
</g>
<g id="_x31_47">
</g>
<g id="_x31_48">
</g>
<g id="_x31_49">
</g>
<g id="_x31_50">
</g>
<g id="_x31_51">
</g>
<g id="_x31_52">
</g>
<g id="_x31_53">
</g>
<g id="_x31_54">
</g>
<g id="_x31_55">
</g>
<g id="_x31_56">
</g>
<g id="_x31_57">
</g>
<g id="_x31_58">
</g>
<g id="_x31_59">
</g>
<g id="_x31_60">
</g>
<g id="_x31_61">
</g>
<g id="_x31_62">
</g>
<g id="_x31_63">
</g>
<g id="_x31_64">
</g>
<g id="_x31_65">
</g>
<g id="_x31_66">
</g>
<g id="_x31_67">
</g>
<g id="_x31_68">
</g>
<g id="_x31_69">
</g>
<g id="_x31_70">
</g>
<g id="_x31_71">
</g>
<g id="_x31_72">
</g>
<g id="_x31_73">
</g>
<g id="_x31_74">
</g>
<g id="_x31_75">
</g>
<g id="_x31_76">
</g>
<g id="_x31_77">
</g>
<g id="_x31_78">
</g>
<g id="_x31_79">
</g>
<g id="_x31_80">
</g>
<g id="_x31_81">
</g>
<g id="_x31_82">
</g>
<g id="_x31_83">
</g>
<g id="_x31_84">
</g>
<g id="_x31_85">
</g>
<g id="_x31_86">
</g>
<g id="_x31_87">
</g>
<g id="_x31_88">
</g>
<g id="_x31_89">
</g>
<g id="_x31_90">
</g>
</svg>
