<?xml version="1.0" encoding="utf-8"?>
<!-- Generator: Adobe Illustrator 16.0.0, SVG Export Plug-In . SVG Version: 6.00 Build 0)  -->
<!DOCTYPE svg PUBLIC "-//W3C//DTD SVG 1.1//EN" "http://www.w3.org/Graphics/SVG/1.1/DTD/svg11.dtd">
<svg version="1.1" xmlns="http://www.w3.org/2000/svg" xmlns:xlink="http://www.w3.org/1999/xlink" x="0px" y="0px" width="50px"
	 height="50px" viewBox="0 0 50 50" enable-background="new 0 0 50 50" xml:space="preserve">
<g id="text">
</g>
<g id="_x31_">
</g>
<g id="_x32_">
</g>
<g id="_x33__1_">
</g>
<g id="_x34_">
</g>
<g id="_x35_">
</g>
<g id="_x36_">
</g>
<g id="_x37_">
</g>
<g id="_x38_">
</g>
<g id="_x39_">
</g>
<g id="_x31_0">
</g>
<g id="_x31_1">
</g>
<g id="_x31_2">
</g>
<g id="_x31_3">
</g>
<g id="_x31_4">
</g>
<g id="_x31_5">
</g>
<g id="_x31_6">
</g>
<g id="_x31_7">
</g>
<g id="_x31_8">
</g>
<g id="_x31_9">
</g>
<g id="_x32_0">
</g>
<g id="_x32_1">
</g>
<g id="_x32_2">
</g>
<g id="_x32_3">
</g>
<g id="_x32_4">
</g>
<g id="_x32_5">
</g>
<g id="_x32_6">
</g>
<g id="_x32_7">
</g>
<g id="_x32_8">
	<g>
		<path d="M19.833,21.699c0.677,0,1.234-0.497,1.338-1.145c1.297,0,2.594,0,3.892,0c0.026,0.083,0.068,0.158,0.122,0.224
			c-0.898,0.852-1.797,1.705-2.695,2.557c-0.235-0.195-0.534-0.317-0.862-0.317c-0.752,0-1.361,0.609-1.361,1.361
			s0.609,1.361,1.361,1.361c0.751,0,1.36-0.609,1.36-1.361c0-0.266-0.079-0.512-0.211-0.721c0.913-0.866,1.826-1.732,2.739-2.598
			c0,1.245,0,2.491,0,3.737c-0.647,0.104-1.146,0.661-1.146,1.339c0,0.751,0.609,1.361,1.362,1.361c0.752,0,1.36-0.609,1.36-1.361
			c0-0.678-0.497-1.235-1.145-1.339c0-1.264,0-2.527,0-3.79c0.03-0.01,0.062-0.019,0.091-0.033c0.91,0.863,1.821,1.726,2.73,2.589
			c-0.172,0.228-0.277,0.508-0.277,0.815c0,0.752,0.608,1.361,1.361,1.361c0.752,0,1.36-0.609,1.36-1.361s-0.608-1.361-1.36-1.361
			c-0.288,0-0.557,0.091-0.775,0.244c-0.908-0.863-1.818-1.726-2.729-2.588c0.021-0.039,0.038-0.077,0.052-0.119
			c1.321,0,2.643,0,3.964,0c0.084,0.671,0.649,1.192,1.344,1.192c0.752,0,1.361-0.609,1.361-1.361c0-0.751-0.609-1.361-1.361-1.361
			c-0.661,0-1.211,0.472-1.334,1.097c-1.289,0-2.58,0-3.87,0c0.974-0.922,1.945-1.846,2.919-2.769
			c0.228,0.173,0.509,0.279,0.816,0.279c0.753,0,1.361-0.609,1.361-1.361c0-0.751-0.608-1.361-1.361-1.361
			c-0.752,0-1.36,0.609-1.36,1.361c0,0.288,0.09,0.554,0.242,0.773c-0.972,0.922-1.945,1.845-2.918,2.768
			c-0.073-0.066-0.159-0.112-0.256-0.144c0-1.323,0-2.646,0-3.971c0.647-0.104,1.145-0.661,1.145-1.339
			c0-0.751-0.608-1.361-1.36-1.361c-0.753,0-1.362,0.609-1.362,1.361c0,0.678,0.499,1.235,1.146,1.339c0,1.324,0,2.647,0,3.971
			c-0.054,0.018-0.103,0.043-0.149,0.073c-0.928-0.88-1.855-1.759-2.782-2.639c0.179-0.231,0.29-0.517,0.29-0.832
			c0-0.751-0.609-1.361-1.36-1.361c-0.753,0-1.362,0.609-1.362,1.361c0,0.752,0.609,1.361,1.362,1.361
			c0.281,0,0.541-0.085,0.757-0.23c0.936,0.886,1.869,1.772,2.804,2.659c-0.007,0.019-0.007,0.042-0.012,0.061
			c-1.298,0-2.595,0-3.892,0c-0.104-0.648-0.661-1.145-1.338-1.145c-0.752,0-1.361,0.609-1.361,1.361
			C18.472,21.09,19.081,21.699,19.833,21.699z"/>
		<path d="M43.912,7.443H6.096v24.935h37.816V7.443z M40.078,28.545H9.929V11.275h30.149V28.545z"/>
		<polygon points="43.906,33.536 25.539,33.536 24.462,33.536 6.095,33.536 0.652,40.809 0.652,42.557 49.349,42.557 49.349,40.809 
					"/>
	</g>
</g>
<g id="_x32_9">
</g>
<g id="_x33_0">
</g>
<g id="_x33_1">
</g>
<g id="_x33_2">
</g>
<g id="_x33_3">
</g>
<g id="_x33_4">
</g>
<g id="_x33_5">
</g>
<g id="_x33_6">
</g>
<g id="_x33_7">
</g>
<g id="_x33_8">
</g>
<g id="_x33_9">
</g>
<g id="_x34_0">
</g>
<g id="_x34_1">
</g>
<g id="_x34_2">
</g>
<g id="_x34_3">
</g>
<g id="_x34_4">
</g>
<g id="_x34_5">
</g>
<g id="_x34_6">
</g>
<g id="_x34_7">
</g>
<g id="_x34_8">
</g>
<g id="_x34_9">
</g>
<g id="_x35_0">
</g>
<g id="_x35_1">
</g>
<g id="_x35_2">
</g>
<g id="_x35_3">
</g>
<g id="_x35_4">
</g>
<g id="_x35_5">
</g>
<g id="_x35_6">
</g>
<g id="_x35_7">
</g>
<g id="_x35_8">
</g>
<g id="_x35_9">
</g>
<g id="_x36_0">
</g>
<g id="_x36_1">
</g>
<g id="_x36_2">
</g>
<g id="_x36_3">
</g>
<g id="_x36_4">
</g>
<g id="_x36_5">
</g>
<g id="_x36_6">
</g>
<g id="_x36_7">
</g>
<g id="_x36_8">
</g>
<g id="_x36_9">
</g>
<g id="_x37_0">
</g>
<g id="_x37_1">
</g>
<g id="_x37_2">
</g>
<g id="_x37_3">
</g>
<g id="_x37_4">
</g>
<g id="_x37_5">
</g>
<g id="_x37_6">
</g>
<g id="_x37_7">
</g>
<g id="_x37_8">
</g>
<g id="_x37_9">
</g>
<g id="_x38_0">
</g>
<g id="_x38_1">
</g>
<g id="_x38_2">
</g>
<g id="_x38_3">
</g>
<g id="_x38_4">
</g>
<g id="_x38_5">
</g>
<g id="_x38_6">
</g>
<g id="_x38_7">
</g>
<g id="_x38_8">
</g>
<g id="_x38_9">
</g>
<g id="_x39_0">
</g>
<g id="_x39_1">
</g>
<g id="_x39_2">
</g>
<g id="_x39_3">
</g>
<g id="_x39_4">
</g>
<g id="_x39_5">
</g>
<g id="_x39_6">
</g>
<g id="_x39_7">
</g>
<g id="_x39_8">
</g>
<g id="_x39_9">
</g>
<g id="_x31_00">
</g>
<g id="_x31_01">
</g>
<g id="_x31_02">
</g>
<g id="_x31_03">
</g>
<g id="_x31_04">
</g>
<g id="_x31_05">
</g>
<g id="_x31_06">
</g>
<g id="_x31_07">
</g>
<g id="_x31_08">
</g>
<g id="_x31_09">
</g>
<g id="_x31_10">
</g>
<g id="_x31_11">
</g>
<g id="_x31_12">
</g>
<g id="_x31_13">
</g>
<g id="_x31_14">
</g>
<g id="_x31_15">
</g>
<g id="_x31_16">
</g>
<g id="_x31_17">
</g>
<g id="_x31_18">
</g>
<g id="_x31_19">
</g>
<g id="_x31_20">
</g>
<g id="_x31_21">
</g>
<g id="_x31_22">
</g>
<g id="_x31_23">
</g>
<g id="_x31_24">
</g>
<g id="_x31_25">
</g>
<g id="_x31_26">
</g>
<g id="_x31_27">
</g>
<g id="_x31_28">
</g>
<g id="_x31_29">
</g>
<g id="_x31_30">
</g>
<g id="_x31_31">
</g>
<g id="_x31_32">
</g>
<g id="_x31_33">
</g>
<g id="_x31_34">
</g>
<g id="_x31_35">
</g>
<g id="_x31_36">
</g>
<g id="_x31_37">
</g>
<g id="_x31_38">
</g>
<g id="_x31_39">
</g>
<g id="_x31_40">
</g>
<g id="_x31_41">
</g>
<g id="_x31_42">
</g>
<g id="_x31_43">
</g>
<g id="_x31_44">
</g>
<g id="_x31_45">
</g>
<g id="_x31_46">
</g>
<g id="_x31_47">
</g>
<g id="_x31_48">
</g>
<g id="_x31_49">
</g>
<g id="_x31_50">
</g>
<g id="_x31_51">
</g>
<g id="_x31_52">
</g>
<g id="_x31_53">
</g>
<g id="_x31_54">
</g>
<g id="_x31_55">
</g>
<g id="_x31_56">
</g>
<g id="_x31_57">
</g>
<g id="_x31_58">
</g>
<g id="_x31_59">
</g>
<g id="_x31_60">
</g>
<g id="_x31_61">
</g>
<g id="_x31_62">
</g>
<g id="_x31_63">
</g>
<g id="_x31_64">
</g>
<g id="_x31_65">
</g>
<g id="_x31_66">
</g>
<g id="_x31_67">
</g>
<g id="_x31_68">
</g>
<g id="_x31_69">
</g>
<g id="_x31_70">
</g>
<g id="_x31_71">
</g>
<g id="_x31_72">
</g>
<g id="_x31_73">
</g>
<g id="_x31_74">
</g>
<g id="_x31_75">
</g>
<g id="_x31_76">
</g>
<g id="_x31_77">
</g>
<g id="_x31_78">
</g>
<g id="_x31_79">
</g>
<g id="_x31_80">
</g>
<g id="_x31_81">
</g>
<g id="_x31_82">
</g>
<g id="_x31_83">
</g>
<g id="_x31_84">
</g>
<g id="_x31_85">
</g>
<g id="_x31_86">
</g>
<g id="_x31_87">
</g>
<g id="_x31_88">
</g>
<g id="_x31_89">
</g>
<g id="_x31_90">
</g>
</svg>
