<?xml version="1.0" encoding="utf-8"?>
<!-- Generator: Adobe Illustrator 16.0.0, SVG Export Plug-In . SVG Version: 6.00 Build 0)  -->
<!DOCTYPE svg PUBLIC "-//W3C//DTD SVG 1.1//EN" "http://www.w3.org/Graphics/SVG/1.1/DTD/svg11.dtd">
<svg version="1.1" xmlns="http://www.w3.org/2000/svg" xmlns:xlink="http://www.w3.org/1999/xlink" x="0px" y="0px" width="50px"
	 height="50px" viewBox="0 0 50 50" enable-background="new 0 0 50 50" xml:space="preserve">
<g id="text">
</g>
<g id="_x31_">
</g>
<g id="_x32_">
</g>
<g id="_x33__1_">
</g>
<g id="_x34_">
</g>
<g id="_x35_">
</g>
<g id="_x36_">
</g>
<g id="_x37_">
</g>
<g id="_x38_">
</g>
<g id="_x39_">
</g>
<g id="_x31_0">
</g>
<g id="_x31_1">
</g>
<g id="_x31_2">
</g>
<g id="_x31_3">
</g>
<g id="_x31_4">
</g>
<g id="_x31_5">
</g>
<g id="_x31_6">
</g>
<g id="_x31_7">
</g>
<g id="_x31_8">
</g>
<g id="_x31_9">
</g>
<g id="_x32_0">
</g>
<g id="_x32_1">
</g>
<g id="_x32_2">
</g>
<g id="_x32_3">
</g>
<g id="_x32_4">
</g>
<g id="_x32_5">
</g>
<g id="_x32_6">
</g>
<g id="_x32_7">
</g>
<g id="_x32_8">
</g>
<g id="_x32_9">
	<g>
		<path d="M10.703,13.812c-0.149,0.133-0.325,0.247-0.524,0.342v0.345c0.111-0.041,0.237-0.102,0.377-0.185
			c0.14-0.082,0.252-0.164,0.338-0.246v2.277h0.357v-2.923h-0.23C10.958,13.548,10.852,13.678,10.703,13.812z"/>
		<path d="M13.818,13.788c-0.077-0.118-0.175-0.209-0.292-0.271c-0.118-0.063-0.255-0.094-0.411-0.094
			c-0.211,0-0.388,0.057-0.527,0.171c-0.14,0.114-0.244,0.275-0.315,0.485c-0.07,0.21-0.106,0.487-0.106,0.831
			c0,0.547,0.097,0.941,0.288,1.184c0.16,0.201,0.381,0.302,0.661,0.302c0.213,0,0.389-0.058,0.528-0.172
			c0.141-0.114,0.245-0.276,0.315-0.486c0.07-0.21,0.105-0.486,0.105-0.828c0-0.288-0.021-0.518-0.065-0.688
			C13.955,14.051,13.894,13.907,13.818,13.788z M13.529,15.862c-0.112,0.159-0.25,0.239-0.414,0.239s-0.302-0.08-0.414-0.238
			c-0.112-0.158-0.167-0.476-0.167-0.954c0-0.478,0.061-0.805,0.184-0.982c0.098-0.139,0.229-0.208,0.394-0.208
			c0.167,0,0.306,0.079,0.418,0.236c0.112,0.158,0.168,0.476,0.168,0.955C13.697,15.386,13.641,15.704,13.529,15.862z"/>
		<path d="M15.226,13.812c-0.149,0.133-0.324,0.247-0.524,0.342v0.345c0.111-0.041,0.237-0.102,0.377-0.185
			c0.14-0.082,0.253-0.164,0.338-0.246v2.277h0.357v-2.923h-0.23C15.482,13.548,15.375,13.678,15.226,13.812z"/>
		<path d="M18.341,13.788c-0.077-0.118-0.174-0.209-0.292-0.271s-0.255-0.094-0.41-0.094c-0.212,0-0.389,0.057-0.528,0.171
			c-0.14,0.114-0.244,0.275-0.315,0.485c-0.07,0.21-0.105,0.487-0.105,0.831c0,0.547,0.096,0.941,0.287,1.184
			c0.16,0.201,0.381,0.302,0.662,0.302c0.212,0,0.389-0.058,0.528-0.172c0.14-0.114,0.244-0.276,0.314-0.486
			c0.07-0.21,0.106-0.486,0.106-0.828c0-0.288-0.022-0.518-0.066-0.688C18.479,14.051,18.418,13.907,18.341,13.788z M18.052,15.862
			c-0.112,0.159-0.25,0.239-0.413,0.239c-0.165,0-0.303-0.08-0.415-0.238c-0.112-0.158-0.167-0.476-0.167-0.954
			c0-0.478,0.062-0.805,0.184-0.982c0.099-0.139,0.229-0.208,0.394-0.208c0.167,0,0.306,0.079,0.418,0.236
			c0.112,0.158,0.168,0.476,0.168,0.955C18.22,15.386,18.165,15.704,18.052,15.862z"/>
		<path d="M20.603,13.788c-0.077-0.118-0.175-0.209-0.292-0.271c-0.118-0.063-0.255-0.094-0.411-0.094
			c-0.212,0-0.388,0.057-0.527,0.171c-0.14,0.114-0.244,0.275-0.315,0.485c-0.07,0.21-0.106,0.487-0.106,0.831
			c0,0.547,0.097,0.941,0.288,1.184c0.16,0.201,0.38,0.302,0.661,0.302c0.213,0,0.389-0.058,0.528-0.172
			c0.14-0.114,0.245-0.276,0.315-0.486c0.07-0.21,0.105-0.486,0.105-0.828c0-0.288-0.021-0.518-0.065-0.688
			C20.74,14.051,20.679,13.907,20.603,13.788z M20.314,15.862c-0.112,0.159-0.25,0.239-0.414,0.239s-0.302-0.08-0.414-0.238
			c-0.112-0.158-0.167-0.476-0.167-0.954c0-0.478,0.061-0.805,0.184-0.982c0.098-0.139,0.229-0.208,0.394-0.208
			c0.167,0,0.306,0.079,0.418,0.236c0.112,0.158,0.168,0.476,0.168,0.955C20.482,15.386,20.426,15.704,20.314,15.862z"/>
		<path d="M22.865,13.788c-0.078-0.118-0.175-0.209-0.292-0.271c-0.118-0.063-0.256-0.094-0.411-0.094
			c-0.212,0-0.388,0.057-0.527,0.171c-0.14,0.114-0.245,0.275-0.316,0.485c-0.07,0.21-0.105,0.487-0.105,0.831
			c0,0.547,0.096,0.941,0.287,1.184c0.16,0.201,0.381,0.302,0.662,0.302c0.213,0,0.389-0.058,0.528-0.172
			c0.14-0.114,0.245-0.276,0.315-0.486c0.07-0.21,0.105-0.486,0.105-0.828c0-0.288-0.022-0.518-0.065-0.688
			C23.001,14.051,22.941,13.907,22.865,13.788z M22.576,15.862c-0.112,0.159-0.25,0.239-0.414,0.239
			c-0.165,0-0.303-0.08-0.415-0.238c-0.111-0.158-0.167-0.476-0.167-0.954c0-0.478,0.062-0.805,0.185-0.982
			c0.098-0.139,0.229-0.208,0.393-0.208c0.168,0,0.307,0.079,0.419,0.236c0.111,0.158,0.168,0.476,0.168,0.955
			C22.744,15.386,22.687,15.704,22.576,15.862z"/>
		<path d="M24.463,14.068v2.277h0.357v-2.923h-0.23c-0.063,0.126-0.168,0.255-0.317,0.389c-0.149,0.133-0.325,0.247-0.524,0.342
			v0.345c0.111-0.041,0.236-0.102,0.377-0.185C24.264,14.232,24.377,14.149,24.463,14.068z"/>
		<path d="M26.233,13.812c-0.15,0.133-0.325,0.247-0.524,0.342v0.345c0.111-0.041,0.236-0.102,0.376-0.185
			c0.14-0.082,0.253-0.164,0.338-0.246v2.277h0.358v-2.923h-0.23C26.488,13.548,26.382,13.678,26.233,13.812z"/>
		<path d="M29.348,13.788c-0.078-0.118-0.175-0.209-0.292-0.271c-0.118-0.063-0.255-0.094-0.411-0.094
			c-0.212,0-0.388,0.057-0.527,0.171c-0.14,0.114-0.245,0.275-0.316,0.485c-0.069,0.21-0.105,0.487-0.105,0.831
			c0,0.547,0.096,0.941,0.287,1.184c0.16,0.201,0.381,0.302,0.662,0.302c0.213,0,0.389-0.058,0.528-0.172
			c0.14-0.114,0.245-0.276,0.315-0.486c0.07-0.21,0.105-0.486,0.105-0.828c0-0.288-0.022-0.518-0.065-0.688
			C29.485,14.051,29.424,13.907,29.348,13.788z M29.059,15.862c-0.112,0.159-0.25,0.239-0.414,0.239s-0.303-0.08-0.414-0.238
			c-0.112-0.158-0.168-0.476-0.168-0.954c0-0.478,0.062-0.805,0.185-0.982c0.098-0.139,0.229-0.208,0.394-0.208
			c0.167,0,0.306,0.079,0.418,0.236c0.111,0.158,0.168,0.476,0.168,0.955C29.227,15.386,29.17,15.704,29.059,15.862z"/>
		<path d="M30.755,13.812c-0.149,0.133-0.325,0.247-0.524,0.342v0.345c0.111-0.041,0.237-0.102,0.377-0.185
			c0.14-0.082,0.252-0.164,0.338-0.246v2.277h0.357v-2.923h-0.23C31.01,13.548,30.905,13.678,30.755,13.812z"/>
		<path d="M33.872,13.788c-0.077-0.118-0.174-0.209-0.292-0.271s-0.255-0.094-0.411-0.094c-0.211,0-0.388,0.057-0.527,0.171
			c-0.14,0.114-0.244,0.275-0.315,0.485c-0.07,0.21-0.106,0.487-0.106,0.831c0,0.547,0.097,0.941,0.288,1.184
			c0.16,0.201,0.38,0.302,0.661,0.302c0.213,0,0.389-0.058,0.529-0.172c0.139-0.114,0.244-0.276,0.314-0.486
			c0.07-0.21,0.105-0.486,0.105-0.828c0-0.288-0.021-0.518-0.065-0.688C34.008,14.051,33.948,13.907,33.872,13.788z M33.583,15.862
			c-0.112,0.159-0.25,0.239-0.414,0.239s-0.302-0.08-0.414-0.238c-0.112-0.158-0.167-0.476-0.167-0.954
			c0-0.478,0.061-0.805,0.184-0.982c0.098-0.139,0.229-0.208,0.394-0.208c0.167,0,0.306,0.079,0.418,0.236
			c0.112,0.158,0.168,0.476,0.168,0.955C33.75,15.386,33.695,15.704,33.583,15.862z"/>
		<path d="M35.469,14.068v2.277h0.357v-2.923h-0.23c-0.062,0.126-0.168,0.255-0.317,0.389c-0.149,0.133-0.324,0.247-0.523,0.342
			v0.345c0.11-0.041,0.236-0.102,0.376-0.185C35.271,14.232,35.384,14.149,35.469,14.068z"/>
		<path d="M37.429,14.068v2.277h0.357v-2.923h-0.23c-0.062,0.126-0.168,0.255-0.317,0.389c-0.149,0.133-0.324,0.247-0.523,0.342
			v0.345c0.11-0.041,0.236-0.102,0.376-0.185C37.231,14.232,37.344,14.149,37.429,14.068z"/>
		<path d="M10.703,18.691c-0.149,0.133-0.325,0.248-0.524,0.342v0.345c0.111-0.041,0.237-0.103,0.377-0.185s0.252-0.165,0.338-0.246
			v2.277h0.357v-2.923h-0.23C10.958,18.428,10.852,18.558,10.703,18.691z"/>
		<path d="M13.818,18.668c-0.077-0.119-0.175-0.209-0.292-0.272c-0.118-0.063-0.255-0.094-0.411-0.094
			c-0.211,0-0.388,0.057-0.527,0.171s-0.244,0.276-0.315,0.485c-0.07,0.21-0.106,0.487-0.106,0.831c0,0.547,0.097,0.941,0.288,1.184
			c0.16,0.201,0.381,0.302,0.661,0.302c0.213,0,0.389-0.057,0.528-0.172c0.141-0.114,0.245-0.276,0.315-0.486
			c0.07-0.21,0.105-0.486,0.105-0.828c0-0.288-0.021-0.518-0.065-0.688C13.955,18.931,13.894,18.787,13.818,18.668z M13.529,20.743
			c-0.112,0.159-0.25,0.238-0.414,0.238s-0.302-0.079-0.414-0.238c-0.112-0.158-0.167-0.476-0.167-0.954
			c0-0.478,0.061-0.805,0.184-0.982c0.098-0.139,0.229-0.208,0.394-0.208c0.167,0,0.306,0.079,0.418,0.236
			c0.112,0.158,0.168,0.476,0.168,0.955C13.697,20.266,13.641,20.583,13.529,20.743z"/>
		<path d="M15.226,18.691c-0.149,0.133-0.324,0.248-0.524,0.342v0.345c0.111-0.041,0.237-0.103,0.377-0.185s0.253-0.165,0.338-0.246
			v2.277h0.357v-2.923h-0.23C15.482,18.428,15.375,18.558,15.226,18.691z"/>
		<path d="M18.341,18.668c-0.077-0.119-0.174-0.209-0.292-0.272c-0.118-0.063-0.255-0.094-0.41-0.094
			c-0.212,0-0.389,0.057-0.528,0.171s-0.244,0.276-0.315,0.485c-0.07,0.21-0.105,0.487-0.105,0.831c0,0.547,0.096,0.941,0.287,1.184
			c0.16,0.201,0.381,0.302,0.662,0.302c0.212,0,0.389-0.057,0.528-0.172c0.14-0.114,0.244-0.276,0.314-0.486
			c0.07-0.21,0.106-0.486,0.106-0.828c0-0.288-0.022-0.518-0.066-0.688C18.479,18.931,18.418,18.787,18.341,18.668z M18.052,20.743
			c-0.112,0.159-0.25,0.238-0.413,0.238c-0.165,0-0.303-0.079-0.415-0.238c-0.112-0.158-0.167-0.476-0.167-0.954
			c0-0.478,0.062-0.805,0.184-0.982c0.099-0.139,0.229-0.208,0.394-0.208c0.167,0,0.306,0.079,0.418,0.236
			c0.112,0.158,0.168,0.476,0.168,0.955C18.22,20.266,18.165,20.583,18.052,20.743z"/>
		<path d="M20.297,21.225v-2.923h-0.23c-0.063,0.126-0.168,0.255-0.318,0.389c-0.149,0.133-0.324,0.248-0.523,0.342v0.345
			c0.111-0.041,0.236-0.103,0.376-0.185s0.253-0.165,0.338-0.246v2.277H20.297z"/>
		<path d="M21.899,18.948v2.277h0.357v-2.923h-0.23c-0.062,0.126-0.168,0.255-0.317,0.389c-0.149,0.133-0.324,0.248-0.523,0.342
			v0.345c0.111-0.041,0.236-0.103,0.376-0.185S21.814,19.029,21.899,18.948z"/>
		<path d="M24.825,18.668c-0.077-0.119-0.174-0.209-0.291-0.272c-0.119-0.063-0.256-0.094-0.411-0.094
			c-0.212,0-0.388,0.057-0.527,0.171s-0.245,0.276-0.316,0.485c-0.07,0.21-0.105,0.487-0.105,0.831c0,0.547,0.096,0.941,0.287,1.184
			c0.16,0.201,0.381,0.302,0.662,0.302c0.212,0,0.389-0.057,0.528-0.172c0.14-0.114,0.244-0.276,0.314-0.486
			c0.07-0.21,0.106-0.486,0.106-0.828c0-0.288-0.022-0.518-0.066-0.688C24.962,18.931,24.902,18.787,24.825,18.668z M24.536,20.743
			c-0.111,0.159-0.25,0.238-0.413,0.238c-0.165,0-0.303-0.079-0.415-0.238c-0.112-0.158-0.167-0.476-0.167-0.954
			c0-0.478,0.062-0.805,0.185-0.982c0.098-0.139,0.229-0.208,0.393-0.208c0.167,0,0.307,0.079,0.418,0.236
			c0.112,0.158,0.168,0.476,0.168,0.955C24.704,20.266,24.648,20.583,24.536,20.743z"/>
		<path d="M26.233,18.691c-0.15,0.133-0.325,0.248-0.524,0.342v0.345c0.111-0.041,0.236-0.103,0.376-0.185s0.253-0.165,0.338-0.246
			v2.277h0.358v-2.923h-0.23C26.488,18.428,26.382,18.558,26.233,18.691z"/>
		<path d="M29.348,18.668c-0.078-0.119-0.175-0.209-0.292-0.272c-0.118-0.063-0.255-0.094-0.411-0.094
			c-0.212,0-0.388,0.057-0.527,0.171s-0.245,0.276-0.316,0.485c-0.069,0.21-0.105,0.487-0.105,0.831
			c0,0.547,0.096,0.941,0.287,1.184c0.16,0.201,0.381,0.302,0.662,0.302c0.213,0,0.389-0.057,0.528-0.172
			c0.14-0.114,0.245-0.276,0.315-0.486c0.07-0.21,0.105-0.486,0.105-0.828c0-0.288-0.022-0.518-0.065-0.688
			C29.485,18.931,29.424,18.787,29.348,18.668z M29.059,20.743c-0.112,0.159-0.25,0.238-0.414,0.238s-0.303-0.079-0.414-0.238
			c-0.112-0.158-0.168-0.476-0.168-0.954c0-0.478,0.062-0.805,0.185-0.982c0.098-0.139,0.229-0.208,0.394-0.208
			c0.167,0,0.306,0.079,0.418,0.236c0.111,0.158,0.168,0.476,0.168,0.955C29.227,20.266,29.17,20.583,29.059,20.743z"/>
		<path d="M30.755,18.691c-0.149,0.133-0.325,0.248-0.524,0.342v0.345c0.111-0.041,0.237-0.103,0.377-0.185s0.252-0.165,0.338-0.246
			v2.277h0.357v-2.923h-0.23C31.01,18.428,30.905,18.558,30.755,18.691z"/>
		<path d="M33.872,18.668c-0.077-0.119-0.174-0.209-0.292-0.272c-0.118-0.063-0.255-0.094-0.411-0.094
			c-0.211,0-0.388,0.057-0.527,0.171s-0.244,0.276-0.315,0.485c-0.07,0.21-0.106,0.487-0.106,0.831c0,0.547,0.097,0.941,0.288,1.184
			c0.16,0.201,0.38,0.302,0.661,0.302c0.213,0,0.389-0.057,0.529-0.172c0.139-0.114,0.244-0.276,0.314-0.486
			c0.07-0.21,0.105-0.486,0.105-0.828c0-0.288-0.021-0.518-0.065-0.688C34.008,18.931,33.948,18.787,33.872,18.668z M33.583,20.743
			c-0.112,0.159-0.25,0.238-0.414,0.238s-0.302-0.079-0.414-0.238c-0.112-0.158-0.167-0.476-0.167-0.954
			c0-0.478,0.061-0.805,0.184-0.982c0.098-0.139,0.229-0.208,0.394-0.208c0.167,0,0.306,0.079,0.418,0.236
			c0.112,0.158,0.168,0.476,0.168,0.955C33.75,20.266,33.695,20.583,33.583,20.743z"/>
		<path d="M36.133,18.668c-0.078-0.119-0.175-0.209-0.292-0.272c-0.118-0.063-0.255-0.094-0.411-0.094
			c-0.212,0-0.388,0.057-0.527,0.171s-0.245,0.276-0.316,0.485c-0.07,0.21-0.105,0.487-0.105,0.831c0,0.547,0.096,0.941,0.287,1.184
			c0.16,0.201,0.381,0.302,0.662,0.302c0.213,0,0.389-0.057,0.528-0.172c0.14-0.114,0.245-0.276,0.315-0.486
			c0.07-0.21,0.105-0.486,0.105-0.828c0-0.288-0.022-0.518-0.065-0.688C36.27,18.931,36.209,18.787,36.133,18.668z M35.844,20.743
			c-0.112,0.159-0.25,0.238-0.414,0.238s-0.303-0.079-0.414-0.238c-0.112-0.158-0.168-0.476-0.168-0.954
			c0-0.478,0.062-0.805,0.185-0.982c0.098-0.139,0.229-0.208,0.394-0.208c0.167,0,0.306,0.079,0.418,0.236
			c0.111,0.158,0.168,0.476,0.168,0.955C36.012,20.266,35.956,20.583,35.844,20.743z"/>
		<path d="M38.394,18.668c-0.077-0.119-0.174-0.209-0.291-0.272c-0.119-0.063-0.256-0.094-0.411-0.094
			c-0.212,0-0.388,0.057-0.527,0.171c-0.141,0.114-0.245,0.276-0.316,0.485c-0.07,0.21-0.105,0.487-0.105,0.831
			c0,0.547,0.096,0.941,0.287,1.184c0.16,0.201,0.381,0.302,0.662,0.302c0.212,0,0.389-0.057,0.528-0.172
			c0.14-0.114,0.244-0.276,0.314-0.486c0.07-0.21,0.106-0.486,0.106-0.828c0-0.288-0.022-0.518-0.066-0.688
			C38.532,18.931,38.471,18.787,38.394,18.668z M38.105,20.743c-0.111,0.159-0.25,0.238-0.413,0.238
			c-0.165,0-0.303-0.079-0.415-0.238c-0.112-0.158-0.167-0.476-0.167-0.954c0-0.478,0.062-0.805,0.184-0.982
			c0.099-0.139,0.23-0.208,0.394-0.208c0.167,0,0.307,0.079,0.418,0.236c0.112,0.158,0.169,0.476,0.169,0.955
			C38.274,20.266,38.217,20.583,38.105,20.743z"/>
		<path d="M10.703,23.571c-0.149,0.134-0.325,0.248-0.524,0.342v0.345c0.111-0.041,0.237-0.103,0.377-0.185s0.252-0.164,0.338-0.246
			v2.277h0.357v-2.923h-0.23C10.958,23.308,10.852,23.438,10.703,23.571z"/>
		<path d="M13.818,23.548c-0.077-0.118-0.175-0.209-0.292-0.272c-0.118-0.063-0.255-0.094-0.411-0.094
			c-0.211,0-0.388,0.057-0.527,0.171s-0.244,0.276-0.315,0.485c-0.07,0.21-0.106,0.487-0.106,0.831c0,0.547,0.097,0.941,0.288,1.184
			c0.16,0.201,0.381,0.302,0.661,0.302c0.213,0,0.389-0.057,0.528-0.172c0.141-0.114,0.245-0.277,0.315-0.486
			c0.07-0.21,0.105-0.486,0.105-0.827c0-0.289-0.021-0.518-0.065-0.688C13.955,23.811,13.894,23.667,13.818,23.548z M13.529,25.623
			c-0.112,0.159-0.25,0.238-0.414,0.238s-0.302-0.079-0.414-0.237s-0.167-0.476-0.167-0.954s0.061-0.805,0.184-0.983
			c0.098-0.139,0.229-0.208,0.394-0.208c0.167,0,0.306,0.079,0.418,0.236c0.112,0.157,0.168,0.476,0.168,0.955
			C13.697,25.146,13.641,25.464,13.529,25.623z"/>
		<path d="M15.226,23.571c-0.149,0.134-0.324,0.248-0.524,0.342v0.345c0.111-0.041,0.237-0.103,0.377-0.185s0.253-0.164,0.338-0.246
			v2.277h0.357v-2.923h-0.23C15.482,23.308,15.375,23.438,15.226,23.571z"/>
		<path d="M18.341,23.548c-0.077-0.118-0.174-0.209-0.292-0.272c-0.118-0.063-0.255-0.094-0.41-0.094
			c-0.212,0-0.389,0.057-0.528,0.171s-0.244,0.276-0.315,0.485c-0.07,0.21-0.105,0.487-0.105,0.831c0,0.547,0.096,0.941,0.287,1.184
			c0.16,0.201,0.381,0.302,0.662,0.302c0.212,0,0.389-0.057,0.528-0.172c0.14-0.114,0.244-0.277,0.314-0.486
			c0.07-0.21,0.106-0.486,0.106-0.827c0-0.289-0.022-0.518-0.066-0.688C18.479,23.811,18.418,23.667,18.341,23.548z M18.052,25.623
			c-0.112,0.159-0.25,0.238-0.413,0.238c-0.165,0-0.303-0.079-0.415-0.237s-0.167-0.476-0.167-0.954s0.062-0.805,0.184-0.983
			c0.099-0.139,0.229-0.208,0.394-0.208c0.167,0,0.306,0.079,0.418,0.236c0.112,0.157,0.168,0.476,0.168,0.955
			C18.22,25.146,18.165,25.464,18.052,25.623z"/>
		<path d="M20.603,23.548c-0.077-0.118-0.175-0.209-0.292-0.272c-0.118-0.063-0.255-0.094-0.411-0.094
			c-0.212,0-0.388,0.057-0.527,0.171s-0.244,0.276-0.315,0.485c-0.07,0.21-0.106,0.487-0.106,0.831c0,0.547,0.097,0.941,0.288,1.184
			c0.16,0.201,0.38,0.302,0.661,0.302c0.213,0,0.389-0.057,0.528-0.172c0.14-0.114,0.245-0.277,0.315-0.486
			c0.07-0.21,0.105-0.486,0.105-0.827c0-0.289-0.021-0.518-0.065-0.688C20.74,23.811,20.679,23.667,20.603,23.548z M20.314,25.623
			c-0.112,0.159-0.25,0.238-0.414,0.238s-0.302-0.079-0.414-0.237s-0.167-0.476-0.167-0.954s0.061-0.805,0.184-0.983
			c0.098-0.139,0.229-0.208,0.394-0.208c0.167,0,0.306,0.079,0.418,0.236c0.112,0.157,0.168,0.476,0.168,0.955
			C20.482,25.146,20.426,25.464,20.314,25.623z"/>
		<path d="M22.865,23.548c-0.078-0.118-0.175-0.209-0.292-0.272c-0.118-0.063-0.256-0.094-0.411-0.094
			c-0.212,0-0.388,0.057-0.527,0.171s-0.245,0.276-0.316,0.485c-0.07,0.21-0.105,0.487-0.105,0.831c0,0.547,0.096,0.941,0.287,1.184
			c0.16,0.201,0.381,0.302,0.662,0.302c0.213,0,0.389-0.057,0.528-0.172c0.14-0.114,0.245-0.277,0.315-0.486
			c0.07-0.21,0.105-0.486,0.105-0.827c0-0.289-0.022-0.518-0.065-0.688C23.001,23.811,22.941,23.667,22.865,23.548z M22.576,25.623
			c-0.112,0.159-0.25,0.238-0.414,0.238c-0.165,0-0.303-0.079-0.415-0.237c-0.111-0.158-0.167-0.476-0.167-0.954
			s0.062-0.805,0.185-0.983c0.098-0.139,0.229-0.208,0.393-0.208c0.168,0,0.307,0.079,0.419,0.236
			c0.111,0.157,0.168,0.476,0.168,0.955C22.744,25.146,22.687,25.464,22.576,25.623z"/>
		<path d="M24.273,23.571c-0.149,0.134-0.325,0.248-0.524,0.342v0.345c0.111-0.041,0.236-0.103,0.377-0.185
			c0.139-0.082,0.252-0.164,0.338-0.246v2.277h0.357v-2.923h-0.23C24.528,23.308,24.422,23.438,24.273,23.571z"/>
		<path d="M26.233,23.571c-0.15,0.134-0.325,0.248-0.524,0.342v0.345c0.111-0.041,0.236-0.103,0.376-0.185s0.253-0.164,0.338-0.246
			v2.277h0.358v-2.923h-0.23C26.488,23.308,26.382,23.438,26.233,23.571z"/>
		<path d="M29.348,23.548c-0.078-0.118-0.175-0.209-0.292-0.272c-0.118-0.063-0.255-0.094-0.411-0.094
			c-0.212,0-0.388,0.057-0.527,0.171s-0.245,0.276-0.316,0.485c-0.069,0.21-0.105,0.487-0.105,0.831
			c0,0.547,0.096,0.941,0.287,1.184c0.16,0.201,0.381,0.302,0.662,0.302c0.213,0,0.389-0.057,0.528-0.172
			c0.14-0.114,0.245-0.277,0.315-0.486c0.07-0.21,0.105-0.486,0.105-0.827c0-0.289-0.022-0.518-0.065-0.688
			C29.485,23.811,29.424,23.667,29.348,23.548z M29.059,25.623c-0.112,0.159-0.25,0.238-0.414,0.238s-0.303-0.079-0.414-0.237
			c-0.112-0.158-0.168-0.476-0.168-0.954s0.062-0.805,0.185-0.983c0.098-0.139,0.229-0.208,0.394-0.208
			c0.167,0,0.306,0.079,0.418,0.236c0.111,0.157,0.168,0.476,0.168,0.955C29.227,25.146,29.17,25.464,29.059,25.623z"/>
		<path d="M30.755,23.571c-0.149,0.134-0.325,0.248-0.524,0.342v0.345c0.111-0.041,0.237-0.103,0.377-0.185s0.252-0.164,0.338-0.246
			v2.277h0.357v-2.923h-0.23C31.01,23.308,30.905,23.438,30.755,23.571z"/>
		<path d="M33.872,23.548c-0.077-0.118-0.174-0.209-0.292-0.272c-0.118-0.063-0.255-0.094-0.411-0.094
			c-0.211,0-0.388,0.057-0.527,0.171s-0.244,0.276-0.315,0.485c-0.07,0.21-0.106,0.487-0.106,0.831c0,0.547,0.097,0.941,0.288,1.184
			c0.16,0.201,0.38,0.302,0.661,0.302c0.213,0,0.389-0.057,0.529-0.172c0.139-0.114,0.244-0.277,0.314-0.486
			c0.07-0.21,0.105-0.486,0.105-0.827c0-0.289-0.021-0.518-0.065-0.688C34.008,23.811,33.948,23.667,33.872,23.548z M33.583,25.623
			c-0.112,0.159-0.25,0.238-0.414,0.238s-0.302-0.079-0.414-0.237s-0.167-0.476-0.167-0.954s0.061-0.805,0.184-0.983
			c0.098-0.139,0.229-0.208,0.394-0.208c0.167,0,0.306,0.079,0.418,0.236c0.112,0.157,0.168,0.476,0.168,0.955
			C33.75,25.146,33.695,25.464,33.583,25.623z"/>
		<path d="M35.279,23.571c-0.149,0.134-0.324,0.248-0.523,0.342v0.345c0.11-0.041,0.236-0.103,0.376-0.185s0.253-0.164,0.338-0.246
			v2.277h0.357v-2.923h-0.23C35.535,23.308,35.428,23.438,35.279,23.571z"/>
		<path d="M37.239,23.571c-0.149,0.134-0.324,0.248-0.523,0.342v0.345c0.11-0.041,0.236-0.103,0.376-0.185s0.253-0.164,0.338-0.246
			v2.277h0.357v-2.923h-0.23C37.495,23.308,37.388,23.438,37.239,23.571z"/>
		<path d="M43.912,7.443H6.095v24.935h37.816V7.443z M40.078,25.597c-0.005,0.008-0.008,0.019-0.013,0.026
			c-0.112,0.159-0.25,0.238-0.413,0.238c-0.165,0-0.303-0.079-0.415-0.237s-0.167-0.476-0.167-0.954s0.062-0.805,0.184-0.983
			c0.099-0.139,0.229-0.208,0.394-0.208c0.167,0,0.306,0.079,0.418,0.236c0.005,0.007,0.008,0.018,0.013,0.025V25.597z
			 M40.078,15.837c-0.005,0.007-0.008,0.019-0.013,0.025c-0.112,0.159-0.25,0.239-0.413,0.239c-0.165,0-0.303-0.08-0.415-0.238
			c-0.112-0.158-0.167-0.476-0.167-0.954c0-0.478,0.062-0.805,0.184-0.982c0.099-0.139,0.229-0.208,0.394-0.208
			c0.167,0,0.306,0.079,0.418,0.236c0.005,0.007,0.008,0.018,0.013,0.025V15.837z M9.928,28.545V11.275h30.149v2.256
			c-0.006-0.003-0.01-0.011-0.016-0.015c-0.118-0.063-0.255-0.094-0.41-0.094c-0.212,0-0.389,0.057-0.528,0.171
			c-0.14,0.114-0.244,0.275-0.315,0.485c-0.07,0.21-0.105,0.487-0.105,0.831c0,0.547,0.096,0.941,0.287,1.184
			c0.16,0.201,0.381,0.302,0.662,0.302c0.166,0,0.304-0.046,0.426-0.117v2.089c-0.064,0.105-0.151,0.213-0.275,0.324
			c-0.149,0.133-0.324,0.248-0.523,0.342v0.345c0.111-0.041,0.236-0.103,0.376-0.185s0.253-0.165,0.338-0.246v2.277h0.085v2.066
			c-0.006-0.004-0.01-0.011-0.016-0.015c-0.118-0.063-0.255-0.094-0.41-0.094c-0.212,0-0.389,0.057-0.528,0.171
			s-0.244,0.276-0.315,0.485c-0.07,0.21-0.105,0.487-0.105,0.831c0,0.547,0.096,0.941,0.287,1.184
			c0.16,0.201,0.381,0.302,0.662,0.302c0.166,0,0.304-0.045,0.426-0.116v2.507H9.928z"/>
		<polygon points="43.906,33.536 25.539,33.536 24.461,33.536 6.094,33.536 0.652,40.809 0.652,42.557 49.348,42.557 49.348,40.809 
					"/>
	</g>
</g>
<g id="_x33_0">
</g>
<g id="_x33_1">
</g>
<g id="_x33_2">
</g>
<g id="_x33_3">
</g>
<g id="_x33_4">
</g>
<g id="_x33_5">
</g>
<g id="_x33_6">
</g>
<g id="_x33_7">
</g>
<g id="_x33_8">
</g>
<g id="_x33_9">
</g>
<g id="_x34_0">
</g>
<g id="_x34_1">
</g>
<g id="_x34_2">
</g>
<g id="_x34_3">
</g>
<g id="_x34_4">
</g>
<g id="_x34_5">
</g>
<g id="_x34_6">
</g>
<g id="_x34_7">
</g>
<g id="_x34_8">
</g>
<g id="_x34_9">
</g>
<g id="_x35_0">
</g>
<g id="_x35_1">
</g>
<g id="_x35_2">
</g>
<g id="_x35_3">
</g>
<g id="_x35_4">
</g>
<g id="_x35_5">
</g>
<g id="_x35_6">
</g>
<g id="_x35_7">
</g>
<g id="_x35_8">
</g>
<g id="_x35_9">
</g>
<g id="_x36_0">
</g>
<g id="_x36_1">
</g>
<g id="_x36_2">
</g>
<g id="_x36_3">
</g>
<g id="_x36_4">
</g>
<g id="_x36_5">
</g>
<g id="_x36_6">
</g>
<g id="_x36_7">
</g>
<g id="_x36_8">
</g>
<g id="_x36_9">
</g>
<g id="_x37_0">
</g>
<g id="_x37_1">
</g>
<g id="_x37_2">
</g>
<g id="_x37_3">
</g>
<g id="_x37_4">
</g>
<g id="_x37_5">
</g>
<g id="_x37_6">
</g>
<g id="_x37_7">
</g>
<g id="_x37_8">
</g>
<g id="_x37_9">
</g>
<g id="_x38_0">
</g>
<g id="_x38_1">
</g>
<g id="_x38_2">
</g>
<g id="_x38_3">
</g>
<g id="_x38_4">
</g>
<g id="_x38_5">
</g>
<g id="_x38_6">
</g>
<g id="_x38_7">
</g>
<g id="_x38_8">
</g>
<g id="_x38_9">
</g>
<g id="_x39_0">
</g>
<g id="_x39_1">
</g>
<g id="_x39_2">
</g>
<g id="_x39_3">
</g>
<g id="_x39_4">
</g>
<g id="_x39_5">
</g>
<g id="_x39_6">
</g>
<g id="_x39_7">
</g>
<g id="_x39_8">
</g>
<g id="_x39_9">
</g>
<g id="_x31_00">
</g>
<g id="_x31_01">
</g>
<g id="_x31_02">
</g>
<g id="_x31_03">
</g>
<g id="_x31_04">
</g>
<g id="_x31_05">
</g>
<g id="_x31_06">
</g>
<g id="_x31_07">
</g>
<g id="_x31_08">
</g>
<g id="_x31_09">
</g>
<g id="_x31_10">
</g>
<g id="_x31_11">
</g>
<g id="_x31_12">
</g>
<g id="_x31_13">
</g>
<g id="_x31_14">
</g>
<g id="_x31_15">
</g>
<g id="_x31_16">
</g>
<g id="_x31_17">
</g>
<g id="_x31_18">
</g>
<g id="_x31_19">
</g>
<g id="_x31_20">
</g>
<g id="_x31_21">
</g>
<g id="_x31_22">
</g>
<g id="_x31_23">
</g>
<g id="_x31_24">
</g>
<g id="_x31_25">
</g>
<g id="_x31_26">
</g>
<g id="_x31_27">
</g>
<g id="_x31_28">
</g>
<g id="_x31_29">
</g>
<g id="_x31_30">
</g>
<g id="_x31_31">
</g>
<g id="_x31_32">
</g>
<g id="_x31_33">
</g>
<g id="_x31_34">
</g>
<g id="_x31_35">
</g>
<g id="_x31_36">
</g>
<g id="_x31_37">
</g>
<g id="_x31_38">
</g>
<g id="_x31_39">
</g>
<g id="_x31_40">
</g>
<g id="_x31_41">
</g>
<g id="_x31_42">
</g>
<g id="_x31_43">
</g>
<g id="_x31_44">
</g>
<g id="_x31_45">
</g>
<g id="_x31_46">
</g>
<g id="_x31_47">
</g>
<g id="_x31_48">
</g>
<g id="_x31_49">
</g>
<g id="_x31_50">
</g>
<g id="_x31_51">
</g>
<g id="_x31_52">
</g>
<g id="_x31_53">
</g>
<g id="_x31_54">
</g>
<g id="_x31_55">
</g>
<g id="_x31_56">
</g>
<g id="_x31_57">
</g>
<g id="_x31_58">
</g>
<g id="_x31_59">
</g>
<g id="_x31_60">
</g>
<g id="_x31_61">
</g>
<g id="_x31_62">
</g>
<g id="_x31_63">
</g>
<g id="_x31_64">
</g>
<g id="_x31_65">
</g>
<g id="_x31_66">
</g>
<g id="_x31_67">
</g>
<g id="_x31_68">
</g>
<g id="_x31_69">
</g>
<g id="_x31_70">
</g>
<g id="_x31_71">
</g>
<g id="_x31_72">
</g>
<g id="_x31_73">
</g>
<g id="_x31_74">
</g>
<g id="_x31_75">
</g>
<g id="_x31_76">
</g>
<g id="_x31_77">
</g>
<g id="_x31_78">
</g>
<g id="_x31_79">
</g>
<g id="_x31_80">
</g>
<g id="_x31_81">
</g>
<g id="_x31_82">
</g>
<g id="_x31_83">
</g>
<g id="_x31_84">
</g>
<g id="_x31_85">
</g>
<g id="_x31_86">
</g>
<g id="_x31_87">
</g>
<g id="_x31_88">
</g>
<g id="_x31_89">
</g>
<g id="_x31_90">
</g>
</svg>
