<?xml version="1.0" encoding="utf-8"?>
<!-- Generator: Adobe Illustrator 16.0.0, SVG Export Plug-In . SVG Version: 6.00 Build 0)  -->
<!DOCTYPE svg PUBLIC "-//W3C//DTD SVG 1.1//EN" "http://www.w3.org/Graphics/SVG/1.1/DTD/svg11.dtd">
<svg version="1.1" xmlns="http://www.w3.org/2000/svg" xmlns:xlink="http://www.w3.org/1999/xlink" x="0px" y="0px" width="50px"
	 height="50px" viewBox="0 0 50 50" enable-background="new 0 0 50 50" xml:space="preserve">
<g id="text">
</g>
<g id="_x31_">
</g>
<g id="_x32_">
</g>
<g id="_x33__1_">
</g>
<g id="_x34_">
</g>
<g id="_x35_">
</g>
<g id="_x36_">
</g>
<g id="_x37_">
</g>
<g id="_x38_">
</g>
<g id="_x39_">
</g>
<g id="_x31_0">
</g>
<g id="_x31_1">
</g>
<g id="_x31_2">
</g>
<g id="_x31_3">
</g>
<g id="_x31_4">
</g>
<g id="_x31_5">
</g>
<g id="_x31_6">
</g>
<g id="_x31_7">
</g>
<g id="_x31_8">
</g>
<g id="_x31_9">
</g>
<g id="_x32_0">
</g>
<g id="_x32_1">
</g>
<g id="_x32_2">
</g>
<g id="_x32_3">
</g>
<g id="_x32_4">
</g>
<g id="_x32_5">
</g>
<g id="_x32_6">
</g>
<g id="_x32_7">
</g>
<g id="_x32_8">
</g>
<g id="_x32_9">
</g>
<g id="_x33_0">
</g>
<g id="_x33_1">
</g>
<g id="_x33_2">
</g>
<g id="_x33_3">
</g>
<g id="_x33_4">
</g>
<g id="_x33_5">
</g>
<g id="_x33_6">
</g>
<g id="_x33_7">
</g>
<g id="_x33_8">
</g>
<g id="_x33_9">
</g>
<g id="_x34_0">
	<g>
		<path d="M23.524,22.093c0.662,0,1.321,0,1.982,0c0,0.08,0,0.16,0,0.239c0,0.154,0.154,0.288,0.308,0.206
			c0.424-0.228,0.849-0.456,1.272-0.684c0.062-0.034,0.094-0.084,0.106-0.138c0.031-0.08,0.018-0.173-0.081-0.23
			c-0.014-0.008-0.027-0.017-0.041-0.024c-0.003,0-0.007-0.003-0.008-0.004c-0.408-0.237-0.815-0.474-1.224-0.711
			c-0.128-0.075-0.332-0.013-0.333,0.162c0,0.092,0,0.185,0,0.277c-0.66,0-1.32,0-1.982,0c-0.169,0-0.31,0.141-0.31,0.311
			c0,0.095,0,0.192,0,0.288C23.215,21.953,23.355,22.093,23.524,22.093z"/>
		<path d="M27.885,23.911c0,0.321-0.107,0.95,0.146,1.216c0.193,0.204,0.523,0.154,0.768,0.154c0.661,0,1.323,0,1.985,0
			c1.646,0,3.293,0,4.94,0c0.61,0,1.36,0.206,1.651-0.45c0.006-0.009,0.011-0.469,0.015-0.481c0-0.002,0.002,0.446,0.004,0.443
			c0.012-0.03,0.011-0.056,0.004-0.078c0-1.361,0-3.173,0-4.533c0-0.114,0.004-0.225,0.005-0.334h-5.987
			c-0.202,0-0.366-0.172-0.366-0.384v-0.827c-0.867,0-1.735,0-2.604,0c-0.898,0-0.562,1.797-0.562,2.335
			C27.885,21.802,27.885,23.082,27.885,23.911z"/>
		<path d="M28.759,17.934c0.832-0.011,1.662-0.021,2.494-0.031c0.156-0.002,0.313-0.004,0.47-0.006
			c-0.001,0.399-0.003,0.799-0.004,1.198c-0.001,0.118,0.099,0.217,0.217,0.217c1.956,0,3.912,0,5.87,0
			c0.034,0,0.056-0.005,0.081-0.008c-0.002,0.015-0.006,0.023-0.006,0.041c0,0.587,0,1.174,0,1.761c0,0.596,0,1.192,0,1.788
			c0,0.167,0,0.335,0,0.503c-0.033-0.01-0.074-0.018-0.135-0.018c-0.279,0-0.279,0.434,0,0.434c0.117,0,0.233,0,0.352,0
			c0.117,0,0.217-0.099,0.217-0.217c0-1.5,0-3,0-4.501c0-0.118-0.1-0.217-0.217-0.217c-1.347,0-2.692,0-4.04,0
			c-0.639,0-1.28,0-1.92,0c0.009-0.038,0.016-0.086,0.016-0.151c0.002-0.35,0.003-0.699,0.004-1.049
			c0.001-0.117-0.099-0.218-0.217-0.217c-1.061,0.013-2.121,0.026-3.182,0.04C28.479,17.503,28.479,17.938,28.759,17.934z"/>
		<path d="M11.808,23.988c0,0.305-0.107,0.903,0.146,1.156c0.194,0.194,0.522,0.146,0.766,0.146c0.659,0,1.319,0,1.979,0
			c1.643,0,3.285,0,4.928,0c0.608,0,1.356,0.195,1.648-0.427c0.005-0.009,0.01-0.447,0.013-0.457
			c0.002-0.003,0.004,0.423,0.005,0.42c0.011-0.028,0.01-0.052,0.005-0.074c0-1.293,0-3.015,0-4.308
			c0-0.107,0.002-0.213,0.004-0.316h-5.973c-0.2,0-0.364-0.164-0.364-0.366v-0.785c-0.865,0-1.73,0-2.597,0
			c-0.896,0-0.561,1.707-0.561,2.218C11.808,21.983,11.808,23.2,11.808,23.988z"/>
		<path d="M15.459,19.793h5.934c0-0.138,0-0.275,0-0.413c0-0.608,0-1.217,0-1.825c0-0.523-0.701-0.41-1.071-0.41
			c-1.015,0-2.03,0-3.044,0c-0.482,0-1.371-0.173-1.748,0.174c-0.237,0.217-0.07,1.082-0.07,1.333
			C15.459,19.032,15.459,19.412,15.459,19.793z M16.554,18.231c1.314,0,2.631,0,3.947,0c0.217,0,0.217,0.309,0,0.309
			c-1.316,0-2.633,0-3.947,0C16.336,18.541,16.336,18.231,16.554,18.231z M16.554,19.241c1.314,0,2.631,0,3.947,0
			c0.217,0,0.217,0.309,0,0.309c-1.316,0-2.633,0-3.947,0C16.336,19.55,16.336,19.241,16.554,19.241z"/>
		<path d="M17.228,16.888c0.146,0.01,0.281,0.019,0.394,0.019h3.046c0.054,0,0.114-0.002,0.179-0.005
			c0.07-0.002,0.145-0.006,0.219-0.006c0.457,0,0.549,0.119,0.549,0.298v2.07h0.249v-2.07c0-0.544-0.601-0.544-0.798-0.544
			c-0.078,0-0.155,0.002-0.228,0.005c-0.061,0.002-0.118,0.005-0.17,0.005h-3.046c-0.107,0-0.237-0.009-0.377-0.019
			c-0.164-0.011-0.352-0.024-0.533-0.024c-0.25,0-0.45,0.026-0.612,0.079v0.271c0.142-0.066,0.341-0.103,0.612-0.103
			C16.885,16.864,17.059,16.876,17.228,16.888z"/>
		<path d="M17.743,16.383c0.146,0.01,0.282,0.02,0.395,0.02h3.045c0.054,0,0.114-0.003,0.179-0.005
			c0.07-0.003,0.145-0.005,0.219-0.005c0.457,0,0.55,0.119,0.55,0.297v2.071h0.248v-2.071c0-0.544-0.601-0.544-0.798-0.544
			c-0.077,0-0.156,0.003-0.229,0.005c-0.06,0.002-0.117,0.004-0.169,0.004h-3.045c-0.108,0-0.237-0.009-0.377-0.018
			c-0.165-0.012-0.353-0.024-0.533-0.024c-0.25,0-0.45,0.026-0.612,0.078v0.272c0.142-0.067,0.34-0.104,0.612-0.104
			C17.4,16.359,17.575,16.371,17.743,16.383z"/>
		<path d="M43.912,7.443H6.096v24.935h37.816V7.443z M40.078,28.546H9.929V11.275h30.149V28.546z"/>
		<polygon points="43.906,33.536 25.539,33.536 24.462,33.536 6.095,33.536 0.652,40.81 0.652,42.557 49.349,42.557 49.349,40.81 		
			"/>
	</g>
</g>
<g id="_x34_1">
</g>
<g id="_x34_2">
</g>
<g id="_x34_3">
</g>
<g id="_x34_4">
</g>
<g id="_x34_5">
</g>
<g id="_x34_6">
</g>
<g id="_x34_7">
</g>
<g id="_x34_8">
</g>
<g id="_x34_9">
</g>
<g id="_x35_0">
</g>
<g id="_x35_1">
</g>
<g id="_x35_2">
</g>
<g id="_x35_3">
</g>
<g id="_x35_4">
</g>
<g id="_x35_5">
</g>
<g id="_x35_6">
</g>
<g id="_x35_7">
</g>
<g id="_x35_8">
</g>
<g id="_x35_9">
</g>
<g id="_x36_0">
</g>
<g id="_x36_1">
</g>
<g id="_x36_2">
</g>
<g id="_x36_3">
</g>
<g id="_x36_4">
</g>
<g id="_x36_5">
</g>
<g id="_x36_6">
</g>
<g id="_x36_7">
</g>
<g id="_x36_8">
</g>
<g id="_x36_9">
</g>
<g id="_x37_0">
</g>
<g id="_x37_1">
</g>
<g id="_x37_2">
</g>
<g id="_x37_3">
</g>
<g id="_x37_4">
</g>
<g id="_x37_5">
</g>
<g id="_x37_6">
</g>
<g id="_x37_7">
</g>
<g id="_x37_8">
</g>
<g id="_x37_9">
</g>
<g id="_x38_0">
</g>
<g id="_x38_1">
</g>
<g id="_x38_2">
</g>
<g id="_x38_3">
</g>
<g id="_x38_4">
</g>
<g id="_x38_5">
</g>
<g id="_x38_6">
</g>
<g id="_x38_7">
</g>
<g id="_x38_8">
</g>
<g id="_x38_9">
</g>
<g id="_x39_0">
</g>
<g id="_x39_1">
</g>
<g id="_x39_2">
</g>
<g id="_x39_3">
</g>
<g id="_x39_4">
</g>
<g id="_x39_5">
</g>
<g id="_x39_6">
</g>
<g id="_x39_7">
</g>
<g id="_x39_8">
</g>
<g id="_x39_9">
</g>
<g id="_x31_00">
</g>
<g id="_x31_01">
</g>
<g id="_x31_02">
</g>
<g id="_x31_03">
</g>
<g id="_x31_04">
</g>
<g id="_x31_05">
</g>
<g id="_x31_06">
</g>
<g id="_x31_07">
</g>
<g id="_x31_08">
</g>
<g id="_x31_09">
</g>
<g id="_x31_10">
</g>
<g id="_x31_11">
</g>
<g id="_x31_12">
</g>
<g id="_x31_13">
</g>
<g id="_x31_14">
</g>
<g id="_x31_15">
</g>
<g id="_x31_16">
</g>
<g id="_x31_17">
</g>
<g id="_x31_18">
</g>
<g id="_x31_19">
</g>
<g id="_x31_20">
</g>
<g id="_x31_21">
</g>
<g id="_x31_22">
</g>
<g id="_x31_23">
</g>
<g id="_x31_24">
</g>
<g id="_x31_25">
</g>
<g id="_x31_26">
</g>
<g id="_x31_27">
</g>
<g id="_x31_28">
</g>
<g id="_x31_29">
</g>
<g id="_x31_30">
</g>
<g id="_x31_31">
</g>
<g id="_x31_32">
</g>
<g id="_x31_33">
</g>
<g id="_x31_34">
</g>
<g id="_x31_35">
</g>
<g id="_x31_36">
</g>
<g id="_x31_37">
</g>
<g id="_x31_38">
</g>
<g id="_x31_39">
</g>
<g id="_x31_40">
</g>
<g id="_x31_41">
</g>
<g id="_x31_42">
</g>
<g id="_x31_43">
</g>
<g id="_x31_44">
</g>
<g id="_x31_45">
</g>
<g id="_x31_46">
</g>
<g id="_x31_47">
</g>
<g id="_x31_48">
</g>
<g id="_x31_49">
</g>
<g id="_x31_50">
</g>
<g id="_x31_51">
</g>
<g id="_x31_52">
</g>
<g id="_x31_53">
</g>
<g id="_x31_54">
</g>
<g id="_x31_55">
</g>
<g id="_x31_56">
</g>
<g id="_x31_57">
</g>
<g id="_x31_58">
</g>
<g id="_x31_59">
</g>
<g id="_x31_60">
</g>
<g id="_x31_61">
</g>
<g id="_x31_62">
</g>
<g id="_x31_63">
</g>
<g id="_x31_64">
</g>
<g id="_x31_65">
</g>
<g id="_x31_66">
</g>
<g id="_x31_67">
</g>
<g id="_x31_68">
</g>
<g id="_x31_69">
</g>
<g id="_x31_70">
</g>
<g id="_x31_71">
</g>
<g id="_x31_72">
</g>
<g id="_x31_73">
</g>
<g id="_x31_74">
</g>
<g id="_x31_75">
</g>
<g id="_x31_76">
</g>
<g id="_x31_77">
</g>
<g id="_x31_78">
</g>
<g id="_x31_79">
</g>
<g id="_x31_80">
</g>
<g id="_x31_81">
</g>
<g id="_x31_82">
</g>
<g id="_x31_83">
</g>
<g id="_x31_84">
</g>
<g id="_x31_85">
</g>
<g id="_x31_86">
</g>
<g id="_x31_87">
</g>
<g id="_x31_88">
</g>
<g id="_x31_89">
</g>
<g id="_x31_90">
</g>
</svg>
