<?xml version="1.0" encoding="utf-8"?>
<!-- Generator: Adobe Illustrator 16.0.0, SVG Export Plug-In . SVG Version: 6.00 Build 0)  -->
<!DOCTYPE svg PUBLIC "-//W3C//DTD SVG 1.1//EN" "http://www.w3.org/Graphics/SVG/1.1/DTD/svg11.dtd">
<svg version="1.1" xmlns="http://www.w3.org/2000/svg" xmlns:xlink="http://www.w3.org/1999/xlink" x="0px" y="0px" width="50px"
	 height="50px" viewBox="0 0 50 50" enable-background="new 0 0 50 50" xml:space="preserve">
<g id="text">
</g>
<g id="_x31_">
</g>
<g id="_x32_">
</g>
<g id="_x33__1_">
</g>
<g id="_x34_">
</g>
<g id="_x35_">
</g>
<g id="_x36_">
</g>
<g id="_x37_">
</g>
<g id="_x38_">
</g>
<g id="_x39_">
</g>
<g id="_x31_0">
</g>
<g id="_x31_1">
</g>
<g id="_x31_2">
</g>
<g id="_x31_3">
</g>
<g id="_x31_4">
</g>
<g id="_x31_5">
</g>
<g id="_x31_6">
</g>
<g id="_x31_7">
</g>
<g id="_x31_8">
</g>
<g id="_x31_9">
</g>
<g id="_x32_0">
</g>
<g id="_x32_1">
</g>
<g id="_x32_2">
</g>
<g id="_x32_3">
</g>
<g id="_x32_4">
</g>
<g id="_x32_5">
</g>
<g id="_x32_6">
</g>
<g id="_x32_7">
</g>
<g id="_x32_8">
</g>
<g id="_x32_9">
</g>
<g id="_x33_0">
</g>
<g id="_x33_1">
</g>
<g id="_x33_2">
</g>
<g id="_x33_3">
</g>
<g id="_x33_4">
</g>
<g id="_x33_5">
</g>
<g id="_x33_6">
</g>
<g id="_x33_7">
</g>
<g id="_x33_8">
</g>
<g id="_x33_9">
</g>
<g id="_x34_0">
</g>
<g id="_x34_1">
</g>
<g id="_x34_2">
</g>
<g id="_x34_3">
</g>
<g id="_x34_4">
</g>
<g id="_x34_5">
</g>
<g id="_x34_6">
</g>
<g id="_x34_7">
</g>
<g id="_x34_8">
</g>
<g id="_x34_9">
	<g>
		<path d="M23.131,35.647c0.106,1.99,2.981,1.991,3.089,0C26.112,33.664,23.024,33.657,23.131,35.647z"/>
		<path d="M13.005,35.461c-0.088-1.628-2.622-1.634-2.535,0C10.558,37.094,12.917,37.096,13.005,35.461z"/>
		<path d="M4.907,11.471h-0.1v27.624v2.268v0.611h10.539V31.642c-0.021-0.001-0.039,0.008-0.061,0.005
			c-0.57-0.077-1.068-0.435-1.068-1.067s0.498-0.991,1.068-1.067c0.022-0.003,0.039,0.007,0.061,0.006v-3.734
			c-2.448,0-4.897,0-7.346,0c-1.066,0-1.066-1.653,0-1.653c2.448,0,4.897,0,7.346,0v-1.333c-2.42,0-4.84,0-7.261,0
			c-1.066,0-1.066-1.653,0-1.653c2.421,0,4.841,0,7.261,0v-1.533c-2.42,0-4.84,0-7.261,0c-1.066,0-1.066-1.653,0-1.653
			c2.421,0,4.841,0,7.261,0v-1.384c-2.42,0-4.84,0-7.261,0c-1.066,0-1.066-1.653,0-1.653c2.421,0,4.841,0,7.261,0v-3.45H6.904H4.907
			z M11.798,29.513c0.514-0.068,0.856,0.359,1.001,0.795c0.048,0.083,0.079,0.173,0.066,0.272c0.019,0.141-0.024,0.247-0.089,0.335
			c-0.155,0.413-0.489,0.798-0.979,0.732c-0.569-0.077-1.067-0.435-1.067-1.067S11.229,29.589,11.798,29.513z M11.741,33.485
			c1.117,0.061,1.912,0.859,1.972,1.976c-0.056,1.026-0.856,2.036-1.972,1.976c-1.027-0.055-2.04-0.859-1.979-1.976
			C9.816,34.432,10.625,33.425,11.741,33.485z M8.395,29.611c0.514-0.069,0.856,0.358,1,0.794c0.048,0.083,0.079,0.173,0.066,0.272
			c0.019,0.141-0.024,0.247-0.089,0.335c-0.154,0.414-0.488,0.798-0.978,0.732c-0.569-0.076-1.068-0.434-1.068-1.067
			C7.326,30.046,7.825,29.687,8.395,29.611z"/>
		<path d="M36.886,35.461c0.088,1.633,2.447,1.635,2.535,0C39.333,33.833,36.799,33.827,36.886,35.461z"/>
		<path d="M33.237,11.471L33.237,11.471c-0.001-0.515-0.001-1.03-0.001-1.544V6.747V6.419H18.787h-2.434h-0.121v33.654v2.763v0.744
			H33.24v-2.206c0.015-0.081,0.016-0.156,0-0.226v-1.075h-0.003V11.471z M21.794,30.229c-0.188,0.504-0.596,0.972-1.191,0.893
			c-0.694-0.093-1.302-0.529-1.302-1.301c0-0.771,0.607-1.208,1.302-1.3c0.626-0.084,1.043,0.437,1.218,0.968
			c0.059,0.102,0.097,0.211,0.081,0.332C21.924,29.992,21.872,30.121,21.794,30.229z M24.68,38.055
			c-1.252-0.067-2.485-1.046-2.412-2.407c0.067-1.254,1.052-2.48,2.412-2.408c1.361,0.074,2.33,1.047,2.402,2.408
			C27.015,36.897,26.038,38.127,24.68,38.055z M23.448,29.701c0-0.771,0.606-1.207,1.301-1.3c0.625-0.083,1.043,0.437,1.219,0.968
			c0.059,0.101,0.097,0.211,0.081,0.332c0.022,0.171-0.029,0.3-0.108,0.408c-0.188,0.503-0.596,0.972-1.191,0.892
			C24.055,30.908,23.448,30.472,23.448,29.701z M30.19,30.109c-0.188,0.503-0.596,0.972-1.191,0.892
			c-0.695-0.093-1.302-0.529-1.302-1.3s0.606-1.207,1.302-1.3c0.626-0.083,1.043,0.437,1.218,0.968
			c0.059,0.101,0.097,0.211,0.081,0.332C30.32,29.872,30.269,30.001,30.19,30.109z M29.475,23.858c-3.117,0-6.234,0-9.352,0
			c-1.299,0-1.299-2.014,0-2.014c3.117,0,6.234,0,9.352,0C30.773,21.844,30.773,23.858,29.475,23.858z M29.577,20.219
			c-3.116,0-6.233,0-9.351,0c-1.299,0-1.299-2.014,0-2.014c3.117,0,6.234,0,9.351,0C30.877,18.206,30.877,20.219,29.577,20.219z
			 M29.577,16.337c-3.116,0-6.233,0-9.351,0c-1.299,0-1.299-2.014,0-2.014c3.117,0,6.234,0,9.351,0
			C30.877,14.324,30.877,16.337,29.577,16.337z M29.577,12.637c-3.116,0-6.233,0-9.351,0c-1.299,0-1.299-2.014,0-2.014
			c3.117,0,6.234,0,9.351,0C30.877,10.623,30.877,12.637,29.577,12.637z"/>
		<path d="M45.181,39.094c0-8.248,0-16.497,0-24.745V11.74v-0.269H34.237v3.504c0.082-0.027,0.164-0.054,0.265-0.054
			c2.559,0,5.117,0,7.675,0c1.067,0,1.067,1.653,0,1.653c-2.558,0-5.116,0-7.675,0c-0.101,0-0.183-0.027-0.265-0.054v1.492
			c0.082-0.027,0.164-0.054,0.265-0.054c2.559,0,5.117,0,7.675,0c1.067,0,1.067,1.653,0,1.653c-2.558,0-5.116,0-7.675,0
			c-0.101,0-0.183-0.027-0.265-0.054v1.641c0.082-0.027,0.164-0.054,0.265-0.054c2.559,0,5.117,0,7.675,0
			c1.067,0,1.067,1.653,0,1.653c-2.558,0-5.116,0-7.675,0c-0.101,0-0.183-0.027-0.265-0.054v1.424
			c0.06-0.013,0.111-0.037,0.18-0.037c2.559,0,5.117,0,7.676,0c1.066,0,1.066,1.653,0,1.653c-2.559,0-5.117,0-7.676,0
			c-0.068,0-0.12-0.024-0.18-0.037v4.078c0.17-0.106,0.361-0.186,0.573-0.214c0.514-0.069,0.856,0.358,1,0.794
			c0.048,0.083,0.079,0.173,0.066,0.272c0.019,0.141-0.024,0.247-0.089,0.335c-0.154,0.414-0.488,0.798-0.978,0.732
			c-0.212-0.028-0.403-0.108-0.573-0.214v10.441h10.946v-1.811c0.012-0.066,0.013-0.128,0-0.185v-0.882H45.181z M38.214,29.513
			c0.514-0.068,0.856,0.359,1.001,0.795c0.048,0.083,0.079,0.173,0.066,0.272c0.019,0.141-0.024,0.247-0.089,0.335
			c-0.155,0.413-0.489,0.798-0.979,0.732c-0.569-0.077-1.067-0.435-1.067-1.067S37.645,29.589,38.214,29.513z M38.157,37.437
			c-1.027-0.055-2.04-0.859-1.979-1.976c0.055-1.029,0.863-2.036,1.979-1.976c1.117,0.061,1.912,0.859,1.972,1.976
			C40.073,36.487,39.272,37.497,38.157,37.437z M42.681,30.915c-0.155,0.413-0.489,0.798-0.979,0.732
			c-0.57-0.077-1.068-0.435-1.068-1.067s0.498-0.991,1.068-1.067c0.514-0.068,0.856,0.359,1,0.795
			c0.048,0.083,0.079,0.173,0.066,0.272C42.787,30.721,42.744,30.827,42.681,30.915z"/>
	</g>
</g>
<g id="_x35_0">
</g>
<g id="_x35_1">
</g>
<g id="_x35_2">
</g>
<g id="_x35_3">
</g>
<g id="_x35_4">
</g>
<g id="_x35_5">
</g>
<g id="_x35_6">
</g>
<g id="_x35_7">
</g>
<g id="_x35_8">
</g>
<g id="_x35_9">
</g>
<g id="_x36_0">
</g>
<g id="_x36_1">
</g>
<g id="_x36_2">
</g>
<g id="_x36_3">
</g>
<g id="_x36_4">
</g>
<g id="_x36_5">
</g>
<g id="_x36_6">
</g>
<g id="_x36_7">
</g>
<g id="_x36_8">
</g>
<g id="_x36_9">
</g>
<g id="_x37_0">
</g>
<g id="_x37_1">
</g>
<g id="_x37_2">
</g>
<g id="_x37_3">
</g>
<g id="_x37_4">
</g>
<g id="_x37_5">
</g>
<g id="_x37_6">
</g>
<g id="_x37_7">
</g>
<g id="_x37_8">
</g>
<g id="_x37_9">
</g>
<g id="_x38_0">
</g>
<g id="_x38_1">
</g>
<g id="_x38_2">
</g>
<g id="_x38_3">
</g>
<g id="_x38_4">
</g>
<g id="_x38_5">
</g>
<g id="_x38_6">
</g>
<g id="_x38_7">
</g>
<g id="_x38_8">
</g>
<g id="_x38_9">
</g>
<g id="_x39_0">
</g>
<g id="_x39_1">
</g>
<g id="_x39_2">
</g>
<g id="_x39_3">
</g>
<g id="_x39_4">
</g>
<g id="_x39_5">
</g>
<g id="_x39_6">
</g>
<g id="_x39_7">
</g>
<g id="_x39_8">
</g>
<g id="_x39_9">
</g>
<g id="_x31_00">
</g>
<g id="_x31_01">
</g>
<g id="_x31_02">
</g>
<g id="_x31_03">
</g>
<g id="_x31_04">
</g>
<g id="_x31_05">
</g>
<g id="_x31_06">
</g>
<g id="_x31_07">
</g>
<g id="_x31_08">
</g>
<g id="_x31_09">
</g>
<g id="_x31_10">
</g>
<g id="_x31_11">
</g>
<g id="_x31_12">
</g>
<g id="_x31_13">
</g>
<g id="_x31_14">
</g>
<g id="_x31_15">
</g>
<g id="_x31_16">
</g>
<g id="_x31_17">
</g>
<g id="_x31_18">
</g>
<g id="_x31_19">
</g>
<g id="_x31_20">
</g>
<g id="_x31_21">
</g>
<g id="_x31_22">
</g>
<g id="_x31_23">
</g>
<g id="_x31_24">
</g>
<g id="_x31_25">
</g>
<g id="_x31_26">
</g>
<g id="_x31_27">
</g>
<g id="_x31_28">
</g>
<g id="_x31_29">
</g>
<g id="_x31_30">
</g>
<g id="_x31_31">
</g>
<g id="_x31_32">
</g>
<g id="_x31_33">
</g>
<g id="_x31_34">
</g>
<g id="_x31_35">
</g>
<g id="_x31_36">
</g>
<g id="_x31_37">
</g>
<g id="_x31_38">
</g>
<g id="_x31_39">
</g>
<g id="_x31_40">
</g>
<g id="_x31_41">
</g>
<g id="_x31_42">
</g>
<g id="_x31_43">
</g>
<g id="_x31_44">
</g>
<g id="_x31_45">
</g>
<g id="_x31_46">
</g>
<g id="_x31_47">
</g>
<g id="_x31_48">
</g>
<g id="_x31_49">
</g>
<g id="_x31_50">
</g>
<g id="_x31_51">
</g>
<g id="_x31_52">
</g>
<g id="_x31_53">
</g>
<g id="_x31_54">
</g>
<g id="_x31_55">
</g>
<g id="_x31_56">
</g>
<g id="_x31_57">
</g>
<g id="_x31_58">
</g>
<g id="_x31_59">
</g>
<g id="_x31_60">
</g>
<g id="_x31_61">
</g>
<g id="_x31_62">
</g>
<g id="_x31_63">
</g>
<g id="_x31_64">
</g>
<g id="_x31_65">
</g>
<g id="_x31_66">
</g>
<g id="_x31_67">
</g>
<g id="_x31_68">
</g>
<g id="_x31_69">
</g>
<g id="_x31_70">
</g>
<g id="_x31_71">
</g>
<g id="_x31_72">
</g>
<g id="_x31_73">
</g>
<g id="_x31_74">
</g>
<g id="_x31_75">
</g>
<g id="_x31_76">
</g>
<g id="_x31_77">
</g>
<g id="_x31_78">
</g>
<g id="_x31_79">
</g>
<g id="_x31_80">
</g>
<g id="_x31_81">
</g>
<g id="_x31_82">
</g>
<g id="_x31_83">
</g>
<g id="_x31_84">
</g>
<g id="_x31_85">
</g>
<g id="_x31_86">
</g>
<g id="_x31_87">
</g>
<g id="_x31_88">
</g>
<g id="_x31_89">
</g>
<g id="_x31_90">
</g>
</svg>
