<?xml version="1.0" encoding="utf-8"?>
<!-- Generator: Adobe Illustrator 16.0.0, SVG Export Plug-In . SVG Version: 6.00 Build 0)  -->
<!DOCTYPE svg PUBLIC "-//W3C//DTD SVG 1.1//EN" "http://www.w3.org/Graphics/SVG/1.1/DTD/svg11.dtd">
<svg version="1.1" xmlns="http://www.w3.org/2000/svg" xmlns:xlink="http://www.w3.org/1999/xlink" x="0px" y="0px" width="50px"
	 height="50px" viewBox="0 0 50 50" enable-background="new 0 0 50 50" xml:space="preserve">
<g id="text">
</g>
<g id="_x31_">
</g>
<g id="_x32_">
</g>
<g id="_x33__1_">
</g>
<g id="_x34_">
</g>
<g id="_x35_">
</g>
<g id="_x36_">
</g>
<g id="_x37_">
</g>
<g id="_x38_">
</g>
<g id="_x39_">
</g>
<g id="_x31_0">
</g>
<g id="_x31_1">
</g>
<g id="_x31_2">
</g>
<g id="_x31_3">
</g>
<g id="_x31_4">
</g>
<g id="_x31_5">
</g>
<g id="_x31_6">
</g>
<g id="_x31_7">
</g>
<g id="_x31_8">
</g>
<g id="_x31_9">
</g>
<g id="_x32_0">
</g>
<g id="_x32_1">
</g>
<g id="_x32_2">
</g>
<g id="_x32_3">
</g>
<g id="_x32_4">
</g>
<g id="_x32_5">
</g>
<g id="_x32_6">
</g>
<g id="_x32_7">
</g>
<g id="_x32_8">
</g>
<g id="_x32_9">
</g>
<g id="_x33_0">
</g>
<g id="_x33_1">
</g>
<g id="_x33_2">
</g>
<g id="_x33_3">
</g>
<g id="_x33_4">
</g>
<g id="_x33_5">
</g>
<g id="_x33_6">
</g>
<g id="_x33_7">
</g>
<g id="_x33_8">
</g>
<g id="_x33_9">
</g>
<g id="_x34_0">
</g>
<g id="_x34_1">
</g>
<g id="_x34_2">
</g>
<g id="_x34_3">
</g>
<g id="_x34_4">
</g>
<g id="_x34_5">
</g>
<g id="_x34_6">
</g>
<g id="_x34_7">
</g>
<g id="_x34_8">
</g>
<g id="_x34_9">
</g>
<g id="_x35_0">
	<g>
		<path d="M8.189,35.439c0.106,1.99,2.981,1.991,3.089,0C11.171,33.456,8.083,33.449,8.189,35.439z"/>
		<path d="M18.295,9.718V6.539V6.211H3.846H1.412H1.291v33.654v2.763v0.744h17.008v-2.206c0.015-0.081,0.016-0.156,0-0.226v-1.075
			h-0.004C18.295,29.817,18.295,19.768,18.295,9.718z M6.853,30.021c-0.188,0.504-0.596,0.972-1.191,0.893
			c-0.694-0.093-1.302-0.529-1.302-1.301c0-0.771,0.607-1.208,1.302-1.3c0.626-0.084,1.043,0.437,1.218,0.968
			c0.059,0.102,0.097,0.211,0.081,0.332C6.982,29.784,6.931,29.913,6.853,30.021z M9.738,37.847
			c-1.252-0.067-2.485-1.046-2.412-2.407c0.067-1.254,1.052-2.48,2.412-2.408c1.361,0.074,2.33,1.047,2.402,2.408
			C12.073,36.689,11.097,37.919,9.738,37.847z M8.507,29.493c0-0.771,0.606-1.207,1.301-1.3c0.625-0.083,1.043,0.437,1.219,0.968
			c0.059,0.101,0.097,0.211,0.081,0.332c0.022,0.171-0.029,0.3-0.108,0.408c-0.188,0.503-0.596,0.972-1.191,0.892
			C9.113,30.7,8.507,30.264,8.507,29.493z M15.249,29.901c-0.188,0.503-0.596,0.972-1.191,0.892c-0.695-0.093-1.302-0.529-1.302-1.3
			s0.606-1.207,1.302-1.3c0.626-0.083,1.043,0.437,1.218,0.968c0.059,0.101,0.097,0.211,0.081,0.332
			C15.379,29.664,15.327,29.793,15.249,29.901z M14.533,23.65c-3.117,0-6.234,0-9.352,0c-1.299,0-1.299-2.014,0-2.014
			c3.117,0,6.234,0,9.352,0C15.832,21.636,15.832,23.65,14.533,23.65z M14.636,20.011c-3.116,0-6.233,0-9.351,0
			c-1.299,0-1.299-2.014,0-2.014c3.117,0,6.234,0,9.351,0C15.936,17.998,15.936,20.011,14.636,20.011z M14.636,16.129
			c-3.116,0-6.233,0-9.351,0c-1.299,0-1.299-2.014,0-2.014c3.117,0,6.234,0,9.351,0C15.936,14.116,15.936,16.129,14.636,16.129z
			 M14.636,12.429c-3.116,0-6.233,0-9.351,0c-1.299,0-1.299-2.014,0-2.014c3.117,0,6.234,0,9.351,0
			C15.936,10.415,15.936,12.429,14.636,12.429z"/>
		<path d="M28.996,40.812h7.069v2.677h5.334v-2.677h7.311v-13H28.996V40.812z M30.994,29.81h15.719v9.004H30.994V29.81z"/>
		<rect x="33.193" y="43.539" width="11.078" height="0.55"/>
		<path d="M28.996,5.911v13h7.069v2.677h5.334v-2.677h7.311v-13H28.996z M46.713,16.913H30.994V7.909h15.719V16.913z"/>
		<rect x="33.193" y="21.638" width="11.078" height="0.55"/>
		<path d="M22.471,11.742h-0.594v11.435h-2.492v1.4h2.492v9.69h0.594h0.078c0.172,0,0.344,0,0.516,0c1.253,0,2.507,0,3.76,0h0.697
			v-1.4h-4.348c0-0.215,0-0.43,0-0.645c0-3.063,0-6.125,0-9.187c0-3.062,0-6.124,0-9.187c0-0.338,0.009-0.553,0.017-0.707h4.331
			v-1.4h-4.457H22.471z"/>
	</g>
</g>
<g id="_x35_1">
</g>
<g id="_x35_2">
</g>
<g id="_x35_3">
</g>
<g id="_x35_4">
</g>
<g id="_x35_5">
</g>
<g id="_x35_6">
</g>
<g id="_x35_7">
</g>
<g id="_x35_8">
</g>
<g id="_x35_9">
</g>
<g id="_x36_0">
</g>
<g id="_x36_1">
</g>
<g id="_x36_2">
</g>
<g id="_x36_3">
</g>
<g id="_x36_4">
</g>
<g id="_x36_5">
</g>
<g id="_x36_6">
</g>
<g id="_x36_7">
</g>
<g id="_x36_8">
</g>
<g id="_x36_9">
</g>
<g id="_x37_0">
</g>
<g id="_x37_1">
</g>
<g id="_x37_2">
</g>
<g id="_x37_3">
</g>
<g id="_x37_4">
</g>
<g id="_x37_5">
</g>
<g id="_x37_6">
</g>
<g id="_x37_7">
</g>
<g id="_x37_8">
</g>
<g id="_x37_9">
</g>
<g id="_x38_0">
</g>
<g id="_x38_1">
</g>
<g id="_x38_2">
</g>
<g id="_x38_3">
</g>
<g id="_x38_4">
</g>
<g id="_x38_5">
</g>
<g id="_x38_6">
</g>
<g id="_x38_7">
</g>
<g id="_x38_8">
</g>
<g id="_x38_9">
</g>
<g id="_x39_0">
</g>
<g id="_x39_1">
</g>
<g id="_x39_2">
</g>
<g id="_x39_3">
</g>
<g id="_x39_4">
</g>
<g id="_x39_5">
</g>
<g id="_x39_6">
</g>
<g id="_x39_7">
</g>
<g id="_x39_8">
</g>
<g id="_x39_9">
</g>
<g id="_x31_00">
</g>
<g id="_x31_01">
</g>
<g id="_x31_02">
</g>
<g id="_x31_03">
</g>
<g id="_x31_04">
</g>
<g id="_x31_05">
</g>
<g id="_x31_06">
</g>
<g id="_x31_07">
</g>
<g id="_x31_08">
</g>
<g id="_x31_09">
</g>
<g id="_x31_10">
</g>
<g id="_x31_11">
</g>
<g id="_x31_12">
</g>
<g id="_x31_13">
</g>
<g id="_x31_14">
</g>
<g id="_x31_15">
</g>
<g id="_x31_16">
</g>
<g id="_x31_17">
</g>
<g id="_x31_18">
</g>
<g id="_x31_19">
</g>
<g id="_x31_20">
</g>
<g id="_x31_21">
</g>
<g id="_x31_22">
</g>
<g id="_x31_23">
</g>
<g id="_x31_24">
</g>
<g id="_x31_25">
</g>
<g id="_x31_26">
</g>
<g id="_x31_27">
</g>
<g id="_x31_28">
</g>
<g id="_x31_29">
</g>
<g id="_x31_30">
</g>
<g id="_x31_31">
</g>
<g id="_x31_32">
</g>
<g id="_x31_33">
</g>
<g id="_x31_34">
</g>
<g id="_x31_35">
</g>
<g id="_x31_36">
</g>
<g id="_x31_37">
</g>
<g id="_x31_38">
</g>
<g id="_x31_39">
</g>
<g id="_x31_40">
</g>
<g id="_x31_41">
</g>
<g id="_x31_42">
</g>
<g id="_x31_43">
</g>
<g id="_x31_44">
</g>
<g id="_x31_45">
</g>
<g id="_x31_46">
</g>
<g id="_x31_47">
</g>
<g id="_x31_48">
</g>
<g id="_x31_49">
</g>
<g id="_x31_50">
</g>
<g id="_x31_51">
</g>
<g id="_x31_52">
</g>
<g id="_x31_53">
</g>
<g id="_x31_54">
</g>
<g id="_x31_55">
</g>
<g id="_x31_56">
</g>
<g id="_x31_57">
</g>
<g id="_x31_58">
</g>
<g id="_x31_59">
</g>
<g id="_x31_60">
</g>
<g id="_x31_61">
</g>
<g id="_x31_62">
</g>
<g id="_x31_63">
</g>
<g id="_x31_64">
</g>
<g id="_x31_65">
</g>
<g id="_x31_66">
</g>
<g id="_x31_67">
</g>
<g id="_x31_68">
</g>
<g id="_x31_69">
</g>
<g id="_x31_70">
</g>
<g id="_x31_71">
</g>
<g id="_x31_72">
</g>
<g id="_x31_73">
</g>
<g id="_x31_74">
</g>
<g id="_x31_75">
</g>
<g id="_x31_76">
</g>
<g id="_x31_77">
</g>
<g id="_x31_78">
</g>
<g id="_x31_79">
</g>
<g id="_x31_80">
</g>
<g id="_x31_81">
</g>
<g id="_x31_82">
</g>
<g id="_x31_83">
</g>
<g id="_x31_84">
</g>
<g id="_x31_85">
</g>
<g id="_x31_86">
</g>
<g id="_x31_87">
</g>
<g id="_x31_88">
</g>
<g id="_x31_89">
</g>
<g id="_x31_90">
</g>
</svg>
