<?xml version="1.0" encoding="utf-8"?>
<!-- Generator: Adobe Illustrator 16.0.4, SVG Export Plug-In . SVG Version: 6.00 Build 0)  -->
<!DOCTYPE svg PUBLIC "-//W3C//DTD SVG 1.1//EN" "http://www.w3.org/Graphics/SVG/1.1/DTD/svg11.dtd">
<svg version="1.1" id="Capa_1" xmlns="http://www.w3.org/2000/svg" xmlns:xlink="http://www.w3.org/1999/xlink" x="0px" y="0px"
	 width="50px" height="50px" viewBox="0 0 50 50" enable-background="new 0 0 50 50" xml:space="preserve">
<path d="M10.169,35.648c-0.108,1.99-2.983,1.988-3.089,0C6.974,33.657,10.062,33.664,10.169,35.648z M17.186,40.073h0.004v1.075
	c0.016,0.069,0.015,0.146,0,0.226v2.206H0.182v-0.744v-2.763V6.419h0.121h2.433h14.45v0.329v3.178
	C17.186,19.976,17.186,30.025,17.186,40.073z M5.851,29.82c0.015-0.12-0.023-0.23-0.081-0.332c-0.175-0.531-0.592-1.051-1.218-0.967
	C3.857,28.613,3.25,29.05,3.25,29.82s0.607,1.209,1.302,1.301c0.595,0.08,1.003-0.389,1.191-0.893
	C5.821,30.121,5.873,29.992,5.851,29.82z M11.031,35.648c-0.072-1.361-1.041-2.334-2.402-2.408c-1.36-0.072-2.345,1.152-2.412,2.408
	c-0.073,1.359,1.16,2.34,2.412,2.406C9.987,38.127,10.964,36.898,11.031,35.648z M8.699,31.002c0.595,0.08,1.003-0.389,1.191-0.893
	c0.079-0.107,0.13-0.236,0.108-0.408c0.016-0.121-0.022-0.23-0.081-0.332c-0.176-0.531-0.594-1.053-1.219-0.969
	c-0.695,0.094-1.301,0.529-1.301,1.301S8.004,30.908,8.699,31.002z M14.248,29.701c0.016-0.121-0.022-0.23-0.081-0.332
	c-0.175-0.531-0.592-1.053-1.218-0.969c-0.696,0.094-1.302,0.529-1.302,1.301s0.607,1.207,1.302,1.301
	c0.595,0.08,1.003-0.389,1.191-0.893C14.218,30.001,14.27,29.873,14.248,29.701z M13.424,21.843c-3.118,0-6.235,0-9.352,0
	c-1.299,0-1.299,2.015,0,2.015c3.118,0,6.235,0,9.352,0C14.723,23.858,14.723,21.843,13.424,21.843z M13.526,18.205
	c-3.117,0-6.234,0-9.351,0c-1.299,0-1.299,2.014,0,2.014c3.118,0,6.235,0,9.351,0C14.826,20.219,14.826,18.206,13.526,18.205z
	 M13.526,14.323c-3.117,0-6.234,0-9.351,0c-1.299,0-1.299,2.014,0,2.014c3.118,0,6.235,0,9.351,0
	C14.826,16.337,14.826,14.324,13.526,14.323z M13.526,10.622c-3.117,0-6.234,0-9.351,0c-1.299,0-1.299,2.015,0,2.015
	c3.118,0,6.235,0,9.351,0C14.826,12.637,14.826,10.623,13.526,10.622z M49.818,13.515V33.1H38.803v4.032h-8.037V33.1H20.117V13.515
	H49.818z M46.809,16.525H23.128V30.09h23.681V16.525z M26.439,38.037h16.689v-0.829H26.439V38.037z M28.8,22.021
	c0-2.364,1.923-4.288,4.287-4.288c2.365,0,4.289,1.924,4.289,4.288s-1.924,4.288-4.289,4.288C30.723,26.309,28.8,24.385,28.8,22.021
	z M29.876,22.021c0,1.771,1.44,3.212,3.211,3.212c1.772,0,3.213-1.441,3.213-3.212s-1.442-3.212-3.213-3.212
	S29.876,20.25,29.876,22.021z M35.976,26.044l3.295,3.294l0.948-0.947l-3.295-3.294L35.976,26.044z"/>
</svg>
