<?xml version="1.0" encoding="utf-8"?>
<!-- Generator: Adobe Illustrator 16.0.0, SVG Export Plug-In . SVG Version: 6.00 Build 0)  -->
<!DOCTYPE svg PUBLIC "-//W3C//DTD SVG 1.1//EN" "http://www.w3.org/Graphics/SVG/1.1/DTD/svg11.dtd">
<svg version="1.1" xmlns="http://www.w3.org/2000/svg" xmlns:xlink="http://www.w3.org/1999/xlink" x="0px" y="0px" width="50px"
	 height="50px" viewBox="0 0 50 50" enable-background="new 0 0 50 50" xml:space="preserve">
<g id="text">
</g>
<g id="_x31_">
</g>
<g id="_x32_">
</g>
<g id="_x33__1_">
</g>
<g id="_x34_">
</g>
<g id="_x35_">
</g>
<g id="_x36_">
</g>
<g id="_x37_">
</g>
<g id="_x38_">
</g>
<g id="_x39_">
</g>
<g id="_x31_0">
	<g>
		<path d="M13.743,21.147c0.02,0.291,0.064,0.575,0.137,0.85c-0.337,0.286-1.011,0.857-1.011,0.857v1.237l1.753,2.07
			c0,0,1.02,0.121,1.074,0.091s0.164-0.091,0.164-0.091s0.641-0.542,0.961-0.813c0.271,0.121,0.552,0.223,0.845,0.301
			c0.033,0.364,0.1,1.091,0.1,1.091l0.875,0.875l2.699-0.246l0.875-0.875c0,0-0.085-0.938-0.127-1.406
			c0.221-0.127,0.433-0.265,0.632-0.418c0.352,0.203,1.054,0.609,1.054,0.609l1.197-0.314l1.358-2.348l-0.314-1.197
			c0,0-0.904-0.523-1.356-0.785c-0.012-0.261-0.04-0.518-0.094-0.768c0.358-0.307,1.075-0.921,1.075-0.921v-1.237l-1.767-2.06
			h-1.238c0,0-0.587,0.503-0.88,0.754c-0.318-0.155-0.654-0.281-1.006-0.376c-0.028-0.349-0.085-1.048-0.085-1.048l-0.875-0.875
			l-2.703,0.22l-0.875,0.875c0,0,0.074,0.917,0.11,1.376c-0.265,0.151-0.515,0.321-0.747,0.51c-0.38-0.174-1.142-0.522-1.142-0.522
			l-1.197,0.314l-1.132,2.468l-0.04,0.167l0.354,1.03C12.418,20.542,13.301,20.946,13.743,21.147z M19.051,18.131
			c1.508,0,2.729,1.222,2.729,2.729s-1.222,2.729-2.729,2.729c-1.507,0-2.729-1.222-2.729-2.729S17.544,18.131,19.051,18.131z"/>
		<path d="M27.687,24.738c0.009,0.129,0.028,0.256,0.061,0.378c-0.15,0.127-0.45,0.381-0.45,0.381v0.55l0.78,0.921
			c0,0,0.454,0.054,0.478,0.041c0.024-0.014,0.073-0.041,0.073-0.041s0.285-0.241,0.428-0.362c0.12,0.054,0.245,0.099,0.376,0.134
			c0.015,0.162,0.044,0.486,0.044,0.486l0.39,0.389l1.201-0.109l0.389-0.39c0,0-0.037-0.417-0.057-0.625
			c0.099-0.057,0.193-0.118,0.281-0.186c0.156,0.09,0.469,0.271,0.469,0.271l0.533-0.14l0.604-1.045l-0.141-0.532
			c0,0-0.402-0.233-0.604-0.349c-0.005-0.116-0.018-0.23-0.041-0.342c0.159-0.137,0.478-0.41,0.478-0.41v-0.55l-0.785-0.917h-0.551
			c0,0-0.262,0.224-0.392,0.335c-0.142-0.069-0.291-0.125-0.448-0.167c-0.012-0.155-0.037-0.466-0.037-0.466l-0.39-0.389
			l-1.202,0.098l-0.39,0.389c0,0,0.033,0.408,0.049,0.613c-0.117,0.067-0.229,0.143-0.332,0.227
			c-0.169-0.078-0.508-0.232-0.508-0.232l-0.533,0.14l-0.503,1.098l-0.019,0.074l0.158,0.458
			C27.097,24.469,27.489,24.648,27.687,24.738z M30.048,23.396c0.671,0,1.214,0.543,1.214,1.214c0,0.67-0.543,1.214-1.214,1.214
			s-1.214-0.543-1.214-1.214C28.834,23.939,29.377,23.396,30.048,23.396z"/>
		<path d="M33.213,18.976c0.011,0.16,0.035,0.317,0.075,0.469c-0.187,0.158-0.558,0.473-0.558,0.473v0.682l0.967,1.141
			c0,0,0.563,0.066,0.592,0.05c0.03-0.017,0.091-0.05,0.091-0.05s0.354-0.299,0.53-0.448c0.148,0.066,0.304,0.123,0.466,0.166
			c0.018,0.201,0.054,0.602,0.054,0.602l0.483,0.482l1.488-0.136l0.481-0.482c0,0-0.046-0.517-0.07-0.775
			c0.123-0.07,0.24-0.146,0.349-0.23c0.194,0.112,0.581,0.336,0.581,0.336l0.661-0.173l0.749-1.295l-0.174-0.659
			c0,0-0.499-0.289-0.748-0.433c-0.007-0.144-0.022-0.286-0.051-0.424c0.197-0.169,0.592-0.508,0.592-0.508v-0.682l-0.974-1.136
			h-0.683c0,0-0.324,0.277-0.485,0.416c-0.175-0.085-0.36-0.155-0.555-0.208c-0.015-0.192-0.046-0.578-0.046-0.578l-0.483-0.482
			l-1.489,0.121l-0.483,0.482c0,0,0.041,0.506,0.061,0.76c-0.146,0.083-0.283,0.177-0.411,0.281c-0.21-0.096-0.63-0.288-0.63-0.288
			l-0.66,0.173l-0.623,1.361l-0.023,0.092l0.196,0.567C32.482,18.642,32.969,18.865,33.213,18.976z M36.14,17.313
			c0.831,0,1.504,0.673,1.504,1.505c0,0.831-0.673,1.504-1.504,1.504c-0.832,0-1.505-0.673-1.505-1.504
			C34.635,17.986,35.308,17.313,36.14,17.313z"/>
		<path d="M0.332,4.633v32.532h17.69v6.698h13.349v-6.698h18.297V4.633H0.332z M44.668,32.165H5.332V9.633h39.336V32.165z"/>
		<rect x="10.835" y="43.99" width="27.723" height="1.377"/>
	</g>
</g>
<g id="_x31_1">
</g>
<g id="_x31_2">
</g>
<g id="_x31_3">
</g>
<g id="_x31_4">
</g>
<g id="_x31_5">
</g>
<g id="_x31_6">
</g>
<g id="_x31_7">
</g>
<g id="_x31_8">
</g>
<g id="_x31_9">
</g>
<g id="_x32_0">
</g>
<g id="_x32_1">
</g>
<g id="_x32_2">
</g>
<g id="_x32_3">
</g>
<g id="_x32_4">
</g>
<g id="_x32_5">
</g>
<g id="_x32_6">
</g>
<g id="_x32_7">
</g>
<g id="_x32_8">
</g>
<g id="_x32_9">
</g>
<g id="_x33_0">
</g>
<g id="_x33_1">
</g>
<g id="_x33_2">
</g>
<g id="_x33_3">
</g>
<g id="_x33_4">
</g>
<g id="_x33_5">
</g>
<g id="_x33_6">
</g>
<g id="_x33_7">
</g>
<g id="_x33_8">
</g>
<g id="_x33_9">
</g>
<g id="_x34_0">
</g>
<g id="_x34_1">
</g>
<g id="_x34_2">
</g>
<g id="_x34_3">
</g>
<g id="_x34_4">
</g>
<g id="_x34_5">
</g>
<g id="_x34_6">
</g>
<g id="_x34_7">
</g>
<g id="_x34_8">
</g>
<g id="_x34_9">
</g>
<g id="_x35_0">
</g>
<g id="_x35_1">
</g>
<g id="_x35_2">
</g>
<g id="_x35_3">
</g>
<g id="_x35_4">
</g>
<g id="_x35_5">
</g>
<g id="_x35_6">
</g>
<g id="_x35_7">
</g>
<g id="_x35_8">
</g>
<g id="_x35_9">
</g>
<g id="_x36_0">
</g>
<g id="_x36_1">
</g>
<g id="_x36_2">
</g>
<g id="_x36_3">
</g>
<g id="_x36_4">
</g>
<g id="_x36_5">
</g>
<g id="_x36_6">
</g>
<g id="_x36_7">
</g>
<g id="_x36_8">
</g>
<g id="_x36_9">
</g>
<g id="_x37_0">
</g>
<g id="_x37_1">
</g>
<g id="_x37_2">
</g>
<g id="_x37_3">
</g>
<g id="_x37_4">
</g>
<g id="_x37_5">
</g>
<g id="_x37_6">
</g>
<g id="_x37_7">
</g>
<g id="_x37_8">
</g>
<g id="_x37_9">
</g>
<g id="_x38_0">
</g>
<g id="_x38_1">
</g>
<g id="_x38_2">
</g>
<g id="_x38_3">
</g>
<g id="_x38_4">
</g>
<g id="_x38_5">
</g>
<g id="_x38_6">
</g>
<g id="_x38_7">
</g>
<g id="_x38_8">
</g>
<g id="_x38_9">
</g>
<g id="_x39_0">
</g>
<g id="_x39_1">
</g>
<g id="_x39_2">
</g>
<g id="_x39_3">
</g>
<g id="_x39_4">
</g>
<g id="_x39_5">
</g>
<g id="_x39_6">
</g>
<g id="_x39_7">
</g>
<g id="_x39_8">
</g>
<g id="_x39_9">
</g>
<g id="_x31_00">
</g>
<g id="_x31_01">
</g>
<g id="_x31_02">
</g>
<g id="_x31_03">
</g>
<g id="_x31_04">
</g>
<g id="_x31_05">
</g>
<g id="_x31_06">
</g>
<g id="_x31_07">
</g>
<g id="_x31_08">
</g>
<g id="_x31_09">
</g>
<g id="_x31_10">
</g>
<g id="_x31_11">
</g>
<g id="_x31_12">
</g>
<g id="_x31_13">
</g>
<g id="_x31_14">
</g>
<g id="_x31_15">
</g>
<g id="_x31_16">
</g>
<g id="_x31_17">
</g>
<g id="_x31_18">
</g>
<g id="_x31_19">
</g>
<g id="_x31_20">
</g>
<g id="_x31_21">
</g>
<g id="_x31_22">
</g>
<g id="_x31_23">
</g>
<g id="_x31_24">
</g>
<g id="_x31_25">
</g>
<g id="_x31_26">
</g>
<g id="_x31_27">
</g>
<g id="_x31_28">
</g>
<g id="_x31_29">
</g>
<g id="_x31_30">
</g>
<g id="_x31_31">
</g>
<g id="_x31_32">
</g>
<g id="_x31_33">
</g>
<g id="_x31_34">
</g>
<g id="_x31_35">
</g>
<g id="_x31_36">
</g>
<g id="_x31_37">
</g>
<g id="_x31_38">
</g>
<g id="_x31_39">
</g>
<g id="_x31_40">
</g>
<g id="_x31_41">
</g>
<g id="_x31_42">
</g>
<g id="_x31_43">
</g>
<g id="_x31_44">
</g>
<g id="_x31_45">
</g>
<g id="_x31_46">
</g>
<g id="_x31_47">
</g>
<g id="_x31_48">
</g>
<g id="_x31_49">
</g>
<g id="_x31_50">
</g>
<g id="_x31_51">
</g>
<g id="_x31_52">
</g>
<g id="_x31_53">
</g>
<g id="_x31_54">
</g>
<g id="_x31_55">
</g>
<g id="_x31_56">
</g>
<g id="_x31_57">
</g>
<g id="_x31_58">
</g>
<g id="_x31_59">
</g>
<g id="_x31_60">
</g>
<g id="_x31_61">
</g>
<g id="_x31_62">
</g>
<g id="_x31_63">
</g>
<g id="_x31_64">
</g>
<g id="_x31_65">
</g>
<g id="_x31_66">
</g>
<g id="_x31_67">
</g>
<g id="_x31_68">
</g>
<g id="_x31_69">
</g>
<g id="_x31_70">
</g>
<g id="_x31_71">
</g>
<g id="_x31_72">
</g>
<g id="_x31_73">
</g>
<g id="_x31_74">
</g>
<g id="_x31_75">
</g>
<g id="_x31_76">
</g>
<g id="_x31_77">
</g>
<g id="_x31_78">
</g>
<g id="_x31_79">
</g>
<g id="_x31_80">
</g>
<g id="_x31_81">
</g>
<g id="_x31_82">
</g>
<g id="_x31_83">
</g>
<g id="_x31_84">
</g>
<g id="_x31_85">
</g>
<g id="_x31_86">
</g>
<g id="_x31_87">
</g>
<g id="_x31_88">
</g>
<g id="_x31_89">
</g>
<g id="_x31_90">
</g>
</svg>
