<?xml version="1.0" encoding="utf-8"?>
<!-- Generator: Adobe Illustrator 16.0.0, SVG Export Plug-In . SVG Version: 6.00 Build 0)  -->
<!DOCTYPE svg PUBLIC "-//W3C//DTD SVG 1.1//EN" "http://www.w3.org/Graphics/SVG/1.1/DTD/svg11.dtd">
<svg version="1.1" xmlns="http://www.w3.org/2000/svg" xmlns:xlink="http://www.w3.org/1999/xlink" x="0px" y="0px" width="50px"
	 height="50px" viewBox="0 0 50 50" enable-background="new 0 0 50 50" xml:space="preserve">
<g id="text">
</g>
<g id="_x31_">
</g>
<g id="_x32_">
</g>
<g id="_x33__1_">
</g>
<g id="_x34_">
</g>
<g id="_x35_">
</g>
<g id="_x36_">
</g>
<g id="_x37_">
</g>
<g id="_x38_">
</g>
<g id="_x39_">
</g>
<g id="_x31_0">
</g>
<g id="_x31_1">
</g>
<g id="_x31_2">
</g>
<g id="_x31_3">
</g>
<g id="_x31_4">
</g>
<g id="_x31_5">
</g>
<g id="_x31_6">
</g>
<g id="_x31_7">
</g>
<g id="_x31_8">
</g>
<g id="_x31_9">
</g>
<g id="_x32_0">
</g>
<g id="_x32_1">
</g>
<g id="_x32_2">
</g>
<g id="_x32_3">
</g>
<g id="_x32_4">
</g>
<g id="_x32_5">
</g>
<g id="_x32_6">
</g>
<g id="_x32_7">
</g>
<g id="_x32_8">
</g>
<g id="_x32_9">
</g>
<g id="_x33_0">
</g>
<g id="_x33_1">
</g>
<g id="_x33_2">
</g>
<g id="_x33_3">
</g>
<g id="_x33_4">
</g>
<g id="_x33_5">
</g>
<g id="_x33_6">
</g>
<g id="_x33_7">
</g>
<g id="_x33_8">
</g>
<g id="_x33_9">
</g>
<g id="_x34_0">
</g>
<g id="_x34_1">
</g>
<g id="_x34_2">
</g>
<g id="_x34_3">
</g>
<g id="_x34_4">
</g>
<g id="_x34_5">
</g>
<g id="_x34_6">
</g>
<g id="_x34_7">
</g>
<g id="_x34_8">
</g>
<g id="_x34_9">
</g>
<g id="_x35_0">
</g>
<g id="_x35_1">
</g>
<g id="_x35_2">
</g>
<g id="_x35_3">
</g>
<g id="_x35_4">
</g>
<g id="_x35_5">
</g>
<g id="_x35_6">
</g>
<g id="_x35_7">
</g>
<g id="_x35_8">
</g>
<g id="_x35_9">
</g>
<g id="_x36_0">
</g>
<g id="_x36_1">
</g>
<g id="_x36_2">
</g>
<g id="_x36_3">
</g>
<g id="_x36_4">
</g>
<g id="_x36_5">
</g>
<g id="_x36_6">
</g>
<g id="_x36_7">
</g>
<g id="_x36_8">
	<g>
		<path d="M17.819,27.695c-0.067,0.176-0.155,0.328-0.264,0.455c-0.108,0.129-0.24,0.229-0.396,0.301
			c-0.156,0.072-0.347,0.107-0.57,0.107c-0.313,0-0.572-0.068-0.78-0.203c-0.208-0.137-0.374-0.316-0.498-0.541
			c-0.124-0.223-0.214-0.477-0.27-0.756c-0.057-0.279-0.084-0.564-0.084-0.852c0-0.289,0.027-0.572,0.084-0.852
			c0.056-0.281,0.146-0.533,0.27-0.756c0.124-0.225,0.29-0.404,0.498-0.541s0.468-0.203,0.78-0.203c0.271,0,0.494,0.051,0.666,0.154
			c0.172,0.105,0.31,0.225,0.414,0.361c0.104,0.137,0.176,0.273,0.216,0.414c0.04,0.139,0.068,0.25,0.084,0.33h2.568
			c-0.112-1.08-0.49-1.914-1.135-2.502c-0.644-0.588-1.558-0.887-2.741-0.895c-0.664,0-1.263,0.107-1.794,0.324
			c-0.532,0.215-0.988,0.52-1.368,0.912s-0.672,0.863-0.876,1.416c-0.204,0.551-0.307,1.164-0.307,1.836
			c0,0.631,0.097,1.223,0.288,1.77c0.192,0.549,0.475,1.021,0.847,1.422s0.825,0.717,1.361,0.949
			c0.536,0.23,1.152,0.348,1.849,0.348c0.624,0,1.18-0.105,1.668-0.313c0.487-0.209,0.897-0.482,1.229-0.822
			s0.584-0.723,0.756-1.146s0.259-0.852,0.259-1.283h-2.593C17.941,27.33,17.888,27.52,17.819,27.695z"/>
		<path d="M28.115,26.045c-0.229-0.188-0.486-0.342-0.774-0.463c-0.288-0.119-0.584-0.223-0.888-0.311
			c-0.304-0.08-0.602-0.154-0.894-0.223c-0.293-0.068-0.555-0.141-0.786-0.217c-0.232-0.076-0.422-0.164-0.57-0.264
			s-0.227-0.225-0.234-0.377c0-0.121,0.032-0.219,0.097-0.295c0.063-0.076,0.144-0.133,0.239-0.174
			c0.097-0.039,0.2-0.068,0.313-0.084s0.212-0.023,0.3-0.023c0.136,0,0.272,0.016,0.408,0.047c0.136,0.033,0.26,0.088,0.372,0.168
			c0.112,0.072,0.198,0.164,0.258,0.277c0.061,0.111,0.078,0.248,0.054,0.408h2.496c-0.016-0.521-0.124-0.959-0.323-1.314
			c-0.2-0.355-0.465-0.645-0.792-0.865c-0.328-0.219-0.704-0.377-1.129-0.473c-0.424-0.096-0.868-0.145-1.332-0.145
			c-0.439,0-0.867,0.055-1.283,0.162s-0.784,0.277-1.104,0.51s-0.578,0.525-0.773,0.883c-0.196,0.355-0.294,0.781-0.294,1.277
			c0,0.432,0.088,0.785,0.264,1.063c0.176,0.275,0.402,0.504,0.678,0.684c0.276,0.18,0.588,0.324,0.937,0.432
			c0.348,0.107,0.689,0.211,1.025,0.307c0.368,0.104,0.672,0.193,0.912,0.27s0.428,0.148,0.564,0.217
			c0.136,0.066,0.231,0.139,0.288,0.215c0.056,0.076,0.084,0.17,0.084,0.283c0,0.16-0.036,0.289-0.108,0.389
			c-0.072,0.102-0.164,0.18-0.276,0.24c-0.111,0.061-0.231,0.1-0.359,0.121c-0.128,0.02-0.244,0.029-0.349,0.029
			c-0.248,0-0.496-0.041-0.743-0.119c-0.249-0.08-0.421-0.248-0.517-0.506c-0.064-0.168-0.096-0.355-0.096-0.563h-2.641
			c0,0.455,0.072,0.848,0.217,1.176c0.144,0.328,0.327,0.607,0.552,0.84c0.224,0.232,0.476,0.416,0.756,0.553
			c0.28,0.135,0.56,0.242,0.84,0.322s0.544,0.133,0.792,0.156c0.248,0.025,0.452,0.037,0.612,0.037c0.479,0,0.956-0.051,1.428-0.15
			s0.896-0.264,1.272-0.492s0.68-0.529,0.912-0.906c0.231-0.375,0.348-0.844,0.348-1.404c0-0.391-0.068-0.725-0.204-1.002
			C28.525,26.465,28.343,26.232,28.115,26.045z"/>
		<path d="M32.933,21.719c-0.439,0-0.867,0.055-1.283,0.162s-0.784,0.277-1.104,0.51s-0.578,0.525-0.773,0.883
			c-0.196,0.355-0.294,0.781-0.294,1.277c0,0.432,0.088,0.785,0.264,1.063c0.176,0.275,0.402,0.504,0.678,0.684
			c0.276,0.18,0.588,0.324,0.937,0.432c0.348,0.107,0.689,0.211,1.025,0.307c0.368,0.104,0.672,0.193,0.912,0.27
			s0.428,0.148,0.564,0.217c0.136,0.066,0.231,0.139,0.288,0.215c0.056,0.076,0.084,0.17,0.084,0.283
			c0,0.16-0.036,0.289-0.108,0.389c-0.072,0.102-0.164,0.18-0.276,0.24c-0.111,0.061-0.231,0.1-0.359,0.121
			c-0.128,0.02-0.244,0.029-0.349,0.029c-0.248,0-0.496-0.041-0.743-0.119c-0.249-0.08-0.421-0.248-0.517-0.506
			c-0.064-0.168-0.096-0.355-0.096-0.563h-2.641c0,0.455,0.072,0.848,0.217,1.176c0.144,0.328,0.327,0.607,0.552,0.84
			c0.224,0.232,0.476,0.416,0.756,0.553c0.28,0.135,0.56,0.242,0.84,0.322s0.544,0.133,0.792,0.156
			c0.248,0.025,0.452,0.037,0.612,0.037c0.479,0,0.956-0.051,1.428-0.15s0.896-0.264,1.272-0.492s0.68-0.529,0.912-0.906
			c0.231-0.375,0.348-0.844,0.348-1.404c0-0.391-0.068-0.725-0.204-1.002c-0.136-0.275-0.318-0.508-0.546-0.695
			c-0.229-0.188-0.486-0.342-0.774-0.463c-0.288-0.119-0.584-0.223-0.888-0.311c-0.304-0.08-0.602-0.154-0.894-0.223
			c-0.293-0.068-0.555-0.141-0.786-0.217c-0.232-0.076-0.422-0.164-0.57-0.264s-0.227-0.225-0.234-0.377
			c0-0.121,0.032-0.219,0.097-0.295c0.063-0.076,0.144-0.133,0.239-0.174c0.097-0.039,0.2-0.068,0.313-0.084s0.212-0.023,0.3-0.023
			c0.136,0,0.272,0.016,0.408,0.047c0.136,0.033,0.26,0.088,0.372,0.168c0.112,0.072,0.198,0.164,0.258,0.277
			c0.061,0.111,0.078,0.248,0.054,0.408h2.496c-0.016-0.521-0.124-0.959-0.323-1.314c-0.2-0.355-0.465-0.645-0.792-0.865
			c-0.328-0.219-0.704-0.377-1.129-0.473C33.841,21.768,33.396,21.719,32.933,21.719z"/>
		<path d="M35.903,2.472H7.651v45.057H42.35V8.723L35.903,2.472z M39.35,44.528H10.651V5.472h23.706v4.76h4.992V44.528z"/>
	</g>
</g>
<g id="_x36_9">
</g>
<g id="_x37_0">
</g>
<g id="_x37_1">
</g>
<g id="_x37_2">
</g>
<g id="_x37_3">
</g>
<g id="_x37_4">
</g>
<g id="_x37_5">
</g>
<g id="_x37_6">
</g>
<g id="_x37_7">
</g>
<g id="_x37_8">
</g>
<g id="_x37_9">
</g>
<g id="_x38_0">
</g>
<g id="_x38_1">
</g>
<g id="_x38_2">
</g>
<g id="_x38_3">
</g>
<g id="_x38_4">
</g>
<g id="_x38_5">
</g>
<g id="_x38_6">
</g>
<g id="_x38_7">
</g>
<g id="_x38_8">
</g>
<g id="_x38_9">
</g>
<g id="_x39_0">
</g>
<g id="_x39_1">
</g>
<g id="_x39_2">
</g>
<g id="_x39_3">
</g>
<g id="_x39_4">
</g>
<g id="_x39_5">
</g>
<g id="_x39_6">
</g>
<g id="_x39_7">
</g>
<g id="_x39_8">
</g>
<g id="_x39_9">
</g>
<g id="_x31_00">
</g>
<g id="_x31_01">
</g>
<g id="_x31_02">
</g>
<g id="_x31_03">
</g>
<g id="_x31_04">
</g>
<g id="_x31_05">
</g>
<g id="_x31_06">
</g>
<g id="_x31_07">
</g>
<g id="_x31_08">
</g>
<g id="_x31_09">
</g>
<g id="_x31_10">
</g>
<g id="_x31_11">
</g>
<g id="_x31_12">
</g>
<g id="_x31_13">
</g>
<g id="_x31_14">
</g>
<g id="_x31_15">
</g>
<g id="_x31_16">
</g>
<g id="_x31_17">
</g>
<g id="_x31_18">
</g>
<g id="_x31_19">
</g>
<g id="_x31_20">
</g>
<g id="_x31_21">
</g>
<g id="_x31_22">
</g>
<g id="_x31_23">
</g>
<g id="_x31_24">
</g>
<g id="_x31_25">
</g>
<g id="_x31_26">
</g>
<g id="_x31_27">
</g>
<g id="_x31_28">
</g>
<g id="_x31_29">
</g>
<g id="_x31_30">
</g>
<g id="_x31_31">
</g>
<g id="_x31_32">
</g>
<g id="_x31_33">
</g>
<g id="_x31_34">
</g>
<g id="_x31_35">
</g>
<g id="_x31_36">
</g>
<g id="_x31_37">
</g>
<g id="_x31_38">
</g>
<g id="_x31_39">
</g>
<g id="_x31_40">
</g>
<g id="_x31_41">
</g>
<g id="_x31_42">
</g>
<g id="_x31_43">
</g>
<g id="_x31_44">
</g>
<g id="_x31_45">
</g>
<g id="_x31_46">
</g>
<g id="_x31_47">
</g>
<g id="_x31_48">
</g>
<g id="_x31_49">
</g>
<g id="_x31_50">
</g>
<g id="_x31_51">
</g>
<g id="_x31_52">
</g>
<g id="_x31_53">
</g>
<g id="_x31_54">
</g>
<g id="_x31_55">
</g>
<g id="_x31_56">
</g>
<g id="_x31_57">
</g>
<g id="_x31_58">
</g>
<g id="_x31_59">
</g>
<g id="_x31_60">
</g>
<g id="_x31_61">
</g>
<g id="_x31_62">
</g>
<g id="_x31_63">
</g>
<g id="_x31_64">
</g>
<g id="_x31_65">
</g>
<g id="_x31_66">
</g>
<g id="_x31_67">
</g>
<g id="_x31_68">
</g>
<g id="_x31_69">
</g>
<g id="_x31_70">
</g>
<g id="_x31_71">
</g>
<g id="_x31_72">
</g>
<g id="_x31_73">
</g>
<g id="_x31_74">
</g>
<g id="_x31_75">
</g>
<g id="_x31_76">
</g>
<g id="_x31_77">
</g>
<g id="_x31_78">
</g>
<g id="_x31_79">
</g>
<g id="_x31_80">
</g>
<g id="_x31_81">
</g>
<g id="_x31_82">
</g>
<g id="_x31_83">
</g>
<g id="_x31_84">
</g>
<g id="_x31_85">
</g>
<g id="_x31_86">
</g>
<g id="_x31_87">
</g>
<g id="_x31_88">
</g>
<g id="_x31_89">
</g>
<g id="_x31_90">
</g>
</svg>
