<?xml version="1.0" encoding="utf-8"?>
<!-- Generator: Adobe Illustrator 16.0.0, SVG Export Plug-In . SVG Version: 6.00 Build 0)  -->
<!DOCTYPE svg PUBLIC "-//W3C//DTD SVG 1.1//EN" "http://www.w3.org/Graphics/SVG/1.1/DTD/svg11.dtd">
<svg version="1.1" xmlns="http://www.w3.org/2000/svg" xmlns:xlink="http://www.w3.org/1999/xlink" x="0px" y="0px" width="50px"
	 height="50px" viewBox="0 0 50 50" enable-background="new 0 0 50 50" xml:space="preserve">
<g id="text">
</g>
<g id="_x31_">
</g>
<g id="_x32_">
</g>
<g id="_x33__1_">
</g>
<g id="_x34_">
</g>
<g id="_x35_">
</g>
<g id="_x36_">
</g>
<g id="_x37_">
</g>
<g id="_x38_">
</g>
<g id="_x39_">
</g>
<g id="_x31_0">
</g>
<g id="_x31_1">
</g>
<g id="_x31_2">
</g>
<g id="_x31_3">
</g>
<g id="_x31_4">
</g>
<g id="_x31_5">
</g>
<g id="_x31_6">
</g>
<g id="_x31_7">
</g>
<g id="_x31_8">
</g>
<g id="_x31_9">
</g>
<g id="_x32_0">
</g>
<g id="_x32_1">
</g>
<g id="_x32_2">
</g>
<g id="_x32_3">
</g>
<g id="_x32_4">
</g>
<g id="_x32_5">
</g>
<g id="_x32_6">
</g>
<g id="_x32_7">
</g>
<g id="_x32_8">
</g>
<g id="_x32_9">
</g>
<g id="_x33_0">
</g>
<g id="_x33_1">
</g>
<g id="_x33_2">
	<g>
		<path d="M17.315,14.172H5.111v25.526h11.704h0.5h24.372V18.571H17.315V14.172z M13.131,34.039c0,0.007-0.004,0.012-0.004,0.02
			c-0.001,0.036-0.013,0.072-0.022,0.11c-0.011,0.046-0.021,0.092-0.043,0.13c-0.002,0.004-0.002,0.008-0.004,0.013
			c-0.008,0.015-0.021,0.02-0.03,0.033c-0.029,0.039-0.058,0.076-0.096,0.104c-0.259,0.26-0.637,0.233-1.002,0.233
			c-0.633,0-1.267,0-1.901,0c-0.36,0-0.939,0.096-1.223-0.189c-0.298-0.298-0.286-1.122-0.181-1.504
			c0.143-0.521,0.655-0.5,1.084-0.5c0.626,0,1.254,0,1.881,0c0.362,0,0.899-0.091,1.232,0.104
			C13.279,32.86,13.131,33.603,13.131,34.039z M13.131,31.411c0,0.007-0.004,0.012-0.004,0.02c-0.001,0.036-0.013,0.072-0.022,0.11
			c-0.011,0.046-0.021,0.092-0.043,0.13c-0.002,0.004-0.002,0.008-0.004,0.013c-0.008,0.015-0.021,0.019-0.03,0.033
			c-0.029,0.04-0.058,0.076-0.096,0.104c-0.259,0.26-0.637,0.233-1.002,0.233c-0.633,0-1.267,0-1.901,0
			c-0.36,0-0.939,0.096-1.223-0.188c-0.298-0.299-0.286-1.122-0.181-1.505c0.143-0.521,0.654-0.501,1.084-0.501
			c0.626,0,1.254,0,1.881,0c0.362,0,0.899-0.091,1.232,0.104C13.279,30.232,13.131,30.975,13.131,31.411z M13.131,28.697
			c0,0.007-0.003,0.012-0.004,0.019c-0.001,0.037-0.013,0.075-0.022,0.114c-0.011,0.045-0.022,0.09-0.043,0.127
			c-0.002,0.005-0.002,0.009-0.005,0.014c-0.008,0.015-0.021,0.019-0.03,0.033c-0.029,0.04-0.058,0.076-0.096,0.105
			c-0.259,0.259-0.637,0.232-1.001,0.232c-0.633,0-1.267,0-1.901,0c-0.36,0-0.939,0.097-1.223-0.188
			c-0.298-0.298-0.286-1.122-0.181-1.505c0.143-0.521,0.655-0.5,1.084-0.5c0.626,0,1.254,0,1.881,0c0.362,0,0.9-0.091,1.232,0.104
			C13.279,27.519,13.131,28.262,13.131,28.697z M13.131,26.126c0,0.007-0.003,0.011-0.004,0.018
			c-0.001,0.037-0.013,0.075-0.022,0.114c-0.011,0.046-0.022,0.09-0.043,0.128c-0.002,0.005-0.002,0.009-0.005,0.014
			c-0.008,0.014-0.021,0.019-0.03,0.033c-0.029,0.039-0.058,0.076-0.096,0.104c-0.259,0.259-0.637,0.233-1.001,0.233
			c-0.633,0-1.267,0-1.901,0c-0.36,0-0.939,0.096-1.223-0.188c-0.298-0.298-0.286-1.122-0.181-1.505
			c0.143-0.521,0.655-0.5,1.084-0.5c0.626,0,1.254,0,1.881,0c0.362,0,0.899-0.091,1.232,0.104
			C13.279,24.947,13.131,25.69,13.131,26.126z M22.5,34.029c0,0.006-0.003,0.01-0.003,0.017c-0.001,0.039-0.013,0.077-0.024,0.117
			c-0.011,0.045-0.022,0.089-0.042,0.126c-0.002,0.004-0.001,0.009-0.004,0.014c-0.009,0.014-0.021,0.018-0.03,0.032
			c-0.029,0.04-0.059,0.077-0.097,0.105c-0.26,0.258-0.636,0.233-1.001,0.233c-0.633,0-1.267,0-1.901,0
			c-0.36,0-0.938,0.096-1.223-0.188c-0.298-0.298-0.287-1.122-0.181-1.505c0.143-0.521,0.655-0.5,1.083-0.5c0.627,0,1.254,0,1.881,0
			c0.362,0,0.9-0.09,1.233,0.104C22.647,32.85,22.5,33.594,22.5,34.029z M22.5,31.385c0,0.006-0.003,0.011-0.003,0.018
			c-0.001,0.037-0.013,0.075-0.023,0.113c-0.011,0.046-0.022,0.091-0.043,0.128c-0.002,0.004-0.001,0.009-0.004,0.014
			c-0.009,0.014-0.021,0.019-0.03,0.032c-0.029,0.04-0.058,0.077-0.097,0.104c-0.259,0.259-0.637,0.233-1.002,0.233
			c-0.633,0-1.267,0-1.901,0c-0.36,0-0.938,0.096-1.223-0.189c-0.298-0.298-0.287-1.121-0.181-1.505
			c0.143-0.521,0.654-0.5,1.083-0.5c0.627,0,1.254,0,1.881,0c0.362,0,0.9-0.091,1.233,0.104C22.647,30.207,22.5,30.95,22.5,31.385z
			 M22.5,28.793c0,0.007-0.003,0.011-0.003,0.017c-0.001,0.039-0.013,0.077-0.024,0.118c-0.011,0.045-0.022,0.089-0.042,0.125
			c-0.002,0.005-0.001,0.009-0.004,0.014c-0.009,0.014-0.021,0.019-0.03,0.032c-0.029,0.04-0.059,0.077-0.097,0.105
			c-0.26,0.259-0.636,0.233-1.001,0.233c-0.633,0-1.267,0-1.901,0c-0.36,0-0.938,0.097-1.223-0.188
			c-0.298-0.299-0.287-1.123-0.181-1.506c0.143-0.52,0.655-0.5,1.083-0.5c0.627,0,1.254,0,1.881,0c0.363,0,0.9-0.091,1.233,0.104
			C22.647,27.615,22.5,28.357,22.5,28.793z M36.131,28.158c0.378-0.104,1.073-0.104,1.452,0c0.576,0.159,0.529,0.712,0.529,1.183
			c0,0.671,0,1.343,0,2.014c0,0.441,0.091,1.018-0.4,1.235c-0.411,0.183-0.997,0.074-1.437,0.074c-0.104,0-0.189-0.03-0.262-0.072
			c-0.004-0.001-0.007,0-0.011-0.002c-0.49-0.219-0.399-0.794-0.399-1.235c0-0.671,0-1.343,0-2.014
			C35.603,28.871,35.555,28.316,36.131,28.158z M31.025,22.055c0.298-0.298,1.122-0.286,1.506-0.181c0.52,0.143,0.5,0.655,0.5,1.083
			c0,0.627,0,1.254,0,1.88c0,0.363,0.091,0.901-0.104,1.233c-0.268,0.458-1.011,0.31-1.446,0.31c-0.007,0-0.012-0.003-0.018-0.003
			c-0.037-0.001-0.075-0.013-0.114-0.023c-0.046-0.011-0.09-0.021-0.128-0.042c-0.004-0.003-0.009-0.002-0.014-0.005
			c-0.014-0.008-0.019-0.021-0.032-0.03c-0.039-0.029-0.076-0.058-0.105-0.096c-0.259-0.259-0.232-0.637-0.232-1.001
			c0-0.633,0-1.267,0-1.901C30.837,22.918,30.74,22.34,31.025,22.055z M30.665,27.375c0-0.057,0-0.113,0-0.168
			c0-0.28,0.433-0.28,0.433,0c0,0.056,0,0.112,0,0.168c0.029,0,0.057,0,0.086,0c0.698,0,0.698,1.083,0,1.083
			c-0.029,0-0.058,0-0.086,0c0,0.617,0,1.234,0,1.851c1.173,0,2.346,0,3.519,0c0.279,0,0.279,0.434,0,0.434c-1.245,0-2.49,0-3.735,0
			c-0.118,0-0.217-0.099-0.217-0.217c0-0.689,0-1.379,0-2.068c-0.028,0-0.057,0-0.085,0c-0.698,0-0.698-1.083,0-1.083
			C30.608,27.375,30.637,27.375,30.665,27.375z M28.433,22.055c0.298-0.298,1.122-0.286,1.506-0.181
			c0.521,0.143,0.5,0.655,0.5,1.083c0,0.627,0,1.254,0,1.88c0,0.363,0.091,0.901-0.104,1.233c-0.268,0.458-1.012,0.31-1.447,0.31
			c-0.007,0-0.012-0.003-0.02-0.003c-0.036-0.001-0.073-0.013-0.11-0.023c-0.046-0.011-0.092-0.021-0.13-0.043
			c-0.004-0.002-0.009-0.002-0.013-0.004c-0.015-0.008-0.019-0.021-0.033-0.03c-0.039-0.029-0.075-0.058-0.104-0.096
			c-0.26-0.259-0.234-0.637-0.234-1.002c0-0.633,0-1.267,0-1.901C28.245,22.918,28.148,22.34,28.433,22.055z M27.039,23.453
			c0.279,0,0.279,0.433,0,0.433c-3.508,0-7.017,0-10.525,0c-0.272,0-0.543,0-0.815,0c0,0.809,0,1.619,0,2.428c0,1.37,0,2.74,0,4.11
			c0.028,0,0.057,0,0.085,0c0.253,0,0.411,0.144,0.481,0.325c0.145,0,0.29,0,0.435,0c0.279,0,0.279,0.433,0,0.433
			c-0.145,0-0.29,0-0.435,0c-0.07,0.181-0.228,0.325-0.481,0.325c-0.201,0-0.403,0-0.604,0c-0.253,0-0.411-0.144-0.481-0.325
			c-0.145,0-0.29,0-0.436,0c-0.279,0-0.279-0.433,0-0.433c0.146,0,0.291,0,0.436,0c0.07-0.181,0.228-0.325,0.481-0.325
			c0.028,0,0.057,0,0.085,0c0-2.252,0-4.504,0-6.755c0-0.118,0.098-0.216,0.216-0.216C19.334,23.453,23.187,23.453,27.039,23.453z"
			/>
		<polygon points="21.705,15.604 21.705,12.074 21.705,10.907 21.705,10.302 8.125,10.302 8.125,12.074 20.061,12.074 
			20.061,15.604 20.061,17.032 20.061,17.293 43.224,17.293 43.224,32.553 42.65,32.553 42.65,34.239 43.224,34.239 43.953,34.239 
			44.889,34.239 44.889,17.293 44.889,15.928 44.889,15.604 		"/>
	</g>
</g>
<g id="_x33_3">
</g>
<g id="_x33_4">
</g>
<g id="_x33_5">
</g>
<g id="_x33_6">
</g>
<g id="_x33_7">
</g>
<g id="_x33_8">
</g>
<g id="_x33_9">
</g>
<g id="_x34_0">
</g>
<g id="_x34_1">
</g>
<g id="_x34_2">
</g>
<g id="_x34_3">
</g>
<g id="_x34_4">
</g>
<g id="_x34_5">
</g>
<g id="_x34_6">
</g>
<g id="_x34_7">
</g>
<g id="_x34_8">
</g>
<g id="_x34_9">
</g>
<g id="_x35_0">
</g>
<g id="_x35_1">
</g>
<g id="_x35_2">
</g>
<g id="_x35_3">
</g>
<g id="_x35_4">
</g>
<g id="_x35_5">
</g>
<g id="_x35_6">
</g>
<g id="_x35_7">
</g>
<g id="_x35_8">
</g>
<g id="_x35_9">
</g>
<g id="_x36_0">
</g>
<g id="_x36_1">
</g>
<g id="_x36_2">
</g>
<g id="_x36_3">
</g>
<g id="_x36_4">
</g>
<g id="_x36_5">
</g>
<g id="_x36_6">
</g>
<g id="_x36_7">
</g>
<g id="_x36_8">
</g>
<g id="_x36_9">
</g>
<g id="_x37_0">
</g>
<g id="_x37_1">
</g>
<g id="_x37_2">
</g>
<g id="_x37_3">
</g>
<g id="_x37_4">
</g>
<g id="_x37_5">
</g>
<g id="_x37_6">
</g>
<g id="_x37_7">
</g>
<g id="_x37_8">
</g>
<g id="_x37_9">
</g>
<g id="_x38_0">
</g>
<g id="_x38_1">
</g>
<g id="_x38_2">
</g>
<g id="_x38_3">
</g>
<g id="_x38_4">
</g>
<g id="_x38_5">
</g>
<g id="_x38_6">
</g>
<g id="_x38_7">
</g>
<g id="_x38_8">
</g>
<g id="_x38_9">
</g>
<g id="_x39_0">
</g>
<g id="_x39_1">
</g>
<g id="_x39_2">
</g>
<g id="_x39_3">
</g>
<g id="_x39_4">
</g>
<g id="_x39_5">
</g>
<g id="_x39_6">
</g>
<g id="_x39_7">
</g>
<g id="_x39_8">
</g>
<g id="_x39_9">
</g>
<g id="_x31_00">
</g>
<g id="_x31_01">
</g>
<g id="_x31_02">
</g>
<g id="_x31_03">
</g>
<g id="_x31_04">
</g>
<g id="_x31_05">
</g>
<g id="_x31_06">
</g>
<g id="_x31_07">
</g>
<g id="_x31_08">
</g>
<g id="_x31_09">
</g>
<g id="_x31_10">
</g>
<g id="_x31_11">
</g>
<g id="_x31_12">
</g>
<g id="_x31_13">
</g>
<g id="_x31_14">
</g>
<g id="_x31_15">
</g>
<g id="_x31_16">
</g>
<g id="_x31_17">
</g>
<g id="_x31_18">
</g>
<g id="_x31_19">
</g>
<g id="_x31_20">
</g>
<g id="_x31_21">
</g>
<g id="_x31_22">
</g>
<g id="_x31_23">
</g>
<g id="_x31_24">
</g>
<g id="_x31_25">
</g>
<g id="_x31_26">
</g>
<g id="_x31_27">
</g>
<g id="_x31_28">
</g>
<g id="_x31_29">
</g>
<g id="_x31_30">
</g>
<g id="_x31_31">
</g>
<g id="_x31_32">
</g>
<g id="_x31_33">
</g>
<g id="_x31_34">
</g>
<g id="_x31_35">
</g>
<g id="_x31_36">
</g>
<g id="_x31_37">
</g>
<g id="_x31_38">
</g>
<g id="_x31_39">
</g>
<g id="_x31_40">
</g>
<g id="_x31_41">
</g>
<g id="_x31_42">
</g>
<g id="_x31_43">
</g>
<g id="_x31_44">
</g>
<g id="_x31_45">
</g>
<g id="_x31_46">
</g>
<g id="_x31_47">
</g>
<g id="_x31_48">
</g>
<g id="_x31_49">
</g>
<g id="_x31_50">
</g>
<g id="_x31_51">
</g>
<g id="_x31_52">
</g>
<g id="_x31_53">
</g>
<g id="_x31_54">
</g>
<g id="_x31_55">
</g>
<g id="_x31_56">
</g>
<g id="_x31_57">
</g>
<g id="_x31_58">
</g>
<g id="_x31_59">
</g>
<g id="_x31_60">
</g>
<g id="_x31_61">
</g>
<g id="_x31_62">
</g>
<g id="_x31_63">
</g>
<g id="_x31_64">
</g>
<g id="_x31_65">
</g>
<g id="_x31_66">
</g>
<g id="_x31_67">
</g>
<g id="_x31_68">
</g>
<g id="_x31_69">
</g>
<g id="_x31_70">
</g>
<g id="_x31_71">
</g>
<g id="_x31_72">
</g>
<g id="_x31_73">
</g>
<g id="_x31_74">
</g>
<g id="_x31_75">
</g>
<g id="_x31_76">
</g>
<g id="_x31_77">
</g>
<g id="_x31_78">
</g>
<g id="_x31_79">
</g>
<g id="_x31_80">
</g>
<g id="_x31_81">
</g>
<g id="_x31_82">
</g>
<g id="_x31_83">
</g>
<g id="_x31_84">
</g>
<g id="_x31_85">
</g>
<g id="_x31_86">
</g>
<g id="_x31_87">
</g>
<g id="_x31_88">
</g>
<g id="_x31_89">
</g>
<g id="_x31_90">
</g>
</svg>
