<?xml version="1.0" encoding="utf-8"?>
<!-- Generator: Adobe Illustrator 16.0.4, SVG Export Plug-In . SVG Version: 6.00 Build 0)  -->
<!DOCTYPE svg PUBLIC "-//W3C//DTD SVG 1.1//EN" "http://www.w3.org/Graphics/SVG/1.1/DTD/svg11.dtd">
<svg version="1.1" id="Capa_1" xmlns="http://www.w3.org/2000/svg" xmlns:xlink="http://www.w3.org/1999/xlink" x="0px" y="0px"
	 width="50px" height="50px" viewBox="0 0 50 50" enable-background="new 0 0 50 50" xml:space="preserve">
<path d="M37.754,37.436c0,1.854-3.006,1.898-4.266,1.879c-1.264-0.019-4.266,0-4.266-1.879c0-1.877,3.002-1.859,4.266-1.879
	C34.752,35.576,37.754,35.559,37.754,37.436z M39.191,12.141L39.191,12.141v1.36h5.125v24.483h-5.125v1.332h0.604
	c1.507,0,3.014,0,4.521,0c0.326,0,0.652,0,0.979,0h0.625v-0.625c0-8.397,0-16.793,0-25.19c0-0.224,0-0.447,0-0.671v-0.563v-0.126
	H39.191z M33.682,31.311h-0.787v3.377h0.787h0.635v-3.377h-0.633H33.682z M34.34,20.835V20.23c0-0.722,0-1.444,0-2.167v-0.688
	h-1.469v3.459h0.742v0.001H34.34z M37.725,24.983l-4.333-3.129l-3.901,5.402l4.332,3.129L37.725,24.983z M37.469,10.794
	l-7.652-0.109l-0.075,5.343l7.651,0.109L37.469,10.794z M15.709,12.158c2.305,0.033,11.633-0.094,11.633-3.479
	c0-3.426-9.322-3.447-11.633-3.479c-2.308,0.033-11.63,0.053-11.63,3.479C4.079,12.105,13.401,12.125,15.709,12.158z M15.693,13.472
	c-2.013-0.032-8.89-0.058-11.614-2.246v5.294v4.288l0.013-9.116l0.016,9.187h0.059c2.783,2.119,9.536,2.144,11.527,2.175
	c1.985,0.033,8.722-0.061,11.516-2.175c0,0,0.121-0.103,0.133-0.112l-0.03-9.552C24.585,13.408,17.703,13.505,15.693,13.472z
	 M15.693,24.475c-2.013-0.032-8.89-0.058-11.614-2.246v5.294v4.287l0.013-9.116l0.016,9.187h0.059
	c2.783,2.119,9.536,2.144,11.527,2.175c1.985,0.033,8.722-0.061,11.516-2.175c0,0,0.121-0.103,0.133-0.112l-0.03-9.552
	C24.585,24.411,17.703,24.508,15.693,24.475z M15.693,35.214c-2.013-0.032-8.89-0.058-11.614-2.246v5.294v4.288l0.013-9.116
	l0.016,9.188h0.059c2.783,2.119,9.536,2.145,11.527,2.175c1.985,0.033,8.722-0.062,11.516-2.175c0,0,0.121-0.104,0.133-0.112
	l-0.03-9.552C24.585,35.15,17.703,35.248,15.693,35.214z"/>
</svg>
