<?xml version="1.0" encoding="utf-8"?>
<!-- Generator: Adobe Illustrator 16.0.4, SVG Export Plug-In . SVG Version: 6.00 Build 0)  -->
<!DOCTYPE svg PUBLIC "-//W3C//DTD SVG 1.1//EN" "http://www.w3.org/Graphics/SVG/1.1/DTD/svg11.dtd">
<svg version="1.1" id="Capa_1" xmlns="http://www.w3.org/2000/svg" xmlns:xlink="http://www.w3.org/1999/xlink" x="0px" y="0px"
	 width="50px" height="50px" viewBox="0 0 50 50" enable-background="new 0 0 50 50" xml:space="preserve">
<path d="M28.036,38.453H14.361h-0.546H1.027v-27.89h13.334v4.807H40.99v5.336c-1.751-1.177-3.858-1.865-6.127-1.865
	c-6.074,0-10.998,4.925-10.998,10.999C23.865,33.333,25.498,36.439,28.036,38.453z M17.166,11.557v1.56v0.286h25.309v8.508
	c0.703,0.676,1.313,1.446,1.818,2.289V13.402V11.91v-0.354h-25.33V7.7V6.425V5.764H4.125V7.7h13.041V11.557z M35.002,38.303
	c-4.631,0-8.4-3.769-8.4-8.4c0-4.632,3.77-8.401,8.4-8.401s8.4,3.769,8.4,8.401C43.402,34.534,39.633,38.303,35.002,38.303z
	 M41.294,29.9c0-3.469-2.823-6.292-6.292-6.292c-3.47,0-6.292,2.823-6.292,6.292c0,3.471,2.822,6.293,6.292,6.293
	C38.471,36.193,41.294,33.371,41.294,29.9z M42.517,35.925l-1.857,1.858l6.454,6.452l1.857-1.857L42.517,35.925z"/>
</svg>
