<?xml version="1.0" encoding="utf-8"?>
<!-- Generator: Adobe Illustrator 16.0.0, SVG Export Plug-In . SVG Version: 6.00 Build 0)  -->
<!DOCTYPE svg PUBLIC "-//W3C//DTD SVG 1.1//EN" "http://www.w3.org/Graphics/SVG/1.1/DTD/svg11.dtd">
<svg version="1.1" xmlns="http://www.w3.org/2000/svg" xmlns:xlink="http://www.w3.org/1999/xlink" x="0px" y="0px" width="50px"
	 height="50px" viewBox="0 0 50 50" enable-background="new 0 0 50 50" xml:space="preserve">
<g id="text">
</g>
<g id="_x31_">
</g>
<g id="_x32_">
</g>
<g id="_x33__1_">
</g>
<g id="_x34_">
</g>
<g id="_x35_">
</g>
<g id="_x36_">
</g>
<g id="_x37_">
</g>
<g id="_x38_">
</g>
<g id="_x39_">
</g>
<g id="_x31_0">
</g>
<g id="_x31_1">
</g>
<g id="_x31_2">
</g>
<g id="_x31_3">
</g>
<g id="_x31_4">
</g>
<g id="_x31_5">
</g>
<g id="_x31_6">
</g>
<g id="_x31_7">
</g>
<g id="_x31_8">
</g>
<g id="_x31_9">
</g>
<g id="_x32_0">
</g>
<g id="_x32_1">
</g>
<g id="_x32_2">
</g>
<g id="_x32_3">
</g>
<g id="_x32_4">
</g>
<g id="_x32_5">
</g>
<g id="_x32_6">
</g>
<g id="_x32_7">
</g>
<g id="_x32_8">
</g>
<g id="_x32_9">
</g>
<g id="_x33_0">
</g>
<g id="_x33_1">
</g>
<g id="_x33_2">
</g>
<g id="_x33_3">
</g>
<g id="_x33_4">
</g>
<g id="_x33_5">
</g>
<g id="_x33_6">
</g>
<g id="_x33_7">
</g>
<g id="_x33_8">
</g>
<g id="_x33_9">
</g>
<g id="_x34_0">
</g>
<g id="_x34_1">
</g>
<g id="_x34_2">
</g>
<g id="_x34_3">
</g>
<g id="_x34_4">
</g>
<g id="_x34_5">
</g>
<g id="_x34_6">
</g>
<g id="_x34_7">
</g>
<g id="_x34_8">
</g>
<g id="_x34_9">
</g>
<g id="_x35_0">
</g>
<g id="_x35_1">
</g>
<g id="_x35_2">
</g>
<g id="_x35_3">
</g>
<g id="_x35_4">
</g>
<g id="_x35_5">
</g>
<g id="_x35_6">
</g>
<g id="_x35_7">
</g>
<g id="_x35_8">
</g>
<g id="_x35_9">
</g>
<g id="_x36_0">
</g>
<g id="_x36_1">
</g>
<g id="_x36_2">
</g>
<g id="_x36_3">
</g>
<g id="_x36_4">
</g>
<g id="_x36_5">
</g>
<g id="_x36_6">
</g>
<g id="_x36_7">
</g>
<g id="_x36_8">
</g>
<g id="_x36_9">
</g>
<g id="_x37_0">
</g>
<g id="_x37_1">
</g>
<g id="_x37_2">
</g>
<g id="_x37_3">
</g>
<g id="_x37_4">
</g>
<g id="_x37_5">
</g>
<g id="_x37_6">
</g>
<g id="_x37_7">
</g>
<g id="_x37_8">
</g>
<g id="_x37_9">
</g>
<g id="_x38_0">
</g>
<g id="_x38_1">
</g>
<g id="_x38_2">
</g>
<g id="_x38_3">
</g>
<g id="_x38_4">
</g>
<g id="_x38_5">
</g>
<g id="_x38_6">
</g>
<g id="_x38_7">
</g>
<g id="_x38_8">
</g>
<g id="_x38_9">
</g>
<g id="_x39_0">
</g>
<g id="_x39_1">
</g>
<g id="_x39_2">
</g>
<g id="_x39_3">
</g>
<g id="_x39_4">
</g>
<g id="_x39_5">
</g>
<g id="_x39_6">
</g>
<g id="_x39_7">
</g>
<g id="_x39_8">
</g>
<g id="_x39_9">
</g>
<g id="_x31_00">
</g>
<g id="_x31_01">
</g>
<g id="_x31_02">
</g>
<g id="_x31_03">
</g>
<g id="_x31_04">
</g>
<g id="_x31_05">
</g>
<g id="_x31_06">
</g>
<g id="_x31_07">
</g>
<g id="_x31_08">
</g>
<g id="_x31_09">
</g>
<g id="_x31_10">
</g>
<g id="_x31_11">
</g>
<g id="_x31_12">
</g>
<g id="_x31_13">
</g>
<g id="_x31_14">
</g>
<g id="_x31_15">
</g>
<g id="_x31_16">
</g>
<g id="_x31_17">
</g>
<g id="_x31_18">
</g>
<g id="_x31_19">
</g>
<g id="_x31_20">
</g>
<g id="_x31_21">
	<g>
		<path d="M24.808,24.511c-1.431,0.021-7.211,0.034-7.211,2.158c0,2.124,5.78,2.138,7.211,2.157c1.43,0.02,7.214-0.059,7.214-2.157
			C32.021,24.545,26.241,24.532,24.808,24.511z"/>
		<path d="M24.798,29.642c-1.248-0.02-5.513-0.036-7.201-1.393v3.283v2.659l0.008-5.654l0.008,5.698h0.038
			c1.727,1.313,5.913,1.33,7.147,1.349c1.231,0.02,5.408-0.038,7.143-1.349c0,0,0.074-0.063,0.081-0.07l-0.02-5.924
			C30.313,29.602,26.045,29.663,24.798,29.642z"/>
		<path d="M24.798,36.465c-1.248-0.02-5.513-0.036-7.201-1.393v3.284v2.659l0.008-5.654l0.008,5.697h0.038
			c1.727,1.314,5.913,1.33,7.147,1.349c1.231,0.02,5.408-0.038,7.143-1.349c0,0,0.074-0.063,0.081-0.07l-0.02-5.924
			C30.313,36.425,26.045,36.486,24.798,36.465z"/>
		<path d="M24.798,43.125c-1.248-0.02-5.513-0.036-7.201-1.392v3.283v2.659l0.008-5.653l0.008,5.697h0.038
			c1.727,1.313,5.913,1.329,7.147,1.349c1.231,0.02,5.408-0.038,7.143-1.349c0,0,0.074-0.063,0.081-0.07l-0.02-5.923
			C30.313,43.085,26.045,43.146,24.798,43.125z"/>
		<path d="M42.006,5.245c1.43,0.02,7.214-0.059,7.214-2.158c0-2.124-5.78-2.137-7.214-2.157c-1.431,0.021-7.211,0.034-7.211,2.157
			C34.795,5.211,40.575,5.225,42.006,5.245z"/>
		<path d="M41.996,6.06c-1.248-0.02-5.513-0.035-7.201-1.392v3.283v2.658l0.008-5.653l0.009,5.698h0.037
			c1.727,1.313,5.913,1.329,7.147,1.349c1.231,0.02,5.409-0.038,7.143-1.349c0,0,0.074-0.063,0.081-0.07L49.2,4.66
			C47.512,6.02,43.243,6.081,41.996,6.06z"/>
		<path d="M41.996,12.884c-1.248-0.02-5.513-0.036-7.201-1.393v3.284v2.659l0.008-5.654l0.009,5.698h0.037
			c1.727,1.314,5.913,1.33,7.147,1.348c1.231,0.02,5.409-0.037,7.143-1.348c0,0,0.074-0.063,0.081-0.07l-0.02-5.924
			C47.512,12.844,43.243,12.904,41.996,12.884z"/>
		<path d="M41.996,19.543c-1.248-0.02-5.513-0.036-7.201-1.392v3.283v2.659l0.008-5.653l0.009,5.697h0.037
			c1.727,1.313,5.913,1.329,7.147,1.349c1.231,0.02,5.409-0.038,7.143-1.349c0,0,0.074-0.063,0.081-0.07l-0.02-5.923
			C47.512,19.504,43.243,19.564,41.996,19.543z"/>
		<path d="M7.991,0.93C6.561,0.95,0.78,0.963,0.78,3.087c0,2.125,5.78,2.138,7.211,2.158c1.43,0.02,7.214-0.059,7.214-2.158
			C15.205,0.963,9.425,0.95,7.991,0.93z"/>
		<path d="M7.981,6.06C6.733,6.04,2.469,6.025,0.78,4.668v3.283v2.658l0.008-5.653l0.008,5.698h0.038
			c1.727,1.313,5.913,1.329,7.147,1.349c1.231,0.02,5.409-0.038,7.143-1.349c0,0,0.074-0.063,0.081-0.07l-0.02-5.924
			C13.497,6.02,9.229,6.081,7.981,6.06z"/>
		<path d="M7.981,12.884c-1.248-0.02-5.513-0.036-7.201-1.393v3.284v2.659l0.008-5.654l0.008,5.698h0.038
			c1.727,1.314,5.913,1.33,7.147,1.348c1.231,0.02,5.409-0.037,7.143-1.348c0,0,0.074-0.063,0.081-0.07l-0.02-5.924
			C13.497,12.844,9.229,12.904,7.981,12.884z"/>
		<path d="M7.981,19.543c-1.248-0.02-5.513-0.036-7.201-1.392v3.283v2.659l0.008-5.653l0.008,5.697h0.038
			c1.727,1.313,5.913,1.329,7.147,1.349c1.231,0.02,5.409-0.038,7.143-1.349c0,0,0.074-0.063,0.081-0.07l-0.02-5.923
			C13.497,19.504,9.229,19.564,7.981,19.543z"/>
		<polygon points="12.76,31.428 7.443,28.828 5.879,34.784 8.449,33.53 11.602,39.991 13.341,39.141 10.189,32.682 		"/>
		<polygon points="42.436,29.483 39.283,35.944 36.713,34.69 38.277,40.646 43.594,38.047 41.023,36.793 44.175,30.333 		"/>
		<polygon points="26.968,17.518 31.636,13.5 26.968,9.863 26.968,12.723 19.779,12.723 19.779,14.659 26.968,14.659 		"/>
	</g>
</g>
<g id="_x31_22">
</g>
<g id="_x31_23">
</g>
<g id="_x31_24">
</g>
<g id="_x31_25">
</g>
<g id="_x31_26">
</g>
<g id="_x31_27">
</g>
<g id="_x31_28">
</g>
<g id="_x31_29">
</g>
<g id="_x31_30">
</g>
<g id="_x31_31">
</g>
<g id="_x31_32">
</g>
<g id="_x31_33">
</g>
<g id="_x31_34">
</g>
<g id="_x31_35">
</g>
<g id="_x31_36">
</g>
<g id="_x31_37">
</g>
<g id="_x31_38">
</g>
<g id="_x31_39">
</g>
<g id="_x31_40">
</g>
<g id="_x31_41">
</g>
<g id="_x31_42">
</g>
<g id="_x31_43">
</g>
<g id="_x31_44">
</g>
<g id="_x31_45">
</g>
<g id="_x31_46">
</g>
<g id="_x31_47">
</g>
<g id="_x31_48">
</g>
<g id="_x31_49">
</g>
<g id="_x31_50">
</g>
<g id="_x31_51">
</g>
<g id="_x31_52">
</g>
<g id="_x31_53">
</g>
<g id="_x31_54">
</g>
<g id="_x31_55">
</g>
<g id="_x31_56">
</g>
<g id="_x31_57">
</g>
<g id="_x31_58">
</g>
<g id="_x31_59">
</g>
<g id="_x31_60">
</g>
<g id="_x31_61">
</g>
<g id="_x31_62">
</g>
<g id="_x31_63">
</g>
<g id="_x31_64">
</g>
<g id="_x31_65">
</g>
<g id="_x31_66">
</g>
<g id="_x31_67">
</g>
<g id="_x31_68">
</g>
<g id="_x31_69">
</g>
<g id="_x31_70">
</g>
<g id="_x31_71">
</g>
<g id="_x31_72">
</g>
<g id="_x31_73">
</g>
<g id="_x31_74">
</g>
<g id="_x31_75">
</g>
<g id="_x31_76">
</g>
<g id="_x31_77">
</g>
<g id="_x31_78">
</g>
<g id="_x31_79">
</g>
<g id="_x31_80">
</g>
<g id="_x31_81">
</g>
<g id="_x31_82">
</g>
<g id="_x31_83">
</g>
<g id="_x31_84">
</g>
<g id="_x31_85">
</g>
<g id="_x31_86">
</g>
<g id="_x31_87">
</g>
<g id="_x31_88">
</g>
<g id="_x31_89">
</g>
<g id="_x31_90">
</g>
</svg>
