<?xml version="1.0" encoding="utf-8"?>
<!-- Generator: Adobe Illustrator 16.0.0, SVG Export Plug-In . SVG Version: 6.00 Build 0)  -->
<!DOCTYPE svg PUBLIC "-//W3C//DTD SVG 1.1//EN" "http://www.w3.org/Graphics/SVG/1.1/DTD/svg11.dtd">
<svg version="1.1" xmlns="http://www.w3.org/2000/svg" xmlns:xlink="http://www.w3.org/1999/xlink" x="0px" y="0px" width="50px"
	 height="50px" viewBox="0 0 50 50" enable-background="new 0 0 50 50" xml:space="preserve">
<g id="text">
</g>
<g id="_x31_">
</g>
<g id="_x32_">
</g>
<g id="_x33__1_">
</g>
<g id="_x34_">
</g>
<g id="_x35_">
</g>
<g id="_x36_">
</g>
<g id="_x37_">
</g>
<g id="_x38_">
</g>
<g id="_x39_">
</g>
<g id="_x31_0">
</g>
<g id="_x31_1">
</g>
<g id="_x31_2">
</g>
<g id="_x31_3">
</g>
<g id="_x31_4">
</g>
<g id="_x31_5">
</g>
<g id="_x31_6">
</g>
<g id="_x31_7">
</g>
<g id="_x31_8">
</g>
<g id="_x31_9">
</g>
<g id="_x32_0">
</g>
<g id="_x32_1">
</g>
<g id="_x32_2">
</g>
<g id="_x32_3">
</g>
<g id="_x32_4">
</g>
<g id="_x32_5">
</g>
<g id="_x32_6">
</g>
<g id="_x32_7">
</g>
<g id="_x32_8">
</g>
<g id="_x32_9">
</g>
<g id="_x33_0">
</g>
<g id="_x33_1">
</g>
<g id="_x33_2">
</g>
<g id="_x33_3">
</g>
<g id="_x33_4">
</g>
<g id="_x33_5">
</g>
<g id="_x33_6">
</g>
<g id="_x33_7">
</g>
<g id="_x33_8">
</g>
<g id="_x33_9">
</g>
<g id="_x34_0">
</g>
<g id="_x34_1">
	<g>
		<polygon points="11.454,14.671 18.134,14.671 17.418,18.49 26.551,18.486 27.608,16.794 19.48,16.798 20.27,12.902 19.876,12.902 
			18.465,12.902 10.043,12.902 8.996,18.642 10.687,18.642 		"/>
		<polygon points="33.393,37.597 31.521,22.851 14.318,22.963 13.793,19.126 3.115,19.229 5.158,39.024 5.187,39.024 5.187,39.247 
			30.739,39.247 34.423,39.247 35.898,39.247 35.898,39.241 35.929,39.247 36.212,37.571 34.494,37.597 		"/>
		<path d="M27.68,22.112h-0.014C27.632,22.167,27.625,22.184,27.68,22.112z"/>
		<path d="M32.589,10.753l-1.303,1.991c-0.074,0.094-0.121,0.158-0.121,0.158s-4.419,7.081-5.777,9.19l2.277,0.021
			c0.031-0.05,0.084-0.132,0.139-0.215c0.331-0.507,0.659-1.012,0.988-1.517c0.088-0.133,0.243-0.681,0.52-0.667
			c0.439,0.023,1.132,0.606,1.538,0.872c0.861,0.559,1.72,1.119,2.579,1.678c0.313,0.205,0.945,0.531,0.766,0.809
			c-0.211,0.321-0.42,0.643-0.63,0.965c-0.219,0.334-0.436,0.668-0.653,1.002l0.213,1.706c0.224-0.342,0.447-0.685,0.671-1.028
			c0.33-0.507,0.66-1.013,0.988-1.518c0.087-0.133,0.242-0.681,0.519-0.667c0.439,0.025,1.131,0.607,1.539,0.873
			c0.859,0.559,1.72,1.119,2.578,1.678c0.314,0.204,0.946,0.53,0.766,0.808c-0.212,0.321-0.42,0.644-0.631,0.966
			c-0.511,0.786-1.022,1.57-1.534,2.355c-0.001,0-0.003,0.002-0.006,0.003c-0.001,0.002-0.001,0.004-0.002,0.004
			c-0.002,0.002-0.003,0.002-0.005,0.001c-0.002,0.001-0.004,0.002-0.006,0.003c-0.347,0.195-1.138-0.479-1.551-0.749
			c-0.918-0.596-1.836-1.194-2.755-1.792c-0.169-0.111-0.357-0.225-0.497-0.344l0.271,2.167c0.446,0.292,0.893,0.582,1.339,0.873
			c0.663,0.432,1.923,1.234,1.881,1.297c-0.05,0.076-0.098,0.151-0.148,0.226c-0.119,0.186-0.24,0.369-0.359,0.553
			c0,0-0.002-0.001-0.004-0.001c-0.002-0.001,0,0-0.002,0c-0.002,0-0.004-0.001-0.006-0.003c-0.004-0.001-0.005-0.001-0.006-0.002
			c-0.31-0.12-1.594-0.969-2.525-1.582l0.333,2.672c0.551,0.36,1.074,0.714,1.047,0.756c-0.05,0.075-0.099,0.151-0.149,0.227
			c-0.118,0.184-0.238,0.367-0.357,0.551c0,0-0.003,0-0.005-0.001c-0.002,0,0,0-0.002,0c-0.002,0-0.003-0.002-0.007-0.003
			c-0.002-0.001-0.003-0.001-0.004-0.002c-0.071-0.027-0.201-0.099-0.356-0.19l0.283,1.882c0,0,1.713,0.002,1.714,0
			c2.232-3.425,4.519-7.091,6.75-10.516c1.033-1.584,2.063-3.167,3.097-4.752c0-0.001,0.001-0.002,0.001-0.003l0.9-1.375
			L32.589,10.753z M41.583,24.345c-0.119,0.184-0.24,0.368-0.358,0.552c0,0-0.004-0.001-0.005-0.001c-0.002,0-0.002,0-0.003,0
			c-0.001,0-0.003-0.002-0.006-0.003c-0.002-0.001-0.002-0.001-0.004-0.002c-0.374-0.146-2.179-1.358-3.053-1.928
			c-1.938-1.262-3.875-2.526-5.815-3.79c-0.798-0.518-1.76-1.134-1.715-1.204c0.058-0.091,0.12-0.182,0.179-0.272
			c0.077-0.119,0.309-0.578,0.309-0.578l0.155,0.139c0,0,2.28,1.455,3.139,2.015c1.815,1.183,3.631,2.365,5.446,3.548
			c0.662,0.431,1.923,1.232,1.881,1.297C41.68,24.194,41.632,24.27,41.583,24.345z M43.253,21.726
			c-0.12,0.184-0.241,0.368-0.359,0.552c0,0-0.003-0.001-0.005-0.001c-0.001-0.001,0,0-0.001,0c-0.003,0-0.004-0.002-0.007-0.003
			c-0.003-0.001-0.003-0.001-0.006-0.001c-0.373-0.146-2.178-1.358-3.053-1.928c-1.937-1.262-3.876-2.525-5.816-3.788
			c-0.797-0.52-1.758-1.136-1.715-1.204c0.06-0.092,0.119-0.183,0.18-0.274c0.077-0.119,0.312-0.553,0.312-0.553l0.151,0.115
			c0,0,2.281,1.455,3.142,2.014c1.814,1.183,3.629,2.366,5.445,3.549c0.66,0.431,1.922,1.232,1.879,1.298
			C43.35,21.575,43.301,21.651,43.253,21.726z"/>
	</g>
</g>
<g id="_x34_2">
</g>
<g id="_x34_3">
</g>
<g id="_x34_4">
</g>
<g id="_x34_5">
</g>
<g id="_x34_6">
</g>
<g id="_x34_7">
</g>
<g id="_x34_8">
</g>
<g id="_x34_9">
</g>
<g id="_x35_0">
</g>
<g id="_x35_1">
</g>
<g id="_x35_2">
</g>
<g id="_x35_3">
</g>
<g id="_x35_4">
</g>
<g id="_x35_5">
</g>
<g id="_x35_6">
</g>
<g id="_x35_7">
</g>
<g id="_x35_8">
</g>
<g id="_x35_9">
</g>
<g id="_x36_0">
</g>
<g id="_x36_1">
</g>
<g id="_x36_2">
</g>
<g id="_x36_3">
</g>
<g id="_x36_4">
</g>
<g id="_x36_5">
</g>
<g id="_x36_6">
</g>
<g id="_x36_7">
</g>
<g id="_x36_8">
</g>
<g id="_x36_9">
</g>
<g id="_x37_0">
</g>
<g id="_x37_1">
</g>
<g id="_x37_2">
</g>
<g id="_x37_3">
</g>
<g id="_x37_4">
</g>
<g id="_x37_5">
</g>
<g id="_x37_6">
</g>
<g id="_x37_7">
</g>
<g id="_x37_8">
</g>
<g id="_x37_9">
</g>
<g id="_x38_0">
</g>
<g id="_x38_1">
</g>
<g id="_x38_2">
</g>
<g id="_x38_3">
</g>
<g id="_x38_4">
</g>
<g id="_x38_5">
</g>
<g id="_x38_6">
</g>
<g id="_x38_7">
</g>
<g id="_x38_8">
</g>
<g id="_x38_9">
</g>
<g id="_x39_0">
</g>
<g id="_x39_1">
</g>
<g id="_x39_2">
</g>
<g id="_x39_3">
</g>
<g id="_x39_4">
</g>
<g id="_x39_5">
</g>
<g id="_x39_6">
</g>
<g id="_x39_7">
</g>
<g id="_x39_8">
</g>
<g id="_x39_9">
</g>
<g id="_x31_00">
</g>
<g id="_x31_01">
</g>
<g id="_x31_02">
</g>
<g id="_x31_03">
</g>
<g id="_x31_04">
</g>
<g id="_x31_05">
</g>
<g id="_x31_06">
</g>
<g id="_x31_07">
</g>
<g id="_x31_08">
</g>
<g id="_x31_09">
</g>
<g id="_x31_10">
</g>
<g id="_x31_11">
</g>
<g id="_x31_12">
</g>
<g id="_x31_13">
</g>
<g id="_x31_14">
</g>
<g id="_x31_15">
</g>
<g id="_x31_16">
</g>
<g id="_x31_17">
</g>
<g id="_x31_18">
</g>
<g id="_x31_19">
</g>
<g id="_x31_20">
</g>
<g id="_x31_21">
</g>
<g id="_x31_22">
</g>
<g id="_x31_23">
</g>
<g id="_x31_24">
</g>
<g id="_x31_25">
</g>
<g id="_x31_26">
</g>
<g id="_x31_27">
</g>
<g id="_x31_28">
</g>
<g id="_x31_29">
</g>
<g id="_x31_30">
</g>
<g id="_x31_31">
</g>
<g id="_x31_32">
</g>
<g id="_x31_33">
</g>
<g id="_x31_34">
</g>
<g id="_x31_35">
</g>
<g id="_x31_36">
</g>
<g id="_x31_37">
</g>
<g id="_x31_38">
</g>
<g id="_x31_39">
</g>
<g id="_x31_40">
</g>
<g id="_x31_41">
</g>
<g id="_x31_42">
</g>
<g id="_x31_43">
</g>
<g id="_x31_44">
</g>
<g id="_x31_45">
</g>
<g id="_x31_46">
</g>
<g id="_x31_47">
</g>
<g id="_x31_48">
</g>
<g id="_x31_49">
</g>
<g id="_x31_50">
</g>
<g id="_x31_51">
</g>
<g id="_x31_52">
</g>
<g id="_x31_53">
</g>
<g id="_x31_54">
</g>
<g id="_x31_55">
</g>
<g id="_x31_56">
</g>
<g id="_x31_57">
</g>
<g id="_x31_58">
</g>
<g id="_x31_59">
</g>
<g id="_x31_60">
</g>
<g id="_x31_61">
</g>
<g id="_x31_62">
</g>
<g id="_x31_63">
</g>
<g id="_x31_64">
</g>
<g id="_x31_65">
</g>
<g id="_x31_66">
</g>
<g id="_x31_67">
</g>
<g id="_x31_68">
</g>
<g id="_x31_69">
</g>
<g id="_x31_70">
</g>
<g id="_x31_71">
</g>
<g id="_x31_72">
</g>
<g id="_x31_73">
</g>
<g id="_x31_74">
</g>
<g id="_x31_75">
</g>
<g id="_x31_76">
</g>
<g id="_x31_77">
</g>
<g id="_x31_78">
</g>
<g id="_x31_79">
</g>
<g id="_x31_80">
</g>
<g id="_x31_81">
</g>
<g id="_x31_82">
</g>
<g id="_x31_83">
</g>
<g id="_x31_84">
</g>
<g id="_x31_85">
</g>
<g id="_x31_86">
</g>
<g id="_x31_87">
</g>
<g id="_x31_88">
</g>
<g id="_x31_89">
</g>
<g id="_x31_90">
</g>
</svg>
