<?xml version="1.0" encoding="utf-8"?>
<!-- Generator: Adobe Illustrator 16.0.0, SVG Export Plug-In . SVG Version: 6.00 Build 0)  -->
<!DOCTYPE svg PUBLIC "-//W3C//DTD SVG 1.1//EN" "http://www.w3.org/Graphics/SVG/1.1/DTD/svg11.dtd">
<svg version="1.1" xmlns="http://www.w3.org/2000/svg" xmlns:xlink="http://www.w3.org/1999/xlink" x="0px" y="0px" width="50px"
	 height="50px" viewBox="0 0 50 50" enable-background="new 0 0 50 50" xml:space="preserve">
<g id="text">
</g>
<g id="_x31_">
</g>
<g id="_x32_">
</g>
<g id="_x33__1_">
</g>
<g id="_x34_">
</g>
<g id="_x35_">
</g>
<g id="_x36_">
</g>
<g id="_x37_">
</g>
<g id="_x38_">
</g>
<g id="_x39_">
</g>
<g id="_x31_0">
</g>
<g id="_x31_1">
</g>
<g id="_x31_2">
</g>
<g id="_x31_3">
</g>
<g id="_x31_4">
</g>
<g id="_x31_5">
</g>
<g id="_x31_6">
</g>
<g id="_x31_7">
</g>
<g id="_x31_8">
</g>
<g id="_x31_9">
</g>
<g id="_x32_0">
</g>
<g id="_x32_1">
</g>
<g id="_x32_2">
</g>
<g id="_x32_3">
</g>
<g id="_x32_4">
</g>
<g id="_x32_5">
</g>
<g id="_x32_6">
</g>
<g id="_x32_7">
</g>
<g id="_x32_8">
</g>
<g id="_x32_9">
</g>
<g id="_x33_0">
</g>
<g id="_x33_1">
</g>
<g id="_x33_2">
</g>
<g id="_x33_3">
</g>
<g id="_x33_4">
</g>
<g id="_x33_5">
</g>
<g id="_x33_6">
</g>
<g id="_x33_7">
</g>
<g id="_x33_8">
</g>
<g id="_x33_9">
</g>
<g id="_x34_0">
</g>
<g id="_x34_1">
</g>
<g id="_x34_2">
</g>
<g id="_x34_3">
</g>
<g id="_x34_4">
</g>
<g id="_x34_5">
</g>
<g id="_x34_6">
</g>
<g id="_x34_7">
</g>
<g id="_x34_8">
</g>
<g id="_x34_9">
</g>
<g id="_x35_0">
</g>
<g id="_x35_1">
</g>
<g id="_x35_2">
</g>
<g id="_x35_3">
</g>
<g id="_x35_4">
</g>
<g id="_x35_5">
</g>
<g id="_x35_6">
</g>
<g id="_x35_7">
</g>
<g id="_x35_8">
</g>
<g id="_x35_9">
</g>
<g id="_x36_0">
</g>
<g id="_x36_1">
</g>
<g id="_x36_2">
</g>
<g id="_x36_3">
</g>
<g id="_x36_4">
</g>
<g id="_x36_5">
</g>
<g id="_x36_6">
</g>
<g id="_x36_7">
</g>
<g id="_x36_8">
</g>
<g id="_x36_9">
</g>
<g id="_x37_0">
</g>
<g id="_x37_1">
</g>
<g id="_x37_2">
</g>
<g id="_x37_3">
</g>
<g id="_x37_4">
</g>
<g id="_x37_5">
</g>
<g id="_x37_6">
</g>
<g id="_x37_7">
</g>
<g id="_x37_8">
</g>
<g id="_x37_9">
</g>
<g id="_x38_0">
</g>
<g id="_x38_1">
</g>
<g id="_x38_2">
</g>
<g id="_x38_3">
</g>
<g id="_x38_4">
</g>
<g id="_x38_5">
</g>
<g id="_x38_6">
</g>
<g id="_x38_7">
</g>
<g id="_x38_8">
</g>
<g id="_x38_9">
</g>
<g id="_x39_0">
</g>
<g id="_x39_1">
</g>
<g id="_x39_2">
</g>
<g id="_x39_3">
</g>
<g id="_x39_4">
</g>
<g id="_x39_5">
</g>
<g id="_x39_6">
</g>
<g id="_x39_7">
</g>
<g id="_x39_8">
</g>
<g id="_x39_9">
</g>
<g id="_x31_00">
</g>
<g id="_x31_01">
</g>
<g id="_x31_02">
</g>
<g id="_x31_03">
</g>
<g id="_x31_04">
</g>
<g id="_x31_05">
</g>
<g id="_x31_06">
</g>
<g id="_x31_07">
</g>
<g id="_x31_08">
</g>
<g id="_x31_09">
</g>
<g id="_x31_10">
</g>
<g id="_x31_11">
</g>
<g id="_x31_12">
</g>
<g id="_x31_13">
</g>
<g id="_x31_14">
</g>
<g id="_x31_15">
</g>
<g id="_x31_16">
</g>
<g id="_x31_17">
</g>
<g id="_x31_18">
</g>
<g id="_x31_19">
</g>
<g id="_x31_20">
</g>
<g id="_x31_21">
</g>
<g id="_x31_22">
</g>
<g id="_x31_23">
</g>
<g id="_x31_24">
</g>
<g id="_x31_25">
</g>
<g id="_x31_26">
</g>
<g id="_x31_27">
</g>
<g id="_x31_28">
</g>
<g id="_x31_29">
</g>
<g id="_x31_30">
</g>
<g id="_x31_31">
</g>
<g id="_x31_32">
</g>
<g id="_x31_33">
</g>
<g id="_x31_34">
</g>
<g id="_x31_35">
</g>
<g id="_x31_36">
</g>
<g id="_x31_37">
</g>
<g id="_x31_38">
</g>
<g id="_x31_39">
</g>
<g id="_x31_40">
</g>
<g id="_x31_41">
</g>
<g id="_x31_42">
</g>
<g id="_x31_43">
</g>
<g id="_x31_44">
</g>
<g id="_x31_45">
</g>
<g id="_x31_46">
</g>
<g id="_x31_47">
</g>
<g id="_x31_48">
</g>
<g id="_x31_49">
</g>
<g id="_x31_50">
</g>
<g id="_x31_51">
</g>
<g id="_x31_52">
</g>
<g id="_x31_53">
</g>
<g id="_x31_54">
</g>
<g id="_x31_55">
</g>
<g id="_x31_56">
</g>
<g id="_x31_57">
</g>
<g id="_x31_58">
</g>
<g id="_x31_59">
</g>
<g id="_x31_60">
</g>
<g id="_x31_61">
</g>
<g id="_x31_62">
</g>
<g id="_x31_63">
</g>
<g id="_x31_64">
</g>
<g id="_x31_65">
</g>
<g id="_x31_66">
</g>
<g id="_x31_67">
</g>
<g id="_x31_68">
</g>
<g id="_x31_69">
</g>
<g id="_x31_70">
</g>
<g id="_x31_71">
</g>
<g id="_x31_72">
</g>
<g id="_x31_73">
</g>
<g id="_x31_74">
</g>
<g id="_x31_75">
</g>
<g id="_x31_76">
</g>
<g id="_x31_77">
</g>
<g id="_x31_78">
</g>
<g id="_x31_79">
</g>
<g id="_x31_80">
</g>
<g id="_x31_81">
</g>
<g id="_x31_82">
</g>
<g id="_x31_83">
</g>
<g id="_x31_84">
</g>
<g id="_x31_85">
</g>
<g id="_x31_86">
</g>
<g id="_x31_87">
</g>
<g id="_x31_88">
</g>
<g id="_x31_89">
	<g>
		<path d="M46.507,12.766V7.583H3.465v9h0.002v25.833h43.068V12.766H46.507z M31.964,9.667h4.833V14.5h-4.833V9.667z M43.535,39.417
			H6.467V16.583h37.068V39.417z M43.672,14.5h-4.833V9.667h4.833V14.5z"/>
		<path d="M12.588,31.532c0.08,0.007,0.239,0.022,0.239,0.022s1.072-0.117,1.609-0.175c0.202,0.324,0.429,0.634,0.685,0.929
			c-0.228,0.411-0.68,1.234-0.68,1.234l0.303,1.562l3.052,1.681l1.563-0.301c0,0,0.584-1.061,0.877-1.589
			c0.326,0.023,0.65,0.029,0.974,0.008c0.229,0.469,0.685,1.408,0.685,1.408l1.502,0.527l3.139-1.522l0.525-1.503
			c0,0-0.586-1.209-0.881-1.813c0.175-0.286,0.331-0.581,0.453-0.885c0.604-0.07,1.809-0.207,1.809-0.207l0.891-1.318l-0.399-3.466
			l-1.319-0.891c0,0-0.986,0.112-1.479,0.168c-0.229-0.395-0.496-0.771-0.8-1.125c0.22-0.392,0.662-1.175,0.662-1.175l-0.302-1.563
			l-3.039-1.713l-1.562,0.303c0,0-0.581,1.031-0.874,1.546c-0.391-0.031-0.78-0.028-1.162,0.006
			c-0.28-0.459-0.841-1.378-0.841-1.378l-1.503-0.528l-2.981,1.815l-0.164,0.148l-0.363,1.353c0,0,0.65,1.065,0.977,1.599
			c-0.188,0.324-0.345,0.658-0.466,1.003c-0.565,0.061-1.694,0.187-1.694,0.187l-0.89,1.317l0.377,3.468
			C11.509,30.663,12.508,31.525,12.588,31.532z M17.136,26.238c1.085-1.606,3.268-2.027,4.872-0.943
			c1.606,1.085,2.029,3.267,0.944,4.874c-1.085,1.605-3.267,2.027-4.873,0.941C16.475,30.026,16.051,27.844,17.136,26.238z"/>
		<path d="M31.542,29.203c0.04,0.004,0.118,0.011,0.118,0.011s0.525-0.057,0.789-0.084c0.098,0.156,0.209,0.309,0.333,0.454
			c-0.109,0.201-0.332,0.604-0.332,0.604l0.148,0.766l1.495,0.823l0.766-0.148c0,0,0.286-0.52,0.43-0.778
			c0.16,0.012,0.318,0.015,0.477,0.003c0.112,0.23,0.335,0.69,0.335,0.69l0.736,0.258l1.539-0.746l0.257-0.735
			c0,0-0.288-0.593-0.434-0.888c0.089-0.139,0.164-0.286,0.224-0.432c0.295-0.035,0.886-0.102,0.886-0.102l0.437-0.646l-0.196-1.698
			l-0.646-0.437c0,0-0.484,0.056-0.726,0.083c-0.112-0.193-0.242-0.377-0.391-0.55c0.107-0.194,0.325-0.577,0.325-0.577
			l-0.149-0.767l-1.489-0.838l-0.765,0.148c0,0-0.284,0.506-0.427,0.758c-0.191-0.015-0.382-0.014-0.57,0.003
			C34.575,24.152,34.3,23.7,34.3,23.7l-0.736-0.257l-1.461,0.888l-0.079,0.074l-0.179,0.662c0,0,0.319,0.522,0.479,0.784
			c-0.094,0.158-0.171,0.322-0.229,0.491c-0.276,0.03-0.83,0.091-0.83,0.091l-0.436,0.646l0.185,1.699
			C31.014,28.777,31.504,29.199,31.542,29.203z M33.77,26.61c0.532-0.788,1.601-0.994,2.387-0.462
			c0.787,0.531,0.994,1.599,0.462,2.387c-0.531,0.787-1.599,0.992-2.386,0.461C33.446,28.463,33.238,27.396,33.77,26.61z"/>
	</g>
</g>
<g id="_x31_90">
</g>
</svg>
