<?xml version="1.0" encoding="utf-8"?>
<!-- Generator: Adobe Illustrator 16.0.0, SVG Export Plug-In . SVG Version: 6.00 Build 0)  -->
<!DOCTYPE svg PUBLIC "-//W3C//DTD SVG 1.1//EN" "http://www.w3.org/Graphics/SVG/1.1/DTD/svg11.dtd">
<svg version="1.1" xmlns="http://www.w3.org/2000/svg" xmlns:xlink="http://www.w3.org/1999/xlink" x="0px" y="0px" width="50px"
	 height="50px" viewBox="0 0 50 50" enable-background="new 0 0 50 50" xml:space="preserve">
<g id="text">
</g>
<g id="_x31_">
</g>
<g id="_x32_">
</g>
<g id="_x33__1_">
</g>
<g id="_x34_">
</g>
<g id="_x35_">
</g>
<g id="_x36_">
</g>
<g id="_x37_">
</g>
<g id="_x38_">
</g>
<g id="_x39_">
</g>
<g id="_x31_0">
</g>
<g id="_x31_1">
</g>
<g id="_x31_2">
</g>
<g id="_x31_3">
</g>
<g id="_x31_4">
</g>
<g id="_x31_5">
</g>
<g id="_x31_6">
</g>
<g id="_x31_7">
</g>
<g id="_x31_8">
</g>
<g id="_x31_9">
</g>
<g id="_x32_0">
</g>
<g id="_x32_1">
</g>
<g id="_x32_2">
</g>
<g id="_x32_3">
</g>
<g id="_x32_4">
</g>
<g id="_x32_5">
</g>
<g id="_x32_6">
</g>
<g id="_x32_7">
</g>
<g id="_x32_8">
</g>
<g id="_x32_9">
</g>
<g id="_x33_0">
</g>
<g id="_x33_1">
</g>
<g id="_x33_2">
</g>
<g id="_x33_3">
</g>
<g id="_x33_4">
</g>
<g id="_x33_5">
</g>
<g id="_x33_6">
</g>
<g id="_x33_7">
</g>
<g id="_x33_8">
</g>
<g id="_x33_9">
</g>
<g id="_x34_0">
</g>
<g id="_x34_1">
</g>
<g id="_x34_2">
</g>
<g id="_x34_3">
</g>
<g id="_x34_4">
</g>
<g id="_x34_5">
</g>
<g id="_x34_6">
</g>
<g id="_x34_7">
</g>
<g id="_x34_8">
</g>
<g id="_x34_9">
</g>
<g id="_x35_0">
</g>
<g id="_x35_1">
</g>
<g id="_x35_2">
</g>
<g id="_x35_3">
</g>
<g id="_x35_4">
</g>
<g id="_x35_5">
</g>
<g id="_x35_6">
</g>
<g id="_x35_7">
</g>
<g id="_x35_8">
</g>
<g id="_x35_9">
</g>
<g id="_x36_0">
</g>
<g id="_x36_1">
</g>
<g id="_x36_2">
</g>
<g id="_x36_3">
</g>
<g id="_x36_4">
</g>
<g id="_x36_5">
</g>
<g id="_x36_6">
</g>
<g id="_x36_7">
</g>
<g id="_x36_8">
</g>
<g id="_x36_9">
</g>
<g id="_x37_0">
</g>
<g id="_x37_1">
</g>
<g id="_x37_2">
</g>
<g id="_x37_3">
</g>
<g id="_x37_4">
</g>
<g id="_x37_5">
</g>
<g id="_x37_6">
</g>
<g id="_x37_7">
</g>
<g id="_x37_8">
</g>
<g id="_x37_9">
</g>
<g id="_x38_0">
</g>
<g id="_x38_1">
</g>
<g id="_x38_2">
</g>
<g id="_x38_3">
</g>
<g id="_x38_4">
</g>
<g id="_x38_5">
</g>
<g id="_x38_6">
</g>
<g id="_x38_7">
</g>
<g id="_x38_8">
</g>
<g id="_x38_9">
</g>
<g id="_x39_0">
</g>
<g id="_x39_1">
</g>
<g id="_x39_2">
</g>
<g id="_x39_3">
</g>
<g id="_x39_4">
</g>
<g id="_x39_5">
</g>
<g id="_x39_6">
</g>
<g id="_x39_7">
</g>
<g id="_x39_8">
</g>
<g id="_x39_9">
</g>
<g id="_x31_00">
</g>
<g id="_x31_01">
</g>
<g id="_x31_02">
</g>
<g id="_x31_03">
</g>
<g id="_x31_04">
</g>
<g id="_x31_05">
</g>
<g id="_x31_06">
</g>
<g id="_x31_07">
</g>
<g id="_x31_08">
</g>
<g id="_x31_09">
</g>
<g id="_x31_10">
</g>
<g id="_x31_11">
</g>
<g id="_x31_12">
</g>
<g id="_x31_13">
</g>
<g id="_x31_14">
</g>
<g id="_x31_15">
</g>
<g id="_x31_16">
</g>
<g id="_x31_17">
</g>
<g id="_x31_18">
</g>
<g id="_x31_19">
</g>
<g id="_x31_20">
</g>
<g id="_x31_21">
</g>
<g id="_x31_22">
</g>
<g id="_x31_23">
</g>
<g id="_x31_24">
</g>
<g id="_x31_25">
</g>
<g id="_x31_26">
</g>
<g id="_x31_27">
</g>
<g id="_x31_28">
</g>
<g id="_x31_29">
</g>
<g id="_x31_30">
</g>
<g id="_x31_31">
</g>
<g id="_x31_32">
</g>
<g id="_x31_33">
</g>
<g id="_x31_34">
</g>
<g id="_x31_35">
</g>
<g id="_x31_36">
</g>
<g id="_x31_37">
</g>
<g id="_x31_38">
</g>
<g id="_x31_39">
</g>
<g id="_x31_40">
</g>
<g id="_x31_41">
</g>
<g id="_x31_42">
</g>
<g id="_x31_43">
</g>
<g id="_x31_44">
</g>
<g id="_x31_45">
</g>
<g id="_x31_46">
</g>
<g id="_x31_47">
</g>
<g id="_x31_48">
</g>
<g id="_x31_49">
</g>
<g id="_x31_50">
</g>
<g id="_x31_51">
</g>
<g id="_x31_52">
</g>
<g id="_x31_53">
</g>
<g id="_x31_54">
</g>
<g id="_x31_55">
</g>
<g id="_x31_56">
</g>
<g id="_x31_57">
</g>
<g id="_x31_58">
</g>
<g id="_x31_59">
</g>
<g id="_x31_60">
</g>
<g id="_x31_61">
</g>
<g id="_x31_62">
</g>
<g id="_x31_63">
</g>
<g id="_x31_64">
</g>
<g id="_x31_65">
</g>
<g id="_x31_66">
</g>
<g id="_x31_67">
</g>
<g id="_x31_68">
</g>
<g id="_x31_69">
</g>
<g id="_x31_70">
	<g>
		<path d="M42.577,23.875c-2.041-0.011-33.727-0.188-35.29,0s10.755,12.23,11.729,13.786s2.79,4.461,2.79,4.461h0.701v2.772h1.043
			v2.445h2.086v-2.445h1.043v-2.772h0.669l0.008-0.116c0,0,1.701-3.104,2.81-4.184S44.617,23.886,42.577,23.875z"/>
		<path d="M32.923,8.772l-2.099-5.816c-1.055,1.796-2.108,3.591-3.163,5.386c-0.088,0.15-0.241,0.213-0.407,0.147
			c-1.964-0.785-3.929-1.57-5.894-2.355c-0.003,0.015-0.002,0.031-0.005,0.046l2.161,5.987L32.923,8.772z"/>
		<path d="M26.646,7.587c0.203,0.082,0.406,0.163,0.609,0.244c1.011-1.722,2.021-3.441,3.032-5.162
			c-0.023-0.004-0.046-0.004-0.069-0.008l-8.353,3.015c0.945,0.379,1.891,0.756,2.836,1.134C25.35,7.069,25.998,7.328,26.646,7.587z
			"/>
		<path d="M24.084,17.034c-0.23-0.366-0.762-1.509-1.394-1.482c-0.606,0.021-1.041,1.335-1.208,1.689
			c-0.303,0.642-0.574,1.297-0.824,1.954c-0.033,0.087,0.013,0.146,0.083,0.176c0.031,0.02,0.069,0.033,0.119,0.03
			c1.388-0.078,2.776-0.156,4.164-0.233c0.118-0.008,0.233-0.123,0.179-0.227C24.851,18.296,24.479,17.659,24.084,17.034z"/>
		<path d="M25.275,16.358c-0.275,0.04-0.613,0.652-0.798,1.025c0.324,0.528,0.64,1.066,0.938,1.615
			c0.02,0.039,0.028,0.08,0.025,0.12c0.509-0.027,1.021-0.057,1.531-0.085c0.102-0.006,0.203-0.106,0.154-0.195
			c-0.254-0.472-0.526-0.937-0.815-1.394C26.138,17.169,25.615,16.308,25.275,16.358z"/>
		<path d="M24.506,16.041c0.423-0.001,0.707-0.4,0.706-0.789c-0.046-0.424-0.366-0.708-0.791-0.707c-0.423,0-0.706,0.4-0.706,0.791
			C23.717,15.758,24.117,16.042,24.506,16.041z"/>
		<path d="M28.706,13.711l-0.023-0.425l-0.005-0.083l-10.231,0.573l0.014,0.253l0.014,0.255l0.344,6.143l0.026,0.477l0.051,0.917
			l10.231-0.574l-0.061-1.088l-0.018-0.305L28.706,13.711z M19.328,20.398l-0.343-6.144l9.212-0.515l0.345,6.142L19.328,20.398z"/>
		<path d="M32.185,16.471l1.817,1.04c0.065,0.038,0.142,0.027,0.17-0.021l1.048-1.832c0.029-0.05-0.002-0.119-0.068-0.156
			l-1.817-1.041c-0.065-0.037-0.141-0.029-0.17,0.021l-1.048,1.831C32.089,16.362,32.12,16.433,32.185,16.471z"/>
		<path d="M35.058,11.726l4.378,2.507c0.159,0.091,0.309,0.127,0.334,0.082l0.971-1.695c0.026-0.046-0.081-0.157-0.24-0.248
			l-4.378-2.507c-0.159-0.09-0.309-0.127-0.334-0.081l-0.971,1.696C34.792,11.524,34.899,11.635,35.058,11.726z"/>
		<path d="M34.34,12.797c1.498,0.857,2.995,1.715,4.492,2.572c0.376,0.215,0.71-0.368,0.334-0.583
			c-1.498-0.857-2.995-1.715-4.492-2.572C34.298,11.999,33.964,12.582,34.34,12.797z"/>
		<path d="M33.671,13.866c1.498,0.857,2.995,1.715,4.492,2.572c0.376,0.215,0.71-0.369,0.334-0.584
			c-1.498-0.857-2.995-1.715-4.492-2.572C33.629,13.067,33.294,13.651,33.671,13.866z"/>
		<path d="M37.419,17.118c-0.522-0.299-1.044-0.598-1.566-0.896c-0.376-0.215-0.709,0.368-0.334,0.583
			c0.522,0.299,1.044,0.598,1.566,0.896C37.461,17.917,37.795,17.334,37.419,17.118z"/>
		<path d="M36.879,18.062c-0.522-0.299-1.044-0.598-1.566-0.896c-0.376-0.215-0.709,0.368-0.334,0.583
			c0.522,0.299,1.044,0.598,1.566,0.896C36.921,18.86,37.255,18.277,36.879,18.062z"/>
		<path d="M37.667,21.786l5.183-9.054l-0.669-2.319L35.59,6.64l-6.018,10.512L37.667,21.786z M35.89,7.74l5.531,3.166l-0.636,1.11
			l1.165,0.667l-4.581,8.002l-6.695-3.833L35.89,7.74z"/>
		<path d="M9.749,13.141l0.85,0.501l-0.723,1.226l3.824,2.254l0.682-1.156l0.85,0.501l-0.682,1.156l0.287,0.169l5.812-9.856
			l-0.287-0.169L19.598,9.06l-0.85-0.501l0.763-1.294l-3.824-2.254l-0.722,1.225l-0.85-0.501l0.722-1.225l-0.276-0.164L8.75,14.203
			l0.276,0.163L9.749,13.141z M15.459,16.078l-0.85-0.5l0.812-1.377l0.85,0.501L15.459,16.078z M18.52,8.945l0.85,0.501
			l-0.812,1.376l-0.85-0.501L18.52,8.945z M17.48,10.709l0.85,0.501l-0.812,1.376l-0.85-0.501L17.48,10.709z M16.441,12.473
			l0.85,0.501l-0.812,1.376l-0.85-0.501L16.441,12.473z M15.114,9.961c0.164-0.086,0.42-0.017,0.417,0.205
			c-0.005,0.6-0.01,1.197-0.015,1.796c-0.002,0.188-0.202,0.369-0.389,0.259c-0.531-0.316-1.063-0.631-1.595-0.946
			c-0.05-0.03-0.082-0.071-0.103-0.113c-0.075-0.106-0.078-0.25,0.055-0.335c0.005-0.005,0.01-0.008,0.015-0.012
			c0.001-0.001,0.001-0.002,0.003-0.004c0.002,0,0.004-0.002,0.006-0.004c0.024-0.019,0.05-0.031,0.079-0.039
			C14.096,10.498,14.605,10.23,15.114,9.961z M13.887,6.122l0.85,0.501l-0.811,1.376l-0.85-0.501L13.887,6.122z M12.848,7.885
			l0.85,0.502l-0.811,1.375l-0.85-0.501L12.848,7.885z M11.808,9.648l0.85,0.501l-0.812,1.376l-0.85-0.501L11.808,9.648z
			 M10.789,11.378l0.85,0.501l-0.811,1.375l-0.85-0.5L10.789,11.378z"/>
	</g>
</g>
<g id="_x31_71">
</g>
<g id="_x31_72">
</g>
<g id="_x31_73">
</g>
<g id="_x31_74">
</g>
<g id="_x31_75">
</g>
<g id="_x31_76">
</g>
<g id="_x31_77">
</g>
<g id="_x31_78">
</g>
<g id="_x31_79">
</g>
<g id="_x31_80">
</g>
<g id="_x31_81">
</g>
<g id="_x31_82">
</g>
<g id="_x31_83">
</g>
<g id="_x31_84">
</g>
<g id="_x31_85">
</g>
<g id="_x31_86">
</g>
<g id="_x31_87">
</g>
<g id="_x31_88">
</g>
<g id="_x31_89">
</g>
<g id="_x31_90">
</g>
</svg>
