<?xml version="1.0" encoding="utf-8"?>
<!-- Generator: Adobe Illustrator 16.0.0, SVG Export Plug-In . SVG Version: 6.00 Build 0)  -->
<!DOCTYPE svg PUBLIC "-//W3C//DTD SVG 1.1//EN" "http://www.w3.org/Graphics/SVG/1.1/DTD/svg11.dtd">
<svg version="1.1" xmlns="http://www.w3.org/2000/svg" xmlns:xlink="http://www.w3.org/1999/xlink" x="0px" y="0px" width="50px"
	 height="50px" viewBox="0 0 50 50" enable-background="new 0 0 50 50" xml:space="preserve">
<g id="text">
</g>
<g id="_x31_">
</g>
<g id="_x32_">
</g>
<g id="_x33__1_">
</g>
<g id="_x34_">
</g>
<g id="_x35_">
</g>
<g id="_x36_">
</g>
<g id="_x37_">
</g>
<g id="_x38_">
</g>
<g id="_x39_">
</g>
<g id="_x31_0">
</g>
<g id="_x31_1">
</g>
<g id="_x31_2">
</g>
<g id="_x31_3">
</g>
<g id="_x31_4">
</g>
<g id="_x31_5">
</g>
<g id="_x31_6">
</g>
<g id="_x31_7">
</g>
<g id="_x31_8">
</g>
<g id="_x31_9">
</g>
<g id="_x32_0">
</g>
<g id="_x32_1">
</g>
<g id="_x32_2">
</g>
<g id="_x32_3">
</g>
<g id="_x32_4">
</g>
<g id="_x32_5">
</g>
<g id="_x32_6">
</g>
<g id="_x32_7">
</g>
<g id="_x32_8">
</g>
<g id="_x32_9">
</g>
<g id="_x33_0">
</g>
<g id="_x33_1">
</g>
<g id="_x33_2">
</g>
<g id="_x33_3">
</g>
<g id="_x33_4">
</g>
<g id="_x33_5">
</g>
<g id="_x33_6">
</g>
<g id="_x33_7">
</g>
<g id="_x33_8">
</g>
<g id="_x33_9">
</g>
<g id="_x34_0">
</g>
<g id="_x34_1">
</g>
<g id="_x34_2">
</g>
<g id="_x34_3">
</g>
<g id="_x34_4">
</g>
<g id="_x34_5">
</g>
<g id="_x34_6">
</g>
<g id="_x34_7">
</g>
<g id="_x34_8">
</g>
<g id="_x34_9">
</g>
<g id="_x35_0">
</g>
<g id="_x35_1">
</g>
<g id="_x35_2">
</g>
<g id="_x35_3">
</g>
<g id="_x35_4">
</g>
<g id="_x35_5">
</g>
<g id="_x35_6">
</g>
<g id="_x35_7">
</g>
<g id="_x35_8">
</g>
<g id="_x35_9">
</g>
<g id="_x36_0">
</g>
<g id="_x36_1">
</g>
<g id="_x36_2">
</g>
<g id="_x36_3">
</g>
<g id="_x36_4">
</g>
<g id="_x36_5">
</g>
<g id="_x36_6">
</g>
<g id="_x36_7">
</g>
<g id="_x36_8">
</g>
<g id="_x36_9">
</g>
<g id="_x37_0">
</g>
<g id="_x37_1">
</g>
<g id="_x37_2">
</g>
<g id="_x37_3">
</g>
<g id="_x37_4">
</g>
<g id="_x37_5">
</g>
<g id="_x37_6">
</g>
<g id="_x37_7">
</g>
<g id="_x37_8">
	<g>
		<path d="M19.668,22.692c-0.286-0.374-0.659-0.675-1.122-0.904s-1.028-0.344-1.697-0.344h-4.073V29.5h3.587
			c0.7,0,1.31-0.094,1.828-0.283c0.519-0.187,0.948-0.457,1.286-0.807c0.339-0.351,0.59-0.774,0.756-1.274
			c0.165-0.5,0.248-1.059,0.248-1.676c0-0.503-0.064-0.999-0.192-1.483C20.161,23.492,19.954,23.064,19.668,22.692z M17.937,26.059
			c-0.041,0.233-0.124,0.452-0.248,0.653c-0.124,0.204-0.303,0.375-0.536,0.514c-0.233,0.141-0.542,0.208-0.925,0.208h-0.97v-3.925
			h0.789c0.451,0,0.807,0.075,1.066,0.226s0.455,0.33,0.586,0.542c0.132,0.211,0.216,0.422,0.248,0.637
			c0.034,0.215,0.052,0.386,0.052,0.514C17.999,25.615,17.978,25.825,17.937,26.059z"/>
		<path d="M28.36,22.444c-0.357-0.374-0.788-0.666-1.292-0.875c-0.505-0.211-1.061-0.317-1.669-0.317
			c-0.609,0-1.166,0.106-1.671,0.317c-0.503,0.209-0.934,0.501-1.291,0.875c-0.357,0.37-0.634,0.814-0.829,1.33
			c-0.195,0.515-0.294,1.082-0.294,1.696c0,0.617,0.099,1.185,0.294,1.699c0.195,0.516,0.472,0.958,0.829,1.33
			c0.357,0.374,0.788,0.666,1.291,0.874c0.505,0.212,1.062,0.316,1.671,0.316c0.608,0,1.164-0.104,1.669-0.316
			c0.504-0.208,0.935-0.5,1.292-0.874c0.356-0.372,0.633-0.814,0.829-1.33c0.194-0.515,0.293-1.082,0.293-1.699
			c0-0.614-0.099-1.182-0.293-1.696C28.993,23.259,28.717,22.814,28.36,22.444z M26.837,26.577c-0.109,0.286-0.242,0.51-0.4,0.671
			c-0.158,0.162-0.33,0.275-0.519,0.338c-0.188,0.064-0.361,0.098-0.519,0.098c-0.158,0-0.332-0.033-0.52-0.098
			c-0.188-0.063-0.361-0.176-0.52-0.338c-0.157-0.161-0.291-0.385-0.399-0.671c-0.109-0.285-0.164-0.654-0.164-1.106
			c0-0.449,0.055-0.818,0.164-1.104c0.108-0.285,0.242-0.509,0.399-0.67c0.158-0.162,0.332-0.275,0.52-0.34
			c0.188-0.063,0.361-0.096,0.52-0.096c0.157,0,0.33,0.033,0.519,0.096c0.188,0.064,0.36,0.178,0.519,0.34
			c0.158,0.161,0.291,0.385,0.4,0.67c0.108,0.286,0.164,0.655,0.164,1.104C27.001,25.923,26.945,26.292,26.837,26.577z"/>
		<path d="M31.405,22.414c-0.357,0.369-0.631,0.813-0.823,1.331c-0.191,0.52-0.288,1.094-0.288,1.726
			c0,0.595,0.091,1.15,0.271,1.665c0.182,0.515,0.446,0.961,0.796,1.338c0.351,0.376,0.776,0.671,1.28,0.891
			c0.504,0.218,1.083,0.326,1.737,0.326c0.587,0,1.109-0.098,1.568-0.294c0.459-0.194,0.844-0.452,1.155-0.771
			c0.313-0.32,0.55-0.68,0.711-1.078s0.243-0.801,0.243-1.208h-2.437c-0.039,0.189-0.089,0.365-0.152,0.53
			c-0.064,0.165-0.146,0.309-0.248,0.43c-0.103,0.12-0.227,0.214-0.373,0.281c-0.146,0.068-0.325,0.103-0.535,0.103
			c-0.294,0-0.539-0.064-0.733-0.192c-0.196-0.127-0.352-0.298-0.469-0.507c-0.117-0.211-0.201-0.448-0.254-0.711
			c-0.053-0.264-0.078-0.53-0.078-0.803c0-0.27,0.025-0.535,0.078-0.8c0.053-0.263,0.137-0.5,0.254-0.71
			c0.117-0.212,0.272-0.381,0.469-0.508c0.194-0.129,0.439-0.192,0.733-0.192c0.255,0,0.464,0.05,0.626,0.146
			c0.161,0.098,0.291,0.211,0.39,0.338c0.097,0.129,0.164,0.26,0.203,0.39c0.037,0.132,0.063,0.234,0.078,0.311h2.414
			c-0.104-1.017-0.46-1.8-1.066-2.353c-0.604-0.553-1.465-0.831-2.577-0.841c-0.624,0-1.188,0.103-1.686,0.305
			C32.191,21.761,31.763,22.047,31.405,22.414z"/>
		<path d="M35.902,2.472H7.65v45.057h34.698V8.723L35.902,2.472z M39.349,44.528H10.65V5.472h23.706v4.76h4.992V44.528z"/>
	</g>
</g>
<g id="_x37_9">
</g>
<g id="_x38_0">
</g>
<g id="_x38_1">
</g>
<g id="_x38_2">
</g>
<g id="_x38_3">
</g>
<g id="_x38_4">
</g>
<g id="_x38_5">
</g>
<g id="_x38_6">
</g>
<g id="_x38_7">
</g>
<g id="_x38_8">
</g>
<g id="_x38_9">
</g>
<g id="_x39_0">
</g>
<g id="_x39_1">
</g>
<g id="_x39_2">
</g>
<g id="_x39_3">
</g>
<g id="_x39_4">
</g>
<g id="_x39_5">
</g>
<g id="_x39_6">
</g>
<g id="_x39_7">
</g>
<g id="_x39_8">
</g>
<g id="_x39_9">
</g>
<g id="_x31_00">
</g>
<g id="_x31_01">
</g>
<g id="_x31_02">
</g>
<g id="_x31_03">
</g>
<g id="_x31_04">
</g>
<g id="_x31_05">
</g>
<g id="_x31_06">
</g>
<g id="_x31_07">
</g>
<g id="_x31_08">
</g>
<g id="_x31_09">
</g>
<g id="_x31_10">
</g>
<g id="_x31_11">
</g>
<g id="_x31_12">
</g>
<g id="_x31_13">
</g>
<g id="_x31_14">
</g>
<g id="_x31_15">
</g>
<g id="_x31_16">
</g>
<g id="_x31_17">
</g>
<g id="_x31_18">
</g>
<g id="_x31_19">
</g>
<g id="_x31_20">
</g>
<g id="_x31_21">
</g>
<g id="_x31_22">
</g>
<g id="_x31_23">
</g>
<g id="_x31_24">
</g>
<g id="_x31_25">
</g>
<g id="_x31_26">
</g>
<g id="_x31_27">
</g>
<g id="_x31_28">
</g>
<g id="_x31_29">
</g>
<g id="_x31_30">
</g>
<g id="_x31_31">
</g>
<g id="_x31_32">
</g>
<g id="_x31_33">
</g>
<g id="_x31_34">
</g>
<g id="_x31_35">
</g>
<g id="_x31_36">
</g>
<g id="_x31_37">
</g>
<g id="_x31_38">
</g>
<g id="_x31_39">
</g>
<g id="_x31_40">
</g>
<g id="_x31_41">
</g>
<g id="_x31_42">
</g>
<g id="_x31_43">
</g>
<g id="_x31_44">
</g>
<g id="_x31_45">
</g>
<g id="_x31_46">
</g>
<g id="_x31_47">
</g>
<g id="_x31_48">
</g>
<g id="_x31_49">
</g>
<g id="_x31_50">
</g>
<g id="_x31_51">
</g>
<g id="_x31_52">
</g>
<g id="_x31_53">
</g>
<g id="_x31_54">
</g>
<g id="_x31_55">
</g>
<g id="_x31_56">
</g>
<g id="_x31_57">
</g>
<g id="_x31_58">
</g>
<g id="_x31_59">
</g>
<g id="_x31_60">
</g>
<g id="_x31_61">
</g>
<g id="_x31_62">
</g>
<g id="_x31_63">
</g>
<g id="_x31_64">
</g>
<g id="_x31_65">
</g>
<g id="_x31_66">
</g>
<g id="_x31_67">
</g>
<g id="_x31_68">
</g>
<g id="_x31_69">
</g>
<g id="_x31_70">
</g>
<g id="_x31_71">
</g>
<g id="_x31_72">
</g>
<g id="_x31_73">
</g>
<g id="_x31_74">
</g>
<g id="_x31_75">
</g>
<g id="_x31_76">
</g>
<g id="_x31_77">
</g>
<g id="_x31_78">
</g>
<g id="_x31_79">
</g>
<g id="_x31_80">
</g>
<g id="_x31_81">
</g>
<g id="_x31_82">
</g>
<g id="_x31_83">
</g>
<g id="_x31_84">
</g>
<g id="_x31_85">
</g>
<g id="_x31_86">
</g>
<g id="_x31_87">
</g>
<g id="_x31_88">
</g>
<g id="_x31_89">
</g>
<g id="_x31_90">
</g>
</svg>
