<?xml version="1.0" encoding="utf-8"?>
<!-- Generator: Adobe Illustrator 16.0.0, SVG Export Plug-In . SVG Version: 6.00 Build 0)  -->
<!DOCTYPE svg PUBLIC "-//W3C//DTD SVG 1.1//EN" "http://www.w3.org/Graphics/SVG/1.1/DTD/svg11.dtd">
<svg version="1.1" xmlns="http://www.w3.org/2000/svg" xmlns:xlink="http://www.w3.org/1999/xlink" x="0px" y="0px" width="50px"
	 height="50px" viewBox="0 0 50 50" enable-background="new 0 0 50 50" xml:space="preserve">
<g id="text">
</g>
<g id="_x31_">
</g>
<g id="_x32_">
</g>
<g id="_x33__1_">
</g>
<g id="_x34_">
</g>
<g id="_x35_">
</g>
<g id="_x36_">
</g>
<g id="_x37_">
</g>
<g id="_x38_">
</g>
<g id="_x39_">
</g>
<g id="_x31_0">
</g>
<g id="_x31_1">
</g>
<g id="_x31_2">
</g>
<g id="_x31_3">
</g>
<g id="_x31_4">
</g>
<g id="_x31_5">
</g>
<g id="_x31_6">
</g>
<g id="_x31_7">
</g>
<g id="_x31_8">
</g>
<g id="_x31_9">
</g>
<g id="_x32_0">
</g>
<g id="_x32_1">
</g>
<g id="_x32_2">
</g>
<g id="_x32_3">
</g>
<g id="_x32_4">
</g>
<g id="_x32_5">
</g>
<g id="_x32_6">
</g>
<g id="_x32_7">
</g>
<g id="_x32_8">
</g>
<g id="_x32_9">
</g>
<g id="_x33_0">
</g>
<g id="_x33_1">
</g>
<g id="_x33_2">
</g>
<g id="_x33_3">
</g>
<g id="_x33_4">
</g>
<g id="_x33_5">
</g>
<g id="_x33_6">
</g>
<g id="_x33_7">
</g>
<g id="_x33_8">
</g>
<g id="_x33_9">
</g>
<g id="_x34_0">
</g>
<g id="_x34_1">
</g>
<g id="_x34_2">
</g>
<g id="_x34_3">
</g>
<g id="_x34_4">
</g>
<g id="_x34_5">
</g>
<g id="_x34_6">
</g>
<g id="_x34_7">
</g>
<g id="_x34_8">
</g>
<g id="_x34_9">
</g>
<g id="_x35_0">
</g>
<g id="_x35_1">
</g>
<g id="_x35_2">
</g>
<g id="_x35_3">
</g>
<g id="_x35_4">
</g>
<g id="_x35_5">
</g>
<g id="_x35_6">
</g>
<g id="_x35_7">
</g>
<g id="_x35_8">
</g>
<g id="_x35_9">
</g>
<g id="_x36_0">
</g>
<g id="_x36_1">
</g>
<g id="_x36_2">
</g>
<g id="_x36_3">
</g>
<g id="_x36_4">
</g>
<g id="_x36_5">
</g>
<g id="_x36_6">
</g>
<g id="_x36_7">
</g>
<g id="_x36_8">
</g>
<g id="_x36_9">
</g>
<g id="_x37_0">
</g>
<g id="_x37_1">
</g>
<g id="_x37_2">
</g>
<g id="_x37_3">
</g>
<g id="_x37_4">
</g>
<g id="_x37_5">
</g>
<g id="_x37_6">
</g>
<g id="_x37_7">
</g>
<g id="_x37_8">
</g>
<g id="_x37_9">
</g>
<g id="_x38_0">
</g>
<g id="_x38_1">
</g>
<g id="_x38_2">
</g>
<g id="_x38_3">
</g>
<g id="_x38_4">
</g>
<g id="_x38_5">
</g>
<g id="_x38_6">
</g>
<g id="_x38_7">
</g>
<g id="_x38_8">
</g>
<g id="_x38_9">
</g>
<g id="_x39_0">
</g>
<g id="_x39_1">
</g>
<g id="_x39_2">
</g>
<g id="_x39_3">
</g>
<g id="_x39_4">
</g>
<g id="_x39_5">
</g>
<g id="_x39_6">
</g>
<g id="_x39_7">
</g>
<g id="_x39_8">
</g>
<g id="_x39_9">
</g>
<g id="_x31_00">
</g>
<g id="_x31_01">
</g>
<g id="_x31_02">
</g>
<g id="_x31_03">
</g>
<g id="_x31_04">
</g>
<g id="_x31_05">
</g>
<g id="_x31_06">
</g>
<g id="_x31_07">
</g>
<g id="_x31_08">
</g>
<g id="_x31_09">
</g>
<g id="_x31_10">
</g>
<g id="_x31_11">
</g>
<g id="_x31_12">
</g>
<g id="_x31_13">
</g>
<g id="_x31_14">
</g>
<g id="_x31_15">
</g>
<g id="_x31_16">
</g>
<g id="_x31_17">
</g>
<g id="_x31_18">
</g>
<g id="_x31_19">
</g>
<g id="_x31_20">
</g>
<g id="_x31_21">
</g>
<g id="_x31_22">
</g>
<g id="_x31_23">
</g>
<g id="_x31_24">
</g>
<g id="_x31_25">
</g>
<g id="_x31_26">
</g>
<g id="_x31_27">
</g>
<g id="_x31_28">
</g>
<g id="_x31_29">
</g>
<g id="_x31_30">
</g>
<g id="_x31_31">
</g>
<g id="_x31_32">
</g>
<g id="_x31_33">
</g>
<g id="_x31_34">
</g>
<g id="_x31_35">
</g>
<g id="_x31_36">
</g>
<g id="_x31_37">
</g>
<g id="_x31_38">
</g>
<g id="_x31_39">
</g>
<g id="_x31_40">
</g>
<g id="_x31_41">
</g>
<g id="_x31_42">
	<g>
		<rect x="22.314" y="29.318" width="4.775" height="4.544"/>
		<path d="M29.819,18.682c-0.474-0.467-1.094-0.85-1.858-1.146c-0.767-0.3-1.705-0.448-2.822-0.448
			c-1.134,0-2.093,0.172-2.881,0.518c-0.788,0.343-1.435,0.791-1.938,1.34c-0.504,0.552-0.88,1.176-1.124,1.871
			c-0.246,0.697-0.391,1.404-0.437,2.123h4.797c-0.047-0.505,0.045-0.956,0.274-1.354c0.229-0.397,0.619-0.596,1.171-0.596
			c0.887,0,1.33,0.39,1.33,1.17c0,0.261-0.075,0.482-0.229,0.665c-0.152,0.185-0.341,0.342-0.563,0.471
			c-0.221,0.13-0.455,0.248-0.7,0.355c-0.245,0.108-0.458,0.207-0.643,0.299c-0.444,0.245-0.778,0.552-1.009,0.918
			c-0.229,0.367-0.391,0.742-0.481,1.124c-0.093,0.384-0.139,0.758-0.139,1.123c0,0.353,0.009,0.645,0.024,0.873h4.244
			c0-0.259,0.021-0.488,0.058-0.688c0.037-0.198,0.105-0.376,0.196-0.526c0.091-0.154,0.221-0.299,0.39-0.437
			c0.167-0.14,0.382-0.276,0.641-0.414c0.383-0.198,0.76-0.394,1.126-0.585c0.368-0.191,0.699-0.433,0.998-0.724
			c0.299-0.29,0.54-0.653,0.724-1.091c0.184-0.436,0.275-1.004,0.275-1.708c-0.032-0.507-0.158-1.036-0.38-1.597
			C30.643,19.66,30.294,19.148,29.819,18.682z"/>
		<path d="M35.903,2.472H7.651v45.057H42.35V8.723L35.903,2.472z M39.35,44.528H10.651V5.472h23.706v4.76h4.992V44.528z"/>
	</g>
</g>
<g id="_x31_43">
</g>
<g id="_x31_44">
</g>
<g id="_x31_45">
</g>
<g id="_x31_46">
</g>
<g id="_x31_47">
</g>
<g id="_x31_48">
</g>
<g id="_x31_49">
</g>
<g id="_x31_50">
</g>
<g id="_x31_51">
</g>
<g id="_x31_52">
</g>
<g id="_x31_53">
</g>
<g id="_x31_54">
</g>
<g id="_x31_55">
</g>
<g id="_x31_56">
</g>
<g id="_x31_57">
</g>
<g id="_x31_58">
</g>
<g id="_x31_59">
</g>
<g id="_x31_60">
</g>
<g id="_x31_61">
</g>
<g id="_x31_62">
</g>
<g id="_x31_63">
</g>
<g id="_x31_64">
</g>
<g id="_x31_65">
</g>
<g id="_x31_66">
</g>
<g id="_x31_67">
</g>
<g id="_x31_68">
</g>
<g id="_x31_69">
</g>
<g id="_x31_70">
</g>
<g id="_x31_71">
</g>
<g id="_x31_72">
</g>
<g id="_x31_73">
</g>
<g id="_x31_74">
</g>
<g id="_x31_75">
</g>
<g id="_x31_76">
</g>
<g id="_x31_77">
</g>
<g id="_x31_78">
</g>
<g id="_x31_79">
</g>
<g id="_x31_80">
</g>
<g id="_x31_81">
</g>
<g id="_x31_82">
</g>
<g id="_x31_83">
</g>
<g id="_x31_84">
</g>
<g id="_x31_85">
</g>
<g id="_x31_86">
</g>
<g id="_x31_87">
</g>
<g id="_x31_88">
</g>
<g id="_x31_89">
</g>
<g id="_x31_90">
</g>
</svg>
