<?xml version="1.0" encoding="utf-8"?>
<!-- Generator: Adobe Illustrator 16.0.0, SVG Export Plug-In . SVG Version: 6.00 Build 0)  -->
<!DOCTYPE svg PUBLIC "-//W3C//DTD SVG 1.1//EN" "http://www.w3.org/Graphics/SVG/1.1/DTD/svg11.dtd">
<svg version="1.1" xmlns="http://www.w3.org/2000/svg" xmlns:xlink="http://www.w3.org/1999/xlink" x="0px" y="0px" width="50px"
	 height="50px" viewBox="0 0 50 50" enable-background="new 0 0 50 50" xml:space="preserve">
<g id="text">
</g>
<g id="_x31_">
</g>
<g id="_x32_">
</g>
<g id="_x33__1_">
</g>
<g id="_x34_">
</g>
<g id="_x35_">
</g>
<g id="_x36_">
</g>
<g id="_x37_">
</g>
<g id="_x38_">
</g>
<g id="_x39_">
</g>
<g id="_x31_0">
</g>
<g id="_x31_1">
</g>
<g id="_x31_2">
</g>
<g id="_x31_3">
</g>
<g id="_x31_4">
</g>
<g id="_x31_5">
</g>
<g id="_x31_6">
</g>
<g id="_x31_7">
</g>
<g id="_x31_8">
</g>
<g id="_x31_9">
</g>
<g id="_x32_0">
</g>
<g id="_x32_1">
</g>
<g id="_x32_2">
</g>
<g id="_x32_3">
</g>
<g id="_x32_4">
</g>
<g id="_x32_5">
</g>
<g id="_x32_6">
</g>
<g id="_x32_7">
</g>
<g id="_x32_8">
</g>
<g id="_x32_9">
</g>
<g id="_x33_0">
</g>
<g id="_x33_1">
</g>
<g id="_x33_2">
</g>
<g id="_x33_3">
</g>
<g id="_x33_4">
</g>
<g id="_x33_5">
</g>
<g id="_x33_6">
</g>
<g id="_x33_7">
</g>
<g id="_x33_8">
</g>
<g id="_x33_9">
</g>
<g id="_x34_0">
</g>
<g id="_x34_1">
</g>
<g id="_x34_2">
</g>
<g id="_x34_3">
</g>
<g id="_x34_4">
</g>
<g id="_x34_5">
</g>
<g id="_x34_6">
</g>
<g id="_x34_7">
</g>
<g id="_x34_8">
</g>
<g id="_x34_9">
</g>
<g id="_x35_0">
</g>
<g id="_x35_1">
</g>
<g id="_x35_2">
</g>
<g id="_x35_3">
</g>
<g id="_x35_4">
</g>
<g id="_x35_5">
</g>
<g id="_x35_6">
</g>
<g id="_x35_7">
</g>
<g id="_x35_8">
</g>
<g id="_x35_9">
</g>
<g id="_x36_0">
</g>
<g id="_x36_1">
</g>
<g id="_x36_2">
</g>
<g id="_x36_3">
</g>
<g id="_x36_4">
</g>
<g id="_x36_5">
</g>
<g id="_x36_6">
</g>
<g id="_x36_7">
</g>
<g id="_x36_8">
</g>
<g id="_x36_9">
</g>
<g id="_x37_0">
</g>
<g id="_x37_1">
</g>
<g id="_x37_2">
</g>
<g id="_x37_3">
</g>
<g id="_x37_4">
</g>
<g id="_x37_5">
</g>
<g id="_x37_6">
</g>
<g id="_x37_7">
</g>
<g id="_x37_8">
</g>
<g id="_x37_9">
</g>
<g id="_x38_0">
</g>
<g id="_x38_1">
</g>
<g id="_x38_2">
</g>
<g id="_x38_3">
</g>
<g id="_x38_4">
</g>
<g id="_x38_5">
</g>
<g id="_x38_6">
</g>
<g id="_x38_7">
</g>
<g id="_x38_8">
</g>
<g id="_x38_9">
</g>
<g id="_x39_0">
</g>
<g id="_x39_1">
</g>
<g id="_x39_2">
</g>
<g id="_x39_3">
</g>
<g id="_x39_4">
</g>
<g id="_x39_5">
</g>
<g id="_x39_6">
</g>
<g id="_x39_7">
</g>
<g id="_x39_8">
</g>
<g id="_x39_9">
</g>
<g id="_x31_00">
</g>
<g id="_x31_01">
</g>
<g id="_x31_02">
</g>
<g id="_x31_03">
</g>
<g id="_x31_04">
</g>
<g id="_x31_05">
</g>
<g id="_x31_06">
</g>
<g id="_x31_07">
</g>
<g id="_x31_08">
</g>
<g id="_x31_09">
</g>
<g id="_x31_10">
</g>
<g id="_x31_11">
</g>
<g id="_x31_12">
</g>
<g id="_x31_13">
</g>
<g id="_x31_14">
</g>
<g id="_x31_15">
</g>
<g id="_x31_16">
</g>
<g id="_x31_17">
</g>
<g id="_x31_18">
</g>
<g id="_x31_19">
</g>
<g id="_x31_20">
</g>
<g id="_x31_21">
</g>
<g id="_x31_22">
</g>
<g id="_x31_23">
</g>
<g id="_x31_24">
</g>
<g id="_x31_25">
</g>
<g id="_x31_26">
</g>
<g id="_x31_27">
</g>
<g id="_x31_28">
</g>
<g id="_x31_29">
</g>
<g id="_x31_30">
</g>
<g id="_x31_31">
	<g>
		<path d="M34.112,30.333c-2.156,0-4.311,0-6.465,0c-1.555,0-1.555,2.5,0,2.5c2.154,0,4.309,0,6.465,0
			C35.665,32.833,35.665,30.333,34.112,30.333z"/>
		<path d="M34.112,34.374c-2.156,0-4.311,0-6.465,0c-1.555,0-1.555,2.5,0,2.5c2.154,0,4.309,0,6.465,0
			C35.665,36.874,35.665,34.374,34.112,34.374z"/>
		<path d="M34.112,38.847c-2.156,0-4.311,0-6.465,0c-1.555,0-1.555,2.5,0,2.5c2.154,0,4.309,0,6.465,0
			C35.665,41.347,35.665,38.847,34.112,38.847z"/>
		<path d="M34.112,21.807c-2.156,0-4.311,0-6.465,0c-1.555,0-1.555,2.5,0,2.5c2.154,0,4.309,0,6.465,0
			C35.665,24.307,35.665,21.807,34.112,21.807z"/>
		<path d="M34.112,25.848c-2.156,0-4.311,0-6.465,0c-1.555,0-1.555,2.5,0,2.5c2.154,0,4.309,0,6.465,0
			C35.665,28.348,35.665,25.848,34.112,25.848z"/>
		<path d="M27.647,13.463c-1.555,0-1.555,2.5,0,2.5c2.154,0,4.309,0,6.465,0c1.553,0,1.553-2.5,0-2.5
			C31.956,13.463,29.802,13.463,27.647,13.463z"/>
		<path d="M34.112,17.504c-2.156,0-4.311,0-6.465,0c-1.555,0-1.555,2.5,0,2.5c2.154,0,4.309,0,6.465,0
			C35.665,20.004,35.665,17.504,34.112,17.504z"/>
		<path d="M22.45,30.214c-2.156,0-4.311,0-6.465,0c-1.555,0-1.555,2.5,0,2.5c2.154,0,4.309,0,6.465,0
			C24.003,32.714,24.003,30.214,22.45,30.214z"/>
		<path d="M22.45,34.255c-2.156,0-4.311,0-6.465,0c-1.555,0-1.555,2.5,0,2.5c2.154,0,4.309,0,6.465,0
			C24.003,36.755,24.003,34.255,22.45,34.255z"/>
		<path d="M22.45,38.728c-2.156,0-4.311,0-6.465,0c-1.555,0-1.555,2.5,0,2.5c2.154,0,4.309,0,6.465,0
			C24.003,41.228,24.003,38.728,22.45,38.728z"/>
		<path d="M22.45,21.688c-2.156,0-4.311,0-6.465,0c-1.555,0-1.555,2.5,0,2.5c2.154,0,4.309,0,6.465,0
			C24.003,24.188,24.003,21.688,22.45,21.688z"/>
		<path d="M22.45,25.729c-2.156,0-4.311,0-6.465,0c-1.555,0-1.555,2.5,0,2.5c2.154,0,4.309,0,6.465,0
			C24.003,28.229,24.003,25.729,22.45,25.729z"/>
		<path d="M22.45,13.344c-2.156,0-4.311,0-6.465,0c-1.555,0-1.555,2.5,0,2.5c2.154,0,4.309,0,6.465,0
			C24.003,15.844,24.003,13.344,22.45,13.344z"/>
		<path d="M22.45,17.385c-2.156,0-4.311,0-6.465,0c-1.555,0-1.555,2.5,0,2.5c2.154,0,4.309,0,6.465,0
			C24.003,19.885,24.003,17.385,22.45,17.385z"/>
		<path d="M35.902,2.472H7.651v45.057h34.697V8.723L35.902,2.472z M39.349,44.528H10.651V5.472h23.705v4.76h4.992V44.528z"/>
	</g>
</g>
<g id="_x31_32">
</g>
<g id="_x31_33">
</g>
<g id="_x31_34">
</g>
<g id="_x31_35">
</g>
<g id="_x31_36">
</g>
<g id="_x31_37">
</g>
<g id="_x31_38">
</g>
<g id="_x31_39">
</g>
<g id="_x31_40">
</g>
<g id="_x31_41">
</g>
<g id="_x31_42">
</g>
<g id="_x31_43">
</g>
<g id="_x31_44">
</g>
<g id="_x31_45">
</g>
<g id="_x31_46">
</g>
<g id="_x31_47">
</g>
<g id="_x31_48">
</g>
<g id="_x31_49">
</g>
<g id="_x31_50">
</g>
<g id="_x31_51">
</g>
<g id="_x31_52">
</g>
<g id="_x31_53">
</g>
<g id="_x31_54">
</g>
<g id="_x31_55">
</g>
<g id="_x31_56">
</g>
<g id="_x31_57">
</g>
<g id="_x31_58">
</g>
<g id="_x31_59">
</g>
<g id="_x31_60">
</g>
<g id="_x31_61">
</g>
<g id="_x31_62">
</g>
<g id="_x31_63">
</g>
<g id="_x31_64">
</g>
<g id="_x31_65">
</g>
<g id="_x31_66">
</g>
<g id="_x31_67">
</g>
<g id="_x31_68">
</g>
<g id="_x31_69">
</g>
<g id="_x31_70">
</g>
<g id="_x31_71">
</g>
<g id="_x31_72">
</g>
<g id="_x31_73">
</g>
<g id="_x31_74">
</g>
<g id="_x31_75">
</g>
<g id="_x31_76">
</g>
<g id="_x31_77">
</g>
<g id="_x31_78">
</g>
<g id="_x31_79">
</g>
<g id="_x31_80">
</g>
<g id="_x31_81">
</g>
<g id="_x31_82">
</g>
<g id="_x31_83">
</g>
<g id="_x31_84">
</g>
<g id="_x31_85">
</g>
<g id="_x31_86">
</g>
<g id="_x31_87">
</g>
<g id="_x31_88">
</g>
<g id="_x31_89">
</g>
<g id="_x31_90">
</g>
</svg>
