<?xml version="1.0" encoding="utf-8"?>
<!-- Generator: Adobe Illustrator 16.0.0, SVG Export Plug-In . SVG Version: 6.00 Build 0)  -->
<!DOCTYPE svg PUBLIC "-//W3C//DTD SVG 1.1//EN" "http://www.w3.org/Graphics/SVG/1.1/DTD/svg11.dtd">
<svg version="1.1" xmlns="http://www.w3.org/2000/svg" xmlns:xlink="http://www.w3.org/1999/xlink" x="0px" y="0px" width="50px"
	 height="50px" viewBox="0 0 50 50" enable-background="new 0 0 50 50" xml:space="preserve">
<g id="text">
</g>
<g id="_x31_">
</g>
<g id="_x32_">
</g>
<g id="_x33__1_">
</g>
<g id="_x34_">
</g>
<g id="_x35_">
</g>
<g id="_x36_">
</g>
<g id="_x37_">
</g>
<g id="_x38_">
</g>
<g id="_x39_">
</g>
<g id="_x31_0">
</g>
<g id="_x31_1">
</g>
<g id="_x31_2">
</g>
<g id="_x31_3">
</g>
<g id="_x31_4">
</g>
<g id="_x31_5">
</g>
<g id="_x31_6">
</g>
<g id="_x31_7">
</g>
<g id="_x31_8">
</g>
<g id="_x31_9">
</g>
<g id="_x32_0">
</g>
<g id="_x32_1">
</g>
<g id="_x32_2">
</g>
<g id="_x32_3">
</g>
<g id="_x32_4">
</g>
<g id="_x32_5">
</g>
<g id="_x32_6">
</g>
<g id="_x32_7">
</g>
<g id="_x32_8">
</g>
<g id="_x32_9">
</g>
<g id="_x33_0">
</g>
<g id="_x33_1">
</g>
<g id="_x33_2">
</g>
<g id="_x33_3">
</g>
<g id="_x33_4">
</g>
<g id="_x33_5">
</g>
<g id="_x33_6">
</g>
<g id="_x33_7">
</g>
<g id="_x33_8">
</g>
<g id="_x33_9">
</g>
<g id="_x34_0">
</g>
<g id="_x34_1">
</g>
<g id="_x34_2">
</g>
<g id="_x34_3">
</g>
<g id="_x34_4">
</g>
<g id="_x34_5">
</g>
<g id="_x34_6">
</g>
<g id="_x34_7">
</g>
<g id="_x34_8">
</g>
<g id="_x34_9">
</g>
<g id="_x35_0">
</g>
<g id="_x35_1">
</g>
<g id="_x35_2">
</g>
<g id="_x35_3">
</g>
<g id="_x35_4">
</g>
<g id="_x35_5">
</g>
<g id="_x35_6">
</g>
<g id="_x35_7">
</g>
<g id="_x35_8">
</g>
<g id="_x35_9">
</g>
<g id="_x36_0">
</g>
<g id="_x36_1">
</g>
<g id="_x36_2">
</g>
<g id="_x36_3">
</g>
<g id="_x36_4">
</g>
<g id="_x36_5">
</g>
<g id="_x36_6">
</g>
<g id="_x36_7">
</g>
<g id="_x36_8">
</g>
<g id="_x36_9">
</g>
<g id="_x37_0">
</g>
<g id="_x37_1">
</g>
<g id="_x37_2">
</g>
<g id="_x37_3">
</g>
<g id="_x37_4">
</g>
<g id="_x37_5">
</g>
<g id="_x37_6">
</g>
<g id="_x37_7">
</g>
<g id="_x37_8">
</g>
<g id="_x37_9">
</g>
<g id="_x38_0">
</g>
<g id="_x38_1">
</g>
<g id="_x38_2">
</g>
<g id="_x38_3">
</g>
<g id="_x38_4">
</g>
<g id="_x38_5">
</g>
<g id="_x38_6">
</g>
<g id="_x38_7">
</g>
<g id="_x38_8">
</g>
<g id="_x38_9">
</g>
<g id="_x39_0">
</g>
<g id="_x39_1">
	<g>
		<polygon points="15.525,14.915 15.541,14.915 17.449,18.339 18.919,18.339 18.919,12.845 17.572,12.845 17.572,16.231 
			17.557,16.231 15.648,12.845 14.178,12.845 14.178,18.339 15.525,18.339 		"/>
		<polygon points="24.353,17.108 21.329,17.108 21.329,16.062 24.022,16.062 24.022,14.952 21.329,14.952 21.329,13.991 
			24.276,13.991 24.276,12.845 19.897,12.845 19.897,18.339 24.353,18.339 		"/>
		<polygon points="27.616,18.339 28.371,14.552 28.386,14.552 29.14,18.339 30.572,18.339 32.088,12.845 30.656,12.845 
			29.879,16.862 29.864,16.862 29.056,12.845 27.708,12.845 26.9,16.862 26.885,16.862 26.108,12.845 24.676,12.845 26.162,18.339 
					"/>
		<path d="M33.158,13.114c-0.215,0.133-0.391,0.307-0.527,0.52c-0.136,0.213-0.204,0.467-0.204,0.766
			c0,0.25,0.047,0.465,0.142,0.643c0.095,0.176,0.218,0.326,0.37,0.445c0.151,0.121,0.323,0.221,0.516,0.297
			s0.386,0.145,0.581,0.199c0.2,0.057,0.394,0.107,0.581,0.15c0.187,0.045,0.355,0.094,0.504,0.15s0.268,0.123,0.358,0.201
			c0.09,0.076,0.135,0.176,0.135,0.299c0,0.104-0.026,0.189-0.077,0.262c-0.052,0.072-0.118,0.131-0.2,0.174
			s-0.176,0.076-0.281,0.096c-0.105,0.021-0.211,0.031-0.319,0.031c-0.308,0-0.554-0.063-0.739-0.186s-0.285-0.346-0.3-0.668h-1.431
			c0,0.354,0.065,0.652,0.196,0.9c0.131,0.246,0.307,0.447,0.527,0.607c0.221,0.158,0.474,0.273,0.758,0.346
			s0.586,0.107,0.904,0.107c0.303,0,0.598-0.029,0.885-0.092c0.287-0.061,0.542-0.162,0.766-0.305
			c0.223-0.141,0.403-0.328,0.539-0.564c0.136-0.236,0.204-0.529,0.204-0.877c0-0.248-0.046-0.459-0.139-0.637
			c-0.092-0.176-0.213-0.324-0.362-0.445c-0.148-0.121-0.318-0.221-0.508-0.301c-0.19-0.078-0.385-0.146-0.585-0.203
			s-0.395-0.105-0.585-0.146s-0.36-0.088-0.512-0.139s-0.272-0.109-0.362-0.178c-0.09-0.066-0.135-0.152-0.135-0.262
			c0-0.092,0.022-0.168,0.065-0.227s0.099-0.105,0.166-0.143c0.067-0.035,0.141-0.061,0.223-0.076s0.162-0.023,0.239-0.023
			c0.108,0,0.215,0.012,0.323,0.035s0.204,0.061,0.289,0.111s0.153,0.119,0.204,0.203c0.051,0.086,0.074,0.189,0.069,0.313h1.431
			c0-0.309-0.064-0.574-0.192-0.797c-0.128-0.223-0.295-0.406-0.5-0.551c-0.206-0.143-0.44-0.25-0.704-0.318
			c-0.265-0.07-0.533-0.104-0.805-0.104c-0.256,0-0.518,0.029-0.785,0.092C33.614,12.882,33.373,12.979,33.158,13.114z"/>
		<path d="M23.14,33.346h-8.198c-0.297,0-0.537,0.158-0.537,0.354v7.268c0,0.195,0.24,0.354,0.537,0.354h8.198
			c0.297,0,0.538-0.158,0.538-0.354v-7.268C23.677,33.504,23.437,33.346,23.14,33.346z"/>
		<path d="M34.882,33.346h-8.198c-0.297,0-0.537,0.158-0.537,0.354v7.268c0,0.195,0.24,0.354,0.537,0.354h8.198
			c0.297,0,0.538-0.158,0.538-0.354v-7.268C35.419,33.504,35.179,33.346,34.882,33.346z"/>
		<path d="M34.627,21.266c-6.418,0-12.835,0-19.253,0c-1.612,0-1.612,2.5,0,2.5c6.418,0,12.835,0,19.253,0
			C36.239,23.766,36.239,21.266,34.627,21.266z"/>
		<path d="M34.627,27.182c-6.418,0-12.835,0-19.253,0c-1.612,0-1.612,2.5,0,2.5c6.418,0,12.835,0,19.253,0
			C36.239,29.682,36.239,27.182,34.627,27.182z"/>
		<path d="M35.902,2.472H7.651v45.057h34.698V8.723L35.902,2.472z M39.349,44.528H10.651V5.472h23.706v4.76h4.992V44.528z"/>
	</g>
</g>
<g id="_x39_2">
</g>
<g id="_x39_3">
</g>
<g id="_x39_4">
</g>
<g id="_x39_5">
</g>
<g id="_x39_6">
</g>
<g id="_x39_7">
</g>
<g id="_x39_8">
</g>
<g id="_x39_9">
</g>
<g id="_x31_00">
</g>
<g id="_x31_01">
</g>
<g id="_x31_02">
</g>
<g id="_x31_03">
</g>
<g id="_x31_04">
</g>
<g id="_x31_05">
</g>
<g id="_x31_06">
</g>
<g id="_x31_07">
</g>
<g id="_x31_08">
</g>
<g id="_x31_09">
</g>
<g id="_x31_10">
</g>
<g id="_x31_11">
</g>
<g id="_x31_12">
</g>
<g id="_x31_13">
</g>
<g id="_x31_14">
</g>
<g id="_x31_15">
</g>
<g id="_x31_16">
</g>
<g id="_x31_17">
</g>
<g id="_x31_18">
</g>
<g id="_x31_19">
</g>
<g id="_x31_20">
</g>
<g id="_x31_21">
</g>
<g id="_x31_22">
</g>
<g id="_x31_23">
</g>
<g id="_x31_24">
</g>
<g id="_x31_25">
</g>
<g id="_x31_26">
</g>
<g id="_x31_27">
</g>
<g id="_x31_28">
</g>
<g id="_x31_29">
</g>
<g id="_x31_30">
</g>
<g id="_x31_31">
</g>
<g id="_x31_32">
</g>
<g id="_x31_33">
</g>
<g id="_x31_34">
</g>
<g id="_x31_35">
</g>
<g id="_x31_36">
</g>
<g id="_x31_37">
</g>
<g id="_x31_38">
</g>
<g id="_x31_39">
</g>
<g id="_x31_40">
</g>
<g id="_x31_41">
</g>
<g id="_x31_42">
</g>
<g id="_x31_43">
</g>
<g id="_x31_44">
</g>
<g id="_x31_45">
</g>
<g id="_x31_46">
</g>
<g id="_x31_47">
</g>
<g id="_x31_48">
</g>
<g id="_x31_49">
</g>
<g id="_x31_50">
</g>
<g id="_x31_51">
</g>
<g id="_x31_52">
</g>
<g id="_x31_53">
</g>
<g id="_x31_54">
</g>
<g id="_x31_55">
</g>
<g id="_x31_56">
</g>
<g id="_x31_57">
</g>
<g id="_x31_58">
</g>
<g id="_x31_59">
</g>
<g id="_x31_60">
</g>
<g id="_x31_61">
</g>
<g id="_x31_62">
</g>
<g id="_x31_63">
</g>
<g id="_x31_64">
</g>
<g id="_x31_65">
</g>
<g id="_x31_66">
</g>
<g id="_x31_67">
</g>
<g id="_x31_68">
</g>
<g id="_x31_69">
</g>
<g id="_x31_70">
</g>
<g id="_x31_71">
</g>
<g id="_x31_72">
</g>
<g id="_x31_73">
</g>
<g id="_x31_74">
</g>
<g id="_x31_75">
</g>
<g id="_x31_76">
</g>
<g id="_x31_77">
</g>
<g id="_x31_78">
</g>
<g id="_x31_79">
</g>
<g id="_x31_80">
</g>
<g id="_x31_81">
</g>
<g id="_x31_82">
</g>
<g id="_x31_83">
</g>
<g id="_x31_84">
</g>
<g id="_x31_85">
</g>
<g id="_x31_86">
</g>
<g id="_x31_87">
</g>
<g id="_x31_88">
</g>
<g id="_x31_89">
</g>
<g id="_x31_90">
</g>
</svg>
