<?xml version="1.0" encoding="utf-8"?>
<!-- Generator: Adobe Illustrator 16.0.0, SVG Export Plug-In . SVG Version: 6.00 Build 0)  -->
<!DOCTYPE svg PUBLIC "-//W3C//DTD SVG 1.1//EN" "http://www.w3.org/Graphics/SVG/1.1/DTD/svg11.dtd">
<svg version="1.1" xmlns="http://www.w3.org/2000/svg" xmlns:xlink="http://www.w3.org/1999/xlink" x="0px" y="0px" width="50px"
	 height="50px" viewBox="0 0 50 50" enable-background="new 0 0 50 50" xml:space="preserve">
<g id="text">
</g>
<g id="_x31_">
</g>
<g id="_x32_">
</g>
<g id="_x33__1_">
</g>
<g id="_x34_">
</g>
<g id="_x35_">
</g>
<g id="_x36_">
</g>
<g id="_x37_">
</g>
<g id="_x38_">
</g>
<g id="_x39_">
</g>
<g id="_x31_0">
</g>
<g id="_x31_1">
</g>
<g id="_x31_2">
</g>
<g id="_x31_3">
</g>
<g id="_x31_4">
</g>
<g id="_x31_5">
</g>
<g id="_x31_6">
</g>
<g id="_x31_7">
</g>
<g id="_x31_8">
</g>
<g id="_x31_9">
</g>
<g id="_x32_0">
</g>
<g id="_x32_1">
</g>
<g id="_x32_2">
</g>
<g id="_x32_3">
</g>
<g id="_x32_4">
</g>
<g id="_x32_5">
</g>
<g id="_x32_6">
</g>
<g id="_x32_7">
</g>
<g id="_x32_8">
</g>
<g id="_x32_9">
</g>
<g id="_x33_0">
</g>
<g id="_x33_1">
</g>
<g id="_x33_2">
</g>
<g id="_x33_3">
</g>
<g id="_x33_4">
</g>
<g id="_x33_5">
</g>
<g id="_x33_6">
</g>
<g id="_x33_7">
</g>
<g id="_x33_8">
</g>
<g id="_x33_9">
</g>
<g id="_x34_0">
</g>
<g id="_x34_1">
</g>
<g id="_x34_2">
</g>
<g id="_x34_3">
</g>
<g id="_x34_4">
</g>
<g id="_x34_5">
</g>
<g id="_x34_6">
</g>
<g id="_x34_7">
</g>
<g id="_x34_8">
</g>
<g id="_x34_9">
</g>
<g id="_x35_0">
</g>
<g id="_x35_1">
</g>
<g id="_x35_2">
</g>
<g id="_x35_3">
</g>
<g id="_x35_4">
</g>
<g id="_x35_5">
</g>
<g id="_x35_6">
</g>
<g id="_x35_7">
</g>
<g id="_x35_8">
</g>
<g id="_x35_9">
</g>
<g id="_x36_0">
</g>
<g id="_x36_1">
</g>
<g id="_x36_2">
</g>
<g id="_x36_3">
</g>
<g id="_x36_4">
</g>
<g id="_x36_5">
</g>
<g id="_x36_6">
</g>
<g id="_x36_7">
</g>
<g id="_x36_8">
</g>
<g id="_x36_9">
</g>
<g id="_x37_0">
</g>
<g id="_x37_1">
</g>
<g id="_x37_2">
</g>
<g id="_x37_3">
</g>
<g id="_x37_4">
</g>
<g id="_x37_5">
</g>
<g id="_x37_6">
</g>
<g id="_x37_7">
</g>
<g id="_x37_8">
</g>
<g id="_x37_9">
</g>
<g id="_x38_0">
</g>
<g id="_x38_1">
</g>
<g id="_x38_2">
</g>
<g id="_x38_3">
</g>
<g id="_x38_4">
</g>
<g id="_x38_5">
</g>
<g id="_x38_6">
</g>
<g id="_x38_7">
</g>
<g id="_x38_8">
</g>
<g id="_x38_9">
</g>
<g id="_x39_0">
</g>
<g id="_x39_1">
</g>
<g id="_x39_2">
</g>
<g id="_x39_3">
</g>
<g id="_x39_4">
</g>
<g id="_x39_5">
</g>
<g id="_x39_6">
</g>
<g id="_x39_7">
</g>
<g id="_x39_8">
</g>
<g id="_x39_9">
</g>
<g id="_x31_00">
</g>
<g id="_x31_01">
</g>
<g id="_x31_02">
</g>
<g id="_x31_03">
</g>
<g id="_x31_04">
</g>
<g id="_x31_05">
</g>
<g id="_x31_06">
</g>
<g id="_x31_07">
</g>
<g id="_x31_08">
</g>
<g id="_x31_09">
</g>
<g id="_x31_10">
</g>
<g id="_x31_11">
</g>
<g id="_x31_12">
</g>
<g id="_x31_13">
</g>
<g id="_x31_14">
</g>
<g id="_x31_15">
</g>
<g id="_x31_16">
</g>
<g id="_x31_17">
</g>
<g id="_x31_18">
</g>
<g id="_x31_19">
</g>
<g id="_x31_20">
</g>
<g id="_x31_21">
</g>
<g id="_x31_22">
</g>
<g id="_x31_23">
</g>
<g id="_x31_24">
</g>
<g id="_x31_25">
</g>
<g id="_x31_26">
</g>
<g id="_x31_27">
</g>
<g id="_x31_28">
</g>
<g id="_x31_29">
</g>
<g id="_x31_30">
</g>
<g id="_x31_31">
</g>
<g id="_x31_32">
</g>
<g id="_x31_33">
</g>
<g id="_x31_34">
</g>
<g id="_x31_35">
</g>
<g id="_x31_36">
</g>
<g id="_x31_37">
</g>
<g id="_x31_38">
</g>
<g id="_x31_39">
</g>
<g id="_x31_40">
</g>
<g id="_x31_41">
</g>
<g id="_x31_42">
</g>
<g id="_x31_43">
</g>
<g id="_x31_44">
</g>
<g id="_x31_45">
</g>
<g id="_x31_46">
</g>
<g id="_x31_47">
</g>
<g id="_x31_48">
</g>
<g id="_x31_49">
</g>
<g id="_x31_50">
</g>
<g id="_x31_51">
</g>
<g id="_x31_52">
</g>
<g id="_x31_53">
</g>
<g id="_x31_54">
</g>
<g id="_x31_55">
</g>
<g id="_x31_56">
</g>
<g id="_x31_57">
</g>
<g id="_x31_58">
</g>
<g id="_x31_59">
</g>
<g id="_x31_60">
</g>
<g id="_x31_61">
</g>
<g id="_x31_62">
</g>
<g id="_x31_63">
</g>
<g id="_x31_64">
</g>
<g id="_x31_65">
</g>
<g id="_x31_66">
</g>
<g id="_x31_67">
</g>
<g id="_x31_68">
</g>
<g id="_x31_69">
</g>
<g id="_x31_70">
</g>
<g id="_x31_71">
</g>
<g id="_x31_72">
</g>
<g id="_x31_73">
</g>
<g id="_x31_74">
	<g>
		<path d="M17.991,36.34c-0.278,0-0.471,0-0.604,0c-0.188,0-0.256,0-0.257,0c-0.133,0-0.325,0-0.604,0c-1.553,0-1.553,2.5,0,2.5
			c0.279,0,0.472,0,0.604,0c0.188,0,0.256,0,0.257,0c0.133,0,0.325,0,0.604,0C19.546,38.84,19.546,36.34,17.991,36.34z"/>
		<path d="M17.991,27.813c-0.278,0-0.471,0-0.604,0c-0.188,0-0.256,0-0.257,0c-0.133,0-0.325,0-0.604,0c-1.553,0-1.553,2.5,0,2.5
			c0.279,0,0.472,0,0.604,0c0.188,0,0.256,0,0.257,0c0.133,0,0.325,0,0.604,0C19.546,30.313,19.546,27.813,17.991,27.813z"/>
		<path d="M17.991,31.854c-0.278,0-0.471,0-0.604,0c-0.188,0-0.256,0-0.257,0c-0.133,0-0.325,0-0.604,0c-1.553,0-1.553,2.5,0,2.5
			c0.279,0,0.472,0,0.604,0c0.188,0,0.256,0,0.257,0c0.133,0,0.325,0,0.604,0C19.546,34.354,19.546,31.854,17.991,31.854z"/>
		<path d="M17.991,23.507c-0.278,0-0.471,0-0.604,0c-0.188,0-0.256,0-0.257,0c-0.133,0-0.325,0-0.604,0c-1.553,0-1.553,2.5,0,2.5
			c0.279,0,0.472,0,0.604,0c0.188,0,0.256,0,0.257,0c0.133,0,0.325,0,0.604,0C19.546,26.007,19.546,23.507,17.991,23.507z"/>
		<path d="M17.991,14.979c-0.278,0-0.471,0-0.604,0c-0.188,0-0.256,0-0.257,0c-0.133,0-0.325,0-0.604,0c-1.553,0-1.553,2.5,0,2.5
			c0.279,0,0.472,0,0.604,0c0.188,0,0.256,0,0.257,0c0.133,0,0.325,0,0.604,0C19.546,17.479,19.546,14.979,17.991,14.979z"/>
		<path d="M17.991,19.021c-0.278,0-0.471,0-0.604,0c-0.188,0-0.256,0-0.257,0c-0.133,0-0.325,0-0.604,0c-1.553,0-1.553,2.5,0,2.5
			c0.279,0,0.472,0,0.604,0c0.188,0,0.256,0,0.257,0c0.133,0,0.325,0,0.604,0C19.546,21.521,19.546,19.021,17.991,19.021z"/>
		<path d="M23.074,36.34c-0.278,0-0.471,0-0.604,0c-0.188,0-0.256,0-0.256,0c-0.134,0-0.326,0-0.605,0c-1.553,0-1.553,2.5,0,2.5
			c0.279,0,0.472,0,0.604,0c0.188,0,0.256,0,0.256,0c0.134,0,0.326,0,0.604,0C24.629,38.84,24.629,36.34,23.074,36.34z"/>
		<path d="M23.074,27.813c-0.278,0-0.471,0-0.604,0c-0.188,0-0.256,0-0.256,0c-0.134,0-0.326,0-0.605,0c-1.553,0-1.553,2.5,0,2.5
			c0.279,0,0.472,0,0.604,0c0.188,0,0.256,0,0.256,0c0.134,0,0.326,0,0.604,0C24.629,30.313,24.629,27.813,23.074,27.813z"/>
		<path d="M23.074,31.854c-0.278,0-0.471,0-0.604,0c-0.188,0-0.256,0-0.256,0c-0.134,0-0.326,0-0.605,0c-1.553,0-1.553,2.5,0,2.5
			c0.279,0,0.472,0,0.604,0c0.188,0,0.256,0,0.256,0c0.134,0,0.326,0,0.604,0C24.629,34.354,24.629,31.854,23.074,31.854z"/>
		<path d="M23.074,23.507c-0.278,0-0.471,0-0.604,0c-0.188,0-0.256,0-0.256,0c-0.134,0-0.326,0-0.605,0c-1.553,0-1.553,2.5,0,2.5
			c0.279,0,0.472,0,0.604,0c0.188,0,0.256,0,0.256,0c0.134,0,0.326,0,0.604,0C24.629,26.007,24.629,23.507,23.074,23.507z"/>
		<path d="M23.074,14.979c-0.278,0-0.471,0-0.604,0c-0.188,0-0.256,0-0.256,0c-0.134,0-0.326,0-0.605,0c-1.553,0-1.553,2.5,0,2.5
			c0.279,0,0.472,0,0.604,0c0.188,0,0.256,0,0.256,0c0.134,0,0.326,0,0.604,0C24.629,17.479,24.629,14.979,23.074,14.979z"/>
		<path d="M23.074,19.021c-0.278,0-0.471,0-0.604,0c-0.188,0-0.256,0-0.256,0c-0.134,0-0.326,0-0.605,0c-1.553,0-1.553,2.5,0,2.5
			c0.279,0,0.472,0,0.604,0c0.188,0,0.256,0,0.256,0c0.134,0,0.326,0,0.604,0C24.629,21.521,24.629,19.021,23.074,19.021z"/>
		<path d="M28.39,36.34c-0.278,0-0.471,0-0.604,0c-0.188,0-0.256,0-0.257,0c-0.133,0-0.325,0-0.604,0c-1.553,0-1.553,2.5,0,2.5
			c0.279,0,0.472,0,0.604,0c0.188,0,0.256,0,0.257,0c0.133,0,0.325,0,0.604,0C29.944,38.84,29.944,36.34,28.39,36.34z"/>
		<path d="M28.39,27.813c-0.278,0-0.471,0-0.604,0c-0.188,0-0.256,0-0.257,0c-0.133,0-0.325,0-0.604,0c-1.553,0-1.553,2.5,0,2.5
			c0.279,0,0.472,0,0.604,0c0.188,0,0.256,0,0.257,0c0.133,0,0.325,0,0.604,0C29.944,30.313,29.944,27.813,28.39,27.813z"/>
		<path d="M28.39,31.854c-0.278,0-0.471,0-0.604,0c-0.188,0-0.256,0-0.257,0c-0.133,0-0.325,0-0.604,0c-1.553,0-1.553,2.5,0,2.5
			c0.279,0,0.472,0,0.604,0c0.188,0,0.256,0,0.257,0c0.133,0,0.325,0,0.604,0C29.944,34.354,29.944,31.854,28.39,31.854z"/>
		<path d="M28.39,23.507c-0.278,0-0.471,0-0.604,0c-0.188,0-0.256,0-0.257,0c-0.133,0-0.325,0-0.604,0c-1.553,0-1.553,2.5,0,2.5
			c0.279,0,0.472,0,0.604,0c0.188,0,0.256,0,0.257,0c0.133,0,0.325,0,0.604,0C29.944,26.007,29.944,23.507,28.39,23.507z"/>
		<path d="M28.39,14.979c-0.278,0-0.471,0-0.604,0c-0.188,0-0.256,0-0.257,0c-0.133,0-0.325,0-0.604,0c-1.553,0-1.553,2.5,0,2.5
			c0.279,0,0.472,0,0.604,0c0.188,0,0.256,0,0.257,0c0.133,0,0.325,0,0.604,0C29.944,17.479,29.944,14.979,28.39,14.979z"/>
		<path d="M28.39,19.021c-0.278,0-0.471,0-0.604,0c-0.188,0-0.256,0-0.257,0c-0.133,0-0.325,0-0.604,0c-1.553,0-1.553,2.5,0,2.5
			c0.279,0,0.472,0,0.604,0c0.188,0,0.256,0,0.257,0c0.133,0,0.325,0,0.604,0C29.944,21.521,29.944,19.021,28.39,19.021z"/>
		<path d="M33.473,36.34c-0.278,0-0.471,0-0.604,0c-0.188,0-0.256,0-0.256,0c-0.134,0-0.326,0-0.605,0c-1.553,0-1.553,2.5,0,2.5
			c0.279,0,0.472,0,0.604,0c0.188,0,0.256,0,0.256,0c0.134,0,0.326,0,0.604,0C35.027,38.84,35.027,36.34,33.473,36.34z"/>
		<path d="M33.473,27.813c-0.278,0-0.471,0-0.604,0c-0.188,0-0.256,0-0.256,0c-0.134,0-0.326,0-0.605,0c-1.553,0-1.553,2.5,0,2.5
			c0.279,0,0.472,0,0.604,0c0.188,0,0.256,0,0.256,0c0.134,0,0.326,0,0.604,0C35.027,30.313,35.027,27.813,33.473,27.813z"/>
		<path d="M33.473,31.854c-0.278,0-0.471,0-0.604,0c-0.188,0-0.256,0-0.256,0c-0.134,0-0.326,0-0.605,0c-1.553,0-1.553,2.5,0,2.5
			c0.279,0,0.472,0,0.604,0c0.188,0,0.256,0,0.256,0c0.134,0,0.326,0,0.604,0C35.027,34.354,35.027,31.854,33.473,31.854z"/>
		<path d="M33.473,23.507c-0.278,0-0.471,0-0.604,0c-0.188,0-0.256,0-0.256,0c-0.134,0-0.326,0-0.605,0c-1.553,0-1.553,2.5,0,2.5
			c0.279,0,0.472,0,0.604,0c0.188,0,0.256,0,0.256,0c0.134,0,0.326,0,0.604,0C35.027,26.007,35.027,23.507,33.473,23.507z"/>
		<path d="M33.473,14.979c-0.278,0-0.471,0-0.604,0c-0.188,0-0.256,0-0.256,0c-0.134,0-0.326,0-0.605,0c-1.553,0-1.553,2.5,0,2.5
			c0.279,0,0.472,0,0.604,0c0.188,0,0.256,0,0.256,0c0.134,0,0.326,0,0.604,0C35.027,17.479,35.027,14.979,33.473,14.979z"/>
		<path d="M33.473,19.021c-0.278,0-0.471,0-0.604,0c-0.188,0-0.256,0-0.256,0c-0.134,0-0.326,0-0.605,0c-1.553,0-1.553,2.5,0,2.5
			c0.279,0,0.472,0,0.604,0c0.188,0,0.256,0,0.256,0c0.134,0,0.326,0,0.604,0C35.027,21.521,35.027,19.021,33.473,19.021z"/>
		<path d="M35.901,2.472H7.651v45.057h34.697V8.723L35.901,2.472z M39.349,44.528H10.651V5.472h23.705v4.76h4.992V44.528z"/>
	</g>
</g>
<g id="_x31_75">
</g>
<g id="_x31_76">
</g>
<g id="_x31_77">
</g>
<g id="_x31_78">
</g>
<g id="_x31_79">
</g>
<g id="_x31_80">
</g>
<g id="_x31_81">
</g>
<g id="_x31_82">
</g>
<g id="_x31_83">
</g>
<g id="_x31_84">
</g>
<g id="_x31_85">
</g>
<g id="_x31_86">
</g>
<g id="_x31_87">
</g>
<g id="_x31_88">
</g>
<g id="_x31_89">
</g>
<g id="_x31_90">
</g>
</svg>
