<?xml version="1.0" encoding="utf-8"?>
<!-- Generator: Adobe Illustrator 16.0.0, SVG Export Plug-In . SVG Version: 6.00 Build 0)  -->
<!DOCTYPE svg PUBLIC "-//W3C//DTD SVG 1.1//EN" "http://www.w3.org/Graphics/SVG/1.1/DTD/svg11.dtd">
<svg version="1.1" xmlns="http://www.w3.org/2000/svg" xmlns:xlink="http://www.w3.org/1999/xlink" x="0px" y="0px" width="50px"
	 height="50px" viewBox="0 0 50 50" enable-background="new 0 0 50 50" xml:space="preserve">
<g id="text">
</g>
<g id="_x31_">
</g>
<g id="_x32_">
</g>
<g id="_x33__1_">
</g>
<g id="_x34_">
</g>
<g id="_x35_">
</g>
<g id="_x36_">
</g>
<g id="_x37_">
</g>
<g id="_x38_">
</g>
<g id="_x39_">
</g>
<g id="_x31_0">
</g>
<g id="_x31_1">
</g>
<g id="_x31_2">
</g>
<g id="_x31_3">
</g>
<g id="_x31_4">
</g>
<g id="_x31_5">
</g>
<g id="_x31_6">
</g>
<g id="_x31_7">
</g>
<g id="_x31_8">
</g>
<g id="_x31_9">
</g>
<g id="_x32_0">
</g>
<g id="_x32_1">
</g>
<g id="_x32_2">
</g>
<g id="_x32_3">
</g>
<g id="_x32_4">
</g>
<g id="_x32_5">
</g>
<g id="_x32_6">
</g>
<g id="_x32_7">
</g>
<g id="_x32_8">
</g>
<g id="_x32_9">
</g>
<g id="_x33_0">
</g>
<g id="_x33_1">
</g>
<g id="_x33_2">
</g>
<g id="_x33_3">
</g>
<g id="_x33_4">
</g>
<g id="_x33_5">
</g>
<g id="_x33_6">
</g>
<g id="_x33_7">
</g>
<g id="_x33_8">
</g>
<g id="_x33_9">
</g>
<g id="_x34_0">
</g>
<g id="_x34_1">
</g>
<g id="_x34_2">
</g>
<g id="_x34_3">
</g>
<g id="_x34_4">
</g>
<g id="_x34_5">
</g>
<g id="_x34_6">
</g>
<g id="_x34_7">
</g>
<g id="_x34_8">
</g>
<g id="_x34_9">
</g>
<g id="_x35_0">
</g>
<g id="_x35_1">
</g>
<g id="_x35_2">
</g>
<g id="_x35_3">
</g>
<g id="_x35_4">
</g>
<g id="_x35_5">
</g>
<g id="_x35_6">
</g>
<g id="_x35_7">
</g>
<g id="_x35_8">
</g>
<g id="_x35_9">
</g>
<g id="_x36_0">
</g>
<g id="_x36_1">
</g>
<g id="_x36_2">
</g>
<g id="_x36_3">
</g>
<g id="_x36_4">
</g>
<g id="_x36_5">
</g>
<g id="_x36_6">
</g>
<g id="_x36_7">
</g>
<g id="_x36_8">
</g>
<g id="_x36_9">
</g>
<g id="_x37_0">
</g>
<g id="_x37_1">
</g>
<g id="_x37_2">
</g>
<g id="_x37_3">
</g>
<g id="_x37_4">
</g>
<g id="_x37_5">
</g>
<g id="_x37_6">
</g>
<g id="_x37_7">
</g>
<g id="_x37_8">
</g>
<g id="_x37_9">
</g>
<g id="_x38_0">
</g>
<g id="_x38_1">
</g>
<g id="_x38_2">
</g>
<g id="_x38_3">
</g>
<g id="_x38_4">
</g>
<g id="_x38_5">
</g>
<g id="_x38_6">
</g>
<g id="_x38_7">
</g>
<g id="_x38_8">
</g>
<g id="_x38_9">
</g>
<g id="_x39_0">
</g>
<g id="_x39_1">
</g>
<g id="_x39_2">
</g>
<g id="_x39_3">
</g>
<g id="_x39_4">
</g>
<g id="_x39_5">
</g>
<g id="_x39_6">
</g>
<g id="_x39_7">
</g>
<g id="_x39_8">
</g>
<g id="_x39_9">
</g>
<g id="_x31_00">
</g>
<g id="_x31_01">
</g>
<g id="_x31_02">
</g>
<g id="_x31_03">
</g>
<g id="_x31_04">
</g>
<g id="_x31_05">
</g>
<g id="_x31_06">
</g>
<g id="_x31_07">
</g>
<g id="_x31_08">
</g>
<g id="_x31_09">
</g>
<g id="_x31_10">
</g>
<g id="_x31_11">
</g>
<g id="_x31_12">
</g>
<g id="_x31_13">
</g>
<g id="_x31_14">
</g>
<g id="_x31_15">
</g>
<g id="_x31_16">
</g>
<g id="_x31_17">
</g>
<g id="_x31_18">
</g>
<g id="_x31_19">
</g>
<g id="_x31_20">
</g>
<g id="_x31_21">
</g>
<g id="_x31_22">
</g>
<g id="_x31_23">
</g>
<g id="_x31_24">
</g>
<g id="_x31_25">
</g>
<g id="_x31_26">
</g>
<g id="_x31_27">
</g>
<g id="_x31_28">
</g>
<g id="_x31_29">
</g>
<g id="_x31_30">
</g>
<g id="_x31_31">
</g>
<g id="_x31_32">
</g>
<g id="_x31_33">
</g>
<g id="_x31_34">
</g>
<g id="_x31_35">
</g>
<g id="_x31_36">
</g>
<g id="_x31_37">
</g>
<g id="_x31_38">
</g>
<g id="_x31_39">
</g>
<g id="_x31_40">
</g>
<g id="_x31_41">
</g>
<g id="_x31_42">
</g>
<g id="_x31_43">
</g>
<g id="_x31_44">
</g>
<g id="_x31_45">
</g>
<g id="_x31_46">
</g>
<g id="_x31_47">
</g>
<g id="_x31_48">
</g>
<g id="_x31_49">
</g>
<g id="_x31_50">
</g>
<g id="_x31_51">
</g>
<g id="_x31_52">
</g>
<g id="_x31_53">
</g>
<g id="_x31_54">
</g>
<g id="_x31_55">
</g>
<g id="_x31_56">
</g>
<g id="_x31_57">
</g>
<g id="_x31_58">
</g>
<g id="_x31_59">
</g>
<g id="_x31_60">
</g>
<g id="_x31_61">
</g>
<g id="_x31_62">
</g>
<g id="_x31_63">
</g>
<g id="_x31_64">
</g>
<g id="_x31_65">
</g>
<g id="_x31_66">
</g>
<g id="_x31_67">
</g>
<g id="_x31_68">
</g>
<g id="_x31_69">
</g>
<g id="_x31_70">
</g>
<g id="_x31_71">
</g>
<g id="_x31_72">
</g>
<g id="_x31_73">
</g>
<g id="_x31_74">
</g>
<g id="_x31_75">
</g>
<g id="_x31_76">
	<g>
		<path d="M17.811,17.298c0.295,0.343,0.602,0.699,0.949,1.019c0.171,0.156,0.391,0.242,0.617,0.242
			c0.388,0,0.733-0.252,0.859-0.629c0.299-0.895,0.916-1.768,1.513-2.613c0.138-0.196,0.275-0.389,0.406-0.58
			c0.184-0.269,0.206-0.593,0.061-0.868c-0.292-0.553-1.201-0.638-1.574-0.093l-0.334,0.481c-0.408,0.587-0.828,1.188-1.181,1.821
			c-0.005-0.005-0.011-0.012-0.017-0.018l-0.217-0.25c-0.409-0.469-1.201-0.313-1.456,0.25c-0.149,0.327-0.094,0.699,0.143,0.971
			L17.811,17.298z"/>
		<path d="M23.893,11.891h-8.42v8.42h8.42V11.891z M22.893,19.311h-6.42v-6.42h6.42V19.311z"/>
		<path d="M28.445,17.18c0.295,0.344,0.602,0.7,0.949,1.02c0.171,0.156,0.391,0.242,0.617,0.242c0.388,0,0.733-0.252,0.859-0.629
			c0.299-0.895,0.916-1.768,1.513-2.613c0.138-0.196,0.275-0.39,0.406-0.58c0.184-0.27,0.206-0.594,0.061-0.869
			c-0.292-0.553-1.201-0.637-1.574-0.093l-0.334,0.482c-0.408,0.587-0.828,1.188-1.181,1.821c-0.005-0.006-0.011-0.012-0.017-0.019
			l-0.217-0.249c-0.409-0.469-1.201-0.313-1.456,0.25c-0.149,0.327-0.094,0.699,0.143,0.971L28.445,17.18z"/>
		<path d="M34.527,11.773h-8.42v8.419h8.42V11.773z M33.527,19.192h-6.42v-6.419h6.42V19.192z"/>
		<path d="M17.811,27.109c0.295,0.344,0.602,0.699,0.949,1.019c0.171,0.156,0.391,0.243,0.617,0.243
			c0.388,0,0.733-0.253,0.859-0.629c0.299-0.896,0.916-1.769,1.513-2.614c0.138-0.196,0.275-0.389,0.406-0.58
			c0.184-0.269,0.206-0.593,0.061-0.868c-0.292-0.553-1.201-0.637-1.574-0.093l-0.334,0.481c-0.408,0.587-0.828,1.188-1.181,1.822
			c-0.005-0.006-0.011-0.013-0.017-0.019l-0.217-0.25c-0.409-0.468-1.201-0.313-1.456,0.251c-0.149,0.326-0.094,0.698,0.143,0.97
			L17.811,27.109z"/>
		<path d="M23.893,21.702h-8.42v8.42h8.42V21.702z M22.893,29.122h-6.42v-6.42h6.42V29.122z"/>
		<path d="M28.445,26.992c0.295,0.343,0.602,0.699,0.949,1.019c0.171,0.156,0.391,0.242,0.617,0.242
			c0.388,0,0.733-0.252,0.859-0.629c0.299-0.895,0.916-1.768,1.513-2.613c0.138-0.196,0.275-0.39,0.406-0.58
			c0.184-0.27,0.206-0.593,0.061-0.868c-0.292-0.553-1.201-0.638-1.574-0.093l-0.334,0.481c-0.408,0.587-0.828,1.188-1.181,1.821
			c-0.005-0.005-0.011-0.012-0.017-0.019l-0.217-0.249c-0.409-0.469-1.201-0.313-1.456,0.25c-0.149,0.327-0.094,0.699,0.143,0.971
			L28.445,26.992z"/>
		<path d="M34.527,21.585h-8.42v8.419h8.42V21.585z M33.527,29.004h-6.42v-6.419h6.42V29.004z"/>
		<path d="M17.811,36.921c0.295,0.344,0.602,0.699,0.949,1.019c0.171,0.156,0.391,0.243,0.617,0.243
			c0.388,0,0.733-0.253,0.859-0.629c0.299-0.896,0.916-1.769,1.513-2.614c0.138-0.196,0.275-0.389,0.406-0.58
			c0.184-0.269,0.206-0.593,0.061-0.868c-0.292-0.553-1.201-0.637-1.574-0.093l-0.334,0.482c-0.408,0.586-0.828,1.188-1.181,1.821
			c-0.005-0.006-0.011-0.013-0.017-0.019l-0.217-0.25c-0.409-0.468-1.201-0.313-1.456,0.251c-0.149,0.327-0.094,0.698,0.143,0.97
			L17.811,36.921z"/>
		<path d="M23.893,31.515h-8.42v8.419h8.42V31.515z M22.893,38.934h-6.42v-6.419h6.42V38.934z"/>
		<path d="M28.445,36.804c0.295,0.343,0.602,0.699,0.949,1.019c0.171,0.156,0.391,0.242,0.617,0.242
			c0.388,0,0.733-0.252,0.859-0.629c0.299-0.895,0.916-1.768,1.513-2.613c0.138-0.196,0.275-0.389,0.406-0.58
			c0.184-0.269,0.206-0.593,0.061-0.868c-0.292-0.553-1.201-0.638-1.574-0.093l-0.334,0.481c-0.408,0.587-0.828,1.188-1.181,1.821
			c-0.005-0.005-0.011-0.012-0.017-0.018l-0.217-0.25c-0.409-0.469-1.201-0.313-1.456,0.25c-0.149,0.327-0.094,0.699,0.143,0.971
			L28.445,36.804z"/>
		<path d="M34.527,31.396h-8.42v8.42h8.42V31.396z M33.527,38.816h-6.42v-6.42h6.42V38.816z"/>
		<path d="M7.473,2.917v44.166h35.054V2.917H7.473z M39.527,44.083H10.473V5.917h29.054V44.083z"/>
	</g>
</g>
<g id="_x31_77">
</g>
<g id="_x31_78">
</g>
<g id="_x31_79">
</g>
<g id="_x31_80">
</g>
<g id="_x31_81">
</g>
<g id="_x31_82">
</g>
<g id="_x31_83">
</g>
<g id="_x31_84">
</g>
<g id="_x31_85">
</g>
<g id="_x31_86">
</g>
<g id="_x31_87">
</g>
<g id="_x31_88">
</g>
<g id="_x31_89">
</g>
<g id="_x31_90">
</g>
</svg>
