<?xml version="1.0" encoding="utf-8"?>
<!-- Generator: Adobe Illustrator 16.0.4, SVG Export Plug-In . SVG Version: 6.00 Build 0)  -->
<!DOCTYPE svg PUBLIC "-//W3C//DTD SVG 1.1//EN" "http://www.w3.org/Graphics/SVG/1.1/DTD/svg11.dtd">
<svg version="1.1" id="Capa_1" xmlns="http://www.w3.org/2000/svg" xmlns:xlink="http://www.w3.org/1999/xlink" x="0px" y="0px"
	 width="50px" height="50px" viewBox="0 0 50 50" enable-background="new 0 0 50 50" xml:space="preserve">
<path d="M30.911,24.546c0-4.415-3.593-8.009-8.009-8.009c-4.416,0-8.008,3.594-8.008,8.009c0,4.417,3.593,8.011,8.008,8.011
	C27.318,32.557,30.911,28.963,30.911,24.546z M22.902,30.545c-3.307,0-5.998-2.689-5.998-5.999c0-3.307,2.691-5.997,5.998-5.997
	c3.308,0,5.999,2.69,5.999,5.997C28.9,27.854,26.209,30.545,22.902,30.545z"/>
<path d="M34.449,38.213l-6.152-6.154l1.771-1.771l6.152,6.154L34.449,38.213z"/>
<path d="M35.902,2.472H7.651v45.057H42.35V8.723L35.902,2.472z M39.35,44.527H10.651V5.472h23.707v4.76h4.992V44.527z"/>
</svg>
