<?xml version="1.0" encoding="utf-8"?>
<!-- Generator: Adobe Illustrator 16.0.0, SVG Export Plug-In . SVG Version: 6.00 Build 0)  -->
<!DOCTYPE svg PUBLIC "-//W3C//DTD SVG 1.1//EN" "http://www.w3.org/Graphics/SVG/1.1/DTD/svg11.dtd">
<svg version="1.1" xmlns="http://www.w3.org/2000/svg" xmlns:xlink="http://www.w3.org/1999/xlink" x="0px" y="0px" width="50px"
	 height="50px" viewBox="0 0 50 50" enable-background="new 0 0 50 50" xml:space="preserve">
<g id="text">
</g>
<g id="_x31_">
</g>
<g id="_x32_">
</g>
<g id="_x33__1_">
</g>
<g id="_x34_">
</g>
<g id="_x35_">
</g>
<g id="_x36_">
</g>
<g id="_x37_">
</g>
<g id="_x38_">
</g>
<g id="_x39_">
</g>
<g id="_x31_0">
</g>
<g id="_x31_1">
</g>
<g id="_x31_2">
</g>
<g id="_x31_3">
</g>
<g id="_x31_4">
</g>
<g id="_x31_5">
</g>
<g id="_x31_6">
</g>
<g id="_x31_7">
</g>
<g id="_x31_8">
</g>
<g id="_x31_9">
</g>
<g id="_x32_0">
</g>
<g id="_x32_1">
</g>
<g id="_x32_2">
</g>
<g id="_x32_3">
</g>
<g id="_x32_4">
</g>
<g id="_x32_5">
</g>
<g id="_x32_6">
</g>
<g id="_x32_7">
</g>
<g id="_x32_8">
</g>
<g id="_x32_9">
</g>
<g id="_x33_0">
</g>
<g id="_x33_1">
</g>
<g id="_x33_2">
</g>
<g id="_x33_3">
</g>
<g id="_x33_4">
</g>
<g id="_x33_5">
</g>
<g id="_x33_6">
</g>
<g id="_x33_7">
</g>
<g id="_x33_8">
</g>
<g id="_x33_9">
</g>
<g id="_x34_0">
</g>
<g id="_x34_1">
</g>
<g id="_x34_2">
</g>
<g id="_x34_3">
</g>
<g id="_x34_4">
</g>
<g id="_x34_5">
</g>
<g id="_x34_6">
</g>
<g id="_x34_7">
</g>
<g id="_x34_8">
</g>
<g id="_x34_9">
</g>
<g id="_x35_0">
</g>
<g id="_x35_1">
</g>
<g id="_x35_2">
</g>
<g id="_x35_3">
</g>
<g id="_x35_4">
</g>
<g id="_x35_5">
</g>
<g id="_x35_6">
</g>
<g id="_x35_7">
</g>
<g id="_x35_8">
</g>
<g id="_x35_9">
</g>
<g id="_x36_0">
</g>
<g id="_x36_1">
</g>
<g id="_x36_2">
</g>
<g id="_x36_3">
</g>
<g id="_x36_4">
</g>
<g id="_x36_5">
</g>
<g id="_x36_6">
</g>
<g id="_x36_7">
</g>
<g id="_x36_8">
</g>
<g id="_x36_9">
</g>
<g id="_x37_0">
</g>
<g id="_x37_1">
</g>
<g id="_x37_2">
</g>
<g id="_x37_3">
</g>
<g id="_x37_4">
</g>
<g id="_x37_5">
</g>
<g id="_x37_6">
</g>
<g id="_x37_7">
</g>
<g id="_x37_8">
</g>
<g id="_x37_9">
</g>
<g id="_x38_0">
</g>
<g id="_x38_1">
	<g>
		<path d="M31.163,31.18c-0.014-0.318-0.049-0.634-0.114-0.938c0.438-0.376,1.314-1.125,1.314-1.125v-1.512l-2.159-2.518H28.69
			c0,0-0.717,0.614-1.075,0.922c-0.389-0.188-0.8-0.344-1.229-0.461c-0.035-0.426-0.104-1.279-0.104-1.279l-1.069-1.069
			l-3.303,0.268l-1.069,1.069c0,0,0.091,1.122,0.135,1.683c-0.323,0.184-0.629,0.393-0.913,0.623
			c-0.464-0.213-1.395-0.638-1.395-0.638l-1.463,0.385l-1.383,3.015l-0.049,0.205l0.433,1.258c0,0,1.079,0.492,1.62,0.739
			c0.024,0.356,0.079,0.702,0.167,1.039c-0.412,0.348-1.235,1.048-1.235,1.048v1.511l2.142,2.529c0,0,1.246,0.148,1.313,0.111
			s0.201-0.111,0.201-0.111s0.783-0.662,1.174-0.994c0.331,0.147,0.674,0.272,1.032,0.369c0.041,0.444,0.122,1.333,0.122,1.333
			l1.069,1.069l3.298-0.301l1.069-1.069c0,0-0.104-1.146-0.155-1.719c0.27-0.154,0.529-0.323,0.772-0.512
			c0.43,0.248,1.288,0.745,1.288,0.745l1.463-0.385l1.66-2.869l-0.384-1.463C32.82,32.138,31.715,31.498,31.163,31.18z M24.31,34.79
			c-1.841,0-3.334-1.493-3.334-3.335c0-1.843,1.493-3.335,3.334-3.335c1.843,0,3.336,1.492,3.336,3.335
			C27.646,33.297,26.153,34.79,24.31,34.79z"/>
		<path d="M33.037,16.544c-0.009-0.193-0.03-0.385-0.069-0.569c0.266-0.228,0.796-0.682,0.796-0.682v-0.917l-1.309-1.526h-0.917
			c0,0-0.435,0.372-0.652,0.559c-0.236-0.114-0.485-0.208-0.745-0.279c-0.021-0.258-0.063-0.775-0.063-0.775l-0.648-0.648
			l-2.003,0.162l-0.648,0.648c0,0,0.055,0.681,0.082,1.021c-0.196,0.111-0.381,0.237-0.554,0.378
			c-0.281-0.13-0.846-0.387-0.846-0.387l-0.887,0.232l-0.839,1.828l-0.029,0.125l0.263,0.762c0,0,0.654,0.299,0.982,0.449
			c0.014,0.216,0.047,0.425,0.101,0.63c-0.25,0.21-0.749,0.635-0.749,0.635v0.916l1.299,1.534c0,0,0.755,0.09,0.796,0.067
			c0.041-0.022,0.122-0.067,0.122-0.067s0.475-0.402,0.712-0.604c0.2,0.09,0.409,0.165,0.626,0.224
			c0.024,0.27,0.074,0.809,0.074,0.809l0.648,0.648l2-0.183l0.648-0.648c0,0-0.063-0.694-0.094-1.042
			c0.164-0.094,0.321-0.196,0.468-0.31c0.261,0.15,0.781,0.451,0.781,0.451l0.887-0.233l1.006-1.739l-0.233-0.887
			C34.042,17.125,33.372,16.736,33.037,16.544z M28.882,18.732c-1.116,0-2.021-0.905-2.021-2.021c0-1.117,0.905-2.022,2.021-2.022
			c1.118,0,2.023,0.905,2.023,2.022C30.905,17.827,30,18.732,28.882,18.732z"/>
		<path d="M35.902,2.472H7.651v45.057h34.698V8.723L35.902,2.472z M39.349,44.528H10.651V5.472h23.706v4.76h4.992V44.528z"/>
	</g>
</g>
<g id="_x38_2">
</g>
<g id="_x38_3">
</g>
<g id="_x38_4">
</g>
<g id="_x38_5">
</g>
<g id="_x38_6">
</g>
<g id="_x38_7">
</g>
<g id="_x38_8">
</g>
<g id="_x38_9">
</g>
<g id="_x39_0">
</g>
<g id="_x39_1">
</g>
<g id="_x39_2">
</g>
<g id="_x39_3">
</g>
<g id="_x39_4">
</g>
<g id="_x39_5">
</g>
<g id="_x39_6">
</g>
<g id="_x39_7">
</g>
<g id="_x39_8">
</g>
<g id="_x39_9">
</g>
<g id="_x31_00">
</g>
<g id="_x31_01">
</g>
<g id="_x31_02">
</g>
<g id="_x31_03">
</g>
<g id="_x31_04">
</g>
<g id="_x31_05">
</g>
<g id="_x31_06">
</g>
<g id="_x31_07">
</g>
<g id="_x31_08">
</g>
<g id="_x31_09">
</g>
<g id="_x31_10">
</g>
<g id="_x31_11">
</g>
<g id="_x31_12">
</g>
<g id="_x31_13">
</g>
<g id="_x31_14">
</g>
<g id="_x31_15">
</g>
<g id="_x31_16">
</g>
<g id="_x31_17">
</g>
<g id="_x31_18">
</g>
<g id="_x31_19">
</g>
<g id="_x31_20">
</g>
<g id="_x31_21">
</g>
<g id="_x31_22">
</g>
<g id="_x31_23">
</g>
<g id="_x31_24">
</g>
<g id="_x31_25">
</g>
<g id="_x31_26">
</g>
<g id="_x31_27">
</g>
<g id="_x31_28">
</g>
<g id="_x31_29">
</g>
<g id="_x31_30">
</g>
<g id="_x31_31">
</g>
<g id="_x31_32">
</g>
<g id="_x31_33">
</g>
<g id="_x31_34">
</g>
<g id="_x31_35">
</g>
<g id="_x31_36">
</g>
<g id="_x31_37">
</g>
<g id="_x31_38">
</g>
<g id="_x31_39">
</g>
<g id="_x31_40">
</g>
<g id="_x31_41">
</g>
<g id="_x31_42">
</g>
<g id="_x31_43">
</g>
<g id="_x31_44">
</g>
<g id="_x31_45">
</g>
<g id="_x31_46">
</g>
<g id="_x31_47">
</g>
<g id="_x31_48">
</g>
<g id="_x31_49">
</g>
<g id="_x31_50">
</g>
<g id="_x31_51">
</g>
<g id="_x31_52">
</g>
<g id="_x31_53">
</g>
<g id="_x31_54">
</g>
<g id="_x31_55">
</g>
<g id="_x31_56">
</g>
<g id="_x31_57">
</g>
<g id="_x31_58">
</g>
<g id="_x31_59">
</g>
<g id="_x31_60">
</g>
<g id="_x31_61">
</g>
<g id="_x31_62">
</g>
<g id="_x31_63">
</g>
<g id="_x31_64">
</g>
<g id="_x31_65">
</g>
<g id="_x31_66">
</g>
<g id="_x31_67">
</g>
<g id="_x31_68">
</g>
<g id="_x31_69">
</g>
<g id="_x31_70">
</g>
<g id="_x31_71">
</g>
<g id="_x31_72">
</g>
<g id="_x31_73">
</g>
<g id="_x31_74">
</g>
<g id="_x31_75">
</g>
<g id="_x31_76">
</g>
<g id="_x31_77">
</g>
<g id="_x31_78">
</g>
<g id="_x31_79">
</g>
<g id="_x31_80">
</g>
<g id="_x31_81">
</g>
<g id="_x31_82">
</g>
<g id="_x31_83">
</g>
<g id="_x31_84">
</g>
<g id="_x31_85">
</g>
<g id="_x31_86">
</g>
<g id="_x31_87">
</g>
<g id="_x31_88">
</g>
<g id="_x31_89">
</g>
<g id="_x31_90">
</g>
</svg>
