<?xml version="1.0" encoding="utf-8"?>
<!-- Generator: Adobe Illustrator 16.0.4, SVG Export Plug-In . SVG Version: 6.00 Build 0)  -->
<!DOCTYPE svg PUBLIC "-//W3C//DTD SVG 1.1//EN" "http://www.w3.org/Graphics/SVG/1.1/DTD/svg11.dtd">
<svg version="1.1" id="Capa_1" xmlns="http://www.w3.org/2000/svg" xmlns:xlink="http://www.w3.org/1999/xlink" x="0px" y="0px"
	 width="50px" height="50px" viewBox="0 0 50 50" enable-background="new 0 0 50 50" xml:space="preserve">
<path d="M39.534,26.359c0.13-6.146-4.765-11.251-10.91-11.381c-6.145-0.13-11.251,4.764-11.381,10.909
	c-0.002,0.103,0.008,0.2,0.009,0.303h-0.001c0,0.031,0.004,0.062,0.004,0.095c0.004,0.315,0.017,0.631,0.048,0.94
	c0.015,0.164,0.042,0.326,0.064,0.489c0.026,0.181,0.048,0.36,0.083,0.537c0.012,0.063,0.017,0.127,0.029,0.188
	c0.005,0,0.01,0,0.016,0c0.131,0.615,0.302,1.215,0.53,1.789c-0.007,0-0.015,0-0.022,0c0.313,0.801,0.721,1.553,1.201,2.252
	c0.016,0,0.031,0,0.048,0c1.066,1.526,2.502,2.774,4.185,3.613c-0.043,0-0.087,0-0.13,0c1.339,0.689,2.833,1.115,4.421,1.209
	c0.002-0.021,0-0.045,0-0.066c0.143,0.009,0.281,0.027,0.426,0.031c1.337,0.027,2.619-0.193,3.818-0.603v0.067
	c0.965-0.328,1.873-0.781,2.7-1.349v-0.071C37.536,33.352,39.455,30.09,39.534,26.359z M28.21,34.469
	c-3.93-0.082-7.168-2.886-7.972-6.568c-0.026-0.125-0.057-0.248-0.077-0.373c-0.022-0.135-0.037-0.271-0.053-0.406
	c-0.032-0.291-0.058-0.585-0.059-0.885c-0.001-0.098-0.011-0.191-0.009-0.291c0.008-0.389,0.052-0.77,0.112-1.144
	c0.004,0,0.007,0,0.011,0c0.134-0.795,0.378-1.55,0.719-2.251c-0.011,0-0.023,0-0.034,0c1.369-2.878,4.328-4.847,7.714-4.775
	c1.221,0.026,2.371,0.32,3.406,0.814v0.066c1.038,0.496,1.954,1.199,2.701,2.055v-0.066c1.32,1.513,2.109,3.494,2.064,5.654
	C36.636,30.902,32.812,34.568,28.21,34.469z M46.571,43.066l-2.517,2.412l-8.381-8.743l2.516-2.413L46.571,43.066z M16.19,15.382
	c-1.94,0-3.88,0-5.821,0c-1.399,0-1.399-2.251,0-2.251c1.941,0,3.881,0,5.821,0C17.59,13.131,17.59,15.382,16.19,15.382z
	 M10.369,19.021c-1.399,0-1.399-2.251,0-2.251c1.941,0,3.881,0,5.821,0c1.399,0,1.399,2.251,0,2.251
	C14.25,19.021,12.311,19.021,10.369,19.021z M34.671,22.395v7.572c-0.661,1.09-1.593,1.995-2.7,2.622v-12.81
	C33.083,20.403,34.012,21.309,34.671,22.395z M31.971,37.79c0.956-0.3,1.858-0.726,2.7-1.241v8.539H3.429V4.518h25.437l5.805,5.629
	v5.66c-0.849-0.516-1.753-0.928-2.7-1.22v-3.081h-4.496V7.219H6.13v35.168h25.841V37.79z M26.691,32.48c-0.363,0-1.106,0-2.085,0
	c-0.942-0.567-1.747-1.338-2.351-2.252c2.108,0,3.819,0,4.437,0C28.09,30.229,28.09,32.48,26.691,32.48z M10.065,30.229
	c0.843,0,3.726,0,6.875,0c0.276,0.785,0.631,1.539,1.067,2.252c-3.544,0-7.004,0-7.942,0C8.667,32.48,8.667,30.229,10.065,30.229z
	 M26.691,28.441c-0.698,0-2.8,0-5.292,0c-0.23-0.711-0.355-1.467-0.355-2.252c2.646,0,4.914,0,5.646,0
	C28.09,26.189,28.09,28.441,26.691,28.441z M10.065,26.189c0.781,0,3.312,0,6.184,0c-0.001,0.763,0.065,1.517,0.203,2.252
	c-2.955,0-5.588,0-6.387,0C8.667,28.441,8.667,26.189,10.065,26.189z M26.691,24.803c-0.721,0-2.925,0-5.512,0
	c0.156-0.804,0.441-1.563,0.838-2.251c2.216,0,4.034,0,4.674,0C28.09,22.552,28.09,24.803,26.691,24.803z M10.065,22.552
	c0.831,0,3.647,0,6.745,0c-0.231,0.725-0.397,1.477-0.487,2.251c-2.903,0-5.47,0-6.258,0C8.667,24.803,8.667,22.552,10.065,22.552z
	 M20.87,38.346c-1.399,0-1.399-2.25,0-2.25c0.165,0,0.33,0,0.495,0c1.687,1.203,3.645,1.945,5.723,2.166
	c-0.117,0.047-0.246,0.084-0.396,0.084C24.75,38.346,22.811,38.346,20.87,38.346z"/>
</svg>
