<?xml version="1.0" encoding="utf-8"?>
<!-- Generator: Adobe Illustrator 16.0.0, SVG Export Plug-In . SVG Version: 6.00 Build 0)  -->
<!DOCTYPE svg PUBLIC "-//W3C//DTD SVG 1.1//EN" "http://www.w3.org/Graphics/SVG/1.1/DTD/svg11.dtd">
<svg version="1.1" xmlns="http://www.w3.org/2000/svg" xmlns:xlink="http://www.w3.org/1999/xlink" x="0px" y="0px" width="50px"
	 height="50px" viewBox="0 0 50 50" enable-background="new 0 0 50 50" xml:space="preserve">
<g id="text">
</g>
<g id="_x31_">
</g>
<g id="_x32_">
</g>
<g id="_x33__1_">
</g>
<g id="_x34_">
</g>
<g id="_x35_">
</g>
<g id="_x36_">
</g>
<g id="_x37_">
</g>
<g id="_x38_">
</g>
<g id="_x39_">
</g>
<g id="_x31_0">
</g>
<g id="_x31_1">
</g>
<g id="_x31_2">
</g>
<g id="_x31_3">
</g>
<g id="_x31_4">
</g>
<g id="_x31_5">
</g>
<g id="_x31_6">
</g>
<g id="_x31_7">
</g>
<g id="_x31_8">
</g>
<g id="_x31_9">
</g>
<g id="_x32_0">
</g>
<g id="_x32_1">
</g>
<g id="_x32_2">
</g>
<g id="_x32_3">
</g>
<g id="_x32_4">
</g>
<g id="_x32_5">
</g>
<g id="_x32_6">
</g>
<g id="_x32_7">
</g>
<g id="_x32_8">
</g>
<g id="_x32_9">
</g>
<g id="_x33_0">
</g>
<g id="_x33_1">
</g>
<g id="_x33_2">
</g>
<g id="_x33_3">
</g>
<g id="_x33_4">
</g>
<g id="_x33_5">
</g>
<g id="_x33_6">
</g>
<g id="_x33_7">
</g>
<g id="_x33_8">
</g>
<g id="_x33_9">
</g>
<g id="_x34_0">
</g>
<g id="_x34_1">
</g>
<g id="_x34_2">
</g>
<g id="_x34_3">
</g>
<g id="_x34_4">
</g>
<g id="_x34_5">
</g>
<g id="_x34_6">
</g>
<g id="_x34_7">
</g>
<g id="_x34_8">
</g>
<g id="_x34_9">
</g>
<g id="_x35_0">
</g>
<g id="_x35_1">
</g>
<g id="_x35_2">
</g>
<g id="_x35_3">
</g>
<g id="_x35_4">
</g>
<g id="_x35_5">
</g>
<g id="_x35_6">
</g>
<g id="_x35_7">
</g>
<g id="_x35_8">
</g>
<g id="_x35_9">
</g>
<g id="_x36_0">
</g>
<g id="_x36_1">
</g>
<g id="_x36_2">
</g>
<g id="_x36_3">
</g>
<g id="_x36_4">
</g>
<g id="_x36_5">
</g>
<g id="_x36_6">
</g>
<g id="_x36_7">
</g>
<g id="_x36_8">
</g>
<g id="_x36_9">
</g>
<g id="_x37_0">
</g>
<g id="_x37_1">
</g>
<g id="_x37_2">
</g>
<g id="_x37_3">
</g>
<g id="_x37_4">
</g>
<g id="_x37_5">
</g>
<g id="_x37_6">
</g>
<g id="_x37_7">
</g>
<g id="_x37_8">
</g>
<g id="_x37_9">
</g>
<g id="_x38_0">
</g>
<g id="_x38_1">
</g>
<g id="_x38_2">
</g>
<g id="_x38_3">
</g>
<g id="_x38_4">
</g>
<g id="_x38_5">
</g>
<g id="_x38_6">
</g>
<g id="_x38_7">
</g>
<g id="_x38_8">
	<g>
		<path d="M31.305,20.088c-0.697-0.6-1.543-1.074-2.533-1.418c-0.99-0.346-2.117-0.52-3.379-0.52c-1.246,0-2.406,0.189-3.48,0.564
			c-1.072,0.375-2.008,0.92-2.803,1.633c-0.797,0.713-1.424,1.596-1.881,2.646c-0.459,1.051-0.688,2.252-0.688,3.604
			c0,1.23,0.221,2.361,0.664,3.389c0.443,1.029,1.055,1.916,1.836,2.658c0.781,0.744,1.701,1.322,2.76,1.734
			c1.059,0.414,2.203,0.619,3.434,0.619c1.637,0,3.037-0.301,4.201-0.9s2.15-1.502,2.963-2.703H29.83
			c-0.57,0.42-1.205,0.74-1.904,0.957c-0.697,0.219-1.594,0.326-2.691,0.326c-0.855,0-1.666-0.139-2.432-0.416
			s-1.441-0.68-2.027-1.205s-1.051-1.164-1.396-1.914s-0.518-1.6-0.518-2.545c0-0.887,0.164-1.705,0.496-2.455
			c0.33-0.752,0.779-1.396,1.35-1.938c0.572-0.541,1.25-0.965,2.039-1.271c0.789-0.309,1.648-0.463,2.58-0.463
			c0.824,0,1.594,0.098,2.309,0.293c0.713,0.195,1.328,0.504,1.846,0.924s0.924,0.949,1.217,1.588s0.439,1.4,0.439,2.285
			c0,0.646-0.064,1.195-0.191,1.645c-0.129,0.451-0.289,0.822-0.484,1.115s-0.41,0.508-0.643,0.643s-0.447,0.201-0.641,0.201
			c-0.211,0-0.316-0.18-0.316-0.539c0-0.24,0.029-0.48,0.09-0.721l1.059-5.383h-2.139l-0.227,0.922
			c-0.346-0.48-0.746-0.822-1.205-1.023c-0.457-0.203-0.971-0.305-1.543-0.305c-0.676,0-1.299,0.139-1.869,0.416
			c-0.57,0.279-1.066,0.658-1.486,1.139s-0.746,1.047-0.98,1.699c-0.232,0.654-0.348,1.348-0.348,2.084
			c0,0.57,0.086,1.1,0.258,1.588c0.174,0.488,0.422,0.92,0.744,1.295s0.717,0.668,1.182,0.879c0.467,0.211,0.984,0.314,1.555,0.314
			s1.039-0.104,1.408-0.314c0.367-0.211,0.656-0.48,0.867-0.811h0.045c0.029,0.391,0.16,0.676,0.395,0.855
			c0.232,0.18,0.529,0.27,0.889,0.27c0.24,0,0.553-0.041,0.936-0.123s0.791-0.225,1.227-0.428s0.879-0.473,1.33-0.811
			c0.449-0.338,0.852-0.756,1.205-1.25c0.352-0.496,0.641-1.078,0.867-1.746c0.225-0.668,0.338-1.438,0.338-2.309
			c0-0.945-0.186-1.828-0.553-2.646S32.004,20.689,31.305,20.088z M26.666,27.396c-0.113,0.264-0.264,0.496-0.451,0.699
			s-0.412,0.367-0.676,0.494c-0.264,0.129-0.545,0.191-0.844,0.191c-0.451,0-0.813-0.172-1.082-0.518s-0.404-0.734-0.404-1.17
			c0-0.285,0.051-0.564,0.156-0.834c0.105-0.271,0.248-0.51,0.428-0.721c0.182-0.211,0.395-0.375,0.643-0.496
			c0.248-0.119,0.506-0.18,0.777-0.18c0.465,0,0.852,0.162,1.16,0.484c0.307,0.322,0.461,0.732,0.461,1.227
			C26.834,26.859,26.777,27.135,26.666,27.396z"/>
		<path d="M35.902,2.472H7.65v45.057h34.698V8.723L35.902,2.472z M39.349,44.528H10.65V5.472h23.706v4.76h4.992V44.528z"/>
	</g>
</g>
<g id="_x38_9">
</g>
<g id="_x39_0">
</g>
<g id="_x39_1">
</g>
<g id="_x39_2">
</g>
<g id="_x39_3">
</g>
<g id="_x39_4">
</g>
<g id="_x39_5">
</g>
<g id="_x39_6">
</g>
<g id="_x39_7">
</g>
<g id="_x39_8">
</g>
<g id="_x39_9">
</g>
<g id="_x31_00">
</g>
<g id="_x31_01">
</g>
<g id="_x31_02">
</g>
<g id="_x31_03">
</g>
<g id="_x31_04">
</g>
<g id="_x31_05">
</g>
<g id="_x31_06">
</g>
<g id="_x31_07">
</g>
<g id="_x31_08">
</g>
<g id="_x31_09">
</g>
<g id="_x31_10">
</g>
<g id="_x31_11">
</g>
<g id="_x31_12">
</g>
<g id="_x31_13">
</g>
<g id="_x31_14">
</g>
<g id="_x31_15">
</g>
<g id="_x31_16">
</g>
<g id="_x31_17">
</g>
<g id="_x31_18">
</g>
<g id="_x31_19">
</g>
<g id="_x31_20">
</g>
<g id="_x31_21">
</g>
<g id="_x31_22">
</g>
<g id="_x31_23">
</g>
<g id="_x31_24">
</g>
<g id="_x31_25">
</g>
<g id="_x31_26">
</g>
<g id="_x31_27">
</g>
<g id="_x31_28">
</g>
<g id="_x31_29">
</g>
<g id="_x31_30">
</g>
<g id="_x31_31">
</g>
<g id="_x31_32">
</g>
<g id="_x31_33">
</g>
<g id="_x31_34">
</g>
<g id="_x31_35">
</g>
<g id="_x31_36">
</g>
<g id="_x31_37">
</g>
<g id="_x31_38">
</g>
<g id="_x31_39">
</g>
<g id="_x31_40">
</g>
<g id="_x31_41">
</g>
<g id="_x31_42">
</g>
<g id="_x31_43">
</g>
<g id="_x31_44">
</g>
<g id="_x31_45">
</g>
<g id="_x31_46">
</g>
<g id="_x31_47">
</g>
<g id="_x31_48">
</g>
<g id="_x31_49">
</g>
<g id="_x31_50">
</g>
<g id="_x31_51">
</g>
<g id="_x31_52">
</g>
<g id="_x31_53">
</g>
<g id="_x31_54">
</g>
<g id="_x31_55">
</g>
<g id="_x31_56">
</g>
<g id="_x31_57">
</g>
<g id="_x31_58">
</g>
<g id="_x31_59">
</g>
<g id="_x31_60">
</g>
<g id="_x31_61">
</g>
<g id="_x31_62">
</g>
<g id="_x31_63">
</g>
<g id="_x31_64">
</g>
<g id="_x31_65">
</g>
<g id="_x31_66">
</g>
<g id="_x31_67">
</g>
<g id="_x31_68">
</g>
<g id="_x31_69">
</g>
<g id="_x31_70">
</g>
<g id="_x31_71">
</g>
<g id="_x31_72">
</g>
<g id="_x31_73">
</g>
<g id="_x31_74">
</g>
<g id="_x31_75">
</g>
<g id="_x31_76">
</g>
<g id="_x31_77">
</g>
<g id="_x31_78">
</g>
<g id="_x31_79">
</g>
<g id="_x31_80">
</g>
<g id="_x31_81">
</g>
<g id="_x31_82">
</g>
<g id="_x31_83">
</g>
<g id="_x31_84">
</g>
<g id="_x31_85">
</g>
<g id="_x31_86">
</g>
<g id="_x31_87">
</g>
<g id="_x31_88">
</g>
<g id="_x31_89">
</g>
<g id="_x31_90">
</g>
</svg>
