<?xml version="1.0" encoding="utf-8"?>
<!-- Generator: Adobe Illustrator 16.0.0, SVG Export Plug-In . SVG Version: 6.00 Build 0)  -->
<!DOCTYPE svg PUBLIC "-//W3C//DTD SVG 1.1//EN" "http://www.w3.org/Graphics/SVG/1.1/DTD/svg11.dtd">
<svg version="1.1" xmlns="http://www.w3.org/2000/svg" xmlns:xlink="http://www.w3.org/1999/xlink" x="0px" y="0px" width="50px"
	 height="50px" viewBox="0 0 50 50" enable-background="new 0 0 50 50" xml:space="preserve">
<g id="text">
</g>
<g id="_x31_">
</g>
<g id="_x32_">
</g>
<g id="_x33__1_">
</g>
<g id="_x34_">
</g>
<g id="_x35_">
</g>
<g id="_x36_">
</g>
<g id="_x37_">
</g>
<g id="_x38_">
</g>
<g id="_x39_">
</g>
<g id="_x31_0">
</g>
<g id="_x31_1">
</g>
<g id="_x31_2">
</g>
<g id="_x31_3">
</g>
<g id="_x31_4">
</g>
<g id="_x31_5">
</g>
<g id="_x31_6">
</g>
<g id="_x31_7">
</g>
<g id="_x31_8">
</g>
<g id="_x31_9">
</g>
<g id="_x32_0">
</g>
<g id="_x32_1">
</g>
<g id="_x32_2">
</g>
<g id="_x32_3">
</g>
<g id="_x32_4">
</g>
<g id="_x32_5">
</g>
<g id="_x32_6">
</g>
<g id="_x32_7">
</g>
<g id="_x32_8">
</g>
<g id="_x32_9">
</g>
<g id="_x33_0">
</g>
<g id="_x33_1">
</g>
<g id="_x33_2">
</g>
<g id="_x33_3">
</g>
<g id="_x33_4">
</g>
<g id="_x33_5">
</g>
<g id="_x33_6">
</g>
<g id="_x33_7">
</g>
<g id="_x33_8">
</g>
<g id="_x33_9">
</g>
<g id="_x34_0">
</g>
<g id="_x34_1">
</g>
<g id="_x34_2">
</g>
<g id="_x34_3">
</g>
<g id="_x34_4">
</g>
<g id="_x34_5">
</g>
<g id="_x34_6">
</g>
<g id="_x34_7">
</g>
<g id="_x34_8">
</g>
<g id="_x34_9">
</g>
<g id="_x35_0">
</g>
<g id="_x35_1">
</g>
<g id="_x35_2">
</g>
<g id="_x35_3">
</g>
<g id="_x35_4">
</g>
<g id="_x35_5">
</g>
<g id="_x35_6">
</g>
<g id="_x35_7">
</g>
<g id="_x35_8">
</g>
<g id="_x35_9">
</g>
<g id="_x36_0">
</g>
<g id="_x36_1">
</g>
<g id="_x36_2">
</g>
<g id="_x36_3">
</g>
<g id="_x36_4">
</g>
<g id="_x36_5">
</g>
<g id="_x36_6">
</g>
<g id="_x36_7">
</g>
<g id="_x36_8">
</g>
<g id="_x36_9">
</g>
<g id="_x37_0">
</g>
<g id="_x37_1">
</g>
<g id="_x37_2">
</g>
<g id="_x37_3">
</g>
<g id="_x37_4">
</g>
<g id="_x37_5">
</g>
<g id="_x37_6">
</g>
<g id="_x37_7">
	<g>
		<path d="M19.664,27.712h1.164c-0.032,0.16-0.092,0.301-0.18,0.42c-0.089,0.121-0.196,0.219-0.324,0.295s-0.267,0.133-0.414,0.174
			c-0.148,0.039-0.298,0.061-0.45,0.061c-0.4,0-0.726-0.078-0.978-0.234s-0.448-0.346-0.588-0.57
			c-0.141-0.225-0.236-0.465-0.288-0.721c-0.053-0.256-0.078-0.482-0.078-0.684c0-0.096,0.002-0.227,0.006-0.391
			s0.02-0.338,0.048-0.521s0.076-0.369,0.144-0.559c0.068-0.188,0.166-0.357,0.295-0.51c0.127-0.15,0.294-0.275,0.497-0.371
			c0.204-0.096,0.458-0.145,0.763-0.145c0.312,0,0.586,0.1,0.822,0.301c0.235,0.199,0.378,0.455,0.426,0.768h2.531
			c-0.191-1.016-0.623-1.805-1.296-2.363c-0.672-0.561-1.556-0.842-2.651-0.842c-0.48,0-0.971,0.088-1.471,0.26
			s-0.953,0.439-1.361,0.803c-0.408,0.365-0.742,0.836-1.002,1.416c-0.261,0.58-0.391,1.279-0.391,2.094
			c0,0.609,0.095,1.182,0.282,1.717c0.188,0.535,0.46,1.002,0.816,1.398c0.355,0.395,0.786,0.709,1.29,0.941
			s1.071,0.348,1.704,0.348c0.472,0,0.922-0.084,1.35-0.252s0.79-0.443,1.086-0.828l0.084,0.877h1.668v-4.717h-3.504V27.712z"/>
		<rect x="24.476" y="22.024" width="2.641" height="8.568"/>
		<polygon points="28.472,30.593 31.112,30.593 31.112,27.329 34.532,27.329 34.532,25.288 31.112,25.288 31.112,24.22 
			35.096,24.22 35.096,22.024 28.472,22.024 		"/>
		<path d="M35.902,2.472H7.65v45.057h34.698V8.723L35.902,2.472z M39.349,44.528H10.65V5.472h23.706v4.76h4.992V44.528z"/>
	</g>
</g>
<g id="_x37_8">
</g>
<g id="_x37_9">
</g>
<g id="_x38_0">
</g>
<g id="_x38_1">
</g>
<g id="_x38_2">
</g>
<g id="_x38_3">
</g>
<g id="_x38_4">
</g>
<g id="_x38_5">
</g>
<g id="_x38_6">
</g>
<g id="_x38_7">
</g>
<g id="_x38_8">
</g>
<g id="_x38_9">
</g>
<g id="_x39_0">
</g>
<g id="_x39_1">
</g>
<g id="_x39_2">
</g>
<g id="_x39_3">
</g>
<g id="_x39_4">
</g>
<g id="_x39_5">
</g>
<g id="_x39_6">
</g>
<g id="_x39_7">
</g>
<g id="_x39_8">
</g>
<g id="_x39_9">
</g>
<g id="_x31_00">
</g>
<g id="_x31_01">
</g>
<g id="_x31_02">
</g>
<g id="_x31_03">
</g>
<g id="_x31_04">
</g>
<g id="_x31_05">
</g>
<g id="_x31_06">
</g>
<g id="_x31_07">
</g>
<g id="_x31_08">
</g>
<g id="_x31_09">
</g>
<g id="_x31_10">
</g>
<g id="_x31_11">
</g>
<g id="_x31_12">
</g>
<g id="_x31_13">
</g>
<g id="_x31_14">
</g>
<g id="_x31_15">
</g>
<g id="_x31_16">
</g>
<g id="_x31_17">
</g>
<g id="_x31_18">
</g>
<g id="_x31_19">
</g>
<g id="_x31_20">
</g>
<g id="_x31_21">
</g>
<g id="_x31_22">
</g>
<g id="_x31_23">
</g>
<g id="_x31_24">
</g>
<g id="_x31_25">
</g>
<g id="_x31_26">
</g>
<g id="_x31_27">
</g>
<g id="_x31_28">
</g>
<g id="_x31_29">
</g>
<g id="_x31_30">
</g>
<g id="_x31_31">
</g>
<g id="_x31_32">
</g>
<g id="_x31_33">
</g>
<g id="_x31_34">
</g>
<g id="_x31_35">
</g>
<g id="_x31_36">
</g>
<g id="_x31_37">
</g>
<g id="_x31_38">
</g>
<g id="_x31_39">
</g>
<g id="_x31_40">
</g>
<g id="_x31_41">
</g>
<g id="_x31_42">
</g>
<g id="_x31_43">
</g>
<g id="_x31_44">
</g>
<g id="_x31_45">
</g>
<g id="_x31_46">
</g>
<g id="_x31_47">
</g>
<g id="_x31_48">
</g>
<g id="_x31_49">
</g>
<g id="_x31_50">
</g>
<g id="_x31_51">
</g>
<g id="_x31_52">
</g>
<g id="_x31_53">
</g>
<g id="_x31_54">
</g>
<g id="_x31_55">
</g>
<g id="_x31_56">
</g>
<g id="_x31_57">
</g>
<g id="_x31_58">
</g>
<g id="_x31_59">
</g>
<g id="_x31_60">
</g>
<g id="_x31_61">
</g>
<g id="_x31_62">
</g>
<g id="_x31_63">
</g>
<g id="_x31_64">
</g>
<g id="_x31_65">
</g>
<g id="_x31_66">
</g>
<g id="_x31_67">
</g>
<g id="_x31_68">
</g>
<g id="_x31_69">
</g>
<g id="_x31_70">
</g>
<g id="_x31_71">
</g>
<g id="_x31_72">
</g>
<g id="_x31_73">
</g>
<g id="_x31_74">
</g>
<g id="_x31_75">
</g>
<g id="_x31_76">
</g>
<g id="_x31_77">
</g>
<g id="_x31_78">
</g>
<g id="_x31_79">
</g>
<g id="_x31_80">
</g>
<g id="_x31_81">
</g>
<g id="_x31_82">
</g>
<g id="_x31_83">
</g>
<g id="_x31_84">
</g>
<g id="_x31_85">
</g>
<g id="_x31_86">
</g>
<g id="_x31_87">
</g>
<g id="_x31_88">
</g>
<g id="_x31_89">
</g>
<g id="_x31_90">
</g>
</svg>
