<?xml version="1.0" encoding="utf-8"?>
<!-- Generator: Adobe Illustrator 16.0.0, SVG Export Plug-In . SVG Version: 6.00 Build 0)  -->
<!DOCTYPE svg PUBLIC "-//W3C//DTD SVG 1.1//EN" "http://www.w3.org/Graphics/SVG/1.1/DTD/svg11.dtd">
<svg version="1.1" xmlns="http://www.w3.org/2000/svg" xmlns:xlink="http://www.w3.org/1999/xlink" x="0px" y="0px" width="50px"
	 height="50px" viewBox="0 0 50 50" enable-background="new 0 0 50 50" xml:space="preserve">
<g id="text">
</g>
<g id="_x31_">
</g>
<g id="_x32_">
</g>
<g id="_x33__1_">
</g>
<g id="_x34_">
</g>
<g id="_x35_">
</g>
<g id="_x36_">
</g>
<g id="_x37_">
</g>
<g id="_x38_">
</g>
<g id="_x39_">
</g>
<g id="_x31_0">
</g>
<g id="_x31_1">
</g>
<g id="_x31_2">
</g>
<g id="_x31_3">
</g>
<g id="_x31_4">
</g>
<g id="_x31_5">
</g>
<g id="_x31_6">
</g>
<g id="_x31_7">
</g>
<g id="_x31_8">
</g>
<g id="_x31_9">
</g>
<g id="_x32_0">
</g>
<g id="_x32_1">
</g>
<g id="_x32_2">
</g>
<g id="_x32_3">
</g>
<g id="_x32_4">
</g>
<g id="_x32_5">
</g>
<g id="_x32_6">
</g>
<g id="_x32_7">
</g>
<g id="_x32_8">
</g>
<g id="_x32_9">
</g>
<g id="_x33_0">
</g>
<g id="_x33_1">
</g>
<g id="_x33_2">
</g>
<g id="_x33_3">
</g>
<g id="_x33_4">
</g>
<g id="_x33_5">
</g>
<g id="_x33_6">
</g>
<g id="_x33_7">
</g>
<g id="_x33_8">
</g>
<g id="_x33_9">
</g>
<g id="_x34_0">
</g>
<g id="_x34_1">
</g>
<g id="_x34_2">
</g>
<g id="_x34_3">
</g>
<g id="_x34_4">
</g>
<g id="_x34_5">
</g>
<g id="_x34_6">
</g>
<g id="_x34_7">
</g>
<g id="_x34_8">
</g>
<g id="_x34_9">
</g>
<g id="_x35_0">
</g>
<g id="_x35_1">
</g>
<g id="_x35_2">
</g>
<g id="_x35_3">
</g>
<g id="_x35_4">
</g>
<g id="_x35_5">
</g>
<g id="_x35_6">
</g>
<g id="_x35_7">
</g>
<g id="_x35_8">
</g>
<g id="_x35_9">
</g>
<g id="_x36_0">
</g>
<g id="_x36_1">
</g>
<g id="_x36_2">
</g>
<g id="_x36_3">
</g>
<g id="_x36_4">
</g>
<g id="_x36_5">
</g>
<g id="_x36_6">
	<g>
		<path d="M16.992,27.151c0,0.096-0.002,0.213-0.006,0.354s-0.023,0.271-0.06,0.396c-0.036,0.123-0.099,0.232-0.187,0.324
			s-0.216,0.137-0.384,0.137c-0.176,0-0.312-0.035-0.408-0.107c-0.096-0.072-0.166-0.166-0.21-0.281
			c-0.044-0.117-0.069-0.25-0.077-0.402c-0.009-0.152-0.013-0.313-0.013-0.48v-0.492h-2.376v0.721c0,0.471,0.063,0.895,0.187,1.271
			s0.313,0.699,0.569,0.973c0.256,0.271,0.582,0.479,0.979,0.623c0.396,0.145,0.865,0.217,1.41,0.217
			c0.535,0,1.006-0.061,1.409-0.18c0.404-0.121,0.74-0.313,1.009-0.576c0.268-0.266,0.468-0.605,0.6-1.021s0.198-0.92,0.198-1.512
			V21.63h-2.641V27.151z"/>
		<path d="M27.853,22.64c-0.248-0.289-0.572-0.529-0.972-0.721c-0.4-0.191-0.893-0.289-1.477-0.289h-4.416v8.568h2.641v-2.592h1.56
			c0.488,0,0.938-0.063,1.351-0.186c0.411-0.125,0.768-0.313,1.067-0.564s0.532-0.568,0.696-0.947
			c0.164-0.381,0.246-0.83,0.246-1.35c0-0.305-0.054-0.629-0.162-0.973S28.101,22.927,27.853,22.64z M25.927,25.165
			c-0.084,0.123-0.192,0.215-0.324,0.275s-0.282,0.096-0.45,0.107c-0.168,0.014-0.336,0.02-0.504,0.02h-1.02v-1.74h1.176
			c0.16,0,0.316,0.006,0.468,0.018c0.152,0.012,0.286,0.047,0.402,0.102c0.116,0.057,0.208,0.141,0.276,0.252
			c0.067,0.113,0.102,0.264,0.102,0.457C26.053,24.87,26.011,25.04,25.927,25.165z"/>
		<path d="M31.938,21.685c-0.5,0.172-0.953,0.439-1.361,0.805c-0.408,0.363-0.742,0.836-1.002,1.416
			c-0.261,0.58-0.391,1.277-0.391,2.094c0,0.607,0.095,1.18,0.282,1.715c0.188,0.537,0.46,1.002,0.816,1.398
			c0.355,0.396,0.786,0.711,1.29,0.943c0.504,0.23,1.071,0.348,1.704,0.348c0.472,0,0.922-0.084,1.35-0.252s0.79-0.445,1.086-0.828
			l0.084,0.875h1.668v-4.715h-3.504v1.836h1.164c-0.032,0.16-0.092,0.299-0.18,0.42c-0.089,0.119-0.196,0.217-0.324,0.293
			s-0.267,0.135-0.414,0.174c-0.148,0.041-0.298,0.061-0.45,0.061c-0.4,0-0.726-0.078-0.978-0.234s-0.448-0.346-0.588-0.57
			c-0.141-0.223-0.236-0.463-0.288-0.719c-0.053-0.256-0.078-0.484-0.078-0.684c0-0.098,0.002-0.227,0.006-0.391
			s0.02-0.338,0.048-0.521c0.028-0.186,0.076-0.371,0.144-0.559c0.068-0.188,0.166-0.357,0.295-0.51
			c0.127-0.152,0.294-0.277,0.497-0.373c0.204-0.096,0.458-0.143,0.763-0.143c0.312,0,0.586,0.1,0.822,0.299
			c0.235,0.201,0.378,0.457,0.426,0.768h2.531c-0.191-1.016-0.623-1.803-1.296-2.363c-0.672-0.561-1.556-0.84-2.651-0.84
			C32.929,21.427,32.438,21.513,31.938,21.685z"/>
		<path d="M35.902,2.472H7.651v45.057h34.698V8.723L35.902,2.472z M39.349,44.528H10.651V5.472h23.706v4.76h4.992V44.528z"/>
	</g>
</g>
<g id="_x36_7">
</g>
<g id="_x36_8">
</g>
<g id="_x36_9">
</g>
<g id="_x37_0">
</g>
<g id="_x37_1">
</g>
<g id="_x37_2">
</g>
<g id="_x37_3">
</g>
<g id="_x37_4">
</g>
<g id="_x37_5">
</g>
<g id="_x37_6">
</g>
<g id="_x37_7">
</g>
<g id="_x37_8">
</g>
<g id="_x37_9">
</g>
<g id="_x38_0">
</g>
<g id="_x38_1">
</g>
<g id="_x38_2">
</g>
<g id="_x38_3">
</g>
<g id="_x38_4">
</g>
<g id="_x38_5">
</g>
<g id="_x38_6">
</g>
<g id="_x38_7">
</g>
<g id="_x38_8">
</g>
<g id="_x38_9">
</g>
<g id="_x39_0">
</g>
<g id="_x39_1">
</g>
<g id="_x39_2">
</g>
<g id="_x39_3">
</g>
<g id="_x39_4">
</g>
<g id="_x39_5">
</g>
<g id="_x39_6">
</g>
<g id="_x39_7">
</g>
<g id="_x39_8">
</g>
<g id="_x39_9">
</g>
<g id="_x31_00">
</g>
<g id="_x31_01">
</g>
<g id="_x31_02">
</g>
<g id="_x31_03">
</g>
<g id="_x31_04">
</g>
<g id="_x31_05">
</g>
<g id="_x31_06">
</g>
<g id="_x31_07">
</g>
<g id="_x31_08">
</g>
<g id="_x31_09">
</g>
<g id="_x31_10">
</g>
<g id="_x31_11">
</g>
<g id="_x31_12">
</g>
<g id="_x31_13">
</g>
<g id="_x31_14">
</g>
<g id="_x31_15">
</g>
<g id="_x31_16">
</g>
<g id="_x31_17">
</g>
<g id="_x31_18">
</g>
<g id="_x31_19">
</g>
<g id="_x31_20">
</g>
<g id="_x31_21">
</g>
<g id="_x31_22">
</g>
<g id="_x31_23">
</g>
<g id="_x31_24">
</g>
<g id="_x31_25">
</g>
<g id="_x31_26">
</g>
<g id="_x31_27">
</g>
<g id="_x31_28">
</g>
<g id="_x31_29">
</g>
<g id="_x31_30">
</g>
<g id="_x31_31">
</g>
<g id="_x31_32">
</g>
<g id="_x31_33">
</g>
<g id="_x31_34">
</g>
<g id="_x31_35">
</g>
<g id="_x31_36">
</g>
<g id="_x31_37">
</g>
<g id="_x31_38">
</g>
<g id="_x31_39">
</g>
<g id="_x31_40">
</g>
<g id="_x31_41">
</g>
<g id="_x31_42">
</g>
<g id="_x31_43">
</g>
<g id="_x31_44">
</g>
<g id="_x31_45">
</g>
<g id="_x31_46">
</g>
<g id="_x31_47">
</g>
<g id="_x31_48">
</g>
<g id="_x31_49">
</g>
<g id="_x31_50">
</g>
<g id="_x31_51">
</g>
<g id="_x31_52">
</g>
<g id="_x31_53">
</g>
<g id="_x31_54">
</g>
<g id="_x31_55">
</g>
<g id="_x31_56">
</g>
<g id="_x31_57">
</g>
<g id="_x31_58">
</g>
<g id="_x31_59">
</g>
<g id="_x31_60">
</g>
<g id="_x31_61">
</g>
<g id="_x31_62">
</g>
<g id="_x31_63">
</g>
<g id="_x31_64">
</g>
<g id="_x31_65">
</g>
<g id="_x31_66">
</g>
<g id="_x31_67">
</g>
<g id="_x31_68">
</g>
<g id="_x31_69">
</g>
<g id="_x31_70">
</g>
<g id="_x31_71">
</g>
<g id="_x31_72">
</g>
<g id="_x31_73">
</g>
<g id="_x31_74">
</g>
<g id="_x31_75">
</g>
<g id="_x31_76">
</g>
<g id="_x31_77">
</g>
<g id="_x31_78">
</g>
<g id="_x31_79">
</g>
<g id="_x31_80">
</g>
<g id="_x31_81">
</g>
<g id="_x31_82">
</g>
<g id="_x31_83">
</g>
<g id="_x31_84">
</g>
<g id="_x31_85">
</g>
<g id="_x31_86">
</g>
<g id="_x31_87">
</g>
<g id="_x31_88">
</g>
<g id="_x31_89">
</g>
<g id="_x31_90">
</g>
</svg>
