<?xml version="1.0" encoding="utf-8"?>
<!-- Generator: Adobe Illustrator 16.0.0, SVG Export Plug-In . SVG Version: 6.00 Build 0)  -->
<!DOCTYPE svg PUBLIC "-//W3C//DTD SVG 1.1//EN" "http://www.w3.org/Graphics/SVG/1.1/DTD/svg11.dtd">
<svg version="1.1" xmlns="http://www.w3.org/2000/svg" xmlns:xlink="http://www.w3.org/1999/xlink" x="0px" y="0px" width="50px"
	 height="50px" viewBox="0 0 50 50" enable-background="new 0 0 50 50" xml:space="preserve">
<g id="text">
</g>
<g id="_x31_">
</g>
<g id="_x32_">
</g>
<g id="_x33__1_">
</g>
<g id="_x34_">
</g>
<g id="_x35_">
</g>
<g id="_x36_">
</g>
<g id="_x37_">
</g>
<g id="_x38_">
</g>
<g id="_x39_">
</g>
<g id="_x31_0">
</g>
<g id="_x31_1">
</g>
<g id="_x31_2">
</g>
<g id="_x31_3">
</g>
<g id="_x31_4">
</g>
<g id="_x31_5">
</g>
<g id="_x31_6">
</g>
<g id="_x31_7">
</g>
<g id="_x31_8">
</g>
<g id="_x31_9">
</g>
<g id="_x32_0">
</g>
<g id="_x32_1">
</g>
<g id="_x32_2">
</g>
<g id="_x32_3">
</g>
<g id="_x32_4">
</g>
<g id="_x32_5">
</g>
<g id="_x32_6">
</g>
<g id="_x32_7">
</g>
<g id="_x32_8">
</g>
<g id="_x32_9">
</g>
<g id="_x33_0">
</g>
<g id="_x33_1">
</g>
<g id="_x33_2">
</g>
<g id="_x33_3">
</g>
<g id="_x33_4">
</g>
<g id="_x33_5">
</g>
<g id="_x33_6">
</g>
<g id="_x33_7">
</g>
<g id="_x33_8">
</g>
<g id="_x33_9">
</g>
<g id="_x34_0">
</g>
<g id="_x34_1">
</g>
<g id="_x34_2">
</g>
<g id="_x34_3">
</g>
<g id="_x34_4">
</g>
<g id="_x34_5">
</g>
<g id="_x34_6">
</g>
<g id="_x34_7">
</g>
<g id="_x34_8">
</g>
<g id="_x34_9">
</g>
<g id="_x35_0">
</g>
<g id="_x35_1">
</g>
<g id="_x35_2">
</g>
<g id="_x35_3">
</g>
<g id="_x35_4">
</g>
<g id="_x35_5">
</g>
<g id="_x35_6">
</g>
<g id="_x35_7">
</g>
<g id="_x35_8">
</g>
<g id="_x35_9">
</g>
<g id="_x36_0">
</g>
<g id="_x36_1">
</g>
<g id="_x36_2">
</g>
<g id="_x36_3">
</g>
<g id="_x36_4">
</g>
<g id="_x36_5">
</g>
<g id="_x36_6">
</g>
<g id="_x36_7">
</g>
<g id="_x36_8">
</g>
<g id="_x36_9">
</g>
<g id="_x37_0">
</g>
<g id="_x37_1">
</g>
<g id="_x37_2">
</g>
<g id="_x37_3">
</g>
<g id="_x37_4">
</g>
<g id="_x37_5">
</g>
<g id="_x37_6">
</g>
<g id="_x37_7">
</g>
<g id="_x37_8">
</g>
<g id="_x37_9">
</g>
<g id="_x38_0">
</g>
<g id="_x38_1">
</g>
<g id="_x38_2">
</g>
<g id="_x38_3">
</g>
<g id="_x38_4">
</g>
<g id="_x38_5">
</g>
<g id="_x38_6">
</g>
<g id="_x38_7">
</g>
<g id="_x38_8">
</g>
<g id="_x38_9">
</g>
<g id="_x39_0">
</g>
<g id="_x39_1">
</g>
<g id="_x39_2">
	<g>
		<polygon points="30.092,15.606 30.104,15.606 31.482,18.079 32.543,18.079 32.543,14.111 31.571,14.111 31.571,16.557 
			31.56,16.557 30.182,14.111 29.12,14.111 29.12,18.079 30.092,18.079 		"/>
		<polygon points="36.467,17.189 34.283,17.189 34.283,16.435 36.228,16.435 36.228,15.634 34.283,15.634 34.283,14.939 
			36.412,14.939 36.412,14.111 33.249,14.111 33.249,18.079 36.467,18.079 		"/>
		<polygon points="37.773,18.079 38.823,18.079 39.368,15.345 39.379,15.345 39.923,18.079 40.957,18.079 42.052,14.111 
			41.019,14.111 40.457,17.012 40.446,17.012 39.862,14.111 38.89,14.111 38.306,17.012 38.295,17.012 37.734,14.111 36.7,14.111 		
			"/>
		<path d="M44.397,17.271c-0.059,0.031-0.127,0.055-0.203,0.069c-0.076,0.015-0.153,0.022-0.231,0.022
			c-0.222,0-0.4-0.045-0.533-0.134c-0.134-0.089-0.206-0.25-0.217-0.483H42.18c0,0.256,0.047,0.473,0.142,0.65
			s0.221,0.324,0.381,0.439c0.159,0.114,0.342,0.198,0.547,0.25s0.423,0.077,0.653,0.077c0.219,0,0.432-0.021,0.639-0.066
			c0.208-0.044,0.392-0.117,0.553-0.22c0.162-0.102,0.291-0.237,0.389-0.408c0.098-0.17,0.147-0.382,0.147-0.634
			c0-0.178-0.034-0.33-0.1-0.458c-0.067-0.128-0.154-0.235-0.261-0.322s-0.23-0.159-0.367-0.217
			c-0.137-0.058-0.278-0.106-0.422-0.147s-0.286-0.076-0.422-0.105c-0.137-0.029-0.26-0.063-0.37-0.101
			c-0.109-0.036-0.196-0.079-0.261-0.127c-0.065-0.049-0.097-0.111-0.097-0.189c0-0.066,0.016-0.121,0.047-0.164
			c0.031-0.042,0.071-0.077,0.119-0.103c0.048-0.026,0.102-0.045,0.161-0.056c0.06-0.011,0.117-0.017,0.172-0.017
			c0.078,0,0.156,0.008,0.233,0.024c0.078,0.018,0.147,0.044,0.208,0.081s0.11,0.086,0.147,0.147
			c0.037,0.061,0.053,0.136,0.05,0.225h1.034c0-0.222-0.046-0.414-0.139-0.575c-0.092-0.161-0.213-0.293-0.361-0.397
			c-0.148-0.104-0.318-0.181-0.509-0.23s-0.384-0.075-0.581-0.075c-0.186,0-0.375,0.022-0.567,0.067
			c-0.193,0.044-0.367,0.114-0.522,0.211s-0.283,0.222-0.381,0.375c-0.098,0.154-0.147,0.338-0.147,0.553
			c0,0.182,0.034,0.337,0.103,0.464c0.069,0.128,0.158,0.235,0.267,0.323c0.109,0.087,0.233,0.158,0.372,0.214
			c0.139,0.056,0.279,0.104,0.42,0.145c0.144,0.04,0.284,0.076,0.419,0.108c0.135,0.031,0.256,0.067,0.364,0.108
			c0.107,0.04,0.194,0.089,0.259,0.145c0.064,0.055,0.097,0.127,0.097,0.216c0,0.074-0.019,0.138-0.056,0.189
			S44.456,17.239,44.397,17.271z"/>
		<path d="M44.369,20.948c-2.075,0-4.15,0-6.226,0c-0.521,0-0.521,1.805,0,1.805c2.076,0,4.15,0,6.226,0
			C44.89,22.753,44.89,20.948,44.369,20.948z"/>
		<path d="M44.369,25.22c-2.075,0-4.15,0-6.226,0c-0.521,0-0.521,1.806,0,1.806c2.076,0,4.15,0,6.226,0
			C44.89,27.025,44.89,25.22,44.369,25.22z"/>
		<path d="M43.719,29.582c-4.634,0-9.268,0-13.902,0c-1.164,0-1.164,1.805,0,1.805c4.634,0,9.268,0,13.902,0
			C44.883,31.387,44.883,29.582,43.719,29.582z"/>
		<path d="M43.719,33.854c-4.634,0-9.268,0-13.902,0c-1.164,0-1.164,1.806,0,1.806c4.634,0,9.268,0,13.902,0
			C44.883,35.659,44.883,33.854,43.719,33.854z"/>
		<path d="M7.066,17.28c4.635,0,9.269,0,13.902,0c1.165,0,1.165-1.805,0-1.805c-4.634,0-9.268,0-13.902,0
			C5.902,15.476,5.902,17.28,7.066,17.28z"/>
		<path d="M20.969,19.748c-4.634,0-9.268,0-13.902,0c-1.164,0-1.164,1.805,0,1.805c4.635,0,9.269,0,13.902,0
			C22.133,21.553,22.133,19.748,20.969,19.748z"/>
		<path d="M20.969,24.527c-4.634,0-9.268,0-13.902,0c-1.164,0-1.164,1.806,0,1.806c4.635,0,9.269,0,13.902,0
			C22.133,26.333,22.133,24.527,20.969,24.527z"/>
		<path d="M20.969,28.8c-4.634,0-9.268,0-13.902,0c-1.164,0-1.164,1.806,0,1.806c4.635,0,9.269,0,13.902,0
			C22.133,30.605,22.133,28.8,20.969,28.8z"/>
		<path d="M20.969,33.161c-4.634,0-9.268,0-13.902,0c-1.164,0-1.164,1.806,0,1.806c4.635,0,9.269,0,13.902,0
			C22.133,34.967,22.133,33.161,20.969,33.161z"/>
		<path d="M29.555,27.646h6.77c0.245,0,0.443-0.154,0.443-0.345v-7.078c0-0.189-0.198-0.344-0.443-0.344h-6.77
			c-0.246,0-0.444,0.154-0.444,0.344v7.078C29.111,27.491,29.309,27.646,29.555,27.646z"/>
		<path d="M48.872,9.074c-0.293-0.084-7.247-2.054-11.982-2.054c-4.228,0-10.398,1.567-11.883,1.962
			c-1.452-0.398-7.428-1.962-11.652-1.962c-4.731,0-11.914,1.968-12.217,2.052L0.421,9.269v33.7l1.181-0.256
			c0.07-0.015,7.073-1.524,11.751-1.524c3.67,0,8.611,0.927,10.604,1.334l1.041,0.222l1.044-0.216
			c2.043-0.405,7.16-1.34,10.847-1.34c4.675,0,11.434,1.508,11.501,1.522l1.188,0.268V9.275L48.872,9.074z M23.957,40.532
			c-2.257-0.45-6.946-1.291-10.604-1.291c-3.752,0-8.735,0.886-10.984,1.326V10.761c1.931-0.493,7.35-1.793,10.984-1.793
			c3.542,0,8.621,1.233,10.604,1.751V40.532z M47.63,40.56c-2.202-0.443-7.011-1.318-10.741-1.318c-3.681,0-8.54,0.852-10.847,1.3
			V10.726c2.033-0.516,7.291-1.758,10.847-1.758c3.621,0,8.858,1.291,10.741,1.787V40.56z"/>
	</g>
</g>
<g id="_x39_3">
</g>
<g id="_x39_4">
</g>
<g id="_x39_5">
</g>
<g id="_x39_6">
</g>
<g id="_x39_7">
</g>
<g id="_x39_8">
</g>
<g id="_x39_9">
</g>
<g id="_x31_00">
</g>
<g id="_x31_01">
</g>
<g id="_x31_02">
</g>
<g id="_x31_03">
</g>
<g id="_x31_04">
</g>
<g id="_x31_05">
</g>
<g id="_x31_06">
</g>
<g id="_x31_07">
</g>
<g id="_x31_08">
</g>
<g id="_x31_09">
</g>
<g id="_x31_10">
</g>
<g id="_x31_11">
</g>
<g id="_x31_12">
</g>
<g id="_x31_13">
</g>
<g id="_x31_14">
</g>
<g id="_x31_15">
</g>
<g id="_x31_16">
</g>
<g id="_x31_17">
</g>
<g id="_x31_18">
</g>
<g id="_x31_19">
</g>
<g id="_x31_20">
</g>
<g id="_x31_21">
</g>
<g id="_x31_22">
</g>
<g id="_x31_23">
</g>
<g id="_x31_24">
</g>
<g id="_x31_25">
</g>
<g id="_x31_26">
</g>
<g id="_x31_27">
</g>
<g id="_x31_28">
</g>
<g id="_x31_29">
</g>
<g id="_x31_30">
</g>
<g id="_x31_31">
</g>
<g id="_x31_32">
</g>
<g id="_x31_33">
</g>
<g id="_x31_34">
</g>
<g id="_x31_35">
</g>
<g id="_x31_36">
</g>
<g id="_x31_37">
</g>
<g id="_x31_38">
</g>
<g id="_x31_39">
</g>
<g id="_x31_40">
</g>
<g id="_x31_41">
</g>
<g id="_x31_42">
</g>
<g id="_x31_43">
</g>
<g id="_x31_44">
</g>
<g id="_x31_45">
</g>
<g id="_x31_46">
</g>
<g id="_x31_47">
</g>
<g id="_x31_48">
</g>
<g id="_x31_49">
</g>
<g id="_x31_50">
</g>
<g id="_x31_51">
</g>
<g id="_x31_52">
</g>
<g id="_x31_53">
</g>
<g id="_x31_54">
</g>
<g id="_x31_55">
</g>
<g id="_x31_56">
</g>
<g id="_x31_57">
</g>
<g id="_x31_58">
</g>
<g id="_x31_59">
</g>
<g id="_x31_60">
</g>
<g id="_x31_61">
</g>
<g id="_x31_62">
</g>
<g id="_x31_63">
</g>
<g id="_x31_64">
</g>
<g id="_x31_65">
</g>
<g id="_x31_66">
</g>
<g id="_x31_67">
</g>
<g id="_x31_68">
</g>
<g id="_x31_69">
</g>
<g id="_x31_70">
</g>
<g id="_x31_71">
</g>
<g id="_x31_72">
</g>
<g id="_x31_73">
</g>
<g id="_x31_74">
</g>
<g id="_x31_75">
</g>
<g id="_x31_76">
</g>
<g id="_x31_77">
</g>
<g id="_x31_78">
</g>
<g id="_x31_79">
</g>
<g id="_x31_80">
</g>
<g id="_x31_81">
</g>
<g id="_x31_82">
</g>
<g id="_x31_83">
</g>
<g id="_x31_84">
</g>
<g id="_x31_85">
</g>
<g id="_x31_86">
</g>
<g id="_x31_87">
</g>
<g id="_x31_88">
</g>
<g id="_x31_89">
</g>
<g id="_x31_90">
</g>
</svg>
