<?xml version="1.0" encoding="utf-8"?>
<!-- Generator: Adobe Illustrator 16.0.4, SVG Export Plug-In . SVG Version: 6.00 Build 0)  -->
<!DOCTYPE svg PUBLIC "-//W3C//DTD SVG 1.1//EN" "http://www.w3.org/Graphics/SVG/1.1/DTD/svg11.dtd">
<svg version="1.1" id="Capa_1" xmlns="http://www.w3.org/2000/svg" xmlns:xlink="http://www.w3.org/1999/xlink" x="0px" y="0px"
	 width="50px" height="50px" viewBox="0 0 50 50" enable-background="new 0 0 50 50" xml:space="preserve">
<path d="M19.899,22.511c-0.874-0.047-1.596,0.411-2.057,1.069l1.463,0.704c0.335-0.201,0.789-0.194,1.137,0.023l1.514-0.727
	C21.496,22.958,20.775,22.558,19.899,22.511z M19.915,25.357c0.426,0,0.772,0.346,0.772,0.772S20.341,26.9,19.915,26.9
	s-0.772-0.346-0.772-0.771S19.489,25.357,19.915,25.357z M19.899,13.042c-4.715-0.254-8.511,2.608-10.52,6.473l1.225,0.589
	c1.84-3.206,5.538-5.282,9.294-5.485c4.077-0.219,7.364,2.236,9.118,5.569l1.433-0.688C28.454,15.738,24.657,13.298,19.899,13.042z
	 M19.638,16.198c-3.394-0.183-6.141,1.826-7.65,4.571l1.295,0.622c1.326-2.113,3.817-3.478,6.355-3.614
	c2.838-0.153,5.127,1.549,6.356,3.864l1.426-0.686C25.945,18.183,23.145,16.386,19.638,16.198z M19.638,19.354
	c-2.113-0.114-3.836,1.092-4.832,2.769l1.255,0.603c1.517-2.278,5.491-2.169,7.077,0.286l1.44-0.692
	C23.609,20.599,21.85,19.475,19.638,19.354z M35.648,19.375c0-8.783-7.146-15.928-15.927-15.928
	c-8.782,0-15.929,7.145-15.929,15.928s7.146,15.928,15.928,15.928C28.502,35.303,35.648,28.158,35.648,19.375z M19.721,31.305
	c-6.578,0-11.929-5.352-11.929-11.93S13.143,7.446,19.721,7.446c6.578,0,11.929,5.351,11.929,11.929S26.298,31.305,19.721,31.305z
	 M30.449,34.316l3.521-3.522l12.236,12.237l-3.521,3.521L30.449,34.316z"/>
</svg>
