<?xml version="1.0" encoding="utf-8"?>
<!-- Generator: Adobe Illustrator 16.0.4, SVG Export Plug-In . SVG Version: 6.00 Build 0)  -->
<!DOCTYPE svg PUBLIC "-//W3C//DTD SVG 1.1//EN" "http://www.w3.org/Graphics/SVG/1.1/DTD/svg11.dtd">
<svg version="1.1" id="Capa_1" xmlns="http://www.w3.org/2000/svg" xmlns:xlink="http://www.w3.org/1999/xlink" x="0px" y="0px"
	 width="50px" height="50px" viewBox="0 0 50 50" enable-background="new 0 0 50 50" xml:space="preserve">
<path d="M14.894,15.942c0.542,2.067,2.288,3.97,4.5,3.97c2.247,0,4.021-1.895,4.576-3.957c0.211-0.023,0.386-0.184,0.405-0.404
	l0.07-0.814c0.018-0.212-0.116-0.395-0.308-0.461c-0.004-0.048-0.005-0.098-0.011-0.146c-0.042-1.867-0.366-3.375-1.835-3.998
	c-1.551-0.658-2.918-0.667-3.921-0.276c-0.066,0.026-0.236,0.252-0.303,0.294c-0.066,0.041-0.418-0.075-0.552-0.044
	c-2.201,0.314-2.927,2.389-2.767,4.005c-0.005,0.046-0.008,0.091-0.011,0.137c-0.213,0.053-0.366,0.247-0.346,0.472l0.07,0.815
	C14.48,15.765,14.67,15.932,14.894,15.942z M15.363,14.329c0.964-0.353,2.818-1.091,3.02-1.479c0.843,0.875,3.82,1.368,5.127,1.533
	c0.005,0.084,0.013,0.167,0.013,0.252c0,2.149-1.803,4.647-4.129,4.647c-2.316,0-4.046-2.454-4.046-4.647
	C15.348,14.532,15.356,14.43,15.363,14.329z M22.942,19.172c-0.116-0.018-0.23,0.008-0.303,0.038l-1.854,2.508l-1.406-1.122
	l-0.008,0.008v0.007l-0.002-0.002l-1.406,1.122l-1.854-2.508c-0.074-0.029-0.188-0.056-0.303-0.038
	c-3.502,0.494-3.725,8.405-3.725,8.405l7.297,0.006v-0.014l7.291-0.004C26.667,27.578,26.445,19.666,22.942,19.172z M35.648,19.375
	c0-8.783-7.146-15.928-15.927-15.928c-8.782,0-15.929,7.145-15.929,15.928s7.146,15.928,15.928,15.928
	C28.502,35.303,35.648,28.158,35.648,19.375z M19.721,31.305c-6.578,0-11.929-5.352-11.929-11.93S13.143,7.446,19.721,7.446
	c6.578,0,11.929,5.351,11.929,11.929S26.298,31.305,19.721,31.305z M30.449,34.316l3.521-3.522l12.236,12.237l-3.521,3.521
	L30.449,34.316z"/>
</svg>
