<?xml version="1.0" encoding="utf-8"?>
<!-- Generator: Adobe Illustrator 16.0.4, SVG Export Plug-In . SVG Version: 6.00 Build 0)  -->
<!DOCTYPE svg PUBLIC "-//W3C//DTD SVG 1.1//EN" "http://www.w3.org/Graphics/SVG/1.1/DTD/svg11.dtd">
<svg version="1.1" id="Capa_1" xmlns="http://www.w3.org/2000/svg" xmlns:xlink="http://www.w3.org/1999/xlink" x="0px" y="0px"
	 width="50px" height="50px" viewBox="0 0 50 50" enable-background="new 0 0 50 50" xml:space="preserve">
<path d="M11.208,13.209c-0.179,0.159-0.387,0.295-0.626,0.408v0.412c0.133-0.049,0.283-0.122,0.45-0.221
	c0.167-0.097,0.302-0.196,0.403-0.293v2.719h0.426v-3.489h-0.275C11.513,12.895,11.386,13.049,11.208,13.209z M14.926,13.18
	c-0.092-0.141-0.208-0.249-0.348-0.324c-0.142-0.075-0.305-0.112-0.49-0.112c-0.253,0-0.464,0.067-0.631,0.204
	c-0.167,0.136-0.292,0.329-0.377,0.579c-0.083,0.25-0.125,0.582-0.125,0.992c0,0.653,0.114,1.124,0.342,1.413
	c0.192,0.24,0.455,0.361,0.791,0.361c0.253,0,0.464-0.068,0.63-0.206c0.167-0.137,0.292-0.33,0.375-0.58
	c0.084-0.25,0.127-0.58,0.127-0.988c0-0.344-0.027-0.618-0.079-0.821C15.09,13.495,15.018,13.323,14.926,13.18z M14.581,15.657
	c-0.134,0.19-0.298,0.285-0.493,0.285c-0.197,0-0.361-0.095-0.496-0.284c-0.134-0.188-0.199-0.568-0.199-1.139
	c0-0.569,0.073-0.961,0.219-1.172c0.118-0.167,0.274-0.249,0.47-0.249c0.199,0,0.365,0.093,0.499,0.281
	c0.134,0.188,0.201,0.568,0.201,1.14C14.781,15.088,14.715,15.467,14.581,15.657z M17.626,13.18
	c-0.092-0.141-0.209-0.249-0.349-0.324c-0.142-0.075-0.305-0.112-0.491-0.112c-0.253,0-0.463,0.067-0.629,0.204
	c-0.167,0.136-0.292,0.329-0.377,0.579c-0.084,0.25-0.127,0.582-0.127,0.992c0,0.653,0.115,1.124,0.344,1.413
	c0.191,0.24,0.453,0.361,0.79,0.361c0.253,0,0.463-0.068,0.63-0.206c0.167-0.137,0.292-0.33,0.376-0.58s0.125-0.58,0.125-0.988
	c0-0.344-0.025-0.618-0.078-0.821C17.789,13.495,17.717,13.323,17.626,13.18z M17.28,15.657c-0.134,0.19-0.298,0.285-0.494,0.285
	c-0.196,0-0.36-0.095-0.495-0.284c-0.134-0.188-0.199-0.568-0.199-1.139c0-0.569,0.072-0.961,0.219-1.172
	c0.117-0.167,0.274-0.249,0.47-0.249c0.199,0,0.365,0.093,0.499,0.281c0.134,0.188,0.201,0.568,0.201,1.14
	C17.481,15.088,17.415,15.467,17.28,15.657z M20.326,13.18c-0.094-0.141-0.209-0.249-0.349-0.324
	c-0.141-0.075-0.305-0.112-0.491-0.112c-0.253,0-0.462,0.067-0.629,0.204c-0.167,0.136-0.292,0.329-0.377,0.579
	c-0.084,0.25-0.126,0.582-0.126,0.992c0,0.653,0.114,1.124,0.343,1.413c0.191,0.24,0.455,0.361,0.79,0.361
	c0.254,0,0.464-0.068,0.631-0.206c0.167-0.137,0.292-0.33,0.376-0.58s0.126-0.58,0.126-0.988c0-0.344-0.027-0.618-0.078-0.821
	C20.488,13.495,20.416,13.323,20.326,13.18z M19.98,15.657c-0.134,0.19-0.299,0.285-0.495,0.285c-0.197,0-0.361-0.095-0.495-0.284
	c-0.133-0.188-0.199-0.568-0.199-1.139c0-0.569,0.073-0.961,0.22-1.172c0.117-0.167,0.274-0.249,0.469-0.249
	c0.2,0,0.366,0.093,0.5,0.281c0.133,0.188,0.2,0.568,0.2,1.14C20.181,15.088,20.113,15.467,19.98,15.657z M22.234,13.514v2.719
	h0.427v-3.489h-0.275c-0.075,0.15-0.201,0.305-0.379,0.465c-0.178,0.159-0.388,0.295-0.626,0.408v0.412
	c0.133-0.049,0.283-0.122,0.45-0.221C21.996,13.71,22.131,13.612,22.234,13.514z M24.346,13.209
	c-0.18,0.159-0.388,0.295-0.626,0.408v0.412c0.133-0.049,0.282-0.122,0.449-0.221c0.167-0.097,0.302-0.196,0.403-0.293v2.719H25
	v-3.489h-0.275C24.65,12.895,24.524,13.049,24.346,13.209z M28.064,13.18c-0.094-0.141-0.209-0.249-0.35-0.324
	c-0.141-0.075-0.304-0.112-0.49-0.112c-0.252,0-0.464,0.067-0.629,0.204c-0.168,0.136-0.294,0.329-0.379,0.579
	c-0.083,0.25-0.126,0.582-0.126,0.992c0,0.653,0.115,1.124,0.343,1.413c0.191,0.24,0.455,0.361,0.791,0.361
	c0.254,0,0.463-0.068,0.629-0.206c0.168-0.137,0.293-0.33,0.377-0.58s0.127-0.58,0.127-0.988c0-0.344-0.027-0.618-0.078-0.821
	C28.229,13.495,28.154,13.323,28.064,13.18z M27.719,15.657c-0.134,0.19-0.298,0.285-0.494,0.285c-0.195,0-0.36-0.095-0.494-0.284
	c-0.133-0.188-0.201-0.568-0.201-1.139c0-0.569,0.074-0.961,0.222-1.172c0.117-0.167,0.274-0.249,0.47-0.249
	c0.199,0,0.364,0.093,0.498,0.281c0.133,0.188,0.201,0.568,0.201,1.14C27.92,15.088,27.854,15.467,27.719,15.657z M11.208,19.034
	c-0.179,0.159-0.387,0.295-0.626,0.408v0.412c0.133-0.049,0.283-0.122,0.45-0.22c0.167-0.098,0.302-0.196,0.403-0.293v2.718h0.426
	V18.57h-0.275C11.513,18.719,11.386,18.874,11.208,19.034z M14.926,19.006c-0.092-0.142-0.208-0.25-0.348-0.325
	c-0.142-0.074-0.305-0.112-0.49-0.112c-0.253,0-0.464,0.068-0.631,0.204c-0.167,0.136-0.292,0.33-0.377,0.58
	c-0.083,0.25-0.125,0.581-0.125,0.991c0,0.654,0.114,1.124,0.342,1.413c0.192,0.24,0.455,0.361,0.791,0.361
	c0.253,0,0.464-0.068,0.63-0.206c0.167-0.137,0.292-0.33,0.375-0.58c0.084-0.25,0.127-0.581,0.127-0.988
	c0-0.344-0.027-0.618-0.079-0.82C15.09,19.32,15.018,19.148,14.926,19.006z M14.581,21.482c-0.134,0.189-0.298,0.284-0.493,0.284
	c-0.197,0-0.361-0.094-0.496-0.284c-0.134-0.188-0.199-0.568-0.199-1.139c0-0.57,0.073-0.96,0.219-1.173
	c0.118-0.166,0.274-0.249,0.47-0.249c0.199,0,0.365,0.094,0.499,0.281c0.134,0.188,0.201,0.568,0.201,1.14
	C14.781,20.913,14.715,21.292,14.581,21.482z M17.261,22.058v-3.489h-0.275c-0.074,0.15-0.201,0.305-0.38,0.465
	c-0.178,0.159-0.387,0.295-0.625,0.408v0.412c0.133-0.049,0.282-0.122,0.448-0.22c0.167-0.098,0.302-0.196,0.404-0.293v2.718
	L17.261,22.058L17.261,22.058z M19.173,19.34v2.718h0.426v-3.489h-0.275c-0.073,0.15-0.201,0.305-0.379,0.465
	c-0.178,0.159-0.387,0.295-0.625,0.408v0.412c0.133-0.049,0.282-0.122,0.449-0.22C18.936,19.536,19.071,19.437,19.173,19.34z
	 M22.665,19.006c-0.092-0.142-0.207-0.25-0.347-0.325c-0.142-0.074-0.305-0.112-0.49-0.112c-0.253,0-0.463,0.068-0.629,0.204
	c-0.167,0.136-0.293,0.33-0.378,0.58c-0.084,0.25-0.126,0.581-0.126,0.991c0,0.654,0.114,1.124,0.343,1.413
	c0.191,0.24,0.454,0.361,0.791,0.361c0.252,0,0.463-0.068,0.63-0.206c0.167-0.137,0.291-0.33,0.375-0.58s0.126-0.581,0.126-0.988
	c0-0.344-0.026-0.618-0.079-0.82C22.83,19.32,22.757,19.148,22.665,19.006z M22.32,21.482c-0.133,0.189-0.298,0.284-0.493,0.284
	c-0.197,0-0.362-0.094-0.496-0.284c-0.134-0.188-0.199-0.568-0.199-1.139c0-0.57,0.073-0.96,0.22-1.173
	c0.117-0.166,0.274-0.249,0.469-0.249c0.199,0,0.366,0.094,0.499,0.281c0.134,0.188,0.2,0.568,0.2,1.14
	C22.52,20.913,22.454,21.292,22.32,21.482z M24.346,19.034c-0.18,0.159-0.388,0.295-0.626,0.408v0.412
	c0.133-0.049,0.282-0.122,0.449-0.22c0.167-0.098,0.302-0.196,0.403-0.293v2.718H25V18.57h-0.275
	C24.65,18.719,24.524,18.874,24.346,19.034z M28.064,19.006c-0.094-0.142-0.209-0.25-0.35-0.325
	c-0.141-0.074-0.304-0.112-0.49-0.112c-0.252,0-0.464,0.068-0.629,0.204c-0.166,0.136-0.294,0.33-0.379,0.58
	c-0.083,0.25-0.126,0.581-0.126,0.991c0,0.654,0.115,1.124,0.343,1.413c0.191,0.24,0.455,0.361,0.791,0.361
	c0.254,0,0.463-0.068,0.629-0.206c0.168-0.137,0.293-0.33,0.377-0.58s0.127-0.581,0.127-0.988c0-0.344-0.027-0.618-0.078-0.82
	C28.229,19.32,28.154,19.148,28.064,19.006z M27.719,21.482c-0.134,0.189-0.298,0.284-0.494,0.284c-0.195,0-0.36-0.094-0.494-0.284
	c-0.133-0.188-0.201-0.568-0.201-1.139c0-0.57,0.074-0.96,0.222-1.173c0.117-0.166,0.274-0.249,0.47-0.249
	c0.199,0,0.364,0.094,0.498,0.281c0.133,0.188,0.201,0.568,0.201,1.14C27.92,20.913,27.854,21.292,27.719,21.482z M29.744,19.034
	c-0.178,0.159-0.389,0.295-0.626,0.408v0.412c0.133-0.049,0.282-0.122,0.45-0.22c0.166-0.098,0.3-0.196,0.402-0.293v2.718h0.426
	V18.57h-0.274C30.049,18.719,29.923,18.874,29.744,19.034z M11.208,24.859c-0.179,0.159-0.387,0.295-0.626,0.408v0.413
	c0.133-0.05,0.283-0.123,0.45-0.222c0.167-0.098,0.302-0.196,0.403-0.293v2.718h0.426v-3.489h-0.275
	C11.513,24.544,11.386,24.699,11.208,24.859z M14.926,24.832c-0.092-0.142-0.208-0.25-0.348-0.325
	c-0.142-0.074-0.305-0.112-0.49-0.112c-0.253,0-0.464,0.068-0.631,0.204c-0.167,0.136-0.292,0.329-0.377,0.579
	c-0.083,0.251-0.125,0.581-0.125,0.992c0,0.653,0.114,1.123,0.342,1.413c0.192,0.24,0.455,0.36,0.791,0.36
	c0.253,0,0.464-0.068,0.63-0.205c0.167-0.137,0.292-0.33,0.375-0.581c0.084-0.25,0.127-0.58,0.127-0.987
	c0-0.345-0.027-0.619-0.079-0.821C15.09,25.145,15.018,24.973,14.926,24.832z M14.581,27.307c-0.134,0.189-0.298,0.285-0.493,0.285
	c-0.197,0-0.361-0.095-0.496-0.283c-0.134-0.188-0.199-0.567-0.199-1.139c0-0.57,0.073-0.961,0.219-1.173
	c0.118-0.166,0.274-0.249,0.47-0.249c0.199,0,0.365,0.094,0.499,0.282c0.134,0.188,0.201,0.57,0.201,1.14
	C14.781,26.739,14.715,27.118,14.581,27.307z M17.626,24.832c-0.092-0.142-0.209-0.25-0.349-0.325
	c-0.142-0.074-0.305-0.112-0.491-0.112c-0.253,0-0.463,0.068-0.629,0.204c-0.167,0.136-0.292,0.329-0.377,0.579
	c-0.084,0.251-0.127,0.581-0.127,0.992c0,0.653,0.115,1.123,0.344,1.413c0.191,0.24,0.453,0.36,0.79,0.36
	c0.253,0,0.463-0.068,0.63-0.205s0.292-0.33,0.376-0.581s0.125-0.58,0.125-0.987c0-0.345-0.025-0.619-0.078-0.821
	C17.789,25.145,17.717,24.973,17.626,24.832z M17.28,27.307c-0.134,0.189-0.298,0.285-0.494,0.285c-0.196,0-0.36-0.095-0.495-0.283
	c-0.134-0.188-0.199-0.567-0.199-1.139c0-0.57,0.072-0.961,0.219-1.173c0.117-0.166,0.274-0.249,0.47-0.249
	c0.199,0,0.365,0.094,0.499,0.282c0.134,0.188,0.201,0.57,0.201,1.14C17.481,26.739,17.415,27.118,17.28,27.307z M20.326,24.832
	c-0.094-0.142-0.209-0.25-0.349-0.325c-0.141-0.074-0.305-0.112-0.491-0.112c-0.253,0-0.462,0.068-0.629,0.204
	c-0.167,0.136-0.292,0.329-0.377,0.579c-0.084,0.251-0.126,0.581-0.126,0.992c0,0.653,0.114,1.123,0.343,1.413
	c0.191,0.24,0.455,0.36,0.79,0.36c0.254,0,0.464-0.068,0.631-0.205s0.292-0.33,0.376-0.581s0.126-0.58,0.126-0.987
	c0-0.345-0.027-0.619-0.078-0.821C20.488,25.145,20.416,24.973,20.326,24.832z M19.98,27.307c-0.134,0.189-0.299,0.285-0.495,0.285
	c-0.197,0-0.361-0.095-0.495-0.283c-0.133-0.188-0.199-0.567-0.199-1.139c0-0.57,0.073-0.961,0.22-1.173
	c0.117-0.166,0.274-0.249,0.469-0.249c0.2,0,0.366,0.094,0.5,0.282c0.133,0.188,0.2,0.57,0.2,1.14
	C20.181,26.739,20.113,27.118,19.98,27.307z M22.006,24.859c-0.178,0.159-0.388,0.295-0.626,0.408v0.413
	c0.133-0.05,0.283-0.123,0.45-0.222c0.166-0.098,0.301-0.196,0.404-0.293v2.718h0.427v-3.489h-0.275
	C22.311,24.544,22.185,24.699,22.006,24.859z M24.346,24.859c-0.18,0.159-0.388,0.295-0.626,0.408v0.413
	c0.133-0.05,0.282-0.123,0.449-0.222c0.167-0.098,0.302-0.196,0.403-0.293v2.718H25v-3.489h-0.275
	C24.65,24.544,24.524,24.699,24.346,24.859z M28.064,24.832c-0.094-0.142-0.209-0.25-0.35-0.325
	c-0.141-0.074-0.304-0.112-0.49-0.112c-0.252,0-0.464,0.068-0.629,0.204c-0.168,0.136-0.294,0.329-0.379,0.579
	c-0.083,0.251-0.126,0.581-0.126,0.992c0,0.653,0.115,1.123,0.343,1.413c0.191,0.24,0.455,0.36,0.791,0.36
	c0.254,0,0.463-0.068,0.629-0.205c0.168-0.137,0.293-0.33,0.377-0.581s0.127-0.58,0.127-0.987c0-0.345-0.027-0.619-0.078-0.821
	C28.229,25.145,28.154,24.973,28.064,24.832z M27.719,27.307c-0.134,0.189-0.298,0.285-0.494,0.285c-0.195,0-0.36-0.095-0.494-0.283
	c-0.133-0.188-0.201-0.567-0.201-1.139c0-0.57,0.074-0.961,0.222-1.173c0.117-0.166,0.274-0.249,0.47-0.249
	c0.199,0,0.364,0.094,0.498,0.282c0.133,0.188,0.201,0.57,0.201,1.14C27.92,26.739,27.854,27.118,27.719,27.307z M35.648,19.375
	c0-8.783-7.146-15.928-15.927-15.928c-8.782,0-15.929,7.145-15.929,15.928s7.146,15.928,15.928,15.928
	C28.502,35.303,35.648,28.158,35.648,19.375z M9.187,13.79c0.13,0.191,0.195,0.566,0.195,1.128c0,0.569-0.066,0.948-0.201,1.138
	c-0.135,0.19-0.298,0.285-0.494,0.285c-0.169,0-0.309-0.085-0.432-0.225C8.487,15.303,8.797,14.522,9.187,13.79z M30.123,24.793
	c-0.074,0.15-0.2,0.305-0.379,0.465c-0.178,0.159-0.389,0.295-0.626,0.408v0.412c0.133-0.049,0.282-0.123,0.45-0.221
	c0.113-0.066,0.189-0.133,0.273-0.199c-2.107,3.383-5.851,5.646-10.122,5.646c-4.15,0-7.809-2.134-9.946-5.359
	c-0.011-0.066-0.018-0.141-0.033-0.197c-0.052-0.204-0.125-0.376-0.215-0.517c-0.092-0.142-0.209-0.25-0.349-0.325
	c-0.006-0.003-0.014-0.004-0.021-0.008c-0.492-0.938-0.865-1.947-1.094-3.01c0.171,0.138,0.371,0.23,0.624,0.23
	c0.254,0,0.464-0.068,0.63-0.206c0.168-0.137,0.293-0.33,0.377-0.58s0.125-0.581,0.125-0.988c0-0.344-0.025-0.618-0.078-0.82
	c-0.052-0.204-0.125-0.375-0.215-0.517c-0.092-0.142-0.209-0.25-0.349-0.325c-0.141-0.074-0.304-0.112-0.491-0.112
	c-0.252,0-0.463,0.068-0.629,0.204c-0.101,0.082-0.181,0.192-0.251,0.316c0.021-0.881,0.14-1.736,0.343-2.56
	c0.154,0.096,0.327,0.162,0.538,0.162c0.254,0,0.464-0.068,0.63-0.206c0.168-0.137,0.293-0.33,0.377-0.58s0.125-0.58,0.125-0.988
	c0-0.344-0.025-0.618-0.078-0.821c-0.052-0.203-0.125-0.375-0.215-0.518c-0.038-0.058-0.097-0.086-0.143-0.132
	c2.061-3.58,5.918-6.001,10.337-6.001c4.275,0,8.021,2.268,10.127,5.656c-0.035,0.036-0.062,0.071-0.104,0.107
	c-0.178,0.159-0.389,0.295-0.626,0.408v0.412c0.133-0.049,0.282-0.122,0.45-0.221c0.166-0.097,0.3-0.196,0.402-0.293v2.719h0.426
	v-2.146c0.795,1.596,1.252,3.387,1.252,5.288c0,0.117-0.014,0.231-0.018,0.348c-0.004,0.011-0.01,0.018-0.014,0.029
	c-0.083,0.25-0.127,0.581-0.127,0.991c0,0.131,0.008,0.25,0.018,0.367c-0.191,1.309-0.592,2.548-1.174,3.684h-0.209V24.793z
	 M7.993,20.344c0-0.57,0.072-0.96,0.219-1.173c0.116-0.166,0.274-0.249,0.47-0.249c0.2,0,0.365,0.094,0.499,0.281
	c0.134,0.188,0.201,0.568,0.201,1.14c0,0.569-0.066,0.949-0.201,1.139c-0.134,0.189-0.298,0.284-0.494,0.284
	s-0.36-0.094-0.494-0.284C8.059,21.294,7.993,20.915,7.993,20.344z M30.449,34.316l3.521-3.522l12.236,12.237l-3.521,3.521
	L30.449,34.316z"/>
</svg>
