<?xml version="1.0" encoding="utf-8"?>
<!-- Generator: Adobe Illustrator 16.0.0, SVG Export Plug-In . SVG Version: 6.00 Build 0)  -->
<!DOCTYPE svg PUBLIC "-//W3C//DTD SVG 1.1//EN" "http://www.w3.org/Graphics/SVG/1.1/DTD/svg11.dtd">
<svg version="1.1" xmlns="http://www.w3.org/2000/svg" xmlns:xlink="http://www.w3.org/1999/xlink" x="0px" y="0px" width="50px"
	 height="50px" viewBox="0 0 50 50" enable-background="new 0 0 50 50" xml:space="preserve">
<g id="text">
</g>
<g id="_x31_">
</g>
<g id="_x32_">
</g>
<g id="_x33__1_">
</g>
<g id="_x34_">
</g>
<g id="_x35_">
</g>
<g id="_x36_">
</g>
<g id="_x37_">
</g>
<g id="_x38_">
</g>
<g id="_x39_">
</g>
<g id="_x31_0">
</g>
<g id="_x31_1">
</g>
<g id="_x31_2">
</g>
<g id="_x31_3">
</g>
<g id="_x31_4">
</g>
<g id="_x31_5">
</g>
<g id="_x31_6">
</g>
<g id="_x31_7">
</g>
<g id="_x31_8">
</g>
<g id="_x31_9">
</g>
<g id="_x32_0">
</g>
<g id="_x32_1">
</g>
<g id="_x32_2">
</g>
<g id="_x32_3">
</g>
<g id="_x32_4">
</g>
<g id="_x32_5">
</g>
<g id="_x32_6">
</g>
<g id="_x32_7">
</g>
<g id="_x32_8">
</g>
<g id="_x32_9">
</g>
<g id="_x33_0">
</g>
<g id="_x33_1">
</g>
<g id="_x33_2">
</g>
<g id="_x33_3">
</g>
<g id="_x33_4">
</g>
<g id="_x33_5">
</g>
<g id="_x33_6">
</g>
<g id="_x33_7">
</g>
<g id="_x33_8">
</g>
<g id="_x33_9">
</g>
<g id="_x34_0">
</g>
<g id="_x34_1">
</g>
<g id="_x34_2">
</g>
<g id="_x34_3">
</g>
<g id="_x34_4">
	<g>
		<path d="M35.494,21.153H14.248v8.011h21.246V21.153z M18.994,26.785c-0.891,0-1.611-0.721-1.611-1.611s0.721-1.611,1.611-1.611
			c0.89,0,1.61,0.721,1.61,1.611S19.884,26.785,18.994,26.785z M24.933,26.785c-0.89,0-1.61-0.721-1.61-1.611
			s0.721-1.611,1.61-1.611s1.611,0.721,1.611,1.611S25.822,26.785,24.933,26.785z"/>
		<path d="M34.002,1.393v5.669h5.826l-5.303,5.046H15.809l-5.39-5.046h5.578V1.393H0.96v5.669h6.533l6.755,6.326v6.731h21.246
			v-6.172l7.234-6.885h6.311V1.393H34.002z M12.874,3.087c0.63,0,1.142,0.511,1.142,1.141c0,0.629-0.512,1.14-1.142,1.14
			c-0.629,0-1.139-0.511-1.139-1.14C11.735,3.598,12.245,3.087,12.874,3.087z M8.522,3.099c0.63,0,1.14,0.51,1.14,1.139
			c0,0.63-0.51,1.141-1.14,1.141c-0.629,0-1.141-0.51-1.141-1.141C7.382,3.609,7.894,3.099,8.522,3.099z M4.319,5.379
			c-0.631,0-1.141-0.51-1.141-1.141c0-0.629,0.51-1.139,1.141-1.139c0.63,0,1.14,0.51,1.14,1.139
			C5.459,4.869,4.949,5.379,4.319,5.379z M18.994,17.741c-0.891,0-1.611-0.721-1.611-1.611c0-0.89,0.721-1.611,1.611-1.611
			c0.89,0,1.61,0.721,1.61,1.611C20.604,17.02,19.884,17.741,18.994,17.741z M24.933,17.741c-0.89,0-1.61-0.721-1.61-1.611
			c0-0.89,0.721-1.611,1.61-1.611s1.611,0.721,1.611,1.611C26.544,17.02,25.822,17.741,24.933,17.741z M31.082,17.725
			c-0.89,0-1.61-0.721-1.61-1.611s0.721-1.611,1.61-1.611c0.891,0,1.611,0.721,1.611,1.611S31.973,17.725,31.082,17.725z
			 M41.564,3.099c0.63,0,1.14,0.51,1.14,1.139c0,0.63-0.51,1.141-1.14,1.141c-0.629,0-1.141-0.51-1.141-1.141
			C40.424,3.609,40.936,3.099,41.564,3.099z M37.361,5.379c-0.631,0-1.141-0.51-1.141-1.141c0-0.629,0.51-1.139,1.141-1.139
			c0.63,0,1.14,0.51,1.14,1.139C38.501,4.869,37.991,5.379,37.361,5.379z M45.916,5.368c-0.629,0-1.139-0.511-1.139-1.14
			c0-0.63,0.51-1.141,1.139-1.141c0.63,0,1.142,0.511,1.142,1.141C47.058,4.857,46.546,5.368,45.916,5.368z"/>
		<path d="M35.494,36.663v-6.164H14.248v6.602l-6.233,5.837H0.96v5.669h15.037v-5.669H10.94l4.729-4.429h18.87l4.036,3.779h-4.574
			v5.669h15.037v-5.669h-7.537L35.494,36.663z M4.319,46.924c-0.631,0-1.141-0.51-1.141-1.141c0-0.629,0.51-1.139,1.141-1.139
			c0.63,0,1.14,0.51,1.14,1.139C5.459,46.414,4.949,46.924,4.319,46.924z M8.522,46.924c-0.629,0-1.141-0.51-1.141-1.141
			c0-0.629,0.512-1.139,1.141-1.139c0.63,0,1.14,0.51,1.14,1.139C9.662,46.414,9.152,46.924,8.522,46.924z M12.874,44.632
			c0.63,0,1.142,0.511,1.142,1.141c0,0.629-0.512,1.14-1.142,1.14c-0.629,0-1.139-0.511-1.139-1.14
			C11.735,45.143,12.245,44.632,12.874,44.632z M33.013,36.782H16.729v-4.557h16.283V36.782z M37.361,46.275
			c-0.631,0-1.141-0.51-1.141-1.141c0-0.629,0.51-1.139,1.141-1.139c0.63,0,1.14,0.51,1.14,1.139
			C38.501,45.765,37.991,46.275,37.361,46.275z M45.916,43.983c0.63,0,1.142,0.511,1.142,1.141c0,0.629-0.512,1.14-1.142,1.14
			c-0.629,0-1.139-0.511-1.139-1.14C44.777,44.494,45.287,43.983,45.916,43.983z M42.704,45.134c0,0.63-0.51,1.141-1.14,1.141
			c-0.629,0-1.141-0.51-1.141-1.141c0-0.629,0.512-1.139,1.141-1.139C42.194,43.995,42.704,44.505,42.704,45.134z"/>
	</g>
</g>
<g id="_x34_5">
</g>
<g id="_x34_6">
</g>
<g id="_x34_7">
</g>
<g id="_x34_8">
</g>
<g id="_x34_9">
</g>
<g id="_x35_0">
</g>
<g id="_x35_1">
</g>
<g id="_x35_2">
</g>
<g id="_x35_3">
</g>
<g id="_x35_4">
</g>
<g id="_x35_5">
</g>
<g id="_x35_6">
</g>
<g id="_x35_7">
</g>
<g id="_x35_8">
</g>
<g id="_x35_9">
</g>
<g id="_x36_0">
</g>
<g id="_x36_1">
</g>
<g id="_x36_2">
</g>
<g id="_x36_3">
</g>
<g id="_x36_4">
</g>
<g id="_x36_5">
</g>
<g id="_x36_6">
</g>
<g id="_x36_7">
</g>
<g id="_x36_8">
</g>
<g id="_x36_9">
</g>
<g id="_x37_0">
</g>
<g id="_x37_1">
</g>
<g id="_x37_2">
</g>
<g id="_x37_3">
</g>
<g id="_x37_4">
</g>
<g id="_x37_5">
</g>
<g id="_x37_6">
</g>
<g id="_x37_7">
</g>
<g id="_x37_8">
</g>
<g id="_x37_9">
</g>
<g id="_x38_0">
</g>
<g id="_x38_1">
</g>
<g id="_x38_2">
</g>
<g id="_x38_3">
</g>
<g id="_x38_4">
</g>
<g id="_x38_5">
</g>
<g id="_x38_6">
</g>
<g id="_x38_7">
</g>
<g id="_x38_8">
</g>
<g id="_x38_9">
</g>
<g id="_x39_0">
</g>
<g id="_x39_1">
</g>
<g id="_x39_2">
</g>
<g id="_x39_3">
</g>
<g id="_x39_4">
</g>
<g id="_x39_5">
</g>
<g id="_x39_6">
</g>
<g id="_x39_7">
</g>
<g id="_x39_8">
</g>
<g id="_x39_9">
</g>
<g id="_x31_00">
</g>
<g id="_x31_01">
</g>
<g id="_x31_02">
</g>
<g id="_x31_03">
</g>
<g id="_x31_04">
</g>
<g id="_x31_05">
</g>
<g id="_x31_06">
</g>
<g id="_x31_07">
</g>
<g id="_x31_08">
</g>
<g id="_x31_09">
</g>
<g id="_x31_10">
</g>
<g id="_x31_11">
</g>
<g id="_x31_12">
</g>
<g id="_x31_13">
</g>
<g id="_x31_14">
</g>
<g id="_x31_15">
</g>
<g id="_x31_16">
</g>
<g id="_x31_17">
</g>
<g id="_x31_18">
</g>
<g id="_x31_19">
</g>
<g id="_x31_20">
</g>
<g id="_x31_21">
</g>
<g id="_x31_22">
</g>
<g id="_x31_23">
</g>
<g id="_x31_24">
</g>
<g id="_x31_25">
</g>
<g id="_x31_26">
</g>
<g id="_x31_27">
</g>
<g id="_x31_28">
</g>
<g id="_x31_29">
</g>
<g id="_x31_30">
</g>
<g id="_x31_31">
</g>
<g id="_x31_32">
</g>
<g id="_x31_33">
</g>
<g id="_x31_34">
</g>
<g id="_x31_35">
</g>
<g id="_x31_36">
</g>
<g id="_x31_37">
</g>
<g id="_x31_38">
</g>
<g id="_x31_39">
</g>
<g id="_x31_40">
</g>
<g id="_x31_41">
</g>
<g id="_x31_42">
</g>
<g id="_x31_43">
</g>
<g id="_x31_44">
</g>
<g id="_x31_45">
</g>
<g id="_x31_46">
</g>
<g id="_x31_47">
</g>
<g id="_x31_48">
</g>
<g id="_x31_49">
</g>
<g id="_x31_50">
</g>
<g id="_x31_51">
</g>
<g id="_x31_52">
</g>
<g id="_x31_53">
</g>
<g id="_x31_54">
</g>
<g id="_x31_55">
</g>
<g id="_x31_56">
</g>
<g id="_x31_57">
</g>
<g id="_x31_58">
</g>
<g id="_x31_59">
</g>
<g id="_x31_60">
</g>
<g id="_x31_61">
</g>
<g id="_x31_62">
</g>
<g id="_x31_63">
</g>
<g id="_x31_64">
</g>
<g id="_x31_65">
</g>
<g id="_x31_66">
</g>
<g id="_x31_67">
</g>
<g id="_x31_68">
</g>
<g id="_x31_69">
</g>
<g id="_x31_70">
</g>
<g id="_x31_71">
</g>
<g id="_x31_72">
</g>
<g id="_x31_73">
</g>
<g id="_x31_74">
</g>
<g id="_x31_75">
</g>
<g id="_x31_76">
</g>
<g id="_x31_77">
</g>
<g id="_x31_78">
</g>
<g id="_x31_79">
</g>
<g id="_x31_80">
</g>
<g id="_x31_81">
</g>
<g id="_x31_82">
</g>
<g id="_x31_83">
</g>
<g id="_x31_84">
</g>
<g id="_x31_85">
</g>
<g id="_x31_86">
</g>
<g id="_x31_87">
</g>
<g id="_x31_88">
</g>
<g id="_x31_89">
</g>
<g id="_x31_90">
</g>
</svg>
