<?xml version="1.0" encoding="utf-8"?>
<!-- Generator: Adobe Illustrator 16.0.0, SVG Export Plug-In . SVG Version: 6.00 Build 0)  -->
<!DOCTYPE svg PUBLIC "-//W3C//DTD SVG 1.1//EN" "http://www.w3.org/Graphics/SVG/1.1/DTD/svg11.dtd">
<svg version="1.1" xmlns="http://www.w3.org/2000/svg" xmlns:xlink="http://www.w3.org/1999/xlink" x="0px" y="0px" width="50px"
	 height="50px" viewBox="0 0 50 50" enable-background="new 0 0 50 50" xml:space="preserve">
<g id="text">
</g>
<g id="_x31_">
</g>
<g id="_x32_">
</g>
<g id="_x33__1_">
</g>
<g id="_x34_">
</g>
<g id="_x35_">
</g>
<g id="_x36_">
</g>
<g id="_x37_">
</g>
<g id="_x38_">
</g>
<g id="_x39_">
</g>
<g id="_x31_0">
</g>
<g id="_x31_1">
</g>
<g id="_x31_2">
</g>
<g id="_x31_3">
</g>
<g id="_x31_4">
	<g>
		<path d="M41.207,25.288c0.093-2.566-1.086-5.165-3.969-5.27c-2.872-0.106-4.1,2.768-4.098,5.242
			c-0.337,0.036-0.638,0.104-0.838,0.253c-0.216,0.162-0.12,1.321-0.12,1.63c0,1.166,0,2.333,0,3.501c0,0.898,0,1.797,0,2.694
			c0,0.683,0.923,0.599,1.689,0.599c1.864,0,3.729,0,5.595,0c0.841,0,2.593,0.256,2.911-0.427c0.001-0.001,0.001-0.005,0.004-0.007
			c0.001-0.003,0.004-0.006,0.005-0.01c0.003-0.004,0.001-0.008,0.001-0.012c0.001-0.005,0.004-0.008,0.004-0.013
			c0-1.812,0-3.623,0-5.435c0-0.745,0-1.488,0-2.233C42.391,25.348,41.786,25.286,41.207,25.288z M38.452,32.061
			c-0.737,0-1.474,0-2.209,0c-0.134,0-0.247-0.143-0.204-0.279c0.225-0.707,0.449-1.413,0.673-2.12
			c-0.386-0.228-0.67-0.633-0.644-1.133c0.036-0.693,0.558-1.374,1.28-1.334c0.722,0.042,1.238,0.579,1.277,1.334
			c-0.022,0.448-0.25,0.885-0.6,1.132c0.211,0.708,0.421,1.415,0.631,2.121C38.697,31.917,38.586,32.061,38.452,32.061z
			 M40.392,25.3c-1.693,0-3.387,0-5.081,0c-0.361,0-0.861-0.045-1.361-0.061c0-2.101,0.883-4.323,3.288-4.411
			C39.674,20.738,40.454,23.264,40.392,25.3z"/>
		<path d="M38.109,6.049h-30.5v11.5h30.5V6.049z M14.422,14.135c-1.277,0-2.313-1.035-2.313-2.313s1.035-2.313,2.313-2.313
			s2.313,1.035,2.313,2.313S15.699,14.135,14.422,14.135z M22.949,14.135c-1.277,0-2.313-1.035-2.313-2.313s1.035-2.313,2.313-2.313
			s2.313,1.035,2.313,2.313S24.226,14.135,22.949,14.135z M31.776,14.112c-1.277,0-2.313-1.035-2.313-2.313s1.035-2.313,2.313-2.313
			s2.313,1.035,2.313,2.313S33.053,14.112,31.776,14.112z"/>
		<path d="M27.401,27.54c0-3.627,1.962-6.79,4.877-8.506H7.609v11.5h20.256C27.565,29.589,27.401,28.584,27.401,27.54z
			 M14.422,27.119c-1.277,0-2.313-1.035-2.313-2.313s1.035-2.313,2.313-2.313s2.313,1.035,2.313,2.313S15.699,27.119,14.422,27.119z
			 M22.949,27.119c-1.277,0-2.313-1.035-2.313-2.313s1.035-2.313,2.313-2.313s2.313,1.035,2.313,2.313S24.226,27.119,22.949,27.119z
			"/>
		<path d="M34.547,37.024v4.447H11.172v-6.542h19.569c-0.802-0.709-1.487-1.545-2.024-2.479H7.609v11.5h30.5v-6.577
			c-0.275,0.023-0.552,0.042-0.833,0.042C36.328,37.415,35.415,37.274,34.547,37.024z"/>
	</g>
</g>
<g id="_x31_5">
</g>
<g id="_x31_6">
</g>
<g id="_x31_7">
</g>
<g id="_x31_8">
</g>
<g id="_x31_9">
</g>
<g id="_x32_0">
</g>
<g id="_x32_1">
</g>
<g id="_x32_2">
</g>
<g id="_x32_3">
</g>
<g id="_x32_4">
</g>
<g id="_x32_5">
</g>
<g id="_x32_6">
</g>
<g id="_x32_7">
</g>
<g id="_x32_8">
</g>
<g id="_x32_9">
</g>
<g id="_x33_0">
</g>
<g id="_x33_1">
</g>
<g id="_x33_2">
</g>
<g id="_x33_3">
</g>
<g id="_x33_4">
</g>
<g id="_x33_5">
</g>
<g id="_x33_6">
</g>
<g id="_x33_7">
</g>
<g id="_x33_8">
</g>
<g id="_x33_9">
</g>
<g id="_x34_0">
</g>
<g id="_x34_1">
</g>
<g id="_x34_2">
</g>
<g id="_x34_3">
</g>
<g id="_x34_4">
</g>
<g id="_x34_5">
</g>
<g id="_x34_6">
</g>
<g id="_x34_7">
</g>
<g id="_x34_8">
</g>
<g id="_x34_9">
</g>
<g id="_x35_0">
</g>
<g id="_x35_1">
</g>
<g id="_x35_2">
</g>
<g id="_x35_3">
</g>
<g id="_x35_4">
</g>
<g id="_x35_5">
</g>
<g id="_x35_6">
</g>
<g id="_x35_7">
</g>
<g id="_x35_8">
</g>
<g id="_x35_9">
</g>
<g id="_x36_0">
</g>
<g id="_x36_1">
</g>
<g id="_x36_2">
</g>
<g id="_x36_3">
</g>
<g id="_x36_4">
</g>
<g id="_x36_5">
</g>
<g id="_x36_6">
</g>
<g id="_x36_7">
</g>
<g id="_x36_8">
</g>
<g id="_x36_9">
</g>
<g id="_x37_0">
</g>
<g id="_x37_1">
</g>
<g id="_x37_2">
</g>
<g id="_x37_3">
</g>
<g id="_x37_4">
</g>
<g id="_x37_5">
</g>
<g id="_x37_6">
</g>
<g id="_x37_7">
</g>
<g id="_x37_8">
</g>
<g id="_x37_9">
</g>
<g id="_x38_0">
</g>
<g id="_x38_1">
</g>
<g id="_x38_2">
</g>
<g id="_x38_3">
</g>
<g id="_x38_4">
</g>
<g id="_x38_5">
</g>
<g id="_x38_6">
</g>
<g id="_x38_7">
</g>
<g id="_x38_8">
</g>
<g id="_x38_9">
</g>
<g id="_x39_0">
</g>
<g id="_x39_1">
</g>
<g id="_x39_2">
</g>
<g id="_x39_3">
</g>
<g id="_x39_4">
</g>
<g id="_x39_5">
</g>
<g id="_x39_6">
</g>
<g id="_x39_7">
</g>
<g id="_x39_8">
</g>
<g id="_x39_9">
</g>
<g id="_x31_00">
</g>
<g id="_x31_01">
</g>
<g id="_x31_02">
</g>
<g id="_x31_03">
</g>
<g id="_x31_04">
</g>
<g id="_x31_05">
</g>
<g id="_x31_06">
</g>
<g id="_x31_07">
</g>
<g id="_x31_08">
</g>
<g id="_x31_09">
</g>
<g id="_x31_10">
</g>
<g id="_x31_11">
</g>
<g id="_x31_12">
</g>
<g id="_x31_13">
</g>
<g id="_x31_14">
</g>
<g id="_x31_15">
</g>
<g id="_x31_16">
</g>
<g id="_x31_17">
</g>
<g id="_x31_18">
</g>
<g id="_x31_19">
</g>
<g id="_x31_20">
</g>
<g id="_x31_21">
</g>
<g id="_x31_22">
</g>
<g id="_x31_23">
</g>
<g id="_x31_24">
</g>
<g id="_x31_25">
</g>
<g id="_x31_26">
</g>
<g id="_x31_27">
</g>
<g id="_x31_28">
</g>
<g id="_x31_29">
</g>
<g id="_x31_30">
</g>
<g id="_x31_31">
</g>
<g id="_x31_32">
</g>
<g id="_x31_33">
</g>
<g id="_x31_34">
</g>
<g id="_x31_35">
</g>
<g id="_x31_36">
</g>
<g id="_x31_37">
</g>
<g id="_x31_38">
</g>
<g id="_x31_39">
</g>
<g id="_x31_40">
</g>
<g id="_x31_41">
</g>
<g id="_x31_42">
</g>
<g id="_x31_43">
</g>
<g id="_x31_44">
</g>
<g id="_x31_45">
</g>
<g id="_x31_46">
</g>
<g id="_x31_47">
</g>
<g id="_x31_48">
</g>
<g id="_x31_49">
</g>
<g id="_x31_50">
</g>
<g id="_x31_51">
</g>
<g id="_x31_52">
</g>
<g id="_x31_53">
</g>
<g id="_x31_54">
</g>
<g id="_x31_55">
</g>
<g id="_x31_56">
</g>
<g id="_x31_57">
</g>
<g id="_x31_58">
</g>
<g id="_x31_59">
</g>
<g id="_x31_60">
</g>
<g id="_x31_61">
</g>
<g id="_x31_62">
</g>
<g id="_x31_63">
</g>
<g id="_x31_64">
</g>
<g id="_x31_65">
</g>
<g id="_x31_66">
</g>
<g id="_x31_67">
</g>
<g id="_x31_68">
</g>
<g id="_x31_69">
</g>
<g id="_x31_70">
</g>
<g id="_x31_71">
</g>
<g id="_x31_72">
</g>
<g id="_x31_73">
</g>
<g id="_x31_74">
</g>
<g id="_x31_75">
</g>
<g id="_x31_76">
</g>
<g id="_x31_77">
</g>
<g id="_x31_78">
</g>
<g id="_x31_79">
</g>
<g id="_x31_80">
</g>
<g id="_x31_81">
</g>
<g id="_x31_82">
</g>
<g id="_x31_83">
</g>
<g id="_x31_84">
</g>
<g id="_x31_85">
</g>
<g id="_x31_86">
</g>
<g id="_x31_87">
</g>
<g id="_x31_88">
</g>
<g id="_x31_89">
</g>
<g id="_x31_90">
</g>
</svg>
