<?xml version="1.0" encoding="utf-8"?>
<!-- Generator: Adobe Illustrator 16.0.4, SVG Export Plug-In . SVG Version: 6.00 Build 0)  -->
<!DOCTYPE svg PUBLIC "-//W3C//DTD SVG 1.1//EN" "http://www.w3.org/Graphics/SVG/1.1/DTD/svg11.dtd">
<svg version="1.1" id="Capa_1" xmlns="http://www.w3.org/2000/svg" xmlns:xlink="http://www.w3.org/1999/xlink" x="0px" y="0px"
	 width="50px" height="50px" viewBox="0 0 50 50" enable-background="new 0 0 50 50" xml:space="preserve">
<path d="M32.961,6.049h-30.5v11.5h30.5V6.049z M9.273,14.135c-1.277,0-2.313-1.035-2.313-2.313c0-1.278,1.036-2.312,2.313-2.312
	s2.313,1.035,2.313,2.313C11.586,13.101,10.551,14.135,9.273,14.135z M17.8,14.135c-1.277,0-2.313-1.035-2.313-2.313
	c0-1.278,1.035-2.312,2.313-2.312c1.278,0,2.313,1.035,2.313,2.313C20.113,13.101,19.077,14.135,17.8,14.135z M26.627,14.112
	c-1.277,0-2.313-1.035-2.313-2.313c0-1.278,1.035-2.313,2.313-2.313c1.277,0,2.312,1.035,2.312,2.313
	C28.939,13.077,27.904,14.112,26.627,14.112z M22.252,27.54c0-3.627,1.962-6.79,4.877-8.506H2.461v11.5h20.256
	C22.416,29.589,22.252,28.584,22.252,27.54z M9.273,27.119c-1.277,0-2.313-1.035-2.313-2.313c0-1.278,1.035-2.313,2.313-2.313
	s2.313,1.035,2.313,2.313C11.586,26.084,10.551,27.119,9.273,27.119z M17.8,27.119c-1.277,0-2.313-1.035-2.313-2.313
	c0-1.278,1.035-2.313,2.313-2.313c1.278,0,2.313,1.035,2.313,2.313C20.113,26.084,19.077,27.119,17.8,27.119z M29.398,37.023v4.447
	H6.023V34.93h19.568c-0.802-0.709-1.487-1.546-2.024-2.479H2.461v11.5h30.5v-6.577c-0.275,0.023-0.553,0.042-0.834,0.042
	C31.18,37.415,30.266,37.273,29.398,37.023z M42.012,27.371c0-4.597-3.74-8.337-8.338-8.337s-8.338,3.74-8.338,8.337
	c0,4.597,3.74,8.337,8.338,8.337S42.012,31.968,42.012,27.371z M33.674,33.615c-3.443,0-6.244-2.801-6.244-6.244
	c0-3.443,2.801-6.244,6.244-6.244s6.244,2.801,6.244,6.244C39.918,30.814,37.117,33.615,33.674,33.615z M39.289,35.191l1.843-1.844
	l6.405,6.405l-1.844,1.843L39.289,35.191z"/>
</svg>
