<?xml version="1.0" encoding="utf-8"?>
<!-- Generator: Adobe Illustrator 16.0.0, SVG Export Plug-In . SVG Version: 6.00 Build 0)  -->
<!DOCTYPE svg PUBLIC "-//W3C//DTD SVG 1.1//EN" "http://www.w3.org/Graphics/SVG/1.1/DTD/svg11.dtd">
<svg version="1.1" xmlns="http://www.w3.org/2000/svg" xmlns:xlink="http://www.w3.org/1999/xlink" x="0px" y="0px" width="50px"
	 height="50px" viewBox="0 0 50 50" enable-background="new 0 0 50 50" xml:space="preserve">
<g id="text">
</g>
<g id="_x31_">
</g>
<g id="_x32_">
</g>
<g id="_x33__1_">
</g>
<g id="_x34_">
</g>
<g id="_x35_">
</g>
<g id="_x36_">
</g>
<g id="_x37_">
</g>
<g id="_x38_">
</g>
<g id="_x39_">
</g>
<g id="_x31_0">
</g>
<g id="_x31_1">
</g>
<g id="_x31_2">
</g>
<g id="_x31_3">
</g>
<g id="_x31_4">
</g>
<g id="_x31_5">
</g>
<g id="_x31_6">
</g>
<g id="_x31_7">
</g>
<g id="_x31_8">
</g>
<g id="_x31_9">
</g>
<g id="_x32_0">
</g>
<g id="_x32_1">
</g>
<g id="_x32_2">
</g>
<g id="_x32_3">
</g>
<g id="_x32_4">
	<g>
		<path d="M32.414,12.536c0-0.114,0-0.228,0-0.342V9.109V8.845H19.251H17.73v3.691v28.354h0.009v0.264h13.154h1.521h0.009v-1.663
			c0.006-0.041,0.006-0.079,0-0.116v-1.912h-0.009C32.414,29.154,32.414,20.846,32.414,12.536z M20.622,24.021
			c0-0.24,0.194-0.435,0.436-0.435h8.061c0.242,0,0.436,0.195,0.436,0.435v0.916c0,0.241-0.193,0.436-0.436,0.436h-8.061
			c-0.241,0-0.436-0.195-0.436-0.436V24.021z M29.644,29.738c0,0.241-0.193,0.436-0.436,0.436h-8.062
			c-0.241,0-0.435-0.195-0.435-0.436v-0.916c0-0.241,0.193-0.435,0.435-0.435h8.062c0.242,0,0.436,0.194,0.436,0.435V29.738z
			 M29.644,20.172c0,0.24-0.193,0.435-0.436,0.435h-8.062c-0.241,0-0.435-0.195-0.435-0.435v-0.916c0-0.241,0.193-0.436,0.435-0.436
			h8.062c0.242,0,0.436,0.195,0.436,0.436V20.172z M29.644,15.588c0,0.24-0.193,0.435-0.436,0.435h-8.062
			c-0.241,0-0.435-0.195-0.435-0.435v-0.916c0-0.241,0.193-0.436,0.435-0.436h8.062c0.242,0,0.436,0.195,0.436,0.436V15.588z"/>
		<path d="M33.394,8.845v32.31l0.035-0.008v0.008l15.34-1.026l-0.008-0.134h0.008V11.031l0.018-0.521L33.394,8.845z M36.632,19.152
			c0.006-0.232,0.198-0.415,0.431-0.409l7.767,0.202c0.231,0.006,0.415,0.198,0.408,0.43l-0.021,0.883
			c-0.006,0.231-0.2,0.415-0.431,0.409l-7.767-0.202c-0.232-0.006-0.415-0.199-0.41-0.431L36.632,19.152z M44.792,29.649
			l-7.764,0.27c-0.232,0.008-0.427-0.173-0.435-0.405l-0.03-0.882c-0.008-0.231,0.173-0.426,0.404-0.434l7.765-0.27
			c0.231-0.008,0.425,0.173,0.433,0.405l0.031,0.882C45.205,29.447,45.023,29.641,44.792,29.649z M45.271,24.738
			c0,0.232-0.188,0.42-0.419,0.42h-7.771c-0.232,0-0.42-0.188-0.42-0.42v-0.883c0-0.231,0.188-0.419,0.42-0.419h7.771
			c0.231,0,0.419,0.188,0.419,0.419V24.738z M45.229,16.034c-0.018,0.231-0.218,0.405-0.449,0.389l-7.75-0.554
			c-0.23-0.017-0.406-0.217-0.389-0.449l0.063-0.88c0.017-0.231,0.217-0.405,0.449-0.389l7.749,0.553
			c0.231,0.017,0.405,0.217,0.388,0.449L45.229,16.034z"/>
		<path d="M1.231,11.031v28.963h0.008l-0.008,0.134l15.34,1.026v-0.008l0.035,0.008V8.845L1.214,10.511L1.231,11.031z
			 M13.406,29.514c-0.008,0.232-0.202,0.413-0.435,0.405l-7.764-0.27c-0.231-0.008-0.413-0.202-0.404-0.434l0.031-0.882
			c0.008-0.231,0.201-0.413,0.433-0.405l7.765,0.27c0.231,0.008,0.412,0.203,0.404,0.434L13.406,29.514z M4.729,24.738v-0.883
			c0-0.231,0.188-0.419,0.419-0.419h7.771c0.232,0,0.42,0.188,0.42,0.419v0.883c0,0.232-0.188,0.42-0.42,0.42H5.148
			C4.917,25.158,4.729,24.97,4.729,24.738z M13.392,20.034c0.005,0.232-0.178,0.424-0.41,0.431l-7.767,0.202
			c-0.23,0.006-0.425-0.177-0.431-0.409l-0.021-0.883c-0.007-0.232,0.177-0.424,0.408-0.43l7.767-0.202
			c0.232-0.005,0.425,0.177,0.431,0.409L13.392,20.034z M5.098,14.705l7.749-0.553c0.232-0.017,0.433,0.157,0.449,0.389l0.063,0.88
			c0.018,0.231-0.158,0.432-0.389,0.449l-7.75,0.554c-0.231,0.016-0.432-0.158-0.449-0.389l-0.061-0.88
			C4.692,14.922,4.866,14.722,5.098,14.705z"/>
	</g>
</g>
<g id="_x32_5">
</g>
<g id="_x32_6">
</g>
<g id="_x32_7">
</g>
<g id="_x32_8">
</g>
<g id="_x32_9">
</g>
<g id="_x33_0">
</g>
<g id="_x33_1">
</g>
<g id="_x33_2">
</g>
<g id="_x33_3">
</g>
<g id="_x33_4">
</g>
<g id="_x33_5">
</g>
<g id="_x33_6">
</g>
<g id="_x33_7">
</g>
<g id="_x33_8">
</g>
<g id="_x33_9">
</g>
<g id="_x34_0">
</g>
<g id="_x34_1">
</g>
<g id="_x34_2">
</g>
<g id="_x34_3">
</g>
<g id="_x34_4">
</g>
<g id="_x34_5">
</g>
<g id="_x34_6">
</g>
<g id="_x34_7">
</g>
<g id="_x34_8">
</g>
<g id="_x34_9">
</g>
<g id="_x35_0">
</g>
<g id="_x35_1">
</g>
<g id="_x35_2">
</g>
<g id="_x35_3">
</g>
<g id="_x35_4">
</g>
<g id="_x35_5">
</g>
<g id="_x35_6">
</g>
<g id="_x35_7">
</g>
<g id="_x35_8">
</g>
<g id="_x35_9">
</g>
<g id="_x36_0">
</g>
<g id="_x36_1">
</g>
<g id="_x36_2">
</g>
<g id="_x36_3">
</g>
<g id="_x36_4">
</g>
<g id="_x36_5">
</g>
<g id="_x36_6">
</g>
<g id="_x36_7">
</g>
<g id="_x36_8">
</g>
<g id="_x36_9">
</g>
<g id="_x37_0">
</g>
<g id="_x37_1">
</g>
<g id="_x37_2">
</g>
<g id="_x37_3">
</g>
<g id="_x37_4">
</g>
<g id="_x37_5">
</g>
<g id="_x37_6">
</g>
<g id="_x37_7">
</g>
<g id="_x37_8">
</g>
<g id="_x37_9">
</g>
<g id="_x38_0">
</g>
<g id="_x38_1">
</g>
<g id="_x38_2">
</g>
<g id="_x38_3">
</g>
<g id="_x38_4">
</g>
<g id="_x38_5">
</g>
<g id="_x38_6">
</g>
<g id="_x38_7">
</g>
<g id="_x38_8">
</g>
<g id="_x38_9">
</g>
<g id="_x39_0">
</g>
<g id="_x39_1">
</g>
<g id="_x39_2">
</g>
<g id="_x39_3">
</g>
<g id="_x39_4">
</g>
<g id="_x39_5">
</g>
<g id="_x39_6">
</g>
<g id="_x39_7">
</g>
<g id="_x39_8">
</g>
<g id="_x39_9">
</g>
<g id="_x31_00">
</g>
<g id="_x31_01">
</g>
<g id="_x31_02">
</g>
<g id="_x31_03">
</g>
<g id="_x31_04">
</g>
<g id="_x31_05">
</g>
<g id="_x31_06">
</g>
<g id="_x31_07">
</g>
<g id="_x31_08">
</g>
<g id="_x31_09">
</g>
<g id="_x31_10">
</g>
<g id="_x31_11">
</g>
<g id="_x31_12">
</g>
<g id="_x31_13">
</g>
<g id="_x31_14">
</g>
<g id="_x31_15">
</g>
<g id="_x31_16">
</g>
<g id="_x31_17">
</g>
<g id="_x31_18">
</g>
<g id="_x31_19">
</g>
<g id="_x31_20">
</g>
<g id="_x31_21">
</g>
<g id="_x31_22">
</g>
<g id="_x31_23">
</g>
<g id="_x31_24">
</g>
<g id="_x31_25">
</g>
<g id="_x31_26">
</g>
<g id="_x31_27">
</g>
<g id="_x31_28">
</g>
<g id="_x31_29">
</g>
<g id="_x31_30">
</g>
<g id="_x31_31">
</g>
<g id="_x31_32">
</g>
<g id="_x31_33">
</g>
<g id="_x31_34">
</g>
<g id="_x31_35">
</g>
<g id="_x31_36">
</g>
<g id="_x31_37">
</g>
<g id="_x31_38">
</g>
<g id="_x31_39">
</g>
<g id="_x31_40">
</g>
<g id="_x31_41">
</g>
<g id="_x31_42">
</g>
<g id="_x31_43">
</g>
<g id="_x31_44">
</g>
<g id="_x31_45">
</g>
<g id="_x31_46">
</g>
<g id="_x31_47">
</g>
<g id="_x31_48">
</g>
<g id="_x31_49">
</g>
<g id="_x31_50">
</g>
<g id="_x31_51">
</g>
<g id="_x31_52">
</g>
<g id="_x31_53">
</g>
<g id="_x31_54">
</g>
<g id="_x31_55">
</g>
<g id="_x31_56">
</g>
<g id="_x31_57">
</g>
<g id="_x31_58">
</g>
<g id="_x31_59">
</g>
<g id="_x31_60">
</g>
<g id="_x31_61">
</g>
<g id="_x31_62">
</g>
<g id="_x31_63">
</g>
<g id="_x31_64">
</g>
<g id="_x31_65">
</g>
<g id="_x31_66">
</g>
<g id="_x31_67">
</g>
<g id="_x31_68">
</g>
<g id="_x31_69">
</g>
<g id="_x31_70">
</g>
<g id="_x31_71">
</g>
<g id="_x31_72">
</g>
<g id="_x31_73">
</g>
<g id="_x31_74">
</g>
<g id="_x31_75">
</g>
<g id="_x31_76">
</g>
<g id="_x31_77">
</g>
<g id="_x31_78">
</g>
<g id="_x31_79">
</g>
<g id="_x31_80">
</g>
<g id="_x31_81">
</g>
<g id="_x31_82">
</g>
<g id="_x31_83">
</g>
<g id="_x31_84">
</g>
<g id="_x31_85">
</g>
<g id="_x31_86">
</g>
<g id="_x31_87">
</g>
<g id="_x31_88">
</g>
<g id="_x31_89">
</g>
<g id="_x31_90">
</g>
</svg>
