<?xml version="1.0" encoding="utf-8"?>
<!-- Generator: Adobe Illustrator 16.0.0, SVG Export Plug-In . SVG Version: 6.00 Build 0)  -->
<!DOCTYPE svg PUBLIC "-//W3C//DTD SVG 1.1//EN" "http://www.w3.org/Graphics/SVG/1.1/DTD/svg11.dtd">
<svg version="1.1" xmlns="http://www.w3.org/2000/svg" xmlns:xlink="http://www.w3.org/1999/xlink" x="0px" y="0px" width="50px"
	 height="50px" viewBox="0 0 50 50" enable-background="new 0 0 50 50" xml:space="preserve">
<g id="text">
</g>
<g id="_x31_">
</g>
<g id="_x32_">
</g>
<g id="_x33__1_">
</g>
<g id="_x34_">
</g>
<g id="_x35_">
</g>
<g id="_x36_">
</g>
<g id="_x37_">
</g>
<g id="_x38_">
</g>
<g id="_x39_">
</g>
<g id="_x31_0">
</g>
<g id="_x31_1">
</g>
<g id="_x31_2">
</g>
<g id="_x31_3">
</g>
<g id="_x31_4">
</g>
<g id="_x31_5">
</g>
<g id="_x31_6">
</g>
<g id="_x31_7">
</g>
<g id="_x31_8">
</g>
<g id="_x31_9">
</g>
<g id="_x32_0">
</g>
<g id="_x32_1">
</g>
<g id="_x32_2">
</g>
<g id="_x32_3">
</g>
<g id="_x32_4">
</g>
<g id="_x32_5">
</g>
<g id="_x32_6">
</g>
<g id="_x32_7">
</g>
<g id="_x32_8">
</g>
<g id="_x32_9">
</g>
<g id="_x33_0">
</g>
<g id="_x33_1">
</g>
<g id="_x33_2">
</g>
<g id="_x33_3">
</g>
<g id="_x33_4">
</g>
<g id="_x33_5">
</g>
<g id="_x33_6">
</g>
<g id="_x33_7">
</g>
<g id="_x33_8">
</g>
<g id="_x33_9">
</g>
<g id="_x34_0">
</g>
<g id="_x34_1">
</g>
<g id="_x34_2">
</g>
<g id="_x34_3">
</g>
<g id="_x34_4">
</g>
<g id="_x34_5">
</g>
<g id="_x34_6">
</g>
<g id="_x34_7">
</g>
<g id="_x34_8">
</g>
<g id="_x34_9">
</g>
<g id="_x35_0">
</g>
<g id="_x35_1">
</g>
<g id="_x35_2">
</g>
<g id="_x35_3">
</g>
<g id="_x35_4">
</g>
<g id="_x35_5">
</g>
<g id="_x35_6">
</g>
<g id="_x35_7">
</g>
<g id="_x35_8">
</g>
<g id="_x35_9">
</g>
<g id="_x36_0">
</g>
<g id="_x36_1">
</g>
<g id="_x36_2">
</g>
<g id="_x36_3">
</g>
<g id="_x36_4">
</g>
<g id="_x36_5">
</g>
<g id="_x36_6">
</g>
<g id="_x36_7">
</g>
<g id="_x36_8">
</g>
<g id="_x36_9">
</g>
<g id="_x37_0">
</g>
<g id="_x37_1">
</g>
<g id="_x37_2">
</g>
<g id="_x37_3">
</g>
<g id="_x37_4">
</g>
<g id="_x37_5">
</g>
<g id="_x37_6">
</g>
<g id="_x37_7">
</g>
<g id="_x37_8">
</g>
<g id="_x37_9">
</g>
<g id="_x38_0">
	<g>
		<path d="M29.158,21.806c0.019,0.271,0.06,0.534,0.127,0.79c-0.313,0.266-0.939,0.798-0.939,0.798v1.149l1.63,1.926
			c0,0,0.948,0.112,0.999,0.084s0.152-0.084,0.152-0.084s0.596-0.504,0.894-0.757c0.252,0.112,0.514,0.207,0.786,0.28
			c0.03,0.338,0.093,1.015,0.093,1.015l0.813,0.813l2.51-0.229l0.814-0.813c0,0-0.079-0.872-0.118-1.308
			c0.205-0.118,0.402-0.246,0.587-0.39c0.327,0.188,0.98,0.566,0.98,0.566l1.113-0.292l1.264-2.184l-0.293-1.113
			c0,0-0.841-0.487-1.262-0.729c-0.011-0.242-0.037-0.482-0.087-0.714c0.333-0.286,1-0.856,1-0.856v-1.15l-1.643-1.915h-1.151
			c0,0-0.546,0.467-0.818,0.7c-0.297-0.144-0.609-0.261-0.936-0.351c-0.026-0.324-0.079-0.973-0.079-0.973l-0.813-0.814
			l-2.515,0.204l-0.813,0.813c0,0,0.069,0.854,0.103,1.28c-0.246,0.14-0.479,0.299-0.694,0.475
			c-0.354-0.162-1.062-0.485-1.062-0.485l-1.114,0.292l-1.052,2.295l-0.038,0.155l0.33,0.958
			C27.926,21.243,28.747,21.618,29.158,21.806z M34.094,19.001c1.402,0,2.539,1.136,2.539,2.538c0,1.401-1.137,2.537-2.539,2.537
			c-1.4,0-2.537-1.136-2.537-2.537C31.557,20.137,32.693,19.001,34.094,19.001z"/>
		<path d="M41.025,14.803c0.008,0.133,0.028,0.262,0.062,0.387c-0.153,0.13-0.461,0.391-0.461,0.391v0.563l0.799,0.943
			c0,0,0.465,0.055,0.489,0.041c0.025-0.014,0.075-0.041,0.075-0.041s0.292-0.247,0.438-0.37c0.122,0.054,0.25,0.101,0.384,0.137
			c0.016,0.165,0.045,0.497,0.045,0.497l0.399,0.398l1.229-0.112l0.398-0.398c0,0-0.039-0.428-0.058-0.641
			c0.101-0.058,0.196-0.12,0.287-0.191c0.16,0.093,0.48,0.278,0.48,0.278l0.545-0.144l0.62-1.07l-0.144-0.545
			c0,0-0.413-0.238-0.619-0.356c-0.004-0.119-0.018-0.237-0.041-0.35c0.162-0.141,0.489-0.42,0.489-0.42v-0.563l-0.805-0.938h-0.564
			c0,0-0.268,0.229-0.401,0.344c-0.146-0.07-0.298-0.128-0.457-0.172c-0.014-0.159-0.039-0.477-0.039-0.477l-0.399-0.399
			l-1.231,0.101l-0.398,0.398c0,0,0.034,0.418,0.051,0.627c-0.121,0.068-0.234,0.146-0.341,0.232
			c-0.172-0.079-0.521-0.238-0.521-0.238l-0.545,0.144l-0.516,1.124l-0.018,0.076l0.161,0.469
			C40.421,14.526,40.823,14.71,41.025,14.803z M43.442,13.429c0.687,0,1.243,0.556,1.243,1.243c0,0.687-0.557,1.242-1.243,1.242
			s-1.243-0.556-1.243-1.242C42.199,13.984,42.756,13.429,43.442,13.429z"/>
		<path d="M26.606,30.548v3.782h-3.213v-3.782H0.682v8.563h22.712V35.33h3.213v3.781h22.712v-8.563H26.606z M20.74,37.265H3.334
			v-4.871H20.74V37.265z M46.666,37.265H29.26v-4.871h17.406V37.265z"/>
		<path d="M23.394,20.558H0.682v8.563h22.712V20.558z M5.755,26.577c-0.951,0-1.722-0.77-1.722-1.722
			c0-0.951,0.771-1.722,1.722-1.722c0.952,0,1.722,0.771,1.722,1.722C7.477,25.808,6.707,26.577,5.755,26.577z M12.104,26.577
			c-0.951,0-1.722-0.77-1.722-1.722c0-0.951,0.771-1.722,1.722-1.722s1.723,0.771,1.723,1.722
			C13.826,25.808,13.055,26.577,12.104,26.577z"/>
		<path d="M23.394,10.889H0.682v8.563h22.712V10.889z M5.755,16.909c-0.951,0-1.722-0.771-1.722-1.722
			c0-0.951,0.771-1.723,1.722-1.723c0.952,0,1.722,0.771,1.722,1.723C7.477,16.138,6.707,16.909,5.755,16.909z M12.104,16.909
			c-0.951,0-1.722-0.771-1.722-1.722c0-0.951,0.771-1.723,1.722-1.723s1.723,0.771,1.723,1.723
			C13.826,16.138,13.055,16.909,12.104,16.909z M18.677,16.892c-0.951,0-1.722-0.77-1.722-1.721s0.771-1.723,1.722-1.723
			s1.723,0.771,1.723,1.723S19.628,16.892,18.677,16.892z"/>
	</g>
</g>
<g id="_x38_1">
</g>
<g id="_x38_2">
</g>
<g id="_x38_3">
</g>
<g id="_x38_4">
</g>
<g id="_x38_5">
</g>
<g id="_x38_6">
</g>
<g id="_x38_7">
</g>
<g id="_x38_8">
</g>
<g id="_x38_9">
</g>
<g id="_x39_0">
</g>
<g id="_x39_1">
</g>
<g id="_x39_2">
</g>
<g id="_x39_3">
</g>
<g id="_x39_4">
</g>
<g id="_x39_5">
</g>
<g id="_x39_6">
</g>
<g id="_x39_7">
</g>
<g id="_x39_8">
</g>
<g id="_x39_9">
</g>
<g id="_x31_00">
</g>
<g id="_x31_01">
</g>
<g id="_x31_02">
</g>
<g id="_x31_03">
</g>
<g id="_x31_04">
</g>
<g id="_x31_05">
</g>
<g id="_x31_06">
</g>
<g id="_x31_07">
</g>
<g id="_x31_08">
</g>
<g id="_x31_09">
</g>
<g id="_x31_10">
</g>
<g id="_x31_11">
</g>
<g id="_x31_12">
</g>
<g id="_x31_13">
</g>
<g id="_x31_14">
</g>
<g id="_x31_15">
</g>
<g id="_x31_16">
</g>
<g id="_x31_17">
</g>
<g id="_x31_18">
</g>
<g id="_x31_19">
</g>
<g id="_x31_20">
</g>
<g id="_x31_21">
</g>
<g id="_x31_22">
</g>
<g id="_x31_23">
</g>
<g id="_x31_24">
</g>
<g id="_x31_25">
</g>
<g id="_x31_26">
</g>
<g id="_x31_27">
</g>
<g id="_x31_28">
</g>
<g id="_x31_29">
</g>
<g id="_x31_30">
</g>
<g id="_x31_31">
</g>
<g id="_x31_32">
</g>
<g id="_x31_33">
</g>
<g id="_x31_34">
</g>
<g id="_x31_35">
</g>
<g id="_x31_36">
</g>
<g id="_x31_37">
</g>
<g id="_x31_38">
</g>
<g id="_x31_39">
</g>
<g id="_x31_40">
</g>
<g id="_x31_41">
</g>
<g id="_x31_42">
</g>
<g id="_x31_43">
</g>
<g id="_x31_44">
</g>
<g id="_x31_45">
</g>
<g id="_x31_46">
</g>
<g id="_x31_47">
</g>
<g id="_x31_48">
</g>
<g id="_x31_49">
</g>
<g id="_x31_50">
</g>
<g id="_x31_51">
</g>
<g id="_x31_52">
</g>
<g id="_x31_53">
</g>
<g id="_x31_54">
</g>
<g id="_x31_55">
</g>
<g id="_x31_56">
</g>
<g id="_x31_57">
</g>
<g id="_x31_58">
</g>
<g id="_x31_59">
</g>
<g id="_x31_60">
</g>
<g id="_x31_61">
</g>
<g id="_x31_62">
</g>
<g id="_x31_63">
</g>
<g id="_x31_64">
</g>
<g id="_x31_65">
</g>
<g id="_x31_66">
</g>
<g id="_x31_67">
</g>
<g id="_x31_68">
</g>
<g id="_x31_69">
</g>
<g id="_x31_70">
</g>
<g id="_x31_71">
</g>
<g id="_x31_72">
</g>
<g id="_x31_73">
</g>
<g id="_x31_74">
</g>
<g id="_x31_75">
</g>
<g id="_x31_76">
</g>
<g id="_x31_77">
</g>
<g id="_x31_78">
</g>
<g id="_x31_79">
</g>
<g id="_x31_80">
</g>
<g id="_x31_81">
</g>
<g id="_x31_82">
</g>
<g id="_x31_83">
</g>
<g id="_x31_84">
</g>
<g id="_x31_85">
</g>
<g id="_x31_86">
</g>
<g id="_x31_87">
</g>
<g id="_x31_88">
</g>
<g id="_x31_89">
</g>
<g id="_x31_90">
</g>
</svg>
