<?xml version="1.0" encoding="utf-8"?>
<!-- Generator: Adobe Illustrator 16.0.0, SVG Export Plug-In . SVG Version: 6.00 Build 0)  -->
<!DOCTYPE svg PUBLIC "-//W3C//DTD SVG 1.1//EN" "http://www.w3.org/Graphics/SVG/1.1/DTD/svg11.dtd">
<svg version="1.1" xmlns="http://www.w3.org/2000/svg" xmlns:xlink="http://www.w3.org/1999/xlink" x="0px" y="0px" width="50px"
	 height="50px" viewBox="0 0 50 50" enable-background="new 0 0 50 50" xml:space="preserve">
<g id="text">
</g>
<g id="_x31_">
</g>
<g id="_x32_">
</g>
<g id="_x33__1_">
</g>
<g id="_x34_">
</g>
<g id="_x35_">
</g>
<g id="_x36_">
</g>
<g id="_x37_">
</g>
<g id="_x38_">
</g>
<g id="_x39_">
</g>
<g id="_x31_0">
</g>
<g id="_x31_1">
</g>
<g id="_x31_2">
</g>
<g id="_x31_3">
</g>
<g id="_x31_4">
</g>
<g id="_x31_5">
</g>
<g id="_x31_6">
	<g>
		<path d="M44.664,28.2c0,0-1.031-0.597-1.547-0.895c-0.013-0.298-0.045-0.59-0.107-0.875c0.409-0.35,1.226-1.05,1.226-1.05v-1.411
			l-2.014-2.349H40.81c0,0-0.669,0.573-1.003,0.86c-0.363-0.176-0.746-0.32-1.147-0.429c-0.032-0.398-0.097-1.194-0.097-1.194
			l-0.998-0.998l-3.082,0.25l-0.998,0.998c0,0,0.084,1.046,0.125,1.569c-0.301,0.172-0.586,0.366-0.852,0.582
			c-0.433-0.198-1.302-0.595-1.302-0.595l-1.365,0.358l-1.29,2.813l-0.046,0.19l0.404,1.174c0,0,1.006,0.46,1.511,0.69
			c0.022,0.332,0.074,0.655,0.156,0.969c-0.384,0.326-1.153,0.977-1.153,0.977v1.411l1.999,2.36c0,0,1.162,0.138,1.225,0.104
			c0.063-0.034,0.187-0.104,0.187-0.104s0.73-0.618,1.096-0.927c0.309,0.137,0.629,0.254,0.963,0.343
			c0.038,0.415,0.113,1.244,0.113,1.244l0.998,0.998l3.078-0.281l0.998-0.998c0,0-0.097-1.069-0.145-1.604
			c0.252-0.145,0.493-0.302,0.721-0.477c0.401,0.231,1.201,0.694,1.201,0.694l1.365-0.358l1.549-2.678L44.664,28.2z M36.723,30.674
			c-1.718,0-3.111-1.393-3.111-3.112s1.393-3.111,3.111-3.111c1.719,0,3.112,1.393,3.112,3.111S38.442,30.674,36.723,30.674z"/>
		<path d="M35.479,6.049h-30.5v11.5h30.5V6.049z M11.791,14.135c-1.277,0-2.313-1.035-2.313-2.313s1.035-2.313,2.313-2.313
			s2.313,1.035,2.313,2.313S13.068,14.135,11.791,14.135z M20.318,14.135c-1.277,0-2.313-1.035-2.313-2.313s1.035-2.313,2.313-2.313
			s2.313,1.035,2.313,2.313S21.595,14.135,20.318,14.135z M29.145,14.112c-1.277,0-2.313-1.035-2.313-2.313s1.035-2.313,2.313-2.313
			s2.313,1.035,2.313,2.313S30.422,14.112,29.145,14.112z"/>
		<path d="M24.77,27.54c0-3.627,1.962-6.79,4.877-8.506H4.979v11.5h20.256C24.935,29.589,24.77,28.584,24.77,27.54z M11.791,27.119
			c-1.277,0-2.313-1.035-2.313-2.313s1.035-2.313,2.313-2.313s2.313,1.035,2.313,2.313S13.068,27.119,11.791,27.119z M20.318,27.119
			c-1.277,0-2.313-1.035-2.313-2.313s1.035-2.313,2.313-2.313s2.313,1.035,2.313,2.313S21.595,27.119,20.318,27.119z"/>
		<path d="M31.916,37.024v4.447H8.541v-6.542H28.11c-0.802-0.709-1.487-1.545-2.024-2.479H4.979v11.5h30.5v-6.577
			c-0.275,0.023-0.552,0.042-0.833,0.042C33.697,37.415,32.784,37.274,31.916,37.024z"/>
	</g>
</g>
<g id="_x31_7">
</g>
<g id="_x31_8">
</g>
<g id="_x31_9">
</g>
<g id="_x32_0">
</g>
<g id="_x32_1">
</g>
<g id="_x32_2">
</g>
<g id="_x32_3">
</g>
<g id="_x32_4">
</g>
<g id="_x32_5">
</g>
<g id="_x32_6">
</g>
<g id="_x32_7">
</g>
<g id="_x32_8">
</g>
<g id="_x32_9">
</g>
<g id="_x33_0">
</g>
<g id="_x33_1">
</g>
<g id="_x33_2">
</g>
<g id="_x33_3">
</g>
<g id="_x33_4">
</g>
<g id="_x33_5">
</g>
<g id="_x33_6">
</g>
<g id="_x33_7">
</g>
<g id="_x33_8">
</g>
<g id="_x33_9">
</g>
<g id="_x34_0">
</g>
<g id="_x34_1">
</g>
<g id="_x34_2">
</g>
<g id="_x34_3">
</g>
<g id="_x34_4">
</g>
<g id="_x34_5">
</g>
<g id="_x34_6">
</g>
<g id="_x34_7">
</g>
<g id="_x34_8">
</g>
<g id="_x34_9">
</g>
<g id="_x35_0">
</g>
<g id="_x35_1">
</g>
<g id="_x35_2">
</g>
<g id="_x35_3">
</g>
<g id="_x35_4">
</g>
<g id="_x35_5">
</g>
<g id="_x35_6">
</g>
<g id="_x35_7">
</g>
<g id="_x35_8">
</g>
<g id="_x35_9">
</g>
<g id="_x36_0">
</g>
<g id="_x36_1">
</g>
<g id="_x36_2">
</g>
<g id="_x36_3">
</g>
<g id="_x36_4">
</g>
<g id="_x36_5">
</g>
<g id="_x36_6">
</g>
<g id="_x36_7">
</g>
<g id="_x36_8">
</g>
<g id="_x36_9">
</g>
<g id="_x37_0">
</g>
<g id="_x37_1">
</g>
<g id="_x37_2">
</g>
<g id="_x37_3">
</g>
<g id="_x37_4">
</g>
<g id="_x37_5">
</g>
<g id="_x37_6">
</g>
<g id="_x37_7">
</g>
<g id="_x37_8">
</g>
<g id="_x37_9">
</g>
<g id="_x38_0">
</g>
<g id="_x38_1">
</g>
<g id="_x38_2">
</g>
<g id="_x38_3">
</g>
<g id="_x38_4">
</g>
<g id="_x38_5">
</g>
<g id="_x38_6">
</g>
<g id="_x38_7">
</g>
<g id="_x38_8">
</g>
<g id="_x38_9">
</g>
<g id="_x39_0">
</g>
<g id="_x39_1">
</g>
<g id="_x39_2">
</g>
<g id="_x39_3">
</g>
<g id="_x39_4">
</g>
<g id="_x39_5">
</g>
<g id="_x39_6">
</g>
<g id="_x39_7">
</g>
<g id="_x39_8">
</g>
<g id="_x39_9">
</g>
<g id="_x31_00">
</g>
<g id="_x31_01">
</g>
<g id="_x31_02">
</g>
<g id="_x31_03">
</g>
<g id="_x31_04">
</g>
<g id="_x31_05">
</g>
<g id="_x31_06">
</g>
<g id="_x31_07">
</g>
<g id="_x31_08">
</g>
<g id="_x31_09">
</g>
<g id="_x31_10">
</g>
<g id="_x31_11">
</g>
<g id="_x31_12">
</g>
<g id="_x31_13">
</g>
<g id="_x31_14">
</g>
<g id="_x31_15">
</g>
<g id="_x31_16">
</g>
<g id="_x31_17">
</g>
<g id="_x31_18">
</g>
<g id="_x31_19">
</g>
<g id="_x31_20">
</g>
<g id="_x31_21">
</g>
<g id="_x31_22">
</g>
<g id="_x31_23">
</g>
<g id="_x31_24">
</g>
<g id="_x31_25">
</g>
<g id="_x31_26">
</g>
<g id="_x31_27">
</g>
<g id="_x31_28">
</g>
<g id="_x31_29">
</g>
<g id="_x31_30">
</g>
<g id="_x31_31">
</g>
<g id="_x31_32">
</g>
<g id="_x31_33">
</g>
<g id="_x31_34">
</g>
<g id="_x31_35">
</g>
<g id="_x31_36">
</g>
<g id="_x31_37">
</g>
<g id="_x31_38">
</g>
<g id="_x31_39">
</g>
<g id="_x31_40">
</g>
<g id="_x31_41">
</g>
<g id="_x31_42">
</g>
<g id="_x31_43">
</g>
<g id="_x31_44">
</g>
<g id="_x31_45">
</g>
<g id="_x31_46">
</g>
<g id="_x31_47">
</g>
<g id="_x31_48">
</g>
<g id="_x31_49">
</g>
<g id="_x31_50">
</g>
<g id="_x31_51">
</g>
<g id="_x31_52">
</g>
<g id="_x31_53">
</g>
<g id="_x31_54">
</g>
<g id="_x31_55">
</g>
<g id="_x31_56">
</g>
<g id="_x31_57">
</g>
<g id="_x31_58">
</g>
<g id="_x31_59">
</g>
<g id="_x31_60">
</g>
<g id="_x31_61">
</g>
<g id="_x31_62">
</g>
<g id="_x31_63">
</g>
<g id="_x31_64">
</g>
<g id="_x31_65">
</g>
<g id="_x31_66">
</g>
<g id="_x31_67">
</g>
<g id="_x31_68">
</g>
<g id="_x31_69">
</g>
<g id="_x31_70">
</g>
<g id="_x31_71">
</g>
<g id="_x31_72">
</g>
<g id="_x31_73">
</g>
<g id="_x31_74">
</g>
<g id="_x31_75">
</g>
<g id="_x31_76">
</g>
<g id="_x31_77">
</g>
<g id="_x31_78">
</g>
<g id="_x31_79">
</g>
<g id="_x31_80">
</g>
<g id="_x31_81">
</g>
<g id="_x31_82">
</g>
<g id="_x31_83">
</g>
<g id="_x31_84">
</g>
<g id="_x31_85">
</g>
<g id="_x31_86">
</g>
<g id="_x31_87">
</g>
<g id="_x31_88">
</g>
<g id="_x31_89">
</g>
<g id="_x31_90">
</g>
</svg>
