<?xml version="1.0" encoding="utf-8"?>
<!-- Generator: Adobe Illustrator 16.0.0, SVG Export Plug-In . SVG Version: 6.00 Build 0)  -->
<!DOCTYPE svg PUBLIC "-//W3C//DTD SVG 1.1//EN" "http://www.w3.org/Graphics/SVG/1.1/DTD/svg11.dtd">
<svg version="1.1" xmlns="http://www.w3.org/2000/svg" xmlns:xlink="http://www.w3.org/1999/xlink" x="0px" y="0px" width="50px"
	 height="50px" viewBox="0 0 50 50" enable-background="new 0 0 50 50" xml:space="preserve">
<g id="text">
</g>
<g id="_x31_">
</g>
<g id="_x32_">
</g>
<g id="_x33__1_">
</g>
<g id="_x34_">
</g>
<g id="_x35_">
</g>
<g id="_x36_">
</g>
<g id="_x37_">
</g>
<g id="_x38_">
</g>
<g id="_x39_">
</g>
<g id="_x31_0">
</g>
<g id="_x31_1">
</g>
<g id="_x31_2">
</g>
<g id="_x31_3">
</g>
<g id="_x31_4">
</g>
<g id="_x31_5">
</g>
<g id="_x31_6">
</g>
<g id="_x31_7">
</g>
<g id="_x31_8">
</g>
<g id="_x31_9">
</g>
<g id="_x32_0">
</g>
<g id="_x32_1">
</g>
<g id="_x32_2">
</g>
<g id="_x32_3">
</g>
<g id="_x32_4">
</g>
<g id="_x32_5">
</g>
<g id="_x32_6">
</g>
<g id="_x32_7">
</g>
<g id="_x32_8">
</g>
<g id="_x32_9">
</g>
<g id="_x33_0">
	<g>
		<path d="M12.054,26.447c-2.395-0.129-4.323,1.325-5.344,3.289l0.623,0.299c0.934-1.628,2.813-2.684,4.721-2.786
			c2.07-0.111,3.74,1.136,4.63,2.829l0.729-0.35C16.398,27.816,14.47,26.577,12.054,26.447z"/>
		<path d="M11.921,28.05c-1.724-0.093-3.119,0.927-3.886,2.322l0.657,0.316c0.674-1.073,1.939-1.767,3.229-1.836
			c1.441-0.078,2.604,0.787,3.229,1.962l0.725-0.348C15.125,29.059,13.702,28.146,11.921,28.05z"/>
		<path d="M11.921,29.653c-1.073-0.058-1.948,0.554-2.454,1.406l0.638,0.307c0.77-1.158,2.789-1.102,3.595,0.145l0.731-0.352
			C13.938,30.286,13.044,29.714,11.921,29.653z"/>
		<path d="M12.054,31.257c-0.443-0.024-0.811,0.208-1.045,0.543l0.743,0.357c0.17-0.102,0.4-0.099,0.577,0.012l0.77-0.369
			C12.864,31.483,12.498,31.281,12.054,31.257z"/>
		<circle cx="12.062" cy="33.094" r="0.392"/>
		<path d="M1.093,36.959h7.964v3.016h6.009v-3.016h8.237V22.314H1.093V36.959z M3.344,24.565h17.707v10.143H3.344V24.565z"/>
		<rect x="5.82" y="40.032" width="12.48" height="0.62"/>
		<path d="M38.052,27.134c2.07-0.111,3.74,1.136,4.63,2.829l0.729-0.35c-1.014-1.911-2.942-3.15-5.358-3.281
			c-2.395-0.129-4.323,1.325-5.344,3.289l0.623,0.299C34.265,28.292,36.144,27.237,38.052,27.134z"/>
		<path d="M37.919,27.936c-1.724-0.093-3.119,0.927-3.886,2.322l0.657,0.316c0.674-1.073,1.939-1.767,3.229-1.836
			c1.441-0.078,2.604,0.787,3.229,1.962l0.725-0.348C41.123,28.944,39.7,28.032,37.919,27.936z"/>
		<path d="M37.919,29.539c-1.073-0.058-1.948,0.554-2.454,1.406l0.638,0.307c0.77-1.158,2.789-1.102,3.595,0.145l0.731-0.352
			C39.937,30.171,39.042,29.6,37.919,29.539z"/>
		<path d="M38.052,31.143c-0.443-0.024-0.811,0.208-1.045,0.543l0.743,0.357c0.17-0.102,0.4-0.099,0.577,0.012l0.77-0.369
			C38.862,31.369,38.496,31.167,38.052,31.143z"/>
		<circle cx="38.06" cy="32.98" r="0.392"/>
		<path d="M26.697,22.314v14.645h7.964v3.016h6.009v-3.016h8.237V22.314H26.697z M46.655,34.708H28.948V24.565h17.707V34.708z"/>
		<rect x="31.425" y="40.032" width="12.48" height="0.62"/>
		<path d="M7.542,12.97h3.694v8.764h0.68c0.001,0,0.001,0,0.001,0h0.743V12.97h3.694v-1.125h17.37v1.125h3.304v8.764h0.779
			c0.001,0,0.001,0,0.001,0h0.644V12.97h4.085v-1.125h5.686v-1.496h-5.686v-1H41.44c-2.21,0-4.421,0-6.631,0h-1.085v1h-17.37v-1
			h-1.086c-2.21,0-4.421,0-6.631,0H7.542v1H1.551v1.496h5.991V12.97z"/>
	</g>
</g>
<g id="_x33_1">
</g>
<g id="_x33_2">
</g>
<g id="_x33_3">
</g>
<g id="_x33_4">
</g>
<g id="_x33_5">
</g>
<g id="_x33_6">
</g>
<g id="_x33_7">
</g>
<g id="_x33_8">
</g>
<g id="_x33_9">
</g>
<g id="_x34_0">
</g>
<g id="_x34_1">
</g>
<g id="_x34_2">
</g>
<g id="_x34_3">
</g>
<g id="_x34_4">
</g>
<g id="_x34_5">
</g>
<g id="_x34_6">
</g>
<g id="_x34_7">
</g>
<g id="_x34_8">
</g>
<g id="_x34_9">
</g>
<g id="_x35_0">
</g>
<g id="_x35_1">
</g>
<g id="_x35_2">
</g>
<g id="_x35_3">
</g>
<g id="_x35_4">
</g>
<g id="_x35_5">
</g>
<g id="_x35_6">
</g>
<g id="_x35_7">
</g>
<g id="_x35_8">
</g>
<g id="_x35_9">
</g>
<g id="_x36_0">
</g>
<g id="_x36_1">
</g>
<g id="_x36_2">
</g>
<g id="_x36_3">
</g>
<g id="_x36_4">
</g>
<g id="_x36_5">
</g>
<g id="_x36_6">
</g>
<g id="_x36_7">
</g>
<g id="_x36_8">
</g>
<g id="_x36_9">
</g>
<g id="_x37_0">
</g>
<g id="_x37_1">
</g>
<g id="_x37_2">
</g>
<g id="_x37_3">
</g>
<g id="_x37_4">
</g>
<g id="_x37_5">
</g>
<g id="_x37_6">
</g>
<g id="_x37_7">
</g>
<g id="_x37_8">
</g>
<g id="_x37_9">
</g>
<g id="_x38_0">
</g>
<g id="_x38_1">
</g>
<g id="_x38_2">
</g>
<g id="_x38_3">
</g>
<g id="_x38_4">
</g>
<g id="_x38_5">
</g>
<g id="_x38_6">
</g>
<g id="_x38_7">
</g>
<g id="_x38_8">
</g>
<g id="_x38_9">
</g>
<g id="_x39_0">
</g>
<g id="_x39_1">
</g>
<g id="_x39_2">
</g>
<g id="_x39_3">
</g>
<g id="_x39_4">
</g>
<g id="_x39_5">
</g>
<g id="_x39_6">
</g>
<g id="_x39_7">
</g>
<g id="_x39_8">
</g>
<g id="_x39_9">
</g>
<g id="_x31_00">
</g>
<g id="_x31_01">
</g>
<g id="_x31_02">
</g>
<g id="_x31_03">
</g>
<g id="_x31_04">
</g>
<g id="_x31_05">
</g>
<g id="_x31_06">
</g>
<g id="_x31_07">
</g>
<g id="_x31_08">
</g>
<g id="_x31_09">
</g>
<g id="_x31_10">
</g>
<g id="_x31_11">
</g>
<g id="_x31_12">
</g>
<g id="_x31_13">
</g>
<g id="_x31_14">
</g>
<g id="_x31_15">
</g>
<g id="_x31_16">
</g>
<g id="_x31_17">
</g>
<g id="_x31_18">
</g>
<g id="_x31_19">
</g>
<g id="_x31_20">
</g>
<g id="_x31_21">
</g>
<g id="_x31_22">
</g>
<g id="_x31_23">
</g>
<g id="_x31_24">
</g>
<g id="_x31_25">
</g>
<g id="_x31_26">
</g>
<g id="_x31_27">
</g>
<g id="_x31_28">
</g>
<g id="_x31_29">
</g>
<g id="_x31_30">
</g>
<g id="_x31_31">
</g>
<g id="_x31_32">
</g>
<g id="_x31_33">
</g>
<g id="_x31_34">
</g>
<g id="_x31_35">
</g>
<g id="_x31_36">
</g>
<g id="_x31_37">
</g>
<g id="_x31_38">
</g>
<g id="_x31_39">
</g>
<g id="_x31_40">
</g>
<g id="_x31_41">
</g>
<g id="_x31_42">
</g>
<g id="_x31_43">
</g>
<g id="_x31_44">
</g>
<g id="_x31_45">
</g>
<g id="_x31_46">
</g>
<g id="_x31_47">
</g>
<g id="_x31_48">
</g>
<g id="_x31_49">
</g>
<g id="_x31_50">
</g>
<g id="_x31_51">
</g>
<g id="_x31_52">
</g>
<g id="_x31_53">
</g>
<g id="_x31_54">
</g>
<g id="_x31_55">
</g>
<g id="_x31_56">
</g>
<g id="_x31_57">
</g>
<g id="_x31_58">
</g>
<g id="_x31_59">
</g>
<g id="_x31_60">
</g>
<g id="_x31_61">
</g>
<g id="_x31_62">
</g>
<g id="_x31_63">
</g>
<g id="_x31_64">
</g>
<g id="_x31_65">
</g>
<g id="_x31_66">
</g>
<g id="_x31_67">
</g>
<g id="_x31_68">
</g>
<g id="_x31_69">
</g>
<g id="_x31_70">
</g>
<g id="_x31_71">
</g>
<g id="_x31_72">
</g>
<g id="_x31_73">
</g>
<g id="_x31_74">
</g>
<g id="_x31_75">
</g>
<g id="_x31_76">
</g>
<g id="_x31_77">
</g>
<g id="_x31_78">
</g>
<g id="_x31_79">
</g>
<g id="_x31_80">
</g>
<g id="_x31_81">
</g>
<g id="_x31_82">
</g>
<g id="_x31_83">
</g>
<g id="_x31_84">
</g>
<g id="_x31_85">
</g>
<g id="_x31_86">
</g>
<g id="_x31_87">
</g>
<g id="_x31_88">
</g>
<g id="_x31_89">
</g>
<g id="_x31_90">
</g>
</svg>
