<?xml version="1.0" encoding="utf-8"?>
<!-- Generator: Adobe Illustrator 16.0.0, SVG Export Plug-In . SVG Version: 6.00 Build 0)  -->
<!DOCTYPE svg PUBLIC "-//W3C//DTD SVG 1.1//EN" "http://www.w3.org/Graphics/SVG/1.1/DTD/svg11.dtd">
<svg version="1.1" xmlns="http://www.w3.org/2000/svg" xmlns:xlink="http://www.w3.org/1999/xlink" x="0px" y="0px"
	 width="49.619px" height="49.62px" viewBox="0 0 49.619 49.62" enable-background="new 0 0 49.619 49.62" xml:space="preserve">
<g id="text">
</g>
<g id="_x31_">
</g>
<g id="_x32_">
</g>
<g id="_x33__1_">
</g>
<g id="_x34_">
</g>
<g id="_x35_">
</g>
<g id="_x36_">
</g>
<g id="_x37_">
</g>
<g id="_x38_">
</g>
<g id="_x39_">
</g>
<g id="_x31_0">
</g>
<g id="_x31_1">
</g>
<g id="_x31_2">
</g>
<g id="_x31_3">
</g>
<g id="_x31_4">
</g>
<g id="_x31_5">
</g>
<g id="_x31_6">
</g>
<g id="_x31_7">
</g>
<g id="_x31_8">
</g>
<g id="_x31_9">
</g>
<g id="_x32_0">
</g>
<g id="_x32_1">
</g>
<g id="_x32_2">
</g>
<g id="_x32_3">
</g>
<g id="_x32_4">
</g>
<g id="_x32_5">
</g>
<g id="_x32_6">
</g>
<g id="_x32_7">
</g>
<g id="_x32_8">
</g>
<g id="_x32_9">
</g>
<g id="_x33_0">
</g>
<g id="_x33_1">
</g>
<g id="_x33_2">
</g>
<g id="_x33_3">
</g>
<g id="_x33_4">
</g>
<g id="_x33_5">
</g>
<g id="_x33_6">
</g>
<g id="_x33_7">
</g>
<g id="_x33_8">
</g>
<g id="_x33_9">
</g>
<g id="_x34_0">
</g>
<g id="_x34_1">
</g>
<g id="_x34_2">
</g>
<g id="_x34_3">
</g>
<g id="_x34_4">
</g>
<g id="_x34_5">
</g>
<g id="_x34_6">
</g>
<g id="_x34_7">
</g>
<g id="_x34_8">
</g>
<g id="_x34_9">
</g>
<g id="_x35_0">
</g>
<g id="_x35_1">
</g>
<g id="_x35_2">
</g>
<g id="_x35_3">
</g>
<g id="_x35_4">
</g>
<g id="_x35_5">
</g>
<g id="_x35_6">
</g>
<g id="_x35_7">
</g>
<g id="_x35_8">
</g>
<g id="_x35_9">
</g>
<g id="_x36_0">
</g>
<g id="_x36_1">
</g>
<g id="_x36_2">
</g>
<g id="_x36_3">
</g>
<g id="_x36_4">
</g>
<g id="_x36_5">
</g>
<g id="_x36_6">
</g>
<g id="_x36_7">
</g>
<g id="_x36_8">
</g>
<g id="_x36_9">
</g>
<g id="_x37_0">
</g>
<g id="_x37_1">
</g>
<g id="_x37_2">
</g>
<g id="_x37_3">
</g>
<g id="_x37_4">
</g>
<g id="_x37_5">
</g>
<g id="_x37_6">
</g>
<g id="_x37_7">
</g>
<g id="_x37_8">
</g>
<g id="_x37_9">
</g>
<g id="_x38_0">
</g>
<g id="_x38_1">
</g>
<g id="_x38_2">
</g>
<g id="_x38_3">
</g>
<g id="_x38_4">
</g>
<g id="_x38_5">
</g>
<g id="_x38_6">
</g>
<g id="_x38_7">
</g>
<g id="_x38_8">
</g>
<g id="_x38_9">
</g>
<g id="_x39_0">
</g>
<g id="_x39_1">
</g>
<g id="_x39_2">
</g>
<g id="_x39_3">
</g>
<g id="_x39_4">
</g>
<g id="_x39_5">
</g>
<g id="_x39_6">
</g>
<g id="_x39_7">
</g>
<g id="_x39_8">
</g>
<g id="_x39_9">
</g>
<g id="_x31_00">
</g>
<g id="_x31_01">
</g>
<g id="_x31_02">
</g>
<g id="_x31_03">
</g>
<g id="_x31_04">
</g>
<g id="_x31_05">
</g>
<g id="_x31_06">
</g>
<g id="_x31_07">
</g>
<g id="_x31_08">
</g>
<g id="_x31_09">
</g>
<g id="_x31_10">
</g>
<g id="_x31_11">
</g>
<g id="_x31_12">
</g>
<g id="_x31_13">
</g>
<g id="_x31_14">
</g>
<g id="_x31_15">
</g>
<g id="_x31_16">
</g>
<g id="_x31_17">
</g>
<g id="_x31_18">
</g>
<g id="_x31_19">
</g>
<g id="_x31_20">
</g>
<g id="_x31_21">
</g>
<g id="_x31_22">
</g>
<g id="_x31_23">
</g>
<g id="_x31_24">
</g>
<g id="_x31_25">
</g>
<g id="_x31_26">
	<g>
		<path d="M8.352,4.066v41.488h32.916V4.066H8.352z M25.782,9.816h10.96v5.75h-10.96V9.816z M25.782,17.6h10.96v5.75h-10.96V17.6z
			 M25.782,25.308h10.96v5.75h-10.96V25.308z M12.711,9.816h10.96v5.75h-10.96V9.816z M12.711,17.6h10.96v5.75h-10.96V17.6z
			 M12.711,25.308h10.96v5.75h-10.96V25.308z M20.865,41.22c-0.213,0.344-0.49,0.62-0.834,0.829
			c-0.345,0.209-0.732,0.359-1.164,0.45S18,42.636,17.561,42.636c-0.146,0-0.333-0.011-0.56-0.033
			c-0.228-0.022-0.469-0.07-0.725-0.143c-0.257-0.073-0.513-0.172-0.769-0.296c-0.257-0.124-0.487-0.292-0.692-0.505
			c-0.204-0.212-0.373-0.468-0.505-0.769c-0.132-0.3-0.197-0.659-0.197-1.076h2.415c0,0.19,0.029,0.362,0.088,0.516
			c0.088,0.234,0.245,0.388,0.473,0.461c0.227,0.073,0.453,0.11,0.681,0.11c0.095,0,0.201-0.009,0.318-0.028
			c0.116-0.018,0.227-0.055,0.329-0.109c0.103-0.055,0.187-0.128,0.252-0.22c0.066-0.091,0.1-0.21,0.1-0.357
			c0-0.103-0.026-0.188-0.077-0.258c-0.052-0.07-0.14-0.135-0.264-0.198c-0.124-0.062-0.296-0.128-0.516-0.198
			c-0.22-0.069-0.498-0.152-0.835-0.247c-0.307-0.087-0.62-0.181-0.938-0.28s-0.604-0.23-0.856-0.395
			c-0.252-0.165-0.459-0.374-0.62-0.626s-0.241-0.576-0.241-0.972c0-0.454,0.089-0.843,0.269-1.169s0.415-0.595,0.708-0.807
			s0.63-0.368,1.011-0.467c0.38-0.099,0.771-0.148,1.174-0.148c0.425,0,0.831,0.044,1.219,0.132
			c0.389,0.087,0.732,0.232,1.032,0.434s0.542,0.465,0.725,0.791s0.282,0.726,0.297,1.202H18.57
			c0.022-0.146,0.006-0.271-0.049-0.374c-0.056-0.103-0.134-0.187-0.236-0.252c-0.103-0.073-0.216-0.125-0.341-0.154
			c-0.124-0.029-0.248-0.044-0.373-0.044c-0.08,0-0.172,0.007-0.274,0.022c-0.103,0.015-0.197,0.041-0.285,0.077
			s-0.161,0.089-0.22,0.159c-0.059,0.069-0.088,0.159-0.088,0.269c0.007,0.139,0.079,0.254,0.214,0.346
			c0.136,0.091,0.31,0.172,0.521,0.242c0.213,0.069,0.452,0.135,0.72,0.197c0.267,0.063,0.539,0.13,0.817,0.203
			c0.278,0.081,0.549,0.176,0.813,0.286s0.5,0.25,0.708,0.422c0.209,0.172,0.375,0.384,0.5,0.637
			c0.124,0.252,0.187,0.558,0.187,0.917C21.184,40.447,21.077,40.875,20.865,41.22z M28.188,41.22
			c-0.213,0.344-0.49,0.62-0.834,0.829c-0.345,0.209-0.732,0.359-1.164,0.45s-0.867,0.137-1.307,0.137
			c-0.146,0-0.333-0.011-0.56-0.033c-0.228-0.022-0.469-0.07-0.725-0.143c-0.257-0.073-0.513-0.172-0.769-0.296
			c-0.257-0.124-0.487-0.292-0.692-0.505c-0.204-0.212-0.373-0.468-0.505-0.769c-0.132-0.3-0.197-0.659-0.197-1.076h2.415
			c0,0.19,0.029,0.362,0.088,0.516c0.088,0.234,0.245,0.388,0.473,0.461c0.227,0.073,0.453,0.11,0.681,0.11
			c0.095,0,0.201-0.009,0.318-0.028c0.116-0.018,0.227-0.055,0.329-0.109c0.103-0.055,0.187-0.128,0.252-0.22
			c0.066-0.091,0.1-0.21,0.1-0.357c0-0.103-0.026-0.188-0.077-0.258c-0.052-0.07-0.14-0.135-0.264-0.198
			c-0.124-0.062-0.296-0.128-0.516-0.198c-0.22-0.069-0.498-0.152-0.835-0.247c-0.307-0.087-0.62-0.181-0.938-0.28
			s-0.604-0.23-0.856-0.395c-0.252-0.165-0.459-0.374-0.62-0.626s-0.241-0.576-0.241-0.972c0-0.454,0.089-0.843,0.269-1.169
			s0.415-0.595,0.708-0.807s0.63-0.368,1.011-0.467c0.38-0.099,0.771-0.148,1.174-0.148c0.425,0,0.831,0.044,1.219,0.132
			c0.389,0.087,0.732,0.232,1.032,0.434s0.542,0.465,0.725,0.791s0.282,0.726,0.297,1.202h-2.284
			c0.022-0.146,0.006-0.271-0.049-0.374c-0.056-0.103-0.134-0.187-0.236-0.252c-0.103-0.073-0.216-0.125-0.341-0.154
			c-0.124-0.029-0.248-0.044-0.373-0.044c-0.08,0-0.172,0.007-0.274,0.022c-0.103,0.015-0.197,0.041-0.285,0.077
			s-0.161,0.089-0.22,0.159c-0.059,0.069-0.088,0.159-0.088,0.269c0.007,0.139,0.079,0.254,0.214,0.346
			c0.136,0.091,0.31,0.172,0.521,0.242c0.213,0.069,0.452,0.135,0.72,0.197c0.267,0.063,0.539,0.13,0.817,0.203
			c0.278,0.081,0.549,0.176,0.813,0.286s0.5,0.25,0.708,0.422c0.209,0.172,0.375,0.384,0.5,0.637
			c0.124,0.252,0.187,0.558,0.187,0.917C28.507,40.447,28.4,40.875,28.188,41.22z M36.51,40.149c-0.161,0.487-0.406,0.9-0.735,1.241
			c-0.33,0.34-0.747,0.602-1.252,0.785s-1.098,0.274-1.778,0.274h-3.491V34.61h3.963c0.651,0,1.202,0.112,1.652,0.335
			s0.814,0.516,1.093,0.878s0.479,0.779,0.604,1.251c0.125,0.472,0.187,0.953,0.187,1.444C36.751,39.119,36.671,39.663,36.51,40.149
			z"/>
		<path d="M34.045,37.366c-0.128-0.205-0.318-0.381-0.571-0.527c-0.252-0.146-0.598-0.219-1.037-0.219h-0.769v3.82h0.944
			c0.373,0,0.673-0.067,0.9-0.203c0.227-0.135,0.4-0.302,0.521-0.5c0.12-0.197,0.201-0.41,0.241-0.637
			c0.04-0.227,0.061-0.432,0.061-0.615c0-0.125-0.017-0.291-0.05-0.5C34.254,37.778,34.173,37.571,34.045,37.366z"/>
	</g>
</g>
<g id="_x31_27">
</g>
<g id="_x31_28">
</g>
<g id="_x31_29">
</g>
<g id="_x31_30">
</g>
<g id="_x31_31">
</g>
<g id="_x31_32">
</g>
<g id="_x31_33">
</g>
<g id="_x31_34">
</g>
<g id="_x31_35">
</g>
<g id="_x31_36">
</g>
<g id="_x31_37">
</g>
<g id="_x31_38">
</g>
<g id="_x31_39">
</g>
<g id="_x31_40">
</g>
<g id="_x31_41">
</g>
<g id="_x31_42">
</g>
<g id="_x31_43">
</g>
<g id="_x31_44">
</g>
<g id="_x31_45">
</g>
<g id="_x31_46">
</g>
<g id="_x31_47">
</g>
<g id="_x31_48">
</g>
<g id="_x31_49">
</g>
<g id="_x31_50">
</g>
<g id="_x31_51">
</g>
<g id="_x31_52">
</g>
<g id="_x31_53">
</g>
<g id="_x31_54">
</g>
<g id="_x31_55">
</g>
<g id="_x31_56">
</g>
<g id="_x31_57">
</g>
<g id="_x31_58">
</g>
<g id="_x31_59">
</g>
<g id="_x31_60">
</g>
<g id="_x31_61">
</g>
<g id="_x31_62">
</g>
<g id="_x31_63">
</g>
<g id="_x31_64">
</g>
<g id="_x31_65">
</g>
<g id="_x31_66">
</g>
<g id="_x31_67">
</g>
<g id="_x31_68">
</g>
<g id="_x31_69">
</g>
<g id="_x31_70">
</g>
<g id="_x31_71">
</g>
<g id="_x31_72">
</g>
<g id="_x31_73">
</g>
<g id="_x31_74">
</g>
<g id="_x31_75">
</g>
<g id="_x31_76">
</g>
<g id="_x31_77">
</g>
<g id="_x31_78">
</g>
<g id="_x31_79">
</g>
<g id="_x31_80">
</g>
<g id="_x31_81">
</g>
<g id="_x31_82">
</g>
<g id="_x31_83">
</g>
<g id="_x31_84">
</g>
<g id="_x31_85">
</g>
<g id="_x31_86">
</g>
<g id="_x31_87">
</g>
<g id="_x31_88">
</g>
<g id="_x31_89">
</g>
<g id="_x31_90">
</g>
</svg>
