<?xml version="1.0" encoding="utf-8"?>
<!-- Generator: Adobe Illustrator 16.0.0, SVG Export Plug-In . SVG Version: 6.00 Build 0)  -->
<!DOCTYPE svg PUBLIC "-//W3C//DTD SVG 1.1//EN" "http://www.w3.org/Graphics/SVG/1.1/DTD/svg11.dtd">
<svg version="1.1" xmlns="http://www.w3.org/2000/svg" xmlns:xlink="http://www.w3.org/1999/xlink" x="0px" y="0px" width="50px"
	 height="50px" viewBox="0 0 50 50" enable-background="new 0 0 50 50" xml:space="preserve">
<g id="text">
</g>
<g id="_x31_">
	<g>
		<path d="M9.789,20.649c0.888,3.39,3.752,6.512,7.382,6.512c3.684,0,6.594-3.108,7.504-6.489c0.346-0.039,0.632-0.303,0.663-0.663
			l0.115-1.336c0.03-0.348-0.19-0.647-0.506-0.756c-0.006-0.08-0.008-0.161-0.017-0.24c-0.068-3.062-0.6-5.535-3.01-6.556
			c-2.544-1.078-4.786-1.093-6.432-0.453c-0.108,0.043-0.387,0.414-0.496,0.481s-0.686-0.123-0.905-0.072
			c-3.61,0.516-4.801,3.917-4.538,6.569c-0.008,0.074-0.013,0.149-0.019,0.224c-0.349,0.087-0.599,0.404-0.567,0.774l0.114,1.336
			C9.11,20.358,9.42,20.632,9.789,20.649z M10.558,18.003c1.581-0.579,4.622-1.79,4.952-2.426c1.383,1.436,6.267,2.244,8.411,2.513
			c0.009,0.138,0.021,0.274,0.021,0.414c0,3.525-2.958,7.622-6.771,7.622c-3.799,0-6.638-4.024-6.638-7.622
			C10.532,18.335,10.545,18.17,10.558,18.003z"/>
		<path d="M22.988,25.947c-0.19-0.029-0.376,0.014-0.498,0.063l-3.041,4.113l-2.307-1.84l-0.014,0.012v0.012l-0.003-0.003
			l-2.307,1.84l-3.041-4.113c-0.121-0.049-0.308-0.092-0.498-0.063c-5.745,0.809-6.109,13.785-6.109,13.785l11.969,0.008V39.74
			l11.958-0.008C29.098,39.732,28.733,26.756,22.988,25.947z"/>
		<path d="M29.167,20.471c0.72,2.75,3.044,5.282,5.987,5.282c2.988,0,5.349-2.521,6.087-5.264c0.281-0.032,0.513-0.245,0.538-0.537
			l0.093-1.083c0.024-0.283-0.154-0.525-0.411-0.614c-0.004-0.064-0.007-0.13-0.013-0.194c-0.055-2.483-0.487-4.49-2.441-5.318
			c-2.063-0.874-3.882-0.887-5.217-0.368c-0.087,0.035-0.313,0.336-0.402,0.391c-0.089,0.055-0.556-0.1-0.734-0.058
			c-2.928,0.418-3.894,3.177-3.681,5.328c-0.007,0.06-0.01,0.121-0.015,0.182c-0.283,0.071-0.486,0.328-0.459,0.627l0.092,1.083
			C28.616,20.235,28.868,20.458,29.167,20.471z M29.79,18.325c1.282-0.47,3.75-1.452,4.017-1.968
			c1.122,1.164,5.083,1.819,6.822,2.039c0.007,0.111,0.018,0.222,0.018,0.335c0,2.859-2.399,6.183-5.493,6.183
			c-3.082,0-5.384-3.264-5.384-6.183C29.77,18.595,29.78,18.46,29.79,18.325z"/>
		<path d="M39.873,24.769c-0.154-0.024-0.305,0.011-0.403,0.05l-2.467,3.336l-1.871-1.492l-0.011,0.009v0.01l-0.003-0.002
			l-1.871,1.493l-2.467-3.336c-0.098-0.04-0.25-0.074-0.403-0.05c-1.521,0.214-2.574,1.481-3.307,3.088
			c0.433,0.669,1.043,1.736,1.56,3.139c0.514,1.395,0.856,3.295,1.078,4.958l5.422,0.003v-0.017l9.7-0.006
			C44.829,35.95,44.533,25.424,39.873,24.769z"/>
	</g>
</g>
<g id="_x32_">
</g>
<g id="_x33__1_">
</g>
<g id="_x34_">
</g>
<g id="_x35_">
</g>
<g id="_x36_">
</g>
<g id="_x37_">
</g>
<g id="_x38_">
</g>
<g id="_x39_">
</g>
<g id="_x31_0">
</g>
<g id="_x31_1">
</g>
<g id="_x31_2">
</g>
<g id="_x31_3">
</g>
<g id="_x31_4">
</g>
<g id="_x31_5">
</g>
<g id="_x31_6">
</g>
<g id="_x31_7">
</g>
<g id="_x31_8">
</g>
<g id="_x31_9">
</g>
<g id="_x32_0">
</g>
<g id="_x32_1">
</g>
<g id="_x32_2">
</g>
<g id="_x32_3">
</g>
<g id="_x32_4">
</g>
<g id="_x32_5">
</g>
<g id="_x32_6">
</g>
<g id="_x32_7">
</g>
<g id="_x32_8">
</g>
<g id="_x32_9">
</g>
<g id="_x33_0">
</g>
<g id="_x33_1">
</g>
<g id="_x33_2">
</g>
<g id="_x33_3">
</g>
<g id="_x33_4">
</g>
<g id="_x33_5">
</g>
<g id="_x33_6">
</g>
<g id="_x33_7">
</g>
<g id="_x33_8">
</g>
<g id="_x33_9">
</g>
<g id="_x34_0">
</g>
<g id="_x34_1">
</g>
<g id="_x34_2">
</g>
<g id="_x34_3">
</g>
<g id="_x34_4">
</g>
<g id="_x34_5">
</g>
<g id="_x34_6">
</g>
<g id="_x34_7">
</g>
<g id="_x34_8">
</g>
<g id="_x34_9">
</g>
<g id="_x35_0">
</g>
<g id="_x35_1">
</g>
<g id="_x35_2">
</g>
<g id="_x35_3">
</g>
<g id="_x35_4">
</g>
<g id="_x35_5">
</g>
<g id="_x35_6">
</g>
<g id="_x35_7">
</g>
<g id="_x35_8">
</g>
<g id="_x35_9">
</g>
<g id="_x36_0">
</g>
<g id="_x36_1">
</g>
<g id="_x36_2">
</g>
<g id="_x36_3">
</g>
<g id="_x36_4">
</g>
<g id="_x36_5">
</g>
<g id="_x36_6">
</g>
<g id="_x36_7">
</g>
<g id="_x36_8">
</g>
<g id="_x36_9">
</g>
<g id="_x37_0">
</g>
<g id="_x37_1">
</g>
<g id="_x37_2">
</g>
<g id="_x37_3">
</g>
<g id="_x37_4">
</g>
<g id="_x37_5">
</g>
<g id="_x37_6">
</g>
<g id="_x37_7">
</g>
<g id="_x37_8">
</g>
<g id="_x37_9">
</g>
<g id="_x38_0">
</g>
<g id="_x38_1">
</g>
<g id="_x38_2">
</g>
<g id="_x38_3">
</g>
<g id="_x38_4">
</g>
<g id="_x38_5">
</g>
<g id="_x38_6">
</g>
<g id="_x38_7">
</g>
<g id="_x38_8">
</g>
<g id="_x38_9">
</g>
<g id="_x39_0">
</g>
<g id="_x39_1">
</g>
<g id="_x39_2">
</g>
<g id="_x39_3">
</g>
<g id="_x39_4">
</g>
<g id="_x39_5">
</g>
<g id="_x39_6">
</g>
<g id="_x39_7">
</g>
<g id="_x39_8">
</g>
<g id="_x39_9">
</g>
<g id="_x31_00">
</g>
<g id="_x31_01">
</g>
<g id="_x31_02">
</g>
<g id="_x31_03">
</g>
<g id="_x31_04">
</g>
<g id="_x31_05">
</g>
<g id="_x31_06">
</g>
<g id="_x31_07">
</g>
<g id="_x31_08">
</g>
<g id="_x31_09">
</g>
<g id="_x31_10">
</g>
<g id="_x31_11">
</g>
<g id="_x31_12">
</g>
<g id="_x31_13">
</g>
<g id="_x31_14">
</g>
<g id="_x31_15">
</g>
<g id="_x31_16">
</g>
<g id="_x31_17">
</g>
<g id="_x31_18">
</g>
<g id="_x31_19">
</g>
<g id="_x31_20">
</g>
<g id="_x31_21">
</g>
<g id="_x31_22">
</g>
<g id="_x31_23">
</g>
<g id="_x31_24">
</g>
<g id="_x31_25">
</g>
<g id="_x31_26">
</g>
<g id="_x31_27">
</g>
<g id="_x31_28">
</g>
<g id="_x31_29">
</g>
<g id="_x31_30">
</g>
<g id="_x31_31">
</g>
<g id="_x31_32">
</g>
<g id="_x31_33">
</g>
<g id="_x31_34">
</g>
<g id="_x31_35">
</g>
<g id="_x31_36">
</g>
<g id="_x31_37">
</g>
<g id="_x31_38">
</g>
<g id="_x31_39">
</g>
<g id="_x31_40">
</g>
<g id="_x31_41">
</g>
<g id="_x31_42">
</g>
<g id="_x31_43">
</g>
<g id="_x31_44">
</g>
<g id="_x31_45">
</g>
<g id="_x31_46">
</g>
<g id="_x31_47">
</g>
<g id="_x31_48">
</g>
<g id="_x31_49">
</g>
<g id="_x31_50">
</g>
<g id="_x31_51">
</g>
<g id="_x31_52">
</g>
<g id="_x31_53">
</g>
<g id="_x31_54">
</g>
<g id="_x31_55">
</g>
<g id="_x31_56">
</g>
<g id="_x31_57">
</g>
<g id="_x31_58">
</g>
<g id="_x31_59">
</g>
<g id="_x31_60">
</g>
<g id="_x31_61">
</g>
<g id="_x31_62">
</g>
<g id="_x31_63">
</g>
<g id="_x31_64">
</g>
<g id="_x31_65">
</g>
<g id="_x31_66">
</g>
<g id="_x31_67">
</g>
<g id="_x31_68">
</g>
<g id="_x31_69">
</g>
<g id="_x31_70">
</g>
<g id="_x31_71">
</g>
<g id="_x31_72">
</g>
<g id="_x31_73">
</g>
<g id="_x31_74">
</g>
<g id="_x31_75">
</g>
<g id="_x31_76">
</g>
<g id="_x31_77">
</g>
<g id="_x31_78">
</g>
<g id="_x31_79">
</g>
<g id="_x31_80">
</g>
<g id="_x31_81">
</g>
<g id="_x31_82">
</g>
<g id="_x31_83">
</g>
<g id="_x31_84">
</g>
<g id="_x31_85">
</g>
<g id="_x31_86">
</g>
<g id="_x31_87">
</g>
<g id="_x31_88">
</g>
<g id="_x31_89">
</g>
<g id="_x31_90">
</g>
</svg>
