<?xml version="1.0" encoding="utf-8"?>
<!-- Generator: Adobe Illustrator 16.0.0, SVG Export Plug-In . SVG Version: 6.00 Build 0)  -->
<!DOCTYPE svg PUBLIC "-//W3C//DTD SVG 1.1//EN" "http://www.w3.org/Graphics/SVG/1.1/DTD/svg11.dtd">
<svg version="1.1" xmlns="http://www.w3.org/2000/svg" xmlns:xlink="http://www.w3.org/1999/xlink" x="0px" y="0px" width="50px"
	 height="50px" viewBox="0 0 50 50" enable-background="new 0 0 50 50" xml:space="preserve">
<g id="text">
</g>
<g id="_x31_">
</g>
<g id="_x32_">
	<g>
		<path d="M35.91,22.616c-0.003-0.039-0.004-0.078-0.008-0.116c-0.033-1.48-0.291-2.676-1.455-3.169
			c-1.23-0.521-2.314-0.528-3.109-0.219c-0.052,0.021-0.187,0.2-0.24,0.233c-0.053,0.033-0.332-0.06-0.437-0.035
			c-1.745,0.249-2.321,1.893-2.194,3.175c0.417,0.728,0.548,1.646,0.588,2.595c0.65,1.135,1.766,2.005,3.097,2.005
			c1.78,0,3.188-1.502,3.628-3.137c0.167-0.019,0.306-0.146,0.32-0.32l0.055-0.646C36.169,22.814,36.063,22.669,35.91,22.616z
			 M32.151,26.585c-1.837,0-3.209-1.945-3.209-3.685c0-0.082,0.006-0.162,0.012-0.242c0.765-0.28,2.235-0.865,2.395-1.173
			c0.668,0.694,3.029,1.084,4.066,1.215c0.005,0.066,0.011,0.133,0.011,0.2C35.424,24.604,33.994,26.585,32.151,26.585z"/>
		<path d="M12.266,22.968l0.055,0.646c0.016,0.182,0.166,0.314,0.344,0.323c0.429,1.639,1.814,3.148,3.569,3.148
			c1.377,0,2.525-0.902,3.181-2.065c-0.014-0.813,0.2-1.648,0.664-2.339c-0.029-0.021-0.05-0.052-0.085-0.064
			c-0.003-0.039-0.004-0.078-0.008-0.116c-0.033-1.48-0.291-2.676-1.455-3.169c-1.23-0.521-2.314-0.528-3.109-0.219
			c-0.052,0.021-0.187,0.2-0.24,0.233c-0.053,0.033-0.332-0.06-0.437-0.035c-1.745,0.249-2.321,1.894-2.194,3.176
			c-0.004,0.036-0.006,0.072-0.009,0.108C12.371,22.636,12.25,22.79,12.266,22.968z M13.036,22.658
			c0.765-0.28,2.235-0.865,2.395-1.173c0.668,0.694,3.029,1.084,4.066,1.215c0.005,0.066,0.011,0.133,0.011,0.2
			c0,1.704-1.43,3.685-3.273,3.685c-1.837,0-3.209-1.945-3.209-3.685C13.024,22.818,13.03,22.738,13.036,22.658z"/>
		<path d="M21.646,11.311c0.261,0.997,1.103,1.915,2.171,1.915c1.083,0,1.938-0.914,2.207-1.908
			c0.102-0.012,0.186-0.089,0.195-0.195l0.033-0.393c0.009-0.103-0.056-0.191-0.148-0.223c-0.002-0.023-0.002-0.047-0.005-0.07
			c-0.02-0.9-0.177-1.627-0.885-1.928c-0.749-0.317-1.408-0.322-1.892-0.133c-0.032,0.013-0.114,0.122-0.146,0.142
			c-0.032,0.02-0.202-0.036-0.266-0.021c-1.061,0.151-1.411,1.151-1.334,1.932c-0.003,0.021-0.004,0.044-0.006,0.066
			c-0.103,0.025-0.176,0.119-0.167,0.227l0.034,0.393C21.446,11.226,21.538,11.306,21.646,11.311z M21.872,10.533
			c0.465-0.17,1.359-0.526,1.457-0.714c0.406,0.422,1.842,0.66,2.473,0.739c0.002,0.041,0.006,0.081,0.006,0.122
			c0,1.036-0.87,2.241-1.991,2.241c-1.118,0-1.952-1.183-1.952-2.241C21.865,10.631,21.868,10.582,21.872,10.533z"/>
		<path d="M16.794,11.239c-1.474,0.21-1.96,1.599-1.853,2.683c-0.003,0.03-0.005,0.061-0.008,0.091
			c-0.143,0.035-0.245,0.165-0.231,0.315l0.047,0.546c0.013,0.154,0.14,0.265,0.29,0.272c0.363,1.384,1.532,2.659,3.015,2.659
			c1.503,0,2.692-1.269,3.064-2.649c0.141-0.016,0.258-0.124,0.271-0.271l0.046-0.545c0.012-0.143-0.078-0.265-0.206-0.31
			c-0.003-0.032-0.003-0.065-0.007-0.098c-0.028-1.25-0.246-2.26-1.229-2.677c-1.039-0.44-1.955-0.446-2.626-0.185
			c-0.044,0.018-0.158,0.169-0.203,0.197C17.119,11.296,16.884,11.218,16.794,11.239z M17.375,13.076
			c0.564,0.586,2.558,0.916,3.434,1.026c0.004,0.056,0.009,0.112,0.009,0.169c0,1.439-1.208,3.112-2.765,3.112
			c-1.552,0-2.71-1.643-2.71-3.112c0-0.069,0.005-0.137,0.01-0.204C15.999,13.831,17.24,13.336,17.375,13.076z"/>
		<path d="M26.589,15.147c0.363,1.384,1.532,2.659,3.015,2.659c1.503,0,2.692-1.269,3.064-2.649
			c0.097-0.011,0.168-0.075,0.216-0.156l0.074-0.008c0.017-0.002,0.047-0.013,0.05-0.043l0.046-0.544
			c0.003-0.037-0.035-0.051-0.039-0.052l-0.031-0.011c0.012-0.143-0.078-0.265-0.206-0.31c-0.003-0.032-0.003-0.065-0.007-0.098
			c-0.028-1.25-0.246-2.26-1.229-2.677c-1.039-0.44-1.955-0.446-2.626-0.185c-0.044,0.018-0.158,0.169-0.203,0.197
			c-0.044,0.027-0.28-0.05-0.369-0.029c-1.474,0.21-1.96,1.599-1.853,2.683c-0.003,0.03-0.005,0.061-0.008,0.091
			c-0.143,0.035-0.245,0.165-0.231,0.315l0.047,0.546C26.313,15.028,26.439,15.14,26.589,15.147z M26.903,14.067
			c0.646-0.236,1.887-0.731,2.022-0.991c0.564,0.586,2.558,0.916,3.434,1.026c0.004,0.056,0.009,0.112,0.009,0.169
			c0,1.439-1.208,3.112-2.765,3.112c-1.552,0-2.71-1.643-2.71-3.112C26.894,14.202,26.898,14.134,26.903,14.067z"/>
		<path d="M21.32,15.357c-0.173,0.561-0.49,1.111-0.907,1.572l3.395,0.002v-0.006l3.468-0.002c-0.408-0.459-0.717-1.008-0.887-1.567
			c-0.187-0.076-0.32-0.249-0.338-0.459l-0.047-0.546c-0.018-0.201,0.076-0.388,0.236-0.498c-0.017-0.192-0.009-0.39,0.011-0.588
			c-0.202-0.208-0.438-0.355-0.723-0.396c-0.056-0.009-0.111,0.004-0.147,0.019l-0.894,1.209l-0.679-0.541l-0.004,0.003v0.003
			l-0.001-0.001l-0.678,0.541l-0.894-1.209c-0.036-0.014-0.091-0.027-0.146-0.018c-0.256,0.036-0.471,0.161-0.66,0.335
			c0.024,0.223,0.04,0.448,0.046,0.671c0.146,0.112,0.229,0.292,0.213,0.481l-0.046,0.544C21.62,15.109,21.497,15.276,21.32,15.357z
			"/>
		<path d="M35.71,24.389c-0.262,0.669-0.695,1.294-1.246,1.756C35.024,25.677,35.455,25.05,35.71,24.389z"/>
		<path d="M15.027,19.084c0.019,0.003,0.037,0.007,0.054,0.01c0.007-0.008,0.014-0.016,0.022-0.025
			c0.089-0.098,0.147-0.159,0.226-0.19c0.45-0.175,0.959-0.242,1.5-0.212l-0.978-1.323c-0.05-0.02-0.126-0.037-0.203-0.025
			c-0.917,0.129-1.495,1.018-1.862,2.051c0.271-0.142,0.569-0.257,0.922-0.308l0.081-0.007
			C14.855,19.056,14.944,19.07,15.027,19.084z"/>
		<path d="M19.32,26.008l0.068,0.795c0.019,0.224,0.204,0.387,0.423,0.397c0.528,2.017,2.232,3.875,4.392,3.875
			c2.191,0,3.923-1.849,4.464-3.86c0.206-0.024,0.376-0.181,0.395-0.395l0.068-0.794c0.018-0.207-0.113-0.386-0.301-0.45
			c-0.004-0.047-0.005-0.096-0.01-0.143c-0.04-1.821-0.357-3.293-1.791-3.9c-1.514-0.641-2.848-0.65-3.826-0.27
			c-0.064,0.025-0.23,0.246-0.295,0.287c-0.065,0.04-0.408-0.073-0.538-0.042c-2.147,0.306-2.856,2.33-2.7,3.908
			c-0.004,0.044-0.008,0.088-0.011,0.133C19.449,25.599,19.3,25.788,19.32,26.008z M20.268,25.626
			c0.94-0.344,2.75-1.064,2.946-1.443c0.823,0.854,3.728,1.334,5.003,1.495c0.006,0.082,0.013,0.164,0.013,0.246
			c0,2.097-1.76,4.535-4.028,4.535c-2.261,0-3.949-2.394-3.949-4.535C20.253,25.823,20.261,25.725,20.268,25.626z"/>
		<path d="M18.984,19.015l-0.942-0.751l-0.006,0.005v0.005l-0.001-0.001l-0.604,0.481c0.392,0.073,0.791,0.176,1.196,0.348
			c1.344,0.569,1.57,1.998,1.605,3.335c0.476-0.594,1.158-1.043,2.1-1.178l0.091-0.008c0.079,0,0.185,0.017,0.284,0.035
			c0.018,0.003,0.034,0.006,0.051,0.009c-0.245-1.585-0.849-3.776-2.331-3.985c-0.078-0.012-0.154,0.005-0.204,0.026L18.984,19.015z
			"/>
		<path d="M31.979,17.31c-0.078-0.012-0.154,0.005-0.204,0.026l-1.241,1.68l-0.942-0.751l-0.006,0.005v0.005l-0.001-0.001
			l-0.942,0.751l-1.242-1.68c-0.05-0.02-0.126-0.037-0.203-0.025c-1.321,0.186-1.946,1.949-2.239,3.453
			c0.692,0.042,1.425,0.217,2.166,0.53c0.463,0.196,0.813,0.474,1.083,0.808c-0.009-1.34,0.704-2.802,2.417-3.047l0.081-0.007
			c0.066,0,0.155,0.014,0.239,0.029c0.019,0.003,0.037,0.007,0.054,0.01c0.007-0.008,0.014-0.016,0.022-0.025
			c0.089-0.098,0.147-0.159,0.226-0.19c0.683-0.266,1.503-0.29,2.365-0.083C33.244,18.02,32.722,17.415,31.979,17.31z"/>
		<path d="M24.184,38.558l7.115-0.005c0,0-0.217-7.72-3.635-8.201c-0.113-0.018-0.224,0.008-0.296,0.037l-1.809,2.447l-1.373-1.095
			l-0.008,0.007v0.007l-0.002-0.002l-1.373,1.095l-1.809-2.448c-0.072-0.029-0.183-0.054-0.296-0.037
			c-3.418,0.481-3.635,8.201-3.635,8.201l7.12,0.004V38.558z"/>
		<path d="M32.135,33.167l5.782-0.004c0,0-0.176-6.273-2.954-6.665c-0.092-0.014-0.182,0.006-0.241,0.03l-1.47,1.989l-1.115-0.89
			l-0.007,0.006v0.006l-0.001-0.002l-1.115,0.89l-1.47-1.989c-0.05-0.02-0.128-0.029-0.205-0.025l-0.028,0.328
			c-0.022,0.268-0.196,0.488-0.442,0.58c-0.351,1.178-1.132,2.339-2.197,3.087c-0.037,0.182-0.069,0.36-0.098,0.535l0.635-0.859
			l0.065-0.027c0.071-0.029,0.243-0.082,0.428-0.052c1.424,0.201,2.317,1.528,2.883,3.071l1.55,0.001V33.167z"/>
		<path d="M10.432,33.173l5.786,0.003v-0.01l1.567-0.001c0.567-1.534,1.459-2.85,2.878-3.049c0.168-0.024,0.352,0.023,0.423,0.052
			l0.066,0.026l0.622,0.841c-0.033-0.201-0.07-0.406-0.114-0.617c-0.989-0.75-1.717-1.866-2.05-3.003
			c-0.26-0.083-0.448-0.311-0.472-0.592l-0.026-0.307c-0.023-0.004-0.042-0.015-0.066-0.019c-0.092-0.014-0.182,0.006-0.241,0.03
			l-1.47,1.989l-1.115-0.89l-0.007,0.006v0.006l-0.001-0.002l-1.115,0.89l-1.47-1.989c-0.059-0.023-0.149-0.044-0.241-0.029
			C10.608,26.899,10.432,33.173,10.432,33.173z"/>
		<path d="M40.071,7.509l2.582-3.898l-9.471,1.197l2.92,8.694l2.286-3.452c3.682,3.526,5.987,8.475,5.987,13.964
			c0,10.684-8.691,19.375-19.375,19.375S5.625,34.698,5.625,24.014c0-7.925,4.787-14.744,11.617-17.742l-2.257-2.257
			c-7.321,3.682-12.36,11.261-12.36,20c0,12.337,10.038,22.375,22.375,22.375s22.375-10.038,22.375-22.375
			C47.375,17.481,44.552,11.603,40.071,7.509z"/>
	</g>
</g>
<g id="_x33__1_">
</g>
<g id="_x34_">
</g>
<g id="_x35_">
</g>
<g id="_x36_">
</g>
<g id="_x37_">
</g>
<g id="_x38_">
</g>
<g id="_x39_">
</g>
<g id="_x31_0">
</g>
<g id="_x31_1">
</g>
<g id="_x31_2">
</g>
<g id="_x31_3">
</g>
<g id="_x31_4">
</g>
<g id="_x31_5">
</g>
<g id="_x31_6">
</g>
<g id="_x31_7">
</g>
<g id="_x31_8">
</g>
<g id="_x31_9">
</g>
<g id="_x32_0">
</g>
<g id="_x32_1">
</g>
<g id="_x32_2">
</g>
<g id="_x32_3">
</g>
<g id="_x32_4">
</g>
<g id="_x32_5">
</g>
<g id="_x32_6">
</g>
<g id="_x32_7">
</g>
<g id="_x32_8">
</g>
<g id="_x32_9">
</g>
<g id="_x33_0">
</g>
<g id="_x33_1">
</g>
<g id="_x33_2">
</g>
<g id="_x33_3">
</g>
<g id="_x33_4">
</g>
<g id="_x33_5">
</g>
<g id="_x33_6">
</g>
<g id="_x33_7">
</g>
<g id="_x33_8">
</g>
<g id="_x33_9">
</g>
<g id="_x34_0">
</g>
<g id="_x34_1">
</g>
<g id="_x34_2">
</g>
<g id="_x34_3">
</g>
<g id="_x34_4">
</g>
<g id="_x34_5">
</g>
<g id="_x34_6">
</g>
<g id="_x34_7">
</g>
<g id="_x34_8">
</g>
<g id="_x34_9">
</g>
<g id="_x35_0">
</g>
<g id="_x35_1">
</g>
<g id="_x35_2">
</g>
<g id="_x35_3">
</g>
<g id="_x35_4">
</g>
<g id="_x35_5">
</g>
<g id="_x35_6">
</g>
<g id="_x35_7">
</g>
<g id="_x35_8">
</g>
<g id="_x35_9">
</g>
<g id="_x36_0">
</g>
<g id="_x36_1">
</g>
<g id="_x36_2">
</g>
<g id="_x36_3">
</g>
<g id="_x36_4">
</g>
<g id="_x36_5">
</g>
<g id="_x36_6">
</g>
<g id="_x36_7">
</g>
<g id="_x36_8">
</g>
<g id="_x36_9">
</g>
<g id="_x37_0">
</g>
<g id="_x37_1">
</g>
<g id="_x37_2">
</g>
<g id="_x37_3">
</g>
<g id="_x37_4">
</g>
<g id="_x37_5">
</g>
<g id="_x37_6">
</g>
<g id="_x37_7">
</g>
<g id="_x37_8">
</g>
<g id="_x37_9">
</g>
<g id="_x38_0">
</g>
<g id="_x38_1">
</g>
<g id="_x38_2">
</g>
<g id="_x38_3">
</g>
<g id="_x38_4">
</g>
<g id="_x38_5">
</g>
<g id="_x38_6">
</g>
<g id="_x38_7">
</g>
<g id="_x38_8">
</g>
<g id="_x38_9">
</g>
<g id="_x39_0">
</g>
<g id="_x39_1">
</g>
<g id="_x39_2">
</g>
<g id="_x39_3">
</g>
<g id="_x39_4">
</g>
<g id="_x39_5">
</g>
<g id="_x39_6">
</g>
<g id="_x39_7">
</g>
<g id="_x39_8">
</g>
<g id="_x39_9">
</g>
<g id="_x31_00">
</g>
<g id="_x31_01">
</g>
<g id="_x31_02">
</g>
<g id="_x31_03">
</g>
<g id="_x31_04">
</g>
<g id="_x31_05">
</g>
<g id="_x31_06">
</g>
<g id="_x31_07">
</g>
<g id="_x31_08">
</g>
<g id="_x31_09">
</g>
<g id="_x31_10">
</g>
<g id="_x31_11">
</g>
<g id="_x31_12">
</g>
<g id="_x31_13">
</g>
<g id="_x31_14">
</g>
<g id="_x31_15">
</g>
<g id="_x31_16">
</g>
<g id="_x31_17">
</g>
<g id="_x31_18">
</g>
<g id="_x31_19">
</g>
<g id="_x31_20">
</g>
<g id="_x31_21">
</g>
<g id="_x31_22">
</g>
<g id="_x31_23">
</g>
<g id="_x31_24">
</g>
<g id="_x31_25">
</g>
<g id="_x31_26">
</g>
<g id="_x31_27">
</g>
<g id="_x31_28">
</g>
<g id="_x31_29">
</g>
<g id="_x31_30">
</g>
<g id="_x31_31">
</g>
<g id="_x31_32">
</g>
<g id="_x31_33">
</g>
<g id="_x31_34">
</g>
<g id="_x31_35">
</g>
<g id="_x31_36">
</g>
<g id="_x31_37">
</g>
<g id="_x31_38">
</g>
<g id="_x31_39">
</g>
<g id="_x31_40">
</g>
<g id="_x31_41">
</g>
<g id="_x31_42">
</g>
<g id="_x31_43">
</g>
<g id="_x31_44">
</g>
<g id="_x31_45">
</g>
<g id="_x31_46">
</g>
<g id="_x31_47">
</g>
<g id="_x31_48">
</g>
<g id="_x31_49">
</g>
<g id="_x31_50">
</g>
<g id="_x31_51">
</g>
<g id="_x31_52">
</g>
<g id="_x31_53">
</g>
<g id="_x31_54">
</g>
<g id="_x31_55">
</g>
<g id="_x31_56">
</g>
<g id="_x31_57">
</g>
<g id="_x31_58">
</g>
<g id="_x31_59">
</g>
<g id="_x31_60">
</g>
<g id="_x31_61">
</g>
<g id="_x31_62">
</g>
<g id="_x31_63">
</g>
<g id="_x31_64">
</g>
<g id="_x31_65">
</g>
<g id="_x31_66">
</g>
<g id="_x31_67">
</g>
<g id="_x31_68">
</g>
<g id="_x31_69">
</g>
<g id="_x31_70">
</g>
<g id="_x31_71">
</g>
<g id="_x31_72">
</g>
<g id="_x31_73">
</g>
<g id="_x31_74">
</g>
<g id="_x31_75">
</g>
<g id="_x31_76">
</g>
<g id="_x31_77">
</g>
<g id="_x31_78">
</g>
<g id="_x31_79">
</g>
<g id="_x31_80">
</g>
<g id="_x31_81">
</g>
<g id="_x31_82">
</g>
<g id="_x31_83">
</g>
<g id="_x31_84">
</g>
<g id="_x31_85">
</g>
<g id="_x31_86">
</g>
<g id="_x31_87">
</g>
<g id="_x31_88">
</g>
<g id="_x31_89">
</g>
<g id="_x31_90">
</g>
</svg>
