<?xml version="1.0" encoding="utf-8"?>
<!-- Generator: Adobe Illustrator 16.0.0, SVG Export Plug-In . SVG Version: 6.00 Build 0)  -->
<!DOCTYPE svg PUBLIC "-//W3C//DTD SVG 1.1//EN" "http://www.w3.org/Graphics/SVG/1.1/DTD/svg11.dtd">
<svg version="1.1" xmlns="http://www.w3.org/2000/svg" xmlns:xlink="http://www.w3.org/1999/xlink" x="0px" y="0px" width="50px"
	 height="50px" viewBox="0 0 50 50" enable-background="new 0 0 50 50" xml:space="preserve">
<g id="text">
</g>
<g id="_x31_">
</g>
<g id="_x32_">
</g>
<g id="_x33__1_">
</g>
<g id="_x34_">
</g>
<g id="_x35_">
</g>
<g id="_x36_">
</g>
<g id="_x37_">
</g>
<g id="_x38_">
</g>
<g id="_x39_">
</g>
<g id="_x31_0">
</g>
<g id="_x31_1">
</g>
<g id="_x31_2">
</g>
<g id="_x31_3">
</g>
<g id="_x31_4">
</g>
<g id="_x31_5">
</g>
<g id="_x31_6">
</g>
<g id="_x31_7">
</g>
<g id="_x31_8">
</g>
<g id="_x31_9">
</g>
<g id="_x32_0">
</g>
<g id="_x32_1">
</g>
<g id="_x32_2">
</g>
<g id="_x32_3">
</g>
<g id="_x32_4">
</g>
<g id="_x32_5">
</g>
<g id="_x32_6">
</g>
<g id="_x32_7">
</g>
<g id="_x32_8">
</g>
<g id="_x32_9">
</g>
<g id="_x33_0">
</g>
<g id="_x33_1">
</g>
<g id="_x33_2">
</g>
<g id="_x33_3">
</g>
<g id="_x33_4">
</g>
<g id="_x33_5">
</g>
<g id="_x33_6">
</g>
<g id="_x33_7">
</g>
<g id="_x33_8">
</g>
<g id="_x33_9">
</g>
<g id="_x34_0">
</g>
<g id="_x34_1">
</g>
<g id="_x34_2">
</g>
<g id="_x34_3">
</g>
<g id="_x34_4">
</g>
<g id="_x34_5">
</g>
<g id="_x34_6">
</g>
<g id="_x34_7">
</g>
<g id="_x34_8">
</g>
<g id="_x34_9">
</g>
<g id="_x35_0">
</g>
<g id="_x35_1">
</g>
<g id="_x35_2">
</g>
<g id="_x35_3">
</g>
<g id="_x35_4">
</g>
<g id="_x35_5">
</g>
<g id="_x35_6">
</g>
<g id="_x35_7">
</g>
<g id="_x35_8">
</g>
<g id="_x35_9">
</g>
<g id="_x36_0">
</g>
<g id="_x36_1">
</g>
<g id="_x36_2">
</g>
<g id="_x36_3">
</g>
<g id="_x36_4">
</g>
<g id="_x36_5">
	<path d="M24.396,39.72c-4.069,0-8.137,0-12.206,0c-0.806,0-0.806,1.25,0,1.25c4.069,0,8.137,0,12.206,0
		C25.202,40.97,25.202,39.72,24.396,39.72z"/>
	<g>
		<path d="M13.815,11.74c2.605,0,5.21,0,7.815,0c0.806,0,0.806-1.25,0-1.25c-2.605,0-5.21,0-7.815,0
			C13.009,10.49,13.009,11.74,13.815,11.74z"/>
		<path d="M24.396,35.24c-4.069,0-8.137,0-12.206,0c-0.806,0-0.806,1.25,0,1.25c4.069,0,8.137,0,12.206,0
			C25.202,36.49,25.202,35.24,24.396,35.24z"/>
		<path d="M29.5,35.543c-0.307,0-0.613,0-0.919,0c-1.451,0-1.451,2.25,0,2.25c0.307,0,0.613,0,0.919,0
			C30.951,37.793,30.951,35.543,29.5,35.543z"/>
		<path d="M33.021,35.543c-0.307,0-0.613,0-0.919,0c-1.451,0-1.451,2.25,0,2.25c0.307,0,0.613,0,0.919,0
			C34.472,37.793,34.472,35.543,33.021,35.543z"/>
		<path d="M36.688,35.543c-0.307,0-0.613,0-0.919,0c-1.451,0-1.451,2.25,0,2.25c0.307,0,0.613,0,0.919,0
			C38.139,37.793,38.139,35.543,36.688,35.543z"/>
		<path d="M29.427,38.522c-0.307,0-0.613,0-0.919,0c-1.451,0-1.451,2.25,0,2.25c0.307,0,0.613,0,0.919,0
			C30.878,40.772,30.878,38.522,29.427,38.522z"/>
		<path d="M32.947,38.522c-0.307,0-0.613,0-0.919,0c-1.451,0-1.451,2.25,0,2.25c0.307,0,0.613,0,0.919,0
			C34.398,40.772,34.398,38.522,32.947,38.522z"/>
		<path d="M36.614,38.522c-0.307,0-0.613,0-0.919,0c-1.451,0-1.451,2.25,0,2.25c0.307,0,0.613,0,0.919,0
			C38.065,40.772,38.065,38.522,36.614,38.522z"/>
		<path d="M24.396,37.532c-4.069,0-8.137,0-12.206,0c-0.806,0-0.806,1.25,0,1.25c4.069,0,8.137,0,12.206,0
			C25.202,38.782,25.202,37.532,24.396,37.532z"/>
		<path d="M29.44,11.74c2.605,0,5.21,0,7.815,0c0.806,0,0.806-1.25,0-1.25c-2.605,0-5.21,0-7.815,0
			C28.634,10.49,28.634,11.74,29.44,11.74z"/>
		<path d="M34.818,14.532c0.806,0,0.806-1.25,0-1.25c-1.688,0-3.377,0-5.065,0c-0.806,0-0.806,1.25,0,1.25
			C31.441,14.532,33.129,14.532,34.818,14.532z"/>
		<path d="M29.16,28.136c0.164,0.527,0.905,0.693,1.183,0.159c0.359-0.69,0.718-1.38,1.076-2.071
			c0.238,0.658,0.477,1.316,0.714,1.975c0.102,0.282,0.316,0.492,0.624,0.492c2.024,0,1.047,0,3.071,0c0.834,0,0.834-1.341,0-1.341
			c-1.75,0-0.5,0-2.25,0c-0.228,0-0.362,0.033-0.442,0.073c0.006-0.12-0.023-0.325-0.145-0.661
			c-0.282-0.776-0.563-1.554-0.844-2.331c-0.184-0.508-0.895-0.712-1.183-0.159c-0.344,0.661-0.688,1.322-1.031,1.983
			c-0.566-1.822-1.132-3.643-1.698-5.464c-0.207-0.664-1.022-0.611-1.248,0c-0.604,1.634-1.207,6.268-1.81,7.901
			c-0.62-2.931-1.241-8.863-1.86-11.794c-0.139-0.657-1.09-0.625-1.248,0c-0.763,3.032-1.524,6.063-2.286,9.096
			c-0.43-0.914-0.859-1.828-1.289-2.742c-0.271-0.577-1-0.326-1.183,0.159c-0.435,1.157-0.869,2.315-1.303,3.474
			c-0.085,0.228-0.148,0.368-0.195,0.465c-0.635,0-1.271,0-1.906,0c-0.835,0-0.835,1.341,0,1.341c0.789,0,1.577,0,2.366,0
			c0.311,0,0.518-0.21,0.624-0.492c0.368-0.981,0.736-1.961,1.104-2.942c0.469,1,0.939,1.999,1.409,2.998
			c0.25,0.532,1.048,0.375,1.183-0.16c0.682-2.714,1.364-5.429,2.047-8.144c0.582,2.749,1.163,8.498,1.744,11.248
			c0.149,0.706,1.038,0.568,1.248,0c0.642-1.739,1.284-6.479,1.926-8.217C28.092,24.699,28.625,26.417,29.16,28.136z"/>
		<path d="M35.422,3.468V1.52H15.558v1.948H5.792V48.48h38.417V3.468H35.422z M41.208,45.48H8.792V6.468h6.766v1.385h19.865V6.468
			h5.786V45.48z"/>
	</g>
</g>
<g id="_x36_6">
</g>
<g id="_x36_7">
</g>
<g id="_x36_8">
</g>
<g id="_x36_9">
</g>
<g id="_x37_0">
</g>
<g id="_x37_1">
</g>
<g id="_x37_2">
</g>
<g id="_x37_3">
</g>
<g id="_x37_4">
</g>
<g id="_x37_5">
</g>
<g id="_x37_6">
</g>
<g id="_x37_7">
</g>
<g id="_x37_8">
</g>
<g id="_x37_9">
</g>
<g id="_x38_0">
</g>
<g id="_x38_1">
</g>
<g id="_x38_2">
</g>
<g id="_x38_3">
</g>
<g id="_x38_4">
</g>
<g id="_x38_5">
</g>
<g id="_x38_6">
</g>
<g id="_x38_7">
</g>
<g id="_x38_8">
</g>
<g id="_x38_9">
</g>
<g id="_x39_0">
</g>
<g id="_x39_1">
</g>
<g id="_x39_2">
</g>
<g id="_x39_3">
</g>
<g id="_x39_4">
</g>
<g id="_x39_5">
</g>
<g id="_x39_6">
</g>
<g id="_x39_7">
</g>
<g id="_x39_8">
</g>
<g id="_x39_9">
</g>
<g id="_x31_00">
</g>
<g id="_x31_01">
</g>
<g id="_x31_02">
</g>
<g id="_x31_03">
</g>
<g id="_x31_04">
</g>
<g id="_x31_05">
</g>
<g id="_x31_06">
</g>
<g id="_x31_07">
</g>
<g id="_x31_08">
</g>
<g id="_x31_09">
</g>
<g id="_x31_10">
</g>
<g id="_x31_11">
</g>
<g id="_x31_12">
</g>
<g id="_x31_13">
</g>
<g id="_x31_14">
</g>
<g id="_x31_15">
</g>
<g id="_x31_16">
</g>
<g id="_x31_17">
</g>
<g id="_x31_18">
</g>
<g id="_x31_19">
</g>
<g id="_x31_20">
</g>
<g id="_x31_21">
</g>
<g id="_x31_22">
</g>
<g id="_x31_23">
</g>
<g id="_x31_24">
</g>
<g id="_x31_25">
</g>
<g id="_x31_26">
</g>
<g id="_x31_27">
</g>
<g id="_x31_28">
</g>
<g id="_x31_29">
</g>
<g id="_x31_30">
</g>
<g id="_x31_31">
</g>
<g id="_x31_32">
</g>
<g id="_x31_33">
</g>
<g id="_x31_34">
</g>
<g id="_x31_35">
</g>
<g id="_x31_36">
</g>
<g id="_x31_37">
</g>
<g id="_x31_38">
</g>
<g id="_x31_39">
</g>
<g id="_x31_40">
</g>
<g id="_x31_41">
</g>
<g id="_x31_42">
</g>
<g id="_x31_43">
</g>
<g id="_x31_44">
</g>
<g id="_x31_45">
</g>
<g id="_x31_46">
</g>
<g id="_x31_47">
</g>
<g id="_x31_48">
</g>
<g id="_x31_49">
</g>
<g id="_x31_50">
</g>
<g id="_x31_51">
</g>
<g id="_x31_52">
</g>
<g id="_x31_53">
</g>
<g id="_x31_54">
</g>
<g id="_x31_55">
</g>
<g id="_x31_56">
</g>
<g id="_x31_57">
</g>
<g id="_x31_58">
</g>
<g id="_x31_59">
</g>
<g id="_x31_60">
</g>
<g id="_x31_61">
</g>
<g id="_x31_62">
</g>
<g id="_x31_63">
</g>
<g id="_x31_64">
</g>
<g id="_x31_65">
</g>
<g id="_x31_66">
</g>
<g id="_x31_67">
</g>
<g id="_x31_68">
</g>
<g id="_x31_69">
</g>
<g id="_x31_70">
</g>
<g id="_x31_71">
</g>
<g id="_x31_72">
</g>
<g id="_x31_73">
</g>
<g id="_x31_74">
</g>
<g id="_x31_75">
</g>
<g id="_x31_76">
</g>
<g id="_x31_77">
</g>
<g id="_x31_78">
</g>
<g id="_x31_79">
</g>
<g id="_x31_80">
</g>
<g id="_x31_81">
</g>
<g id="_x31_82">
</g>
<g id="_x31_83">
</g>
<g id="_x31_84">
</g>
<g id="_x31_85">
</g>
<g id="_x31_86">
</g>
<g id="_x31_87">
</g>
<g id="_x31_88">
</g>
<g id="_x31_89">
</g>
<g id="_x31_90">
</g>
</svg>
