<?xml version="1.0" encoding="utf-8"?>
<!-- Generator: Adobe Illustrator 16.0.0, SVG Export Plug-In . SVG Version: 6.00 Build 0)  -->
<!DOCTYPE svg PUBLIC "-//W3C//DTD SVG 1.1//EN" "http://www.w3.org/Graphics/SVG/1.1/DTD/svg11.dtd">
<svg version="1.1" xmlns="http://www.w3.org/2000/svg" xmlns:xlink="http://www.w3.org/1999/xlink" x="0px" y="0px" width="50px"
	 height="50px" viewBox="0 0 50 50" enable-background="new 0 0 50 50" xml:space="preserve">
<g id="text">
</g>
<g id="_x31_">
</g>
<g id="_x32_">
</g>
<g id="_x33__1_">
</g>
<g id="_x34_">
</g>
<g id="_x35_">
</g>
<g id="_x36_">
</g>
<g id="_x37_">
</g>
<g id="_x38_">
</g>
<g id="_x39_">
</g>
<g id="_x31_0">
</g>
<g id="_x31_1">
</g>
<g id="_x31_2">
</g>
<g id="_x31_3">
</g>
<g id="_x31_4">
</g>
<g id="_x31_5">
</g>
<g id="_x31_6">
</g>
<g id="_x31_7">
</g>
<g id="_x31_8">
</g>
<g id="_x31_9">
</g>
<g id="_x32_0">
</g>
<g id="_x32_1">
</g>
<g id="_x32_2">
</g>
<g id="_x32_3">
</g>
<g id="_x32_4">
</g>
<g id="_x32_5">
	<g>
		<path d="M24.929,18.871c-7.049,0.316-12.217,5.482-12.531,12.531c-0.317,7.04,5.955,12.235,12.531,12.531
			c7.039,0.315,12.234-5.955,12.529-12.531C37.774,24.36,31.503,19.166,24.929,18.871z M29.929,22.335
			c0.207-0.1,1.041,0.338,1.746,1.08c-0.477,1.765-1.588,1.555-1.588,1.555s-0.814-0.02-0.71-0.708l0.848-0.567
			C30.225,23.694,29.868,22.782,29.929,22.335z M22.241,34.685c-0.053,0.265-0.371,0.901-0.582,1.324
			c-0.211,0.424-0.317,0.583-0.584,0.795c-0.265,0.215-0.424,0.584-0.424,0.584l-0.051,0.9c0,0,0.104,0.742,0.262,1.009
			c0.157,0.264-0.568,1.842-0.568,1.842c-0.459-0.091-0.716-0.625-0.877-1.046c-0.158-0.426-0.369-0.651-0.316-1.128
			c0.053-0.476-0.412-0.728-0.568-0.993c-0.158-0.268-0.371-0.637-0.371-0.901c0-0.266-0.584-0.638-0.584-0.638
			s-1.061-0.477-1.217-0.688c-0.161-0.212-0.32-1.115-0.373-1.485c-0.053-0.37,0.158-1.323,0.158-1.323s0.429-0.321,0.158-0.583
			c-0.264-0.265-0.316-0.956-0.316-0.956l-0.479-0.529c0,0-0.369-0.53-0.422-0.796c-0.053-0.263,0-0.423,0.053-0.689
			c0.051-0.266-0.105-0.742-0.105-1.006c1.979-4.855,5.298-5.988,5.298-5.988l0.269,1.11c0,0-0.584,0.16-0.901,0.055
			c-0.317-0.106-0.479-0.106-0.479-0.106l-0.422,0.583c0,0-0.16,0.372-0.215,0.583c-0.051,0.213,0.105,0.529,0.105,0.529
			s0.742,0.053,0.742-0.159c0-0.211-0.104-0.317-0.104-0.317l-0.107-0.372c0,0,0.479-0.265,1.748-0.161
			c1.273,0.107,0.799,1.008,1.328,1.222c0.531,0.211-0.426,0.953-0.637,1.376c-0.211,0.424-0.531-0.53-0.531-0.53
			s0.32-0.367-0.211-0.477c-0.53-0.104-0.881,0.954-0.612,0.903c0.265-0.053,0.56,0.285,0.506,0.549
			c-0.054,0.266-0.054,0.245-0.318,0.826c-0.265,0.584-0.84,1.015-0.84,1.015s-0.271-0.166-0.114,0.152
			c0.161,0.318-0.052,1.06-0.052,1.273c0,0.211-0.637-0.372-0.742-0.903c-0.106-0.527-0.729-0.068-0.94-0.013
			c-0.212,0.053-0.598-0.093-0.701-0.357c-0.107-0.265-1.063,0.53-1.328,0.688c-0.266,0.159-0.156,0.584,0.266,0.372
			c0.422-0.212,0.794-0.053,0.689,0.374c-0.106,0.421-0.53,0.158-0.477,0.421c0.051,0.265,0.477,0.531,0.581,0.903
			c0.106,0.369,1.114,0.053,1.432-0.106c0.317-0.16,1.221-0.318,1.325,0.106c0.108,0.424,1.113,0.581,1.484,0.687
			c0.373,0.106,1.113,0.159,1.538,0.584C23.036,33.624,22.296,34.42,22.241,34.685z M24.626,22.281
			c-0.053,0.531-0.899,1.219-0.794,1.433c0.106,0.213,0,1.12-0.743,0.324c-0.742-0.795-1.485-1.065-1.43-1.598
			c0.012-0.105,0.768-0.272,0.779-0.458c1.124-1.044,2.92-0.83,3.057-0.583C25.174,21.927,24.68,21.751,24.626,22.281z
			 M33.837,25.841c0.717,1.23,1.764,4.511,1.376,5.096c-0.232-0.104-0.427-0.192-0.427-0.192h-1.414l0.846,0.991
			c0,0,0.41,0.601,0.992,0.563c-0.383,4.433-4.082,7.281-4.082,7.281c-0.564-0.567-0.282-1.059-0.282-1.059l0.159-0.851l0.09-1.43
			c0,0,0-1.483-1.416-0.779c-1.518,0.389-0.885,0.389-2.42,0.495c-1.537,0.106-1.283-3.134-1.283-3.134
			c0-4.851,3.721-1.189,3.721-1.189c2.122,1.412,2.404-1.171,2.404-1.171l1.554-0.562l0.142-0.708l-0.225-0.988l-2.259-0.932
			c0,0-0.218,0.734,0.362,1.637c0,0-0.193,1.024-0.67,0.76l-1.309-0.658c0,0-0.441-0.19-1.148,0.235
			c-0.707,0.423-1.906-0.021-1.906-0.021s0.1-0.711,0.842-1.08l0.607-0.402c0,0-0.158-0.726-0.019-1.291
			c0.14-0.565,0.388-0.07,0.952-0.494c0.565-0.423,0.955,0.829,1.803,0.689c0.848-0.142,0.424-0.283,0.991-0.565
			c0.565-0.283,0.988,0.565,0.988,0.565l1.13,0.14C33.937,26.787,33.76,25.51,33.837,25.841z"/>
		<path d="M42.862,24.616v0.438v1.687v3.166h-1.914v-1.492l-2.435,2.095l2.435,1.898v-1.492h1.914v3.532v0.914v0.314h0.314h6.037
			h0.313v-0.314V34.45v-7.708v-1.687v-0.438H42.862z M45.683,27.718h1.026v1.305l-0.247,2.365h-0.531l-0.248-2.365V27.718z
			 M46.763,32.7h-1.135v-0.809h1.135V32.7z"/>
		<path d="M9.05,29.908H7.136v-3.166v-1.687v-0.438H0.472v0.438v1.687v7.708v0.914v0.314h0.314h6.035h0.314v-0.314V34.45v-3.532
			H9.05v1.492l2.436-1.898L9.05,28.416V29.908z M3.29,27.718h1.025v1.305l-0.246,2.365H3.538L3.29,29.022V27.718z M4.372,32.7H3.235
			v-0.809h1.137V32.7z"/>
		<path d="M21.901,12.721h3.166v1.914h-1.491l2.095,2.435l1.898-2.435h-1.492v-1.914h3.533h0.913h0.314v-0.314V6.37V6.056h-0.314
			H29.61h-7.709h-1.687h-0.438v6.665h0.438H21.901z M24.983,6.897h1.025v1.305l-0.248,2.365h-0.531l-0.246-2.365V6.897z
			 M24.927,11.07h1.137v0.768h-1.137V11.07z"/>
	</g>
</g>
<g id="_x32_6">
</g>
<g id="_x32_7">
</g>
<g id="_x32_8">
</g>
<g id="_x32_9">
</g>
<g id="_x33_0">
</g>
<g id="_x33_1">
</g>
<g id="_x33_2">
</g>
<g id="_x33_3">
</g>
<g id="_x33_4">
</g>
<g id="_x33_5">
</g>
<g id="_x33_6">
</g>
<g id="_x33_7">
</g>
<g id="_x33_8">
</g>
<g id="_x33_9">
</g>
<g id="_x34_0">
</g>
<g id="_x34_1">
</g>
<g id="_x34_2">
</g>
<g id="_x34_3">
</g>
<g id="_x34_4">
</g>
<g id="_x34_5">
</g>
<g id="_x34_6">
</g>
<g id="_x34_7">
</g>
<g id="_x34_8">
</g>
<g id="_x34_9">
</g>
<g id="_x35_0">
</g>
<g id="_x35_1">
</g>
<g id="_x35_2">
</g>
<g id="_x35_3">
</g>
<g id="_x35_4">
</g>
<g id="_x35_5">
</g>
<g id="_x35_6">
</g>
<g id="_x35_7">
</g>
<g id="_x35_8">
</g>
<g id="_x35_9">
</g>
<g id="_x36_0">
</g>
<g id="_x36_1">
</g>
<g id="_x36_2">
</g>
<g id="_x36_3">
</g>
<g id="_x36_4">
</g>
<g id="_x36_5">
</g>
<g id="_x36_6">
</g>
<g id="_x36_7">
</g>
<g id="_x36_8">
</g>
<g id="_x36_9">
</g>
<g id="_x37_0">
</g>
<g id="_x37_1">
</g>
<g id="_x37_2">
</g>
<g id="_x37_3">
</g>
<g id="_x37_4">
</g>
<g id="_x37_5">
</g>
<g id="_x37_6">
</g>
<g id="_x37_7">
</g>
<g id="_x37_8">
</g>
<g id="_x37_9">
</g>
<g id="_x38_0">
</g>
<g id="_x38_1">
</g>
<g id="_x38_2">
</g>
<g id="_x38_3">
</g>
<g id="_x38_4">
</g>
<g id="_x38_5">
</g>
<g id="_x38_6">
</g>
<g id="_x38_7">
</g>
<g id="_x38_8">
</g>
<g id="_x38_9">
</g>
<g id="_x39_0">
</g>
<g id="_x39_1">
</g>
<g id="_x39_2">
</g>
<g id="_x39_3">
</g>
<g id="_x39_4">
</g>
<g id="_x39_5">
</g>
<g id="_x39_6">
</g>
<g id="_x39_7">
</g>
<g id="_x39_8">
</g>
<g id="_x39_9">
</g>
<g id="_x31_00">
</g>
<g id="_x31_01">
</g>
<g id="_x31_02">
</g>
<g id="_x31_03">
</g>
<g id="_x31_04">
</g>
<g id="_x31_05">
</g>
<g id="_x31_06">
</g>
<g id="_x31_07">
</g>
<g id="_x31_08">
</g>
<g id="_x31_09">
</g>
<g id="_x31_10">
</g>
<g id="_x31_11">
</g>
<g id="_x31_12">
</g>
<g id="_x31_13">
</g>
<g id="_x31_14">
</g>
<g id="_x31_15">
</g>
<g id="_x31_16">
</g>
<g id="_x31_17">
</g>
<g id="_x31_18">
</g>
<g id="_x31_19">
</g>
<g id="_x31_20">
</g>
<g id="_x31_21">
</g>
<g id="_x31_22">
</g>
<g id="_x31_23">
</g>
<g id="_x31_24">
</g>
<g id="_x31_25">
</g>
<g id="_x31_26">
</g>
<g id="_x31_27">
</g>
<g id="_x31_28">
</g>
<g id="_x31_29">
</g>
<g id="_x31_30">
</g>
<g id="_x31_31">
</g>
<g id="_x31_32">
</g>
<g id="_x31_33">
</g>
<g id="_x31_34">
</g>
<g id="_x31_35">
</g>
<g id="_x31_36">
</g>
<g id="_x31_37">
</g>
<g id="_x31_38">
</g>
<g id="_x31_39">
</g>
<g id="_x31_40">
</g>
<g id="_x31_41">
</g>
<g id="_x31_42">
</g>
<g id="_x31_43">
</g>
<g id="_x31_44">
</g>
<g id="_x31_45">
</g>
<g id="_x31_46">
</g>
<g id="_x31_47">
</g>
<g id="_x31_48">
</g>
<g id="_x31_49">
</g>
<g id="_x31_50">
</g>
<g id="_x31_51">
</g>
<g id="_x31_52">
</g>
<g id="_x31_53">
</g>
<g id="_x31_54">
</g>
<g id="_x31_55">
</g>
<g id="_x31_56">
</g>
<g id="_x31_57">
</g>
<g id="_x31_58">
</g>
<g id="_x31_59">
</g>
<g id="_x31_60">
</g>
<g id="_x31_61">
</g>
<g id="_x31_62">
</g>
<g id="_x31_63">
</g>
<g id="_x31_64">
</g>
<g id="_x31_65">
</g>
<g id="_x31_66">
</g>
<g id="_x31_67">
</g>
<g id="_x31_68">
</g>
<g id="_x31_69">
</g>
<g id="_x31_70">
</g>
<g id="_x31_71">
</g>
<g id="_x31_72">
</g>
<g id="_x31_73">
</g>
<g id="_x31_74">
</g>
<g id="_x31_75">
</g>
<g id="_x31_76">
</g>
<g id="_x31_77">
</g>
<g id="_x31_78">
</g>
<g id="_x31_79">
</g>
<g id="_x31_80">
</g>
<g id="_x31_81">
</g>
<g id="_x31_82">
</g>
<g id="_x31_83">
</g>
<g id="_x31_84">
</g>
<g id="_x31_85">
</g>
<g id="_x31_86">
</g>
<g id="_x31_87">
</g>
<g id="_x31_88">
</g>
<g id="_x31_89">
</g>
<g id="_x31_90">
</g>
</svg>
